# Blender v2.79 (sub 0) OBJ File: ''
# www.blender.org
o surface_top_surface_top_auv
v 18.000000 7.535174 18.000002
v -18.000000 7.535174 18.000002
v 18.000000 7.535180 -17.999998
v -18.000000 7.535180 -17.999998
v 18.000000 10.481496 18.000002
v -18.000000 10.481502 -17.999998
v -18.000000 10.481496 18.000002
v 18.000000 10.481502 -17.999998
vt 0.031506 0.020497
vt 0.020991 0.031012
vt 0.020991 0.009982
vt 0.010476 0.020497
vt 0.000000 1.000000
vt 1.000000 0.000000
vt 1.000000 1.000000
vt 0.000000 0.000000
vt 0.032371 0.019632
vt 0.021856 0.009118
vt 0.009612 0.021362
vt 0.020126 0.031876
vt 0.009612 0.019632
vt 0.020126 0.009118
vt 0.032371 0.021362
vt 0.021856 0.031876
vn 0.0000 -1.0000 -0.0000
vn 0.0000 1.0000 0.0000
vn 1.0000 0.0000 0.0000
vn -1.0000 0.0000 0.0000
vn 0.0000 0.0000 -1.0000
vn 0.0000 0.0000 1.0000
s 1
f 1/1/1 2/2/1 3/3/1
f 3/3/1 2/2/1 4/4/1
f 5/5/2 6/6/2 7/7/2
f 8/8/2 6/6/2 5/5/2
f 3/3/3 5/9/3 1/1/3
f 8/10/3 5/9/3 3/3/3
f 2/2/4 6/11/4 4/4/4
f 7/12/4 6/11/4 2/2/4
f 3/3/5 6/13/5 8/14/5
f 5/15/6 2/2/6 1/1/6
f 4/4/5 6/13/5 3/3/5
f 7/16/6 2/2/6 5/15/6
