# 
# Wavefront OBJ file
# Converted by the DEEP Exploration Deep Exploration 6.5 x64 6.5.0.9182
# Right Hemisphere, LTD
# http://www.righthemisphere.com/
# 
mtllib 134.mtl
# object Mesh1 Group1 Model
g Mesh1_Group1_Model
v -0.20107 -0.00943 0.24375
v 0.19930 0.11627 0.24375
v -0.19981 0.11627 0.24375
v 0.19930 -0.24471 0.24375
v -0.20328 -0.10470 0.24375
v -0.20107 -0.00943 -0.24375
v -0.20328 -0.10470 -0.24375
v 0.19930 -0.24471 -0.24375
v -0.19981 0.11627 -0.24375
v 0.19930 0.11627 -0.24375
v 0.27492 0.11662 -0.24375
v -0.22383 0.11825 -0.24375
v 0.28350 0.11952 -0.24375
v -0.25082 0.12265 -0.24375
v 0.28921 0.12486 -0.24375
v -0.27606 0.12862 -0.24375
v 0.29268 0.13326 -0.24375
v -0.29483 0.13527 -0.24375
v 0.29455 0.14539 -0.24375
v 0.29483 0.15429 -0.24375
v -0.29185 0.15483 -0.24375
v 0.29368 0.16180 -0.24375
v 0.29073 0.16832 -0.24375
v -0.28631 0.16920 -0.24375
v 0.28559 0.17426 -0.24375
v -0.27758 0.17976 -0.24375
v 0.26726 0.18598 -0.24375
v -0.26509 0.18793 -0.24375
v 0.23571 0.20016 -0.24375
v -0.22649 0.20270 -0.24375
v -0.16576 0.22472 -0.24375
v 0.16196 0.23081 -0.24375
v -0.10824 0.24725 -0.24375
v 0.10377 0.25300 -0.24375
v -0.06165 0.26304 -0.24375
v 0.05673 0.26705 -0.24375
v -0.02157 0.27177 -0.24375
v 0.01642 0.27321 -0.24375
v 0.01642 0.27321 0.24375
v -0.02157 0.27177 0.24375
v -0.06165 0.26304 0.24375
v -0.10824 0.24725 0.24375
v -0.16576 0.22472 0.24375
v -0.22649 0.20270 0.24375
v -0.26509 0.18793 0.24375
v -0.27758 0.17976 0.24375
v -0.28631 0.16920 0.24375
v -0.29185 0.15483 0.24375
v -0.29483 0.13527 0.24375
v -0.27606 0.12862 0.24375
v -0.25082 0.12265 0.24375
v -0.22383 0.11825 0.24375
v 0.27492 0.11662 0.24375
v 0.28350 0.11952 0.24375
v 0.28921 0.12486 0.24375
v 0.29268 0.13326 0.24375
v 0.29455 0.14539 0.24375
v 0.29483 0.15429 0.24375
v 0.29368 0.16180 0.24375
v 0.29073 0.16832 0.24375
v 0.28559 0.17426 0.24375
v 0.26726 0.18598 0.24375
v 0.23571 0.20016 0.24375
v 0.16196 0.23081 0.24375
v 0.10377 0.25300 0.24375
v 0.05673 0.26705 0.24375
v 0.24664 0.11549 0.24375
v 0.24664 0.11549 -0.24375
v 0.19898 -0.25221 -0.24375
v 0.19898 -0.25221 0.24375
v -0.19212 -0.25004 0.24375
v -0.20116 -0.22079 0.24375
v -0.20410 -0.17375 0.24375
v -0.20410 -0.17375 -0.24375
v -0.20116 -0.22079 -0.24375
v -0.19212 -0.25004 -0.24375
v -0.17460 -0.26572 -0.24375
v 0.19793 -0.25840 -0.24375
v 0.19793 -0.25840 0.24375
v -0.17460 -0.26572 0.24375
v -0.14628 -0.27204 -0.24375
v -0.14628 -0.27204 0.24375
v -0.10478 -0.27321 -0.24375
v -0.10478 -0.27321 0.24375
v 0.17080 -0.27321 -0.24375
v 0.17080 -0.27321 0.24375
v 0.17831 -0.27289 -0.24375
v 0.17831 -0.27289 0.24375
v 0.18449 -0.27184 -0.24375
v 0.18449 -0.27184 0.24375
v 0.18944 -0.26997 -0.24375
v 0.18944 -0.26997 0.24375
v 0.19326 -0.26717 -0.24375
v 0.19326 -0.26717 0.24375
v 0.19606 -0.26335 0.24375
v 0.19606 -0.26335 -0.24375
# 96 verticies
vt 0.17119 0.05679
vt 0.09506 0.29930
vt 0.09506 0.05756
vt 0.31370 0.29930
vt 0.22890 0.05545
vt 0.16983 0.00000
vt 0.22755 0.29528
vt 0.16983 0.29528
vt 0.22755 0.00000
vt -0.17119 0.05679
vt -0.31370 0.29930
vt -0.22890 0.05545
vt -0.09506 0.05756
vt -0.09506 0.29930
vt -0.09484 0.34510
vt -0.09386 0.04301
vt -0.09309 0.35029
vt -0.09119 0.02666
vt -0.08986 0.35375
vt -0.08758 0.01137
vt -0.08476 0.35585
vt -0.08355 0.00000
vt -0.07742 0.35699
vt -0.07203 0.35716
vt -0.07170 0.00181
vt -0.06748 0.35646
vt -0.06353 0.35467
vt -0.06300 0.00516
vt -0.05993 0.35156
vt -0.05660 0.01045
vt -0.05283 0.34046
vt -0.05165 0.01802
vt -0.04424 0.32135
vt -0.04271 0.04140
vt -0.02937 0.07818
vt -0.02568 0.27668
vt -0.01572 0.11302
vt -0.01224 0.24143
vt -0.00616 0.14124
vt -0.00373 0.21294
vt -0.00087 0.16552
vt 0.00000 0.18852
vt -0.16536 0.00000
vt -0.18839 0.29528
vt -0.18839 0.00000
vt -0.16536 0.29528
vt -0.13668 0.00000
vt -0.16153 0.29528
vt -0.16153 0.00000
vt -0.13668 0.29528
vt -0.10200 0.00000
vt -0.13180 0.29528
vt -0.13180 0.00000
vt -0.10200 0.29528
vt -0.06208 0.00000
vt -0.09950 0.29528
vt -0.09950 0.00000
vt -0.06208 0.29528
vt -0.02436 0.00000
vt -0.06348 0.29528
vt -0.06348 0.00000
vt -0.02436 0.29528
vt 0.00163 0.00000
vt -0.02340 0.29528
vt -0.02340 0.00000
vt 0.00163 0.29528
vt 0.02225 0.00000
vt 0.01322 0.29528
vt 0.01322 0.00000
vt 0.02225 0.29528
vt 0.03696 0.00000
vt 0.04526 0.29528
vt 0.03696 0.29528
vt 0.04526 0.00000
vt 0.05691 0.00000
vt 0.06624 0.29528
vt 0.05691 0.29528
vt 0.06624 0.00000
vt 0.07061 0.00000
vt 0.08259 0.29528
vt 0.07061 0.29528
vt 0.08259 0.00000
vt 0.03999 0.00000
vt 0.02793 0.29528
vt 0.02793 0.00000
vt 0.03999 0.29528
vt 0.04690 0.00000
vt 0.03119 0.29528
vt 0.03119 0.00000
vt 0.04690 0.29528
vt 0.05756 0.00000
vt 0.04100 0.29528
vt 0.04100 0.00000
vt 0.05756 0.29528
vt 0.06517 0.00000
vt 0.05057 0.29528
vt 0.05057 0.00000
vt 0.06517 0.29528
vt 0.09447 0.00000
vt 0.17061 0.29528
vt 0.09447 0.29528
vt 0.17061 0.00000
vt 0.09484 0.34510
vt 0.09386 0.04301
vt 0.09309 0.35029
vt 0.09119 0.02666
vt 0.08986 0.35375
vt 0.08758 0.01137
vt 0.08476 0.35585
vt 0.08355 0.00000
vt 0.07742 0.35699
vt 0.07203 0.35716
vt 0.07170 0.00181
vt 0.06748 0.35646
vt 0.06353 0.35467
vt 0.06300 0.00516
vt 0.05993 0.35156
vt 0.05660 0.01045
vt 0.05283 0.34046
vt 0.05165 0.01802
vt 0.04424 0.32135
vt 0.04271 0.04140
vt 0.02937 0.07818
vt 0.02568 0.27668
vt 0.01572 0.11302
vt 0.01224 0.24143
vt 0.00616 0.14124
vt 0.00373 0.21294
vt 0.00087 0.16552
vt -0.21106 0.29528
vt -0.18636 0.00000
vt -0.18636 0.29528
vt -0.21106 0.00000
vt -0.23484 0.29528
vt -0.20511 0.00000
vt -0.20511 0.29528
vt -0.23484 0.00000
vt -0.26766 0.29528
vt -0.22994 0.00000
vt -0.22994 0.29528
vt -0.26766 0.00000
vt -0.31373 0.29528
vt -0.26536 0.00000
vt -0.26536 0.29528
vt -0.31373 0.00000
vt -0.33219 0.29528
vt -0.31123 0.00000
vt -0.31123 0.29528
vt -0.33219 0.00000
vt -0.32847 0.29528
vt -0.31529 0.00000
vt -0.31529 0.29528
vt -0.32847 0.00000
vt -0.27541 0.29528
vt -0.28017 0.00000
vt -0.27541 0.00000
vt -0.28017 0.29528
vt -0.20414 0.29528
vt -0.20848 0.00000
vt -0.20414 0.00000
vt -0.20848 0.29528
vt -0.12068 0.29528
vt -0.12528 0.00000
vt -0.12068 0.00000
vt -0.12528 0.29528
vt -0.06065 0.29528
vt -0.06604 0.00000
vt -0.06065 0.00000
vt -0.06604 0.29528
vt -0.02212 0.29528
vt -0.02955 0.00000
vt -0.02212 0.00000
vt -0.02955 0.29528
vt 0.05761 0.29528
vt 0.05210 0.00000
vt 0.05761 0.00000
vt 0.05210 0.29528
vt 0.19238 0.29528
vt 0.19711 0.00000
vt 0.19711 0.29528
vt 0.19238 0.00000
vt 0.29655 0.29528
vt 0.30203 0.00000
vt 0.30203 0.29528
vt 0.29655 0.00000
vt 0.32389 0.29528
vt 0.34103 0.00000
vt 0.34103 0.29528
vt 0.32389 0.00000
vt 0.30082 0.29528
vt 0.32950 0.00000
vt 0.32950 0.29528
vt 0.30082 0.00000
vt -0.09506 0.29528
vt -0.31370 0.00000
vt -0.09506 0.00000
vt -0.31370 0.29528
vt -0.30051 0.29528
vt -0.30506 0.00000
vt -0.30051 0.00000
vt -0.30506 0.29528
vt 0.31693 0.06221
vt 0.31825 0.29910
vt 0.29921 0.05674
vt 0.27072 0.05496
vt 0.22822 0.00000
vt 0.27005 0.29528
vt 0.22822 0.29528
vt 0.27005 0.00000
vt -0.27072 0.05496
vt -0.29921 0.05674
vt -0.31693 0.06221
vt -0.31825 0.29910
vt -0.32643 0.07283
vt -0.32199 0.29846
vt -0.26365 0.29528
vt -0.26745 0.00000
vt -0.26365 0.00000
vt -0.26745 0.29528
vt 0.32643 0.07283
vt 0.32199 0.29846
vt 0.25773 0.29528
vt 0.27197 0.00000
vt 0.27197 0.29528
vt 0.25773 0.00000
vt 0.32117 0.29528
vt 0.30262 0.00000
vt 0.32117 0.00000
vt 0.30262 0.29528
vt 0.30217 0.29528
vt 0.27362 0.00000
vt 0.30217 0.00000
vt 0.27362 0.29528
vt 0.15969 0.00000
vt 0.14212 0.29528
vt 0.14212 0.00000
vt 0.15969 0.29528
vt 0.12441 0.00000
vt 0.09926 0.29528
vt 0.09926 0.00000
vt 0.12441 0.29528
vt 0.28203 0.00000
vt 0.11512 0.29528
vt 0.11512 0.00000
vt 0.28203 0.29528
vt 0.27210 0.00000
vt 0.26755 0.29528
vt 0.26755 0.00000
vt 0.27210 0.29528
vt 0.23091 0.00000
vt 0.22712 0.29528
vt 0.22712 0.00000
vt 0.23091 0.29528
vt 0.15821 0.00000
vt 0.15500 0.29528
vt 0.15500 0.00000
vt 0.15821 0.29528
vt 0.04496 0.00000
vt 0.04209 0.29528
vt 0.04209 0.00000
vt 0.04496 0.29528
vt -0.08922 0.00000
vt -0.08635 0.29528
vt -0.08922 0.29528
vt -0.08635 0.00000
vt -0.32499 0.29733
vt -0.32730 0.29564
vt -0.19581 0.29528
vt -0.19902 0.00000
vt -0.19581 0.00000
vt -0.19902 0.29528
vt 0.32499 0.29733
vt 0.32730 0.29564
vt 0.33025 0.08998
vt 0.32900 0.29332
vt 0.33013 0.29032
vt 0.33077 0.28658
vt 0.33096 0.11512
vt 0.33096 0.28203
vt -0.33025 0.08998
vt -0.32900 0.29332
vt -0.33013 0.29032
vt -0.33077 0.28658
vt -0.33096 0.11512
vt -0.33096 0.28203
vt -0.09553 0.32797
vt 0.09553 0.32797
# 287 texture verticies
vn 0.00000 0.00000 1.00000
vn -0.99973 0.02321 0.00000
vn 0.00000 0.00000 -1.00000
vn -0.03773 0.99929 0.00000
vn -0.21305 0.97704 0.00000
vn -0.32079 0.94715 0.00000
vn -0.36473 0.93111 0.00000
vn -0.34093 0.94009 0.00000
vn -0.35736 0.93397 0.00000
vn -0.54767 0.83669 0.00000
vn -0.77068 0.63722 0.00000
vn -0.93288 0.36018 0.00000
vn -0.98859 0.15065 0.00000
vn -0.33425 -0.94249 0.00000
vn -0.22980 -0.97324 0.00000
vn -0.16108 -0.98694 0.00000
vn -0.08214 -0.99662 0.00000
vn -0.99995 0.01005 0.00000
vn 0.15114 0.98851 0.00000
vn 0.28606 0.95821 0.00000
vn 0.35638 0.93434 0.00000
vn 0.38368 0.92347 0.00000
vn 0.41004 0.91207 0.00000
vn 0.53874 0.84247 0.00000
vn 0.75605 0.65452 0.00000
vn 0.91100 0.41240 0.00000
vn 0.98847 0.15143 0.00000
vn 0.99950 -0.03176 0.00000
vn 0.98832 -0.15238 0.00000
vn 0.92415 -0.38203 0.00000
vn 0.68278 -0.73062 0.00000
vn 0.32026 -0.94733 0.00000
vn 0.03998 -0.99920 0.00000
vn -0.01644 -0.99986 0.00000
vn 1.00000 0.00000 0.00000
vn 0.99907 -0.04309 0.00000
vn -0.99993 0.01186 0.00000
vn 0.98587 -0.16751 0.00000
vn -0.66693 -0.74512 0.00000
vn -0.95538 -0.29536 0.00000
vn -0.99805 -0.06236 0.00000
vn -0.21763 -0.97603 0.00000
vn -0.02822 -0.99960 0.00000
vn 0.00000 -1.00000 0.00000
vn 0.04298 -0.99908 0.00000
vn 0.16753 -0.98587 0.00000
vn 0.35321 -0.93554 0.00000
vn 0.59116 -0.80656 0.00000
vn 0.80656 -0.59116 0.00000
vn 0.93554 -0.35321 0.00000
# 50 normals
usemtl M_0128_White
f  1/1/1 2/2/1 3/3/1
f  2/2/1 1/1/1 4/4/1
f  4/4/1 1/1/1 5/5/1
f  6/6/2 5/7/2 1/8/2
f  5/7/2 6/6/2 7/9/2
f  6/10/3 8/11/3 7/12/3
f  9/13/3 8/11/3 6/10/3
f  9/13/3 10/14/3 8/11/3
f  9/13/3 11/15/3 10/14/3
f  12/16/3 11/15/3 9/13/3
f  12/16/3 13/17/3 11/15/3
f  14/18/3 13/17/3 12/16/3
f  14/18/3 15/19/3 13/17/3
f  16/20/3 15/19/3 14/18/3
f  16/20/3 17/21/3 15/19/3
f  18/22/3 17/21/3 16/20/3
f  18/22/3 19/23/3 17/21/3
f  18/22/3 20/24/3 19/23/3
f  21/25/3 20/24/3 18/22/3
f  21/25/3 22/26/3 20/24/3
f  21/25/3 23/27/3 22/26/3
f  24/28/3 23/27/3 21/25/3
f  24/28/3 25/29/3 23/27/3
f  26/30/3 25/29/3 24/28/3
f  26/30/3 27/31/3 25/29/3
f  28/32/3 27/31/3 26/30/3
f  28/32/3 29/33/3 27/31/3
f  30/34/3 29/33/3 28/32/3
f  31/35/3 29/33/3 30/34/3
f  31/35/3 32/36/3 29/33/3
f  33/37/3 32/36/3 31/35/3
f  33/37/3 34/38/3 32/36/3
f  35/39/3 34/38/3 33/37/3
f  35/39/3 36/40/3 34/38/3
f  37/41/3 36/40/3 35/39/3
f  36/40/3 37/41/3 38/42/3
f  37/43/4 39/44/4 38/45/4
f  39/44/4 37/43/4 40/46/4
f  35/47/5 40/48/5 37/49/5
f  40/48/5 35/47/5 41/50/5
f  33/51/6 41/52/6 35/53/6
f  41/52/6 33/51/6 42/54/6
f  31/55/7 42/56/7 33/57/7
f  42/56/7 31/55/7 43/58/7
f  30/59/8 43/60/8 31/61/8
f  43/60/8 30/59/8 44/62/8
f  28/63/9 44/64/9 30/65/9
f  44/64/9 28/63/9 45/66/9
f  26/67/10 45/68/10 28/69/10
f  45/68/10 26/67/10 46/70/10
f  26/71/11 47/72/11 46/73/11
f  47/72/11 26/71/11 24/74/11
f  24/75/12 48/76/12 47/77/12
f  48/76/12 24/75/12 21/78/12
f  21/79/13 49/80/13 48/81/13
f  49/80/13 21/79/13 18/82/13
f  16/83/14 49/84/14 18/85/14
f  49/84/14 16/83/14 50/86/14
f  14/87/15 50/88/15 16/89/15
f  50/88/15 14/87/15 51/90/15
f  12/91/16 51/92/16 14/93/16
f  51/92/16 12/91/16 52/94/16
f  9/95/17 52/96/17 12/97/17
f  52/96/17 9/95/17 3/98/17
f  9/99/18 1/100/18 3/101/18
f  1/100/18 9/99/18 6/102/18
f  53/103/1 52/104/1 3/3/1
f  54/105/1 52/104/1 53/103/1
f  54/105/1 51/106/1 52/104/1
f  55/107/1 51/106/1 54/105/1
f  55/107/1 50/108/1 51/106/1
f  56/109/1 50/108/1 55/107/1
f  56/109/1 49/110/1 50/108/1
f  57/111/1 49/110/1 56/109/1
f  58/112/1 49/110/1 57/111/1
f  58/112/1 48/113/1 49/110/1
f  59/114/1 48/113/1 58/112/1
f  60/115/1 48/113/1 59/114/1
f  60/115/1 47/116/1 48/113/1
f  61/117/1 47/116/1 60/115/1
f  61/117/1 46/118/1 47/116/1
f  62/119/1 46/118/1 61/117/1
f  62/119/1 45/120/1 46/118/1
f  63/121/1 45/120/1 62/119/1
f  63/121/1 44/122/1 45/120/1
f  63/121/1 43/123/1 44/122/1
f  64/124/1 43/123/1 63/121/1
f  64/124/1 42/125/1 43/123/1
f  65/126/1 42/125/1 64/124/1
f  65/126/1 41/127/1 42/125/1
f  66/128/1 41/127/1 65/126/1
f  66/128/1 40/129/1 41/127/1
f  40/129/1 66/128/1 39/42/1
f  66/130/19 38/131/19 39/132/19
f  38/131/19 66/130/19 36/133/19
f  65/134/20 36/135/20 66/136/20
f  36/135/20 65/134/20 34/137/20
f  64/138/21 34/139/21 65/140/21
f  34/139/21 64/138/21 32/141/21
f  63/142/22 32/143/22 64/144/22
f  32/143/22 63/142/22 29/145/22
f  62/146/23 29/147/23 63/148/23
f  29/147/23 62/146/23 27/149/23
f  61/150/24 27/151/24 62/152/24
f  27/151/24 61/150/24 25/153/24
f  61/154/25 23/155/25 25/156/25
f  23/155/25 61/154/25 60/157/25
f  60/158/26 22/159/26 23/160/26
f  22/159/26 60/158/26 59/161/26
f  59/162/27 20/163/27 22/164/27
f  20/163/27 59/162/27 58/165/27
f  58/166/28 19/167/28 20/168/28
f  19/167/28 58/166/28 57/169/28
f  57/170/29 17/171/29 19/172/29
f  17/171/29 57/170/29 56/173/29
f  56/174/30 15/175/30 17/176/30
f  15/175/30 56/174/30 55/177/30
f  54/178/31 15/179/31 55/180/31
f  15/179/31 54/178/31 13/181/31
f  53/182/32 13/183/32 54/184/32
f  13/183/32 53/182/32 11/185/32
f  67/186/33 11/187/33 53/188/33
f  11/187/33 67/186/33 68/189/33
f  2/190/34 68/191/34 67/192/34
f  68/191/34 2/190/34 10/193/34
f  2/194/35 8/195/35 10/196/35
f  8/195/35 2/194/35 4/197/35
f  4/198/36 69/199/36 8/200/36
f  69/199/36 4/198/36 70/201/36
f  4/4/1 71/202/1 70/203/1
f  4/4/1 72/204/1 71/202/1
f  4/4/1 73/205/1 72/204/1
f  4/4/1 5/5/1 73/205/1
f  7/206/37 73/207/37 5/208/37
f  73/207/37 7/206/37 74/209/37
f  7/12/3 8/11/3 74/210/3
f  74/210/3 8/11/3 75/211/3
f  75/211/3 8/11/3 76/212/3
f  76/212/3 8/11/3 69/213/3
f  76/212/3 69/213/3 77/214/3
f  77/214/3 69/213/3 78/215/3
f  70/216/38 78/217/38 69/218/38
f  78/217/38 70/216/38 79/219/38
f  70/203/1 80/220/1 79/221/1
f  70/203/1 71/202/1 80/220/1
f  71/222/39 77/223/39 80/224/39
f  77/223/39 71/222/39 76/225/39
f  71/226/40 75/227/40 76/228/40
f  75/227/40 71/226/40 72/229/40
f  72/230/41 74/231/41 75/232/41
f  74/231/41 72/230/41 73/233/41
f  81/234/42 80/235/42 77/236/42
f  80/235/42 81/234/42 82/237/42
f  83/238/43 82/239/43 81/240/43
f  82/239/43 83/238/43 84/241/43
f  85/242/44 84/243/44 83/244/44
f  84/243/44 85/242/44 86/245/44
f  87/246/45 86/247/45 85/248/45
f  86/247/45 87/246/45 88/249/45
f  89/250/46 88/251/46 87/252/46
f  88/251/46 89/250/46 90/253/46
f  91/254/47 90/255/47 89/256/47
f  90/255/47 91/254/47 92/257/47
f  93/258/48 92/259/48 91/260/48
f  92/259/48 93/258/48 94/261/48
f  93/262/49 95/263/49 94/264/49
f  95/263/49 93/262/49 96/265/49
f  77/214/3 96/266/3 93/267/3
f  77/214/3 78/215/3 96/266/3
f  79/268/50 96/269/50 78/270/50
f  96/269/50 79/268/50 95/271/50
f  79/221/1 80/220/1 95/272/1
f  95/272/1 80/220/1 94/273/1
f  94/273/1 80/220/1 82/274/1
f  94/273/1 82/274/1 92/275/1
f  92/275/1 82/274/1 90/276/1
f  90/276/1 82/274/1 88/277/1
f  88/277/1 82/274/1 84/278/1
f  88/277/1 84/278/1 86/279/1
f  77/214/3 93/267/3 81/280/3
f  81/280/3 93/267/3 91/281/3
f  81/280/3 91/281/3 89/282/3
f  81/280/3 89/282/3 87/283/3
f  81/280/3 87/283/3 83/284/3
f  83/284/3 87/283/3 85/285/3
f  68/286/3 10/14/3 11/15/3
f  53/103/1 2/2/1 67/287/1
f  53/103/1 3/3/1 2/2/1
