# 
# Wavefront OBJ file
# Converted by the DEEP Exploration Deep Exploration 6.5 x64 6.5.0.9182
# Right Hemisphere, LTD
# http://www.righthemisphere.com/
# 
mtllib 099.mtl
# object Mesh1 Group1 Model
g Mesh1_Group1_Model
v 0.69743 0.35658 -0.24375
v -0.71475 0.36088 -0.24375
v 0.68215 0.36088 -0.24375
v -0.71475 0.14239 -0.24375
v 0.70725 0.34413 -0.24375
v 0.69743 0.35658 0.24375
v 0.70725 0.34413 0.24375
v -0.71475 0.14239 0.24375
v 0.68215 0.36088 0.24375
v -0.71475 0.36088 0.24375
v -0.67217 0.14099 -0.24375
v -0.67217 0.14099 0.24375
v -0.64670 0.13891 -0.24375
v -0.64670 0.13891 0.24375
v -0.63402 0.13630 -0.24375
v -0.63402 0.13630 0.24375
v -0.63109 0.13358 -0.24375
v -0.63109 0.13358 0.24375
v -0.62968 0.12927 0.24375
v -0.62968 0.12927 -0.24375
v 0.64496 0.13249 -0.24375
v 0.67150 0.13363 -0.24375
v 0.71309 0.22512 -0.24375
v 0.71475 0.29721 -0.24375
v 0.71267 0.32412 -0.24375
v 0.71267 0.32412 0.24375
v 0.71475 0.29721 0.24375
v 0.71309 0.22512 0.24375
v 0.67150 0.13363 0.24375
v 0.64496 0.13249 0.24375
v 0.63607 0.12964 0.24375
v 0.62990 0.12443 0.24375
v -0.62924 0.12286 0.24375
v -0.62924 0.12286 -0.24375
v 0.62990 0.12443 -0.24375
v 0.63607 0.12964 -0.24375
v 0.71066 0.13289 -0.24375
v 0.71066 0.13289 0.24375
v 0.62630 0.11622 -0.24375
v 0.62630 0.11622 0.24375
v -0.62922 0.11389 0.24375
v -0.62922 0.11389 -0.24375
v 0.62513 0.10439 -0.24375
v 0.62513 0.10439 0.24375
v -0.62922 -0.28508 0.24375
v -0.62922 -0.28508 -0.24375
v 0.62513 -0.29459 -0.24375
v 0.62513 -0.29459 0.24375
v -0.59884 -0.28649 0.24375
v -0.59884 -0.28649 -0.24375
v -0.54515 -0.29041 -0.24375
v -0.51661 -0.29316 -0.24375
v -0.27762 -0.29459 -0.24375
v 0.43508 -0.29459 -0.24375
v 0.43508 -0.29459 0.24375
v 0.23552 -0.29459 0.24375
v -0.27762 -0.29459 0.24375
v -0.51661 -0.29316 0.24375
v -0.54515 -0.29041 0.24375
v -0.49069 -0.29636 -0.24375
v -0.49069 -0.29636 0.24375
v -0.47020 -0.29996 -0.24375
v -0.47020 -0.29996 0.24375
v -0.45798 -0.30389 -0.24375
v -0.45798 -0.30389 0.24375
v -0.42635 -0.32852 -0.24375
v -0.42635 -0.32852 0.24375
v -0.39733 -0.35191 -0.24375
v -0.39733 -0.35191 0.24375
v -0.38096 -0.35863 -0.24375
v -0.38096 -0.35863 0.24375
v -0.36185 -0.35966 -0.24375
v -0.36185 -0.35966 0.24375
v -0.33886 -0.35316 -0.24375
v -0.33886 -0.35316 0.24375
v -0.31087 -0.33735 -0.24375
v -0.31087 -0.33735 0.24375
v -0.29529 -0.32720 -0.24375
v -0.29529 -0.32720 0.24375
v -0.28712 -0.32076 -0.24375
v -0.28712 -0.32076 0.24375
v -0.28251 -0.31193 0.24375
v -0.28251 -0.31193 -0.24375
v 0.23552 -0.29459 -0.24375
v 0.24110 -0.31020 0.24375
v 0.24110 -0.31020 -0.24375
v 0.41999 -0.29945 -0.24375
v 0.41999 -0.29945 0.24375
v 0.40675 -0.31160 0.24375
v 0.24800 -0.31965 0.24375
v 0.24800 -0.31965 -0.24375
v 0.40675 -0.31160 -0.24375
v 0.39365 -0.32745 -0.24375
v 0.39365 -0.32745 0.24375
v 0.25749 -0.32673 0.24375
v 0.25749 -0.32673 -0.24375
v 0.27088 -0.33525 -0.24375
v 0.37900 -0.34335 -0.24375
v 0.37900 -0.34335 0.24375
v 0.27088 -0.33525 0.24375
v 0.30875 -0.35527 -0.24375
v 0.30875 -0.35527 0.24375
v 0.33826 -0.36088 -0.24375
v 0.33826 -0.36088 0.24375
v 0.36110 -0.35570 -0.24375
v 0.36110 -0.35570 0.24375
# 106 verticies
vt -0.00260 0.85535
vt 0.00000 0.00000
vt 0.00000 0.84610
vt -0.13234 0.00000
vt -0.01015 0.86130
vt -0.53157 0.29528
vt -0.54118 0.00000
vt -0.53157 0.00000
vt -0.54118 0.29528
vt 0.00260 0.85535
vt 0.13234 0.00000
vt 0.01015 0.86130
vt -0.84610 0.29528
vt 0.00000 0.29528
vt -0.84610 0.00000
vt -0.82414 0.29528
vt -0.81453 0.00000
vt -0.81453 0.29528
vt -0.82414 0.00000
vt 0.13234 0.29528
vt 0.03017 0.00000
vt 0.00436 0.29528
vt 0.00436 0.00000
vt 0.03017 0.29528
vt 0.05203 0.00000
vt 0.03655 0.29528
vt 0.03655 0.00000
vt 0.05203 0.29528
vt 0.07529 0.00000
vt 0.06745 0.29528
vt 0.06745 0.00000
vt 0.07529 0.29528
vt 0.13078 0.00000
vt 0.12836 0.29528
vt 0.12836 0.00000
vt 0.13078 0.29528
vt 0.14661 0.00000
vt 0.14936 0.29528
vt 0.14661 0.29528
vt 0.14936 0.00000
vt -0.13767 0.05067
vt -0.13833 0.82357
vt -0.14029 0.05153
vt -0.13764 0.83965
vt -0.13603 0.04890
vt -0.13445 0.04122
vt -0.13319 0.02579
vt -0.08222 0.86483
vt -0.03856 0.86584
vt -0.02226 0.86458
vt -0.23524 0.29528
vt -0.24780 0.00000
vt -0.23524 0.00000
vt -0.24780 0.29528
vt 0.02226 0.86458
vt 0.03856 0.86584
vt 0.08222 0.86483
vt 0.13764 0.83965
vt 0.13319 0.02579
vt 0.13445 0.04122
vt 0.13603 0.04890
vt 0.13767 0.05067
vt 0.13833 0.82357
vt 0.14029 0.05153
vt 0.14006 0.81819
vt 0.14322 0.81445
vt 0.14416 0.05179
vt 0.14345 0.00000
vt 0.14734 0.29528
vt 0.14345 0.29528
vt 0.14734 0.00000
vt -0.14322 0.81445
vt -0.14416 0.05179
vt -0.14006 0.81819
vt 0.74208 0.00000
vt 0.73642 0.29528
vt 0.73642 0.00000
vt 0.74208 0.29528
vt 0.83296 0.00000
vt 0.81687 0.29528
vt 0.81687 0.00000
vt 0.83296 0.29528
vt 0.86581 0.00000
vt 0.84209 0.29528
vt 0.84209 0.00000
vt 0.86581 0.29528
vt -0.11535 0.00000
vt -0.05947 0.29528
vt -0.11535 0.29528
vt -0.05947 0.00000
vt -0.13809 0.86336
vt -0.06221 0.00000
vt -0.01854 0.29528
vt -0.06221 0.29528
vt -0.01854 0.00000
vt -0.10520 0.00000
vt -0.08885 0.29528
vt -0.10520 0.29528
vt -0.08885 0.00000
vt 0.13809 0.86336
vt 0.52983 0.29528
vt 0.53472 0.00000
vt 0.53472 0.29528
vt 0.52983 0.00000
vt 0.19587 0.29528
vt 0.19044 0.00000
vt 0.19587 0.00000
vt 0.19044 0.29528
vt 0.14818 0.81227
vt 0.14960 0.05181
vt 0.14428 0.00000
vt 0.14972 0.29528
vt 0.14428 0.29528
vt 0.14972 0.00000
vt -0.14818 0.81227
vt -0.14960 0.05181
vt -0.15535 0.81156
vt -0.06739 0.29528
vt -0.07459 0.00000
vt -0.06739 0.00000
vt -0.07459 0.29528
vt 0.15535 0.81156
vt 0.39125 0.05181
vt 0.14960 0.00000
vt 0.39125 0.29528
vt 0.14960 0.29528
vt 0.39125 0.00000
vt -0.39125 0.05181
vt -0.39701 0.81156
vt -0.15535 0.29528
vt -0.39701 0.00000
vt -0.15535 0.00000
vt -0.39701 0.29528
vt 0.39701 0.81156
vt 0.39211 0.07021
vt 0.06982 0.29528
vt 0.08824 0.00000
vt 0.08824 0.29528
vt 0.06982 0.00000
vt -0.39211 0.07021
vt -0.39448 0.10272
vt -0.39614 0.12001
vt -0.39701 0.26477
vt -0.39701 0.69645
vt 0.81156 0.00000
vt 0.69645 0.29528
vt 0.69645 0.00000
vt 0.81156 0.29528
vt 0.39701 0.57557
vt 0.39701 0.69645
vt 0.39701 0.26477
vt 0.39614 0.12001
vt 0.39448 0.10272
vt 0.09857 0.29528
vt 0.13118 0.00000
vt 0.13118 0.29528
vt 0.09857 0.00000
vt 0.15743 0.00000
vt 0.14006 0.29528
vt 0.14006 0.00000
vt 0.15743 0.29528
vt 0.18350 0.00000
vt 0.16768 0.29528
vt 0.16768 0.00000
vt 0.18350 0.29528
vt 0.21510 0.00000
vt 0.20250 0.29528
vt 0.20250 0.00000
vt 0.21510 0.29528
vt 0.27129 0.00000
vt 0.26352 0.29528
vt 0.26352 0.00000
vt 0.27129 0.29528
vt 0.39440 0.00000
vt 0.37012 0.29528
vt 0.37012 0.00000
vt 0.39440 0.29528
vt 0.42059 0.00000
vt 0.39801 0.29528
vt 0.39801 0.00000
vt 0.42059 0.29528
vt 0.35270 0.00000
vt 0.34198 0.29528
vt 0.34198 0.00000
vt 0.35270 0.29528
vt 0.23672 0.00000
vt 0.22512 0.29528
vt 0.22512 0.00000
vt 0.23672 0.29528
vt 0.10146 0.00000
vt 0.08699 0.29528
vt 0.08699 0.00000
vt 0.10146 0.29528
vt 0.00504 0.00000
vt -0.01444 0.29528
vt -0.01444 0.00000
vt 0.00504 0.29528
vt -0.01450 0.00000
vt -0.02576 0.29528
vt -0.02576 0.00000
vt -0.01450 0.29528
vt -0.05228 0.00000
vt -0.05858 0.29528
vt -0.05858 0.00000
vt -0.05228 0.29528
vt -0.24622 0.00000
vt -0.24019 0.29528
vt -0.24622 0.29528
vt -0.24019 0.00000
vt -0.41756 0.17468
vt -0.40751 0.26181
vt -0.41286 0.25902
vt -0.40264 0.15553
vt -0.40026 0.14812
vt -0.39808 0.13571
vt -0.31023 0.29528
vt -0.32114 0.00000
vt -0.31023 0.00000
vt -0.32114 0.29528
vt 0.39808 0.13571
vt 0.40751 0.26181
vt 0.40026 0.14812
vt 0.40264 0.15553
vt 0.41756 0.17468
vt 0.41286 0.25902
vt 0.41677 0.25407
vt 0.42291 0.24463
vt 0.43173 0.19226
vt 0.43249 0.22767
vt 0.43580 0.20218
vt 0.43642 0.21375
vt 0.57557 0.00000
vt 0.26477 0.29528
vt 0.26477 0.00000
vt 0.57557 0.29528
vt 0.56752 0.00000
vt 0.57756 0.29528
vt 0.56752 0.29528
vt 0.57756 0.00000
vt -0.39701 0.57557
vt -0.39996 0.68731
vt -0.40647 0.57895
vt 0.54127 0.00000
vt 0.53166 0.29528
vt 0.53166 0.00000
vt 0.54127 0.29528
vt 0.40647 0.57895
vt 0.39996 0.68731
vt 0.40732 0.67928
vt 0.41219 0.58313
vt 0.66973 0.00000
vt 0.67681 0.29528
vt 0.66973 0.29528
vt 0.67681 0.00000
vt -0.40732 0.67928
vt -0.41219 0.58313
vt 0.23600 0.00000
vt 0.22511 0.29528
vt 0.22511 0.00000
vt 0.23600 0.29528
vt 0.11880 0.29528
vt 0.10635 0.00000
vt 0.11880 0.00000
vt 0.10635 0.29528
vt 0.41691 0.67135
vt 0.41648 0.58888
vt 0.71387 0.29528
vt 0.72105 0.00000
vt 0.72105 0.29528
vt 0.71387 0.00000
vt -0.41691 0.67135
vt -0.41648 0.58888
vt -0.42164 0.59699
vt -0.42654 0.66248
vt 0.14823 0.29528
vt 0.13514 0.00000
vt 0.14823 0.00000
vt 0.13514 0.29528
vt 0.42164 0.59699
vt 0.42654 0.66248
vt 0.72041 0.29528
vt 0.73002 0.00000
vt 0.73002 0.29528
vt 0.72041 0.00000
vt 0.75079 0.00000
vt 0.72485 0.29528
vt 0.72485 0.00000
vt 0.75079 0.29528
vt 0.70819 0.00000
vt 0.69000 0.29528
vt 0.69000 0.00000
vt 0.70819 0.29528
vt 0.53969 0.00000
vt 0.52550 0.29528
vt 0.52550 0.00000
vt 0.53969 0.29528
vt 0.30294 0.00000
vt 0.28977 0.29528
vt 0.28977 0.00000
vt 0.30294 0.29528
vt 0.43377 0.61993
vt 0.43403 0.65164
vt 0.43716 0.63780
vt -0.43377 0.61993
vt -0.43403 0.65164
vt -0.43716 0.63780
vt -0.41677 0.25407
vt -0.42291 0.24463
vt -0.43173 0.19226
vt -0.43249 0.22767
vt -0.43580 0.20218
vt -0.43642 0.21375
# 312 texture verticies
vn 0.00000 0.00000 -1.00000
vn 0.78533 0.61908 0.00000
vn 0.00000 0.00000 1.00000
vn 0.00000 1.00000 0.00000
vn 0.27059 0.96269 0.00000
vn -1.00000 0.00000 0.00000
vn -0.03296 -0.99946 0.00000
vn -0.08144 -0.99668 0.00000
vn -0.20136 -0.97952 0.00000
vn -0.68008 -0.73314 0.00000
vn -0.95023 -0.31156 0.00000
vn 0.96513 0.26176 0.00000
vn -0.99771 -0.06767 0.00000
vn 0.30515 -0.95230 0.00000
vn 0.04297 -0.99908 0.00000
vn -0.01882 -0.99982 0.00000
vn 0.99965 -0.02628 0.00000
vn 0.99973 -0.02312 0.00000
vn 0.99702 0.07709 0.00000
vn 0.64522 -0.76399 0.00000
vn 0.91584 -0.40154 0.00000
vn -1.00000 -0.00226 0.00000
vn 0.99513 -0.09858 0.00000
vn 1.00000 0.00000 0.00000
vn -0.04618 -0.99893 0.00000
vn 0.00000 -1.00000 0.00000
vn -0.07282 -0.99735 0.00000
vn -0.09585 -0.99540 0.00000
vn -0.12261 -0.99246 0.00000
vn -0.17289 -0.98494 0.00000
vn -0.30605 -0.95202 0.00000
vn -0.61450 -0.78892 0.00000
vn -0.62743 -0.77867 0.00000
vn -0.38024 -0.92489 0.00000
vn -0.05331 -0.99858 0.00000
vn 0.27198 -0.96230 0.00000
vn 0.49176 -0.87073 0.00000
vn 0.54565 -0.83802 0.00000
vn 0.61924 -0.78520 0.00000
vn 0.88658 -0.46257 0.00000
vn 0.96245 -0.27146 0.00000
vn -0.94170 -0.33646 0.00000
vn 0.30646 -0.95188 0.00000
vn -0.80751 -0.58986 0.00000
vn 0.67610 -0.73681 0.00000
vn 0.77080 -0.63708 0.00000
vn -0.59781 -0.80164 0.00000
vn 0.73549 -0.67754 0.00000
vn -0.53680 -0.84371 0.00000
vn -0.46748 -0.88401 0.00000
vn -0.18666 -0.98242 0.00000
vn 0.22086 -0.97531 0.00000
vn 0.56802 -0.82301 0.00000
# 53 normals
usemtl M_0128_White
f  1/1/1 2/2/1 3/3/1
f  2/2/1 1/1/1 4/4/1
f  4/4/1 1/1/1 5/5/1
f  6/6/2 5/7/2 1/8/2
f  5/7/2 6/6/2 7/9/2
f  6/10/3 8/11/3 7/12/3
f  9/3/3 8/11/3 6/10/3
f  8/11/3 9/3/3 10/2/3
f  9/13/4 2/2/4 10/14/4
f  2/2/4 9/13/4 3/15/4
f  6/16/5 3/17/5 9/18/5
f  3/17/5 6/16/5 1/19/5
f  2/2/6 8/20/6 10/14/6
f  8/20/6 2/2/6 4/11/6
f  11/21/7 8/22/7 4/23/7
f  8/22/7 11/21/7 12/24/7
f  13/25/8 12/26/8 11/27/8
f  12/26/8 13/25/8 14/28/8
f  15/29/9 14/30/9 13/31/9
f  14/30/9 15/29/9 16/32/9
f  17/33/10 16/34/10 15/35/10
f  16/34/10 17/33/10 18/36/10
f  17/37/11 19/38/11 18/39/11
f  19/38/11 17/37/11 20/40/11
f  17/41/1 21/42/1 20/43/1
f  17/41/1 22/44/1 21/42/1
f  22/44/1 17/41/1 15/45/1
f  13/46/1 22/44/1 15/45/1
f  11/47/1 22/44/1 13/46/1
f  4/4/1 22/44/1 11/47/1
f  4/4/1 23/48/1 22/44/1
f  4/4/1 24/49/1 23/48/1
f  4/4/1 25/50/1 24/49/1
f  4/4/1 5/5/1 25/50/1
f  7/51/12 25/52/12 5/53/12
f  25/52/12 7/51/12 26/54/12
f  7/12/3 8/11/3 26/55/3
f  26/55/3 8/11/3 27/56/3
f  27/56/3 8/11/3 28/57/3
f  28/57/3 8/11/3 29/58/3
f  29/58/3 8/11/3 12/59/3
f  29/58/3 12/59/3 14/60/3
f  29/58/3 14/60/3 16/61/3
f  18/62/3 29/58/3 16/61/3
f  29/58/3 18/62/3 30/63/3
f  30/63/3 18/62/3 19/64/3
f  30/63/3 19/64/3 31/65/3
f  31/65/3 19/64/3 32/66/3
f  32/66/3 19/64/3 33/67/3
f  20/68/13 33/69/13 19/70/13
f  33/69/13 20/68/13 34/71/13
f  20/43/1 35/72/1 34/73/1
f  20/43/1 36/74/1 35/72/1
f  20/43/1 21/42/1 36/74/1
f  21/75/14 31/76/14 36/77/14
f  31/76/14 21/75/14 30/78/14
f  22/79/15 30/80/15 21/81/15
f  30/80/15 22/79/15 29/82/15
f  37/83/16 29/84/16 22/85/16
f  29/84/16 37/83/16 38/86/16
f  37/87/17 28/88/17 38/89/17
f  28/88/17 37/87/17 23/90/17
f  22/44/1 23/48/1 37/91/1
f  23/92/18 27/93/18 28/94/18
f  27/93/18 23/92/18 24/95/18
f  24/96/19 26/97/19 27/98/19
f  26/97/19 24/96/19 25/99/19
f  28/57/3 29/58/3 38/100/3
f  32/101/20 36/102/20 31/103/20
f  36/102/20 32/101/20 35/104/20
f  32/105/21 39/106/21 35/107/21
f  39/106/21 32/105/21 40/108/21
f  32/66/3 33/67/3 40/109/3
f  40/109/3 33/67/3 41/110/3
f  34/111/22 41/112/22 33/113/22
f  41/112/22 34/111/22 42/114/22
f  34/73/1 39/115/1 42/116/1
f  34/73/1 35/72/1 39/115/1
f  42/116/1 39/115/1 43/117/1
f  40/118/23 43/119/23 39/120/23
f  43/119/23 40/118/23 44/121/23
f  40/109/3 41/110/3 44/122/3
f  44/122/3 41/110/3 45/123/3
f  42/124/6 45/125/6 41/126/6
f  45/125/6 42/124/6 46/127/6
f  42/116/1 43/117/1 46/128/1
f  46/128/1 43/117/1 47/129/1
f  44/130/24 47/131/24 43/132/24
f  47/131/24 44/130/24 48/133/24
f  44/122/3 45/123/3 48/134/3
f  48/134/3 45/123/3 49/135/3
f  45/136/25 50/137/25 49/138/25
f  50/137/25 45/136/25 46/139/25
f  46/128/1 47/129/1 50/140/1
f  50/140/1 47/129/1 51/141/1
f  51/141/1 47/129/1 52/142/1
f  52/142/1 47/129/1 53/143/1
f  53/143/1 47/129/1 54/144/1
f  47/145/26 55/146/26 54/147/26
f  55/146/26 47/145/26 48/148/26
f  48/134/3 56/149/3 55/150/3
f  48/134/3 57/151/3 56/149/3
f  48/134/3 58/152/3 57/151/3
f  48/134/3 59/153/3 58/152/3
f  48/134/3 49/135/3 59/153/3
f  49/154/27 51/155/27 59/156/27
f  51/155/27 49/154/27 50/157/27
f  52/158/28 59/159/28 51/160/28
f  59/159/28 52/158/28 58/161/28
f  60/162/29 58/163/29 52/164/29
f  58/163/29 60/162/29 61/165/29
f  62/166/30 61/167/30 60/168/30
f  61/167/30 62/166/30 63/169/30
f  64/170/31 63/171/31 62/172/31
f  63/171/31 64/170/31 65/173/31
f  66/174/32 65/175/32 64/176/32
f  65/175/32 66/174/32 67/177/32
f  68/178/33 67/179/33 66/180/33
f  67/179/33 68/178/33 69/181/33
f  70/182/34 69/183/34 68/184/34
f  69/183/34 70/182/34 71/185/34
f  72/186/35 71/187/35 70/188/35
f  71/187/35 72/186/35 73/189/35
f  74/190/36 73/191/36 72/192/36
f  73/191/36 74/190/36 75/193/36
f  76/194/37 75/195/37 74/196/37
f  75/195/37 76/194/37 77/197/37
f  78/198/38 77/199/38 76/200/38
f  77/199/38 78/198/38 79/201/38
f  80/202/39 79/203/39 78/204/39
f  79/203/39 80/202/39 81/205/39
f  80/206/40 82/207/40 81/208/40
f  82/207/40 80/206/40 83/209/40
f  66/210/1 83/211/1 80/212/1
f  64/213/1 83/211/1 66/210/1
f  62/214/1 83/211/1 64/213/1
f  60/215/1 83/211/1 62/214/1
f  60/215/1 53/143/1 83/211/1
f  52/142/1 53/143/1 60/215/1
f  57/216/41 83/217/41 53/218/41
f  83/217/41 57/216/41 82/219/41
f  57/151/3 61/220/3 82/221/3
f  61/220/3 57/151/3 58/152/3
f  82/221/3 61/220/3 63/222/3
f  82/221/3 63/222/3 65/223/3
f  82/221/3 65/223/3 67/224/3
f  82/221/3 67/224/3 81/225/3
f  81/225/3 67/224/3 79/226/3
f  79/226/3 67/224/3 77/227/3
f  77/227/3 67/224/3 69/228/3
f  77/227/3 69/228/3 75/229/3
f  75/229/3 69/228/3 71/230/3
f  75/229/3 71/230/3 73/231/3
f  84/232/26 57/233/26 53/234/26
f  57/233/26 84/232/26 56/235/26
f  84/236/42 85/237/42 56/238/42
f  85/237/42 84/236/42 86/239/42
f  84/240/1 87/241/1 86/242/1
f  87/241/1 84/240/1 54/144/1
f  53/143/1 54/144/1 84/240/1
f  54/243/43 88/244/43 87/245/43
f  88/244/43 54/243/43 55/246/43
f  55/150/3 85/247/3 88/248/3
f  85/247/3 55/150/3 56/149/3
f  88/248/3 85/247/3 89/249/3
f  89/249/3 85/247/3 90/250/3
f  86/251/44 90/252/44 85/253/44
f  90/252/44 86/251/44 91/254/44
f  86/242/1 92/255/1 91/256/1
f  86/242/1 87/241/1 92/255/1
f  87/257/45 89/258/45 92/259/45
f  89/258/45 87/257/45 88/260/45
f  89/261/46 93/262/46 92/263/46
f  93/262/46 89/261/46 94/264/46
f  89/249/3 90/250/3 94/265/3
f  94/265/3 90/250/3 95/266/3
f  90/267/47 96/268/47 95/269/47
f  96/268/47 90/267/47 91/270/47
f  91/256/1 93/271/1 96/272/1
f  91/256/1 92/255/1 93/271/1
f  96/272/1 93/271/1 97/273/1
f  97/273/1 93/271/1 98/274/1
f  94/275/48 98/276/48 93/277/48
f  98/276/48 94/275/48 99/278/48
f  94/265/3 100/279/3 99/280/3
f  94/265/3 95/266/3 100/279/3
f  95/281/49 97/282/49 100/283/49
f  97/282/49 95/281/49 96/284/49
f  101/285/50 100/286/50 97/287/50
f  100/286/50 101/285/50 102/288/50
f  103/289/51 102/290/51 101/291/51
f  102/290/51 103/289/51 104/292/51
f  105/293/52 104/294/52 103/295/52
f  104/294/52 105/293/52 106/296/52
f  98/297/53 106/298/53 105/299/53
f  106/298/53 98/297/53 99/300/53
f  99/280/3 102/301/3 106/302/3
f  99/280/3 100/279/3 102/301/3
f  106/302/3 102/301/3 104/303/3
f  101/304/1 98/274/1 105/305/1
f  97/273/1 98/274/1 101/304/1
f  101/304/1 105/305/1 103/306/1
f  66/210/1 80/212/1 78/307/1
f  66/210/1 78/307/1 76/308/1
f  66/210/1 76/308/1 68/309/1
f  68/309/1 76/308/1 74/310/1
f  68/309/1 74/310/1 70/311/1
f  70/311/1 74/310/1 72/312/1
