# Blender v2.82 (sub 7) OBJ File: 'deckbox.blend'
# www.blender.org
mtllib deckbox.mtl
o Cube.001
v 2.500000 -0.749998 -3.500000
v -2.500000 -0.749998 -3.500000
v -2.500000 -0.750002 3.500000
v 2.500000 -0.750002 3.500000
v 2.500000 0.749998 3.500000
v -2.500000 0.749998 3.500000
v -2.500000 0.750002 -3.500000
v 2.500000 0.750002 -3.500000
vt 0.499350 0.889198
vt 0.499350 0.773834
vt 0.883898 0.773834
vt 0.883898 0.889198
vt 0.999262 0.773834
vt 0.883898 0.235467
vt 0.999262 0.235467
vt 0.383985 0.773834
vt -0.000562 0.773834
vt -0.000562 0.235467
vt 0.383986 0.235467
vt 0.499350 0.235467
vt 0.883898 0.120103
vt 0.499350 0.120103
vn 0.0000 0.0000 -1.0000
vn 1.0000 -0.0000 0.0000
vn 0.0000 -1.0000 -0.0000
vn -1.0000 0.0000 0.0000
vn 0.0000 -0.0000 1.0000
vn 0.0000 1.0000 0.0000
usemtl Material.001
s 1
f 2/1/1 7/2/1 8/3/1 1/4/1
f 1/5/2 8/3/2 5/6/2 4/7/2
f 2/8/3 1/9/3 4/10/3 3/11/3
f 3/11/4 6/12/4 7/2/4 2/8/4
f 4/13/5 5/6/5 6/12/5 3/14/5
f 8/3/6 7/2/6 6/12/6 5/6/6
