# Created by Metasequoia

v 0.000000 0.037184 2.102901
v 0.150302 0.037184 2.066417
v 0.288428 0.037184 1.959925
v 0.403187 0.041309 1.792048
v 0.485282 0.054991 1.576387
v 0.556469 0.100000 1.307730
v 0.552306 0.100000 -1.305316
v 0.552306 0.100000 -2.075750
v 0.509697 0.100000 -2.498602
v 0.454097 0.100000 -2.579193
v 0.367021 0.100000 -2.633199
v -0.000000 0.100000 -2.668961
v -0.367021 0.100000 -2.633199
v -0.454098 0.100000 -2.579193
v -0.509696 0.100000 -2.498602
v -0.552306 0.100000 -2.075750
v -0.552306 0.100000 -1.305316
v -0.556469 0.100000 1.307731
v -0.485282 0.054991 1.576387
v -0.403187 0.041309 1.792048
v -0.288428 0.037184 1.959924
v -0.150302 0.037184 2.066417
v 0.000000 -0.100000 2.080215
v 0.141571 -0.100000 2.043731
v 0.271672 -0.100000 1.937238
v 0.379764 -0.100000 1.769361
v 0.457090 -0.100000 1.553701
v 0.512494 -0.100000 1.307730
v 0.520220 -0.100000 -1.305316
v 0.520220 -0.100000 -2.052650
v 0.480086 -0.100000 -2.475502
v 0.427717 -0.100000 -2.556094
v 0.345699 -0.100000 -2.610100
v -0.000000 -0.100000 -2.645862
v -0.345699 -0.100000 -2.610100
v -0.427718 -0.100000 -2.556094
v -0.480085 -0.100000 -2.475503
v -0.520220 -0.100000 -2.052650
v -0.520220 -0.100000 -1.305316
v -0.512495 -0.100000 1.307731
v -0.457090 -0.100000 1.553701
v -0.379764 -0.100000 1.769361
v -0.271672 -0.100000 1.937238
v -0.141570 -0.100000 2.043731
v 0.000000 0.300000 2.245205
v 0.157203 0.300000 2.208722
v 0.301670 0.300000 2.102228
v 0.421698 0.300000 1.934352
v 0.507562 0.300000 1.718691
v 0.574789 0.300000 1.385939
v -0.574789 0.300000 1.385939
v -0.507562 0.300000 1.718691
v -0.421697 0.300000 1.934352
v -0.301670 0.300000 2.102228
v -0.157203 0.300000 2.208721
v 0.000000 0.167148 2.152390
v 0.150302 0.167148 2.115906
v 0.288428 0.167148 2.009413
v 0.403187 0.167148 1.841536
v 0.485282 0.167148 1.625875
v -0.485282 0.167148 1.625875
v -0.403187 0.167148 1.841536
v -0.288428 0.167148 2.009412
v -0.150302 0.167148 2.115906
v 0.000000 0.340000 2.255518
v 0.157203 0.340000 2.219034
v 0.301670 0.340000 2.112541
v 0.421697 0.340000 1.944664
v 0.507562 0.340000 1.729003
v -0.507562 0.340000 1.729003
v -0.421697 0.340000 1.944664
v -0.301670 0.340000 2.112541
v -0.157203 0.340000 2.219034
v 0.000000 0.340000 2.208802
v 0.131366 0.340000 2.184663
v 0.263663 0.340000 2.088841
v 0.379764 0.340000 1.938574
v 0.457090 0.340000 1.729003
v -0.457091 0.340000 1.729003
v -0.379764 0.340000 1.938574
v -0.263663 0.340000 2.088841
v -0.131366 0.340000 2.184663
v 0.000000 0.300000 2.198489
v 0.131366 0.300000 2.174350
v 0.263663 0.300000 2.078529
v 0.379763 0.300000 1.928261
v 0.457090 0.300000 1.718691
v -0.457091 0.300000 1.718691
v -0.379764 0.300000 1.928261
v -0.263663 0.300000 2.078529
v -0.131366 0.300000 2.174350
v 0.552306 0.300000 -1.397712
v 0.552306 0.300000 -2.075750
v 0.509697 0.300000 -2.498602
v 0.454097 0.300000 -2.579193
v 0.367021 0.300000 -2.633199
v -0.000000 0.300000 -2.668961
v -0.367021 0.300000 -2.633199
v -0.454098 0.300000 -2.579193
v -0.509696 0.300000 -2.498602
v -0.552306 0.300000 -2.075750
v -0.552306 0.300000 -1.397712
v 0.531527 1.000000 -1.520000
v 0.531527 0.839475 -1.520000
v 0.400000 0.755694 -1.520000
v 0.400000 0.200000 -1.520000
v 0.531527 1.000000 -1.834164
v 0.531527 0.839475 -1.834164
v 0.400000 0.755694 -1.834164
v 0.400000 0.200000 -1.834164
v -0.531527 1.000000 -1.834164
v -0.531527 0.839475 -1.834164
v -0.400000 0.755694 -1.834164
v -0.400000 0.200000 -1.834164
v -0.531527 1.000000 -1.520000
v -0.531527 0.839475 -1.520000
v -0.400000 0.755694 -1.520000
v -0.400000 0.200000 -1.520000
v 0.000000 1.339796 -2.092891
v 0.153626 1.339796 -2.092891
v 0.133045 1.339796 -2.194454
v 0.076813 1.339796 -2.268803
v -0.000000 1.339796 -2.296017
v -0.076813 1.339796 -2.268803
v -0.133044 1.339796 -2.194454
v -0.153626 1.339796 -2.092891
v -0.133045 1.339796 -1.991328
v -0.076813 1.339796 -1.916978
v -0.000000 1.339796 -1.889764
v 0.076813 1.339796 -1.916978
v 0.133044 1.339796 -1.991328
v 0.153626 0.652087 -2.092891
v 0.133045 0.652087 -2.194454
v 0.076813 0.652087 -2.268803
v -0.000000 0.652087 -2.296017
v -0.076813 0.652087 -2.268803
v -0.133044 0.652087 -2.194454
v -0.153626 0.652087 -2.092891
v -0.133045 0.652087 -1.991328
v -0.076813 0.652087 -1.916978
v -0.000000 0.652087 -1.889764
v 0.076813 0.652087 -1.916978
v 0.133044 0.652087 -1.991328
v 0.335929 1.000000 -1.520000
v 0.335929 1.000000 -1.834164
v -0.335929 1.000000 -1.834164
v -0.335929 1.000000 -1.520000
v 0.335929 1.129290 -1.520000
v 0.335929 1.129290 -1.834164
v -0.335929 1.129290 -1.834164
v -0.335929 1.129290 -1.520000
v 0.400000 0.755694 -2.345672
v 0.400000 0.200000 -2.345672
v -0.400000 0.755694 -2.345672
v -0.400000 0.200000 -2.345672
# 155 vertices

vt 0.95824 0.22053
vt 0.93821 0.22053
vt 0.93419 0.24478
vt 0.95423 0.24478
vt 0.91317 0.22053
vt 0.90916 0.24478
vt 0.88349 0.21980
vt 0.87948 0.24478
vt 0.84537 0.21738
vt 0.84136 0.24478
vt 0.79705 0.20976
vt 0.79787 0.24478
vt 0.33595 0.20942
vt 0.33595 0.24478
vt 0.19975 0.20942
vt 0.20384 0.24478
vt 0.12500 0.20942
vt 0.12909 0.24478
vt 0.11076 0.20942
vt 0.11484 0.24478
vt 0.09616 0.20942
vt 0.10025 0.24478
vt 0.02305 0.20942
vt 0.02713 0.24478
vt 0.02305 0.30987
vt 0.09616 0.30987
vt 0.10025 0.27452
vt 0.02713 0.27452
vt 0.11076 0.30987
vt 0.11484 0.27452
vt 0.12500 0.30987
vt 0.12909 0.27452
vt 0.19975 0.30987
vt 0.20384 0.27452
vt 0.33595 0.30987
vt 0.33595 0.27452
vt 0.79787 0.30954
vt 0.79787 0.27452
vt 0.84537 0.30192
vt 0.84136 0.27452
vt 0.91317 0.29877
vt 0.93821 0.29877
vt 0.93419 0.27452
vt 0.90916 0.27452
vt 0.95824 0.29877
vt 0.95423 0.27452
vt 0.10486 0.01623
vt 0.07763 0.02237
vt 0.07763 0.12358
vt 0.10486 0.12971
vt 0.39414 0.13056
vt 0.47688 0.13056
vt 0.47688 0.01538
vt 0.39414 0.01538
vt 0.05375 0.11501
vt 0.05375 0.03093
vt 0.03516 0.04290
vt 0.03516 0.10305
vt 0.02337 0.08864
vt 0.02337 0.05730
vt 0.01934 0.07297
vt 0.52369 0.12612
vt 0.52369 0.01982
vt 0.53262 0.12032
vt 0.53262 0.02562
vt 0.53860 0.11124
vt 0.54255 0.07297
vt 0.53860 0.03470
vt 0.85412 0.19755
vt 0.87052 0.17407
vt 0.80517 0.17407
vt 0.80517 0.34523
vt 0.87052 0.34523
vt 0.85412 0.32174
vt 0.26637 0.39187
vt 0.22857 0.38870
vt 0.22857 0.58798
vt 0.26637 0.58481
vt 0.89224 0.19755
vt 0.90865 0.17407
vt 0.89224 0.32174
vt 0.88349 0.29950
vt 0.90865 0.34523
vt 0.94695 0.19755
vt 0.96699 0.19755
vt 0.98340 0.17407
vt 0.96336 0.17407
vt 0.96699 0.32174
vt 0.94695 0.32174
vt 0.96336 0.34523
vt 0.98340 0.34523
vt 0.92192 0.19755
vt 0.93832 0.17407
vt 0.92192 0.32174
vt 0.93832 0.34523
vt 0.87948 0.27452
vt 0.08177 0.41458
vt 0.11988 0.39936
vt 0.11888 0.39156
vt 0.08077 0.40679
vt 0.12008 0.57885
vt 0.08193 0.56371
vt 0.07979 0.57151
vt 0.11909 0.58665
vt 0.02688 0.48921
vt 0.03330 0.46140
vt 0.02644 0.45693
vt 0.01847 0.48904
vt 0.03336 0.51700
vt 0.02560 0.52264
vt 0.05211 0.43584
vt 0.04794 0.42793
vt 0.05222 0.54252
vt 0.04900 0.55090
vt 0.08285 0.42200
vt 0.11989 0.40828
vt 0.12007 0.56993
vt 0.08300 0.55630
vt 0.03514 0.48920
vt 0.03939 0.46597
vt 0.03944 0.51242
vt 0.05630 0.44256
vt 0.05641 0.53580
vt 0.08606 0.42867
vt 0.12126 0.41542
vt 0.16448 0.56758
vt 0.16448 0.40910
vt 0.12815 0.42251
vt 0.12189 0.56279
vt 0.08712 0.55054
vt 0.12815 0.55417
vt 0.04226 0.48920
vt 0.04558 0.46781
vt 0.04633 0.50989
vt 0.08549 0.46557
vt 0.08131 0.48834
vt 0.08549 0.51111
vt 0.06066 0.44762
vt 0.10210 0.44263
vt 0.06099 0.53050
vt 0.10210 0.53405
vt 0.12715 0.57885
vt 0.12714 0.56992
vt 0.12696 0.39935
vt 0.12697 0.40828
vt 0.16448 0.40035
vt 0.16448 0.57633
vt 0.02305 0.34523
vt 0.09616 0.34523
vt 0.09616 0.17407
vt 0.02305 0.17407
vt 0.84313 0.55214
vt 0.84967 0.48500
vt 0.84313 0.41786
vt 0.19975 0.17407
vt 0.12500 0.17407
vt 0.81851 0.39176
vt 0.74116 0.38397
vt 0.74116 0.58603
vt 0.12500 0.34523
vt 0.19975 0.34523
vt 0.81851 0.57824
vt 0.11076 0.34523
vt 0.83325 0.56807
vt 0.83325 0.40193
vt 0.11076 0.17407
vt 0.31962 0.34523
vt 0.61713 0.58603
vt 0.61713 0.38397
vt 0.60023 0.38397
vt 0.60023 0.58603
vt 0.31962 0.17407
vt 0.65035 0.88359
vt 0.72409 0.88359
vt 0.72409 0.84592
vt 0.65035 0.84592
vt 0.72409 0.82625
vt 0.65035 0.82625
vt 0.65701 0.71763
vt 0.69685 0.71763
vt 0.69685 0.64717
vt 0.65701 0.64717
vt 0.90675 0.87721
vt 0.98049 0.87721
vt 0.98049 0.83953
vt 0.90675 0.83953
vt 0.98049 0.81986
vt 0.90675 0.81986
vt 0.92802 0.71763
vt 0.96785 0.71763
vt 0.96785 0.64717
vt 0.92802 0.64717
vt 0.69840 0.13986
vt 0.71671 0.13986
vt 0.71671 0.01585
vt 0.69840 0.01585
vt 0.73012 0.13986
vt 0.73012 0.01585
vt 0.74397 0.13986
vt 0.74397 0.01585
vt 0.56167 0.13986
vt 0.57552 0.13986
vt 0.57552 0.01585
vt 0.56167 0.01585
vt 0.58893 0.13986
vt 0.58893 0.01585
vt 0.60725 0.13986
vt 0.60725 0.01585
vt 0.62556 0.13986
vt 0.62556 0.01585
vt 0.63897 0.13986
vt 0.63897 0.01585
vt 0.65282 0.13986
vt 0.65282 0.01585
vt 0.66667 0.13986
vt 0.66667 0.01585
vt 0.68008 0.13986
vt 0.68008 0.01585
vt 0.85602 0.08514
vt 0.81045 0.14483
vt 0.85602 0.15406
vt 0.77710 0.11960
vt 0.76489 0.08514
vt 0.77710 0.05068
vt 0.81045 0.02545
vt 0.85602 0.01622
vt 0.90158 0.02545
vt 0.93494 0.05068
vt 0.94715 0.08514
vt 0.93494 0.11960
vt 0.90158 0.14483
vt 0.56192 0.40226
vt 0.56192 0.34780
vt 0.52801 0.34780
vt 0.52801 0.40226
vt 0.50409 0.40318
vt 0.50409 0.34872
vt 0.47018 0.34872
vt 0.47018 0.40318
vt 0.08262 0.69671
vt 0.13708 0.69671
vt 0.13708 0.67430
vt 0.08262 0.67430
vt 0.17030 0.69461
vt 0.22476 0.69461
vt 0.22476 0.67220
vt 0.17030 0.67220
vt 0.74450 0.81397
vt 0.74450 0.87928
vt 0.88415 0.87928
vt 0.88415 0.81397
vt 0.55885 0.59675
vt 0.53972 0.66969
vt 0.59812 0.66969
vt 0.59812 0.62177
vt 0.28074 0.66969
vt 0.33913 0.66969
vt 0.32001 0.59675
vt 0.28074 0.62177
vt 0.89747 0.95693
vt 0.92481 0.93952
vt 0.92481 0.90615
vt 0.88415 0.90615
vt 0.70384 0.90615
vt 0.70384 0.93952
vt 0.73118 0.95693
vt 0.74450 0.90615
vt 0.32001 0.43085
vt 0.55885 0.43085
vt 0.33913 0.70829
vt 0.53972 0.70829
vt 0.86315 0.71763
vt 0.76171 0.71763
vt 0.76171 0.78250
vt 0.86315 0.78250
vt 0.86315 0.64717
vt 0.97622 0.55903
vt 0.97622 0.42035
vt 0.88755 0.42035
vt 0.88755 0.55903
vt 0.76171 0.64717
vt 0.61374 0.99587
vt 0.61374 0.74053
vt 0.00970 0.73957
vt 0.00970 0.99683
# 285 texture vertices

vn 0.00000 -0.26485 0.96429
vn 0.42422 -0.25253 0.86964
vn 0.71413 -0.22569 0.66263
vn 0.87369 -0.19494 0.44572
vn 0.94387 -0.16757 0.28466
vn 0.96783 -0.18542 0.17008
vn 0.99332 -0.11541 0.00022
vn 0.99553 -0.08060 -0.04930
vn 0.93645 -0.08809 -0.33956
vn 0.69185 -0.08639 -0.71685
vn 0.32314 -0.07172 -0.94363
vn -0.00000 -0.06001 -0.99820
vn -0.32313 -0.07172 -0.94363
vn -0.69186 -0.08639 -0.71685
vn -0.93645 -0.08809 -0.33955
vn -0.99553 -0.08060 -0.04931
vn -0.99332 -0.11541 0.00022
vn -0.96783 -0.18542 0.17008
vn -0.94387 -0.16757 0.28466
vn -0.87369 -0.19494 0.44572
vn -0.71413 -0.22569 0.66263
vn -0.42422 -0.25253 0.86964
vn -0.00000 -0.17099 0.98527
vn 0.43491 -0.17911 0.88248
vn 0.72260 -0.19731 0.66250
vn 0.87357 -0.20962 0.43925
vn 0.93827 -0.20953 0.27521
vn 0.97407 -0.19820 0.10912
vn 0.98500 -0.17255 0.00033
vn 0.98584 -0.16067 -0.04810
vn 0.92701 -0.17529 -0.33155
vn 0.68885 -0.17208 -0.70419
vn 0.32421 -0.14314 -0.93509
vn -0.00000 -0.11982 -0.99280
vn -0.32421 -0.14314 -0.93509
vn -0.68885 -0.17208 -0.70418
vn -0.92701 -0.17529 -0.33154
vn -0.98584 -0.16067 -0.04810
vn -0.98500 -0.17255 0.00033
vn -0.97407 -0.19820 0.10912
vn -0.93827 -0.20953 0.27521
vn 0.00000 -1.00000 0.00000
vn -0.72260 -0.19731 0.66250
vn -0.43491 -0.17911 0.88248
vn -0.00000 -0.42026 0.90740
vn 0.38928 -0.39525 0.83201
vn 0.67525 -0.33689 0.65616
vn 0.84781 -0.26941 0.45677
vn 0.92045 -0.23596 0.31162
vn 0.94578 -0.23803 0.22102
vn -0.94578 -0.23803 0.22102
vn -0.92044 -0.23596 0.31162
vn -0.84781 -0.26941 0.45678
vn -0.67525 -0.33689 0.65616
vn -0.38928 -0.39525 0.83201
vn 0.00000 -0.47005 0.88264
vn 0.38779 -0.44077 0.80953
vn 0.67324 -0.37322 0.63833
vn 0.84562 -0.29737 0.44327
vn 0.93292 -0.21581 0.28824
vn -0.93292 -0.21581 0.28824
vn -0.84562 -0.29737 0.44328
vn -0.67324 -0.37322 0.63833
vn -0.38779 -0.44077 0.80953
vn -0.00000 -0.24965 0.96834
vn 0.40821 -0.22790 0.88398
vn 0.70140 -0.17794 0.69020
vn 0.87125 -0.12254 0.47529
vn 0.92487 -0.09494 0.36823
vn -0.92487 -0.09493 0.36823
vn -0.87125 -0.12254 0.47529
vn -0.70140 -0.17794 0.69020
vn -0.40821 -0.22790 0.88398
vn 0.00000 1.00000 0.00000
vn -0.00000 0.24965 -0.96834
vn -0.38376 0.23053 -0.89419
vn -0.68492 0.18190 -0.70555
vn -0.86844 0.12378 -0.48010
vn -0.93446 0.08889 -0.34479
vn 0.86844 0.12377 -0.48010
vn 0.68492 0.18190 -0.70555
vn 0.38376 0.23053 -0.89419
vn 0.00000 0.41939 0.90781
vn 0.99874 0.00000 -0.05019
vn 0.93863 0.00000 -0.34494
vn 0.32039 0.00000 -0.94729
vn -0.00000 0.00000 -1.00000
vn -0.32039 0.00000 -0.94729
vn -0.68966 0.00000 -0.72413
vn -0.93863 0.00000 -0.34493
vn -1.00000 -0.00000 -0.00000
vn 1.00000 0.00000 -0.00000
vn 0.87671 -0.48101 -0.00000
vn 0.87671 -0.48101 -0.00000
vn 1.00000 0.00000 -0.00000
vn 0.94894 -0.31544 -0.00000
vn 1.00000 0.00000 -0.00000
vn -1.00000 0.00000 0.00000
vn -0.87671 -0.48101 0.00000
vn -0.94894 -0.31544 -0.00000
vn -1.00000 0.00000 -0.00000
vn -0.87671 -0.48101 -0.00000
vn -1.00000 0.00000 -0.00000
vn 1.00000 0.00000 0.00000
vn 0.91156 0.00000 -0.41117
vn 0.59066 0.00000 -0.80692
vn 0.00000 0.00000 -1.00000
vn -0.59066 0.00000 -0.80692
vn -0.91156 0.00000 -0.41117
vn -1.00000 0.00000 -0.00000
vn -0.91156 0.00000 0.41117
vn -0.59066 0.00000 0.80692
vn 0.00000 0.00000 1.00000
vn 0.59066 0.00000 0.80692
vn 0.91156 0.00000 0.41117
vn 1.00000 0.00000 0.00000
vn -1.00000 0.00000 0.00000
vn -1.00000 0.00000 0.00000
vn -0.00000 0.36419 -0.93133
vn -0.87357 -0.20962 0.43925
vn 0.93446 0.08889 -0.34479
vn 0.00000 1.00000 0.00000
vn 0.00000 0.24965 -0.96834
vn -0.00000 0.24965 -0.96834
vn -0.99874 -0.00000 -0.05019
vn 0.68966 0.00000 -0.72413
vn 1.00000 0.00000 -0.00000
vn 0.00000 0.00000 1.00000
vn 0.00000 0.00000 1.00000
vn 1.00000 0.00000 0.00000
# 130 normal vertices

f 23/4/23 24/3/24 2/2/2 1/1/1
f 24/3/24 25/6/25 3/5/3 2/2/2
f 25/6/25 26/8/26 4/7/4 3/5/3
f 26/8/26 27/10/27 5/9/5 4/7/4
f 27/10/27 28/12/28 6/11/6 5/9/5
f 28/12/28 29/14/29 7/13/7 6/11/6
f 29/14/29 30/16/30 8/15/8 7/13/7
f 30/16/30 31/18/31 9/17/9 8/15/8
f 31/18/31 32/20/32 10/19/10 9/17/9
f 32/20/32 33/22/33 11/21/11 10/19/10
f 33/22/33 34/24/34 12/23/12 11/21/11
f 34/28/34 35/27/35 13/26/13 12/25/12
f 35/27/35 36/30/36 14/29/14 13/26/13
f 36/30/36 37/32/37 15/31/15 14/29/14
f 37/32/37 38/34/38 16/33/16 15/31/15
f 38/34/38 39/36/39 17/35/17 16/33/16
f 39/36/39 40/38/40 18/37/18 17/35/17
f 40/38/40 41/40/41 19/39/19 18/37/18
f 43/44/43 44/43/44 22/42/22 21/41/21
f 44/43/44 23/46/23 1/45/1 22/42/22
f 28/50/42 27/49/42 41/48/42 40/47/42
f 39/54/42 38/53/42 30/52/42 29/51/42
f 39/54/42 28/50/42 40/47/42
f 39/54/42 29/51/42 28/50/42
f 41/48/42 27/49/42 26/55/42
f 25/58/42 43/57/42 42/56/42
f 42/56/42 41/48/42 26/55/42
f 26/55/42 25/58/42 42/56/42
f 43/57/42 25/58/42 24/59/42
f 24/59/42 23/61/42 44/60/42
f 44/60/42 43/57/42 24/59/42
f 38/53/42 37/63/42 31/62/42
f 31/62/42 30/52/42 38/53/42
f 32/64/42 31/62/42 37/63/42
f 37/63/42 36/65/42 32/64/42
f 35/68/42 34/67/42 33/66/42
f 36/65/42 35/68/42 33/66/42
f 33/66/42 32/64/42 36/65/42
f 6/11/6 50/71/50 49/70/49 60/69/60
f 61/74/61 52/73/52 51/72/51 18/37/18
f 18/78/119 51/77/119 50/76/119 6/75/119
f 59/79/59 4/7/4 5/9/5 60/69/60
f 60/69/60 49/70/49 48/80/48 59/79/59
f 61/74/61 19/39/19 20/82/20 62/81/62
f 62/81/62 53/83/53 52/73/52 61/74/61
f 56/85/56 1/1/1 2/2/2 57/84/57
f 57/84/57 46/87/46 45/86/45 56/85/56
f 64/89/64 22/42/22 1/45/1 56/88/56
f 56/88/56 45/91/45 55/90/55 64/89/64
f 58/92/58 3/5/3 4/7/4 59/79/59
f 59/79/59 48/80/48 47/93/47 58/92/58
f 62/81/62 20/82/20 21/41/21 63/94/63
f 63/94/63 54/95/54 53/83/53 62/81/62
f 57/84/57 2/2/2 3/5/3 58/92/58
f 58/92/58 47/93/47 46/87/46 57/84/57
f 63/94/63 21/41/21 22/42/22 64/89/64
f 64/89/64 55/90/55 54/95/54 63/94/63
f 42/96/120 43/44/43 21/41/21 20/82/20
f 20/82/20 19/39/19 41/40/41 42/96/120
f 48/100/48 49/99/49 69/98/69 68/97/68
f 52/104/52 53/103/53 71/102/71 70/101/70
f 45/108/45 46/107/46 66/106/66 65/105/65
f 55/110/55 45/108/45 65/105/65 73/109/73
f 47/112/47 48/100/48 68/97/68 67/111/67
f 53/103/53 54/114/54 72/113/72 71/102/71
f 46/107/46 47/112/47 67/111/67 66/106/66
f 54/114/54 55/110/55 73/109/73 72/113/72
f 68/97/74 69/98/74 78/116/74 77/115/74
f 70/101/74 71/102/74 80/118/74 79/117/74
f 65/105/74 66/106/74 75/120/74 74/119/74
f 73/109/74 65/105/74 74/119/74 82/121/74
f 67/111/74 68/97/74 77/115/74 76/122/74
f 71/102/74 72/113/74 81/123/74 80/118/74
f 66/106/74 67/111/74 76/122/74 75/120/74
f 72/113/74 73/109/74 82/121/74 81/123/74
f 77/115/78 78/116/79 87/125/79 86/124/78
f 86/128/74 87/127/74 88/126/74
f 79/117/121 80/118/80 89/130/80 88/129/121
f 86/128/74 88/126/74 89/131/74
f 74/119/75 75/120/76 84/133/76 83/132/75
f 82/121/82 74/119/75 83/132/75 91/134/82
f 91/137/74 83/136/122 84/135/74
f 76/122/77 77/115/78 86/124/78 85/138/77
f 85/139/74 86/128/74 89/131/74
f 80/118/80 81/123/81 90/140/81 89/130/80
f 89/131/74 90/141/74 85/139/74
f 75/120/76 76/122/77 85/138/77 84/133/76
f 84/135/74 85/139/74 90/141/74
f 81/123/81 82/121/82 91/134/82 90/140/81
f 90/141/74 91/137/74 84/135/74
f 70/101/123 79/117/123 88/143/123 52/142/123
f 87/145/124 78/116/124 69/98/124 49/144/124
f 87/127/74 49/146/74 50/76/74
f 52/147/74 88/126/74 51/77/74
f 51/77/74 88/126/74 87/127/74 50/76/74
f 12/25/12 13/26/13 98/149/88 97/148/87
f 11/21/11 12/23/12 97/151/87 96/150/86
f 96/154/74 97/153/74 98/152/74
f 8/15/8 9/17/9 94/156/85 93/155/84
f 101/159/74 93/158/74 94/157/74
f 15/31/15 16/33/16 101/161/125 100/160/90
f 100/162/74 101/159/74 94/157/74
f 14/29/14 15/31/15 100/160/90 99/163/89
f 95/165/74 99/164/74 100/162/74
f 9/17/9 10/19/10 95/166/126 94/156/85
f 100/162/74 94/157/74 95/165/74
f 13/26/13 14/29/14 99/163/89 98/149/88
f 96/154/74 98/152/74 99/164/74
f 10/19/10 11/21/11 96/150/86 95/166/126
f 99/164/74 95/165/74 96/154/74
f 16/33/16 17/35/17 102/167/91 101/161/125
f 17/171/83 7/170/83 92/169/83 102/168/83
f 92/169/74 101/159/74 102/168/74
f 7/13/7 8/15/8 93/155/84 92/172/127
f 92/169/74 93/158/74 101/159/74
f 60/69/60 5/9/5 6/11/6
f 18/37/18 19/39/19 61/74/61
f 104/176/93 108/175/93 107/174/92 103/173/92
f 105/178/94 109/177/96 108/175/93 104/176/93
f 106/182/95 110/181/97 109/180/96 105/179/94
f 112/186/99 116/185/99 115/184/98 111/183/98
f 113/188/100 117/187/102 116/185/99 112/186/99
f 114/192/101 118/191/103 117/190/102 113/189/100
f 132/196/104 133/195/105 121/194/105 120/193/104
f 133/195/105 134/198/106 122/197/106 121/194/105
f 134/198/106 135/200/107 123/199/107 122/197/106
f 135/204/107 136/203/108 124/202/108 123/201/107
f 136/203/108 137/206/109 125/205/109 124/202/108
f 137/206/109 138/208/110 126/207/110 125/205/109
f 138/208/110 139/210/111 127/209/111 126/207/110
f 139/210/111 140/212/112 128/211/112 127/209/111
f 140/212/112 141/214/113 129/213/113 128/211/112
f 141/214/113 142/216/114 130/215/114 129/213/113
f 142/216/114 143/218/115 131/217/115 130/215/114
f 143/218/115 132/196/104 120/193/104 131/217/115
f 120/221/74 121/220/74 119/219/74
f 121/220/74 122/222/74 119/219/74
f 122/222/74 123/223/74 119/219/74
f 123/223/74 124/224/74 119/219/74
f 124/224/74 125/225/74 119/219/74
f 125/225/74 126/226/74 119/219/74
f 126/226/74 127/227/74 119/219/74
f 127/227/74 128/228/74 119/219/74
f 128/228/74 129/229/74 119/219/74
f 129/229/74 130/230/74 119/219/74
f 130/230/74 131/231/74 119/219/74
f 131/231/74 120/221/74 119/219/74
f 111/235/74 115/234/74 147/233/74 146/232/74
f 103/239/74 107/238/74 145/237/74 144/236/74
f 146/243/117 147/242/117 151/241/117 150/240/117
f 144/247/116 145/246/116 149/245/116 148/244/116
f 148/251/74 149/250/74 150/249/74 151/248/74
f 103/254/128 144/253/128 105/252/128
f 105/252/128 104/255/128 103/254/128
f 117/258/128 147/257/128 115/256/128
f 115/256/128 116/259/128 117/258/128
f 107/262/107 108/261/107 109/260/107
f 145/263/107 107/262/107 109/260/107
f 113/266/107 112/265/107 111/264/107
f 113/266/107 111/264/107 146/267/107
f 145/263/107 146/267/107 150/249/107
f 150/249/107 149/250/107 145/263/107
f 146/267/107 145/263/107 109/260/107
f 109/260/107 113/266/107 146/267/107
f 144/253/128 147/257/128 117/258/128
f 117/258/128 105/252/128 144/253/128
f 105/252/128 117/258/128 118/268/128
f 118/268/128 106/269/128 105/252/128
f 148/271/128 151/270/129 147/257/128
f 147/257/128 144/253/128 148/271/128
f 113/275/74 109/274/74 152/273/74 154/272/74
f 114/192/101 113/189/100 154/272/118 155/276/118
f 110/280/42 114/279/42 155/278/42 153/277/42
f 109/180/96 110/181/97 153/281/130 152/273/130
f 153/281/107 155/276/107 154/272/107 152/273/107
f 18/285/74 6/284/74 7/283/74 17/282/74
# 176 elements

