g Cylinder
v -0 0.00999999978 -0.00999999978
v 0.00195090321 0.0098078521 -0.00999999978
v 0.00195090321 0.0098078521 0.00999999978
v -0 0.00999999978 0.00999999978
v 0.00195090321 0.0098078521 -0.00999999978
v 0.00382683449 0.00923879445 -0.00999999978
v 0.00382683449 0.00923879445 0.00999999978
v 0.00195090321 0.0098078521 0.00999999978
v 0.00382683449 0.00923879445 -0.00999999978
v 0.00555570237 0.00831469614 -0.00999999978
v 0.00555570237 0.00831469614 0.00999999978
v 0.00382683449 0.00923879445 0.00999999978
v 0.00555570237 0.00831469614 -0.00999999978
v 0.00707106758 0.00707106758 -0.00999999978
v 0.00707106758 0.00707106758 0.00999999978
v 0.00555570237 0.00831469614 0.00999999978
v 0.00707106758 0.00707106758 -0.00999999978
v 0.00831469614 0.00555570237 -0.00999999978
v 0.00831469614 0.00555570237 0.00999999978
v 0.00707106758 0.00707106758 0.00999999978
v 0.00831469614 0.00555570237 -0.00999999978
v 0.00923879445 0.00382683426 -0.00999999978
v 0.00923879445 0.00382683426 0.00999999978
v 0.00831469614 0.00555570237 0.00999999978
v 0.00923879445 0.00382683426 -0.00999999978
v 0.0098078521 0.00195090345 -0.00999999978
v 0.0098078521 0.00195090345 0.00999999978
v 0.00923879445 0.00382683426 0.00999999978
v 0.0098078521 0.00195090345 -0.00999999978
v 0.00999999978 -4.37113873E-10 -0.00999999978
v 0.00999999978 -4.37113873E-10 0.00999999978
v 0.0098078521 0.00195090345 0.00999999978
v 0.00999999978 -4.37113873E-10 -0.00999999978
v 0.0098078521 -0.00195090321 -0.00999999978
v 0.0098078521 -0.00195090321 0.00999999978
v 0.00999999978 -4.37113873E-10 0.00999999978
v 0.0098078521 -0.00195090321 -0.00999999978
v 0.00923879538 -0.0038268338 -0.00999999978
v 0.00923879538 -0.0038268338 0.00999999978
v 0.0098078521 -0.00195090321 0.00999999978
v 0.00923879538 -0.0038268338 -0.00999999978
v 0.00831469614 -0.00555570191 -0.00999999978
v 0.00831469614 -0.00555570191 0.00999999978
v 0.00923879538 -0.0038268338 0.00999999978
v 0.00831469614 -0.00555570191 -0.00999999978
v 0.00707106758 -0.00707106758 -0.00999999978
v 0.00707106758 -0.00707106758 0.00999999978
v 0.00831469614 -0.00555570191 0.00999999978
v 0.00707106758 -0.00707106758 -0.00999999978
v 0.00555570191 -0.00831469614 -0.00999999978
v 0.00555570191 -0.00831469614 0.00999999978
v 0.00707106758 -0.00707106758 0.00999999978
v 0.00555570191 -0.00831469614 -0.00999999978
v 0.00382683473 -0.00923879445 -0.00999999978
v 0.00382683473 -0.00923879445 0.00999999978
v 0.00555570191 -0.00831469614 0.00999999978
v 0.00382683473 -0.00923879445 -0.00999999978
v 0.0019509031 -0.00980785303 -0.00999999978
v 0.0019509031 -0.00980785303 0.00999999978
v 0.00382683473 -0.00923879445 0.00999999978
v 0.0019509031 -0.00980785303 -0.00999999978
v -8.74227746E-10 -0.00999999978 -0.00999999978
v -8.74227746E-10 -0.00999999978 0.00999999978
v 0.0019509031 -0.00980785303 0.00999999978
v -8.74227746E-10 -0.00999999978 -0.00999999978
v -0.0019509024 -0.00980785303 -0.00999999978
v -0.0019509024 -0.00980785303 0.00999999978
v -8.74227746E-10 -0.00999999978 0.00999999978
v -0.0019509024 -0.00980785303 -0.00999999978
v -0.00382683426 -0.00923879445 -0.00999999978
v -0.00382683426 -0.00923879445 0.00999999978
v -0.0019509024 -0.00980785303 0.00999999978
v -0.00382683426 -0.00923879445 -0.00999999978
v -0.00555570284 -0.00831469521 -0.00999999978
v -0.00555570284 -0.00831469521 0.00999999978
v -0.00382683426 -0.00923879445 0.00999999978
v -0.00555570284 -0.00831469521 -0.00999999978
v -0.00707106711 -0.00707106804 -0.00999999978
v -0.00707106711 -0.00707106804 0.00999999978
v -0.00555570284 -0.00831469521 0.00999999978
v -0.00707106711 -0.00707106804 -0.00999999978
v -0.00831469428 -0.00555570424 -0.00999999978
v -0.00831469428 -0.00555570424 0.00999999978
v -0.00707106711 -0.00707106804 0.00999999978
v -0.00831469428 -0.00555570424 -0.00999999978
v -0.00923879445 -0.00382683566 -0.00999999978
v -0.00923879445 -0.00382683566 0.00999999978
v -0.00831469428 -0.00555570424 0.00999999978
v -0.00923879445 -0.00382683566 -0.00999999978
v -0.0098078521 -0.0019509038 -0.00999999978
v -0.0098078521 -0.0019509038 0.00999999978
v -0.00923879445 -0.00382683566 0.00999999978
v -0.0098078521 -0.0019509038 -0.00999999978
v -0.00999999978 1.19248805E-10 -0.00999999978
v -0.00999999978 1.19248805E-10 0.00999999978
v -0.0098078521 -0.0019509038 0.00999999978
v -0.00999999978 1.19248805E-10 -0.00999999978
v -0.0098078521 0.00195090414 -0.00999999978
v -0.0098078521 0.00195090414 0.00999999978
v -0.00999999978 1.19248805E-10 0.00999999978
v -0.0098078521 0.00195090414 -0.00999999978
v -0.00923879445 0.00382683589 -0.00999999978
v -0.00923879445 0.00382683589 0.00999999978
v -0.0098078521 0.00195090414 0.00999999978
v -0.00923879445 0.00382683589 -0.00999999978
v -0.00831469707 0.00555570051 -0.00999999978
v -0.00831469707 0.00555570051 0.00999999978
v -0.00923879445 0.00382683589 0.00999999978
v -0.00831469707 0.00555570051 -0.00999999978
v -0.00707106851 0.00707106711 -0.00999999978
v -0.00707106851 0.00707106711 0.00999999978
v -0.00831469707 0.00555570051 0.00999999978
v -0.00707106851 0.00707106711 -0.00999999978
v -0.00555570284 0.00831469614 -0.00999999978
v -0.00555570284 0.00831469614 0.00999999978
v -0.00707106851 0.00707106711 0.00999999978
v -0.00555570284 0.00831469614 -0.00999999978
v -0.00382683426 0.00923879538 -0.00999999978
v -0.00382683426 0.00923879538 0.00999999978
v -0.00555570284 0.00831469614 0.00999999978
v 0.0098078521 0.00195090345 0.00999999978
v 0.00999999978 -4.37113873E-10 0.00999999978
v 0.0098078521 -0.00195090321 0.00999999978
v 0.00923879445 0.00382683426 0.00999999978
v 0.00923879538 -0.0038268338 0.00999999978
v 0.00831469614 -0.00555570191 0.00999999978
v 0.00831469614 0.00555570237 0.00999999978
v 0.00707106758 -0.00707106758 0.00999999978
v 0.00707106758 0.00707106758 0.00999999978
v 0.00555570237 0.00831469614 0.00999999978
v 0.00555570191 -0.00831469614 0.00999999978
v 0.00382683449 0.00923879445 0.00999999978
v 0.00382683473 -0.00923879445 0.00999999978
v 0.0019509031 -0.00980785303 0.00999999978
v 0.00195090321 0.0098078521 0.00999999978
v -0 0.00999999978 0.00999999978
v -8.74227746E-10 -0.00999999978 0.00999999978
v -0.00195090228 0.00980785303 0.00999999978
v -0.0019509024 -0.00980785303 0.00999999978
v -0.00382683426 0.00923879538 0.00999999978
v -0.00382683426 -0.00923879445 0.00999999978
v -0.00555570284 0.00831469614 0.00999999978
v -0.00555570284 -0.00831469521 0.00999999978
v -0.00707106851 0.00707106711 0.00999999978
v -0.00707106711 -0.00707106804 0.00999999978
v -0.00831469428 -0.00555570424 0.00999999978
v -0.00831469707 0.00555570051 0.00999999978
v -0.00923879445 -0.00382683566 0.00999999978
v -0.00923879445 0.00382683589 0.00999999978
v -0.0098078521 0.00195090414 0.00999999978
v -0.0098078521 -0.0019509038 0.00999999978
v -0.00999999978 1.19248805E-10 0.00999999978
v -0.00382683426 0.00923879538 -0.00999999978
v -0.00195090228 0.00980785303 -0.00999999978
v -0.00195090228 0.00980785303 0.00999999978
v -0.00382683426 0.00923879538 0.00999999978
v -0.00195090228 0.00980785303 -0.00999999978
v -0 0.00999999978 -0.00999999978
v -0 0.00999999978 0.00999999978
v -0.00195090228 0.00980785303 0.00999999978
v 0.0098078521 -0.00195090321 -0.00999999978
v 0.00999999978 -4.37113873E-10 -0.00999999978
v 0.0098078521 0.00195090345 -0.00999999978
v 0.00923879538 -0.0038268338 -0.00999999978
v 0.00923879445 0.00382683426 -0.00999999978
v 0.00831469614 -0.00555570191 -0.00999999978
v 0.00831469614 0.00555570237 -0.00999999978
v 0.00707106758 -0.00707106758 -0.00999999978
v 0.00707106758 0.00707106758 -0.00999999978
v 0.00555570191 -0.00831469614 -0.00999999978
v 0.00555570237 0.00831469614 -0.00999999978
v 0.00382683449 0.00923879445 -0.00999999978
v 0.00382683473 -0.00923879445 -0.00999999978
v 0.0019509031 -0.00980785303 -0.00999999978
v 0.00195090321 0.0098078521 -0.00999999978
v -0 0.00999999978 -0.00999999978
v -8.74227746E-10 -0.00999999978 -0.00999999978
v -0.00195090228 0.00980785303 -0.00999999978
v -0.0019509024 -0.00980785303 -0.00999999978
v -0.00382683426 0.00923879538 -0.00999999978
v -0.00382683426 -0.00923879445 -0.00999999978
v -0.00555570284 -0.00831469521 -0.00999999978
v -0.00555570284 0.00831469614 -0.00999999978
v -0.00707106711 -0.00707106804 -0.00999999978
v -0.00707106851 0.00707106711 -0.00999999978
v -0.00831469428 -0.00555570424 -0.00999999978
v -0.00831469707 0.00555570051 -0.00999999978
v -0.00923879445 -0.00382683566 -0.00999999978
v -0.00923879445 0.00382683589 -0.00999999978
v -0.0098078521 0.00195090414 -0.00999999978
v -0.0098078521 -0.0019509038 -0.00999999978
v -0.00999999978 1.19248805E-10 -0.00999999978
vt 1 0.5
vt 0.96875 0.5
vt 0.96875 1
vt 1 1
vt 0.96875 0.5
vt 0.9375 0.5
vt 0.9375 1
vt 0.96875 1
vt 0.9375 0.5
vt 0.90625 0.5
vt 0.90625 1
vt 0.9375 1
vt 0.90625 0.5
vt 0.875 0.5
vt 0.875 1
vt 0.90625 1
vt 0.875 0.5
vt 0.84375 0.5
vt 0.84375 1
vt 0.875 1
vt 0.84375 0.5
vt 0.8125 0.5
vt 0.8125 1
vt 0.84375 1
vt 0.8125 0.5
vt 0.78125 0.5
vt 0.78125 1
vt 0.8125 1
vt 0.78125 0.5
vt 0.75 0.5
vt 0.75 1
vt 0.78125 1
vt 0.75 0.5
vt 0.71875 0.5
vt 0.71875 1
vt 0.75 1
vt 0.71875 0.5
vt 0.6875 0.5
vt 0.6875 1
vt 0.71875 1
vt 0.6875 0.5
vt 0.65625 0.5
vt 0.65625 1
vt 0.6875 1
vt 0.65625 0.5
vt 0.625 0.5
vt 0.625 1
vt 0.65625 1
vt 0.625 0.5
vt 0.59375 0.5
vt 0.59375 1
vt 0.625 1
vt 0.59375 0.5
vt 0.5625 0.5
vt 0.5625 1
vt 0.59375 1
vt 0.5625 0.5
vt 0.53125 0.5
vt 0.53125 1
vt 0.5625 1
vt 0.53125 0.5
vt 0.5 0.5
vt 0.5 1
vt 0.53125 1
vt 0.5 0.5
vt 0.46875 0.5
vt 0.46875 1
vt 0.5 1
vt 0.46875 0.5
vt 0.4375 0.5
vt 0.4375 1
vt 0.46875 1
vt 0.4375 0.5
vt 0.40625 0.5
vt 0.40625 1
vt 0.4375 1
vt 0.40625 0.5
vt 0.375 0.5
vt 0.375 1
vt 0.40625 1
vt 0.375 0.5
vt 0.34375 0.5
vt 0.34375 1
vt 0.375 1
vt 0.34375 0.5
vt 0.3125 0.5
vt 0.3125 1
vt 0.34375 1
vt 0.3125 0.5
vt 0.28125 0.5
vt 0.28125 1
vt 0.3125 1
vt 0.28125 0.5
vt 0.25 0.5
vt 0.25 1
vt 0.28125 1
vt 0.25 0.5
vt 0.21875 0.5
vt 0.21875 1
vt 0.25 1
vt 0.21875 0.5
vt 0.1875 0.5
vt 0.1875 1
vt 0.21875 1
vt 0.1875 0.5
vt 0.15625 0.5
vt 0.15625 1
vt 0.1875 1
vt 0.15625 0.5
vt 0.125 0.5
vt 0.125 1
vt 0.15625 1
vt 0.125 0.5
vt 0.09375 0.5
vt 0.09375 1
vt 0.125 1
vt 0.09375 0.5
vt 0.0625 0.5
vt 0.0625 1
vt 0.09375 1
vt 0.485388458 0.296821684
vt 0.49000001 0.249999985
vt 0.485388458 0.203178316
vt 0.471731067 0.341844022
vt 0.471731097 0.158155978
vt 0.449552715 0.116663158
vt 0.449552715 0.383336842
vt 0.419705629 0.0802943856
vt 0.419705629 0.419705629
vt 0.383336842 0.449552715
vt 0.383336842 0.0504472852
vt 0.341844022 0.471731067
vt 0.341844022 0.0282689184
vt 0.296821684 0.0146115273
vt 0.296821684 0.485388458
vt 0.25 0.49000001
vt 0.249999985 0.0100000054
vt 0.203178346 0.485388458
vt 0.203178346 0.0146115273
vt 0.158155978 0.471731097
vt 0.158155978 0.0282689184
vt 0.116663128 0.449552715
vt 0.116663128 0.050447315
vt 0.0802943558 0.4197056
vt 0.0802944005 0.0802943707
vt 0.0504473299 0.116663098
vt 0.0504472703 0.383336812
vt 0.0282689184 0.158155948
vt 0.0282689333 0.341844052
vt 0.0146115422 0.296821713
vt 0.0146115422 0.203178316
vt 0.0100000054 0.25
vt 0.0625 0.5
vt 0.03125 0.5
vt 0.03125 1
vt 0.0625 1
vt 0.03125 0.5
vt 0 0.5
vt 0 1
vt 0.03125 1
vt 0.985388458 0.203178316
vt 0.99000001 0.249999985
vt 0.985388458 0.296821684
vt 0.971731067 0.158155978
vt 0.971731067 0.341844022
vt 0.949552715 0.116663158
vt 0.949552715 0.383336842
vt 0.919705629 0.0802943856
vt 0.919705629 0.419705629
vt 0.883336842 0.0504472852
vt 0.883336842 0.449552715
vt 0.841844022 0.471731067
vt 0.841844022 0.0282689184
vt 0.796821654 0.0146115273
vt 0.796821654 0.485388458
vt 0.75 0.49000001
vt 0.75 0.0100000054
vt 0.703178346 0.485388458
vt 0.703178346 0.0146115273
vt 0.658155978 0.471731097
vt 0.658155978 0.0282689184
vt 0.616663098 0.050447315
vt 0.616663098 0.449552715
vt 0.580294371 0.0802943707
vt 0.580294371 0.4197056
vt 0.550447345 0.116663098
vt 0.550447285 0.383336812
vt 0.528268933 0.158155948
vt 0.528268933 0.341844052
vt 0.514611542 0.296821713
vt 0.514611542 0.203178316
vt 0.50999999 0.25
vn 0.0980172902 0.99518472 0
vn 0.0980172902 0.99518472 0
vn 0.0980172902 0.99518472 0
vn 0.0980172902 0.99518472 0
vn 0.290284634 0.956940353 0
vn 0.290284634 0.956940353 0
vn 0.290284634 0.956940353 0
vn 0.290284634 0.956940353 0
vn 0.471396714 0.881921291 0
vn 0.471396714 0.881921291 0
vn 0.471396714 0.881921291 0
vn 0.471396714 0.881921291 0
vn 0.634393394 0.773010433 0
vn 0.634393394 0.773010433 0
vn 0.634393394 0.773010433 0
vn 0.634393394 0.773010433 0
vn 0.773010433 0.634393394 0
vn 0.773010433 0.634393394 0
vn 0.773010433 0.634393394 0
vn 0.773010433 0.634393394 0
vn 0.881921291 0.471396595 0
vn 0.881921291 0.471396595 0
vn 0.881921291 0.471396595 0
vn 0.881921291 0.471396595 0
vn 0.956940353 0.290284753 0
vn 0.956940353 0.290284753 0
vn 0.956940353 0.290284753 0
vn 0.956940353 0.290284753 0
vn 0.99518472 0.098017253 0
vn 0.99518472 0.098017253 0
vn 0.99518472 0.098017253 0
vn 0.99518472 0.098017253 0
vn 0.99518472 -0.0980173126 0
vn 0.99518472 -0.0980173126 0
vn 0.99518472 -0.0980173126 0
vn 0.99518472 -0.0980173126 0
vn 0.956940353 -0.290284455 0
vn 0.956940353 -0.290284455 0
vn 0.956940353 -0.290284455 0
vn 0.956940353 -0.290284455 0
vn 0.881921291 -0.471396714 0
vn 0.881921291 -0.471396714 0
vn 0.881921291 -0.471396714 0
vn 0.881921291 -0.471396714 0
vn 0.773010433 -0.634393394 0
vn 0.773010433 -0.634393394 0
vn 0.773010433 -0.634393394 0
vn 0.773010433 -0.634393394 0
vn 0.634393394 -0.773010433 0
vn 0.634393394 -0.773010433 0
vn 0.634393394 -0.773010433 0
vn 0.634393394 -0.773010433 0
vn 0.471396655 -0.881921291 0
vn 0.471396655 -0.881921291 0
vn 0.471396655 -0.881921291 0
vn 0.471396655 -0.881921291 0
vn 0.290284842 -0.956940234 0
vn 0.290284842 -0.956940234 0
vn 0.290284842 -0.956940234 0
vn 0.290284842 -0.956940234 0
vn 0.098016955 -0.99518472 0
vn 0.098016955 -0.99518472 0
vn 0.098016955 -0.99518472 0
vn 0.098016955 -0.99518472 0
vn -0.0980170593 -0.99518472 0
vn -0.0980170593 -0.99518472 0
vn -0.0980170593 -0.99518472 0
vn -0.0980170593 -0.99518472 0
vn -0.290284842 -0.956940234 0
vn -0.290284842 -0.956940234 0
vn -0.290284842 -0.956940234 0
vn -0.290284842 -0.956940234 0
vn -0.471396774 -0.881921232 0
vn -0.471396774 -0.881921232 0
vn -0.471396774 -0.881921232 0
vn -0.471396774 -0.881921232 0
vn -0.634393275 -0.773010433 0
vn -0.634393275 -0.773010433 0
vn -0.634393275 -0.773010433 0
vn -0.634393275 -0.773010433 0
vn -0.773010314 -0.634393454 0
vn -0.773010314 -0.634393454 0
vn -0.773010314 -0.634393454 0
vn -0.773010314 -0.634393454 0
vn -0.881921053 -0.471397042 0
vn -0.881921053 -0.471397042 0
vn -0.881921053 -0.471397042 0
vn -0.881921053 -0.471397042 0
vn -0.956940353 -0.290284574 0
vn -0.956940353 -0.290284574 0
vn -0.956940353 -0.290284574 0
vn -0.956940353 -0.290284574 0
vn -0.99518472 -0.098017253 0
vn -0.99518472 -0.098017253 0
vn -0.99518472 -0.098017253 0
vn -0.99518472 -0.098017253 0
vn -0.99518472 0.098017253 0
vn -0.99518472 0.098017253 0
vn -0.99518472 0.098017253 0
vn -0.99518472 0.098017253 0
vn -0.956940234 0.290284812 0
vn -0.956940234 0.290284812 0
vn -0.956940234 0.290284812 0
vn -0.956940234 0.290284812 0
vn -0.881921291 0.471396714 0
vn -0.881921291 0.471396714 0
vn -0.881921291 0.471396714 0
vn -0.881921291 0.471396714 0
vn -0.773010671 0.634393096 0
vn -0.773010671 0.634393096 0
vn -0.773010671 0.634393096 0
vn -0.773010671 0.634393096 0
vn -0.634393394 0.773010433 0
vn -0.634393394 0.773010433 0
vn -0.634393394 0.773010433 0
vn -0.634393394 0.773010433 0
vn -0.471396774 0.881921232 0
vn -0.471396774 0.881921232 0
vn -0.471396774 0.881921232 0
vn -0.471396774 0.881921232 0
vn -0 0 1
vn -0 0 1
vn -0 0 1
vn -0 0 1
vn -0 0 1
vn -0 0 1
vn -0 0 1
vn -0 0 1
vn -0 0 1
vn -0 0 1
vn -0 0 1
vn -0 0 1
vn -0 0 1
vn -0 0 1
vn -0 0 1
vn -0 0 1
vn -0 0 1
vn -0 0 1
vn -0 0 1
vn -0 0 1
vn -0 0 1
vn -0 0 1
vn -0 0 1
vn -0 0 1
vn -0 0 1
vn -0 0 1
vn -0 0 1
vn -0 0 1
vn -0 0 1
vn -0 0 1
vn -0 0 1
vn -0 0 1
vn -0.290284574 0.956940353 0
vn -0.290284574 0.956940353 0
vn -0.290284574 0.956940353 0
vn -0.290284574 0.956940353 0
vn -0.0980170295 0.99518472 0
vn -0.0980170295 0.99518472 0
vn -0.0980170295 0.99518472 0
vn -0.0980170295 0.99518472 0
vn -0 0 -1
vn -0 0 -1
vn -0 0 -1
vn -0 0 -1
vn -0 0 -1
vn -0 0 -1
vn -0 0 -1
vn -0 0 -1
vn -0 0 -1
vn -0 0 -1
vn -0 0 -1
vn -0 0 -1
vn -0 0 -1
vn -0 0 -1
vn -0 0 -1
vn -0 0 -1
vn -0 0 -1
vn -0 0 -1
vn -0 0 -1
vn -0 0 -1
vn -0 0 -1
vn -0 0 -1
vn -0 0 -1
vn -0 0 -1
vn -0 0 -1
vn -0 0 -1
vn -0 0 -1
vn -0 0 -1
vn -0 0 -1
vn -0 0 -1
vn -0 0 -1
vn -0 0 -1
g Cylinder_0
f 3/3/3 2/2/2 1/1/1
f 4/4/4 3/3/3 1/1/1
f 7/7/7 6/6/6 5/5/5
f 8/8/8 7/7/7 5/5/5
f 11/11/11 10/10/10 9/9/9
f 12/12/12 11/11/11 9/9/9
f 15/15/15 14/14/14 13/13/13
f 16/16/16 15/15/15 13/13/13
f 19/19/19 18/18/18 17/17/17
f 20/20/20 19/19/19 17/17/17
f 23/23/23 22/22/22 21/21/21
f 24/24/24 23/23/23 21/21/21
f 27/27/27 26/26/26 25/25/25
f 28/28/28 27/27/27 25/25/25
f 31/31/31 30/30/30 29/29/29
f 32/32/32 31/31/31 29/29/29
f 35/35/35 34/34/34 33/33/33
f 36/36/36 35/35/35 33/33/33
f 39/39/39 38/38/38 37/37/37
f 40/40/40 39/39/39 37/37/37
f 43/43/43 42/42/42 41/41/41
f 44/44/44 43/43/43 41/41/41
f 47/47/47 46/46/46 45/45/45
f 48/48/48 47/47/47 45/45/45
f 51/51/51 50/50/50 49/49/49
f 52/52/52 51/51/51 49/49/49
f 55/55/55 54/54/54 53/53/53
f 56/56/56 55/55/55 53/53/53
f 59/59/59 58/58/58 57/57/57
f 60/60/60 59/59/59 57/57/57
f 63/63/63 62/62/62 61/61/61
f 64/64/64 63/63/63 61/61/61
f 67/67/67 66/66/66 65/65/65
f 68/68/68 67/67/67 65/65/65
f 71/71/71 70/70/70 69/69/69
f 72/72/72 71/71/71 69/69/69
f 75/75/75 74/74/74 73/73/73
f 76/76/76 75/75/75 73/73/73
f 79/79/79 78/78/78 77/77/77
f 80/80/80 79/79/79 77/77/77
f 83/83/83 82/82/82 81/81/81
f 84/84/84 83/83/83 81/81/81
f 87/87/87 86/86/86 85/85/85
f 88/88/88 87/87/87 85/85/85
f 91/91/91 90/90/90 89/89/89
f 92/92/92 91/91/91 89/89/89
f 95/95/95 94/94/94 93/93/93
f 96/96/96 95/95/95 93/93/93
f 99/99/99 98/98/98 97/97/97
f 100/100/100 99/99/99 97/97/97
f 103/103/103 102/102/102 101/101/101
f 104/104/104 103/103/103 101/101/101
f 107/107/107 106/106/106 105/105/105
f 108/108/108 107/107/107 105/105/105
f 111/111/111 110/110/110 109/109/109
f 112/112/112 111/111/111 109/109/109
f 115/115/115 114/114/114 113/113/113
f 116/116/116 115/115/115 113/113/113
f 119/119/119 118/118/118 117/117/117
f 120/120/120 119/119/119 117/117/117
f 123/123/123 122/122/122 121/121/121
f 121/121/121 124/124/124 123/123/123
f 124/124/124 125/125/125 123/123/123
f 124/124/124 126/126/126 125/125/125
f 124/124/124 127/127/127 126/126/126
f 127/127/127 128/128/128 126/126/126
f 127/127/127 129/129/129 128/128/128
f 129/129/129 130/130/130 128/128/128
f 130/130/130 131/131/131 128/128/128
f 130/130/130 132/132/132 131/131/131
f 132/132/132 133/133/133 131/131/131
f 132/132/132 134/134/134 133/133/133
f 132/132/132 135/135/135 134/134/134
f 135/135/135 136/136/136 134/134/134
f 136/136/136 137/137/137 134/134/134
f 136/136/136 138/138/138 137/137/137
f 138/138/138 139/139/139 137/137/137
f 138/138/138 140/140/140 139/139/139
f 140/140/140 141/141/141 139/139/139
f 140/140/140 142/142/142 141/141/141
f 142/142/142 143/143/143 141/141/141
f 142/142/142 144/144/144 143/143/143
f 144/144/144 145/145/145 143/143/143
f 144/144/144 146/146/146 145/145/145
f 144/144/144 147/147/147 146/146/146
f 147/147/147 148/148/148 146/146/146
f 147/147/147 149/149/149 148/148/148
f 149/149/149 150/150/150 148/148/148
f 150/150/150 151/151/151 148/148/148
f 150/150/150 152/152/152 151/151/151
f 155/155/155 154/154/154 153/153/153
f 156/156/156 155/155/155 153/153/153
f 159/159/159 158/158/158 157/157/157
f 160/160/160 159/159/159 157/157/157
f 163/163/163 162/162/162 161/161/161
f 161/161/161 164/164/164 163/163/163
f 164/164/164 165/165/165 163/163/163
f 164/164/164 166/166/166 165/165/165
f 166/166/166 167/167/167 165/165/165
f 166/166/166 168/168/168 167/167/167
f 168/168/168 169/169/169 167/167/167
f 168/168/168 170/170/170 169/169/169
f 170/170/170 171/171/171 169/169/169
f 170/170/170 172/172/172 171/171/171
f 170/170/170 173/173/173 172/172/172
f 173/173/173 174/174/174 172/172/172
f 174/174/174 175/175/175 172/172/172
f 174/174/174 176/176/176 175/175/175
f 174/174/174 177/177/177 176/176/176
f 177/177/177 178/178/178 176/176/176
f 177/177/177 179/179/179 178/178/178
f 179/179/179 180/180/180 178/178/178
f 179/179/179 181/181/181 180/180/180
f 181/181/181 182/182/182 180/180/180
f 182/182/182 183/183/183 180/180/180
f 182/182/182 184/184/184 183/183/183
f 184/184/184 185/185/185 183/183/183
f 184/184/184 186/186/186 185/185/185
f 186/186/186 187/187/187 185/185/185
f 186/186/186 188/188/188 187/187/187
f 188/188/188 189/189/189 187/187/187
f 188/188/188 190/190/190 189/189/189
f 188/188/188 191/191/191 190/190/190
f 191/191/191 192/192/192 190/190/190
