# Blender v2.77 (sub 0) OBJ File: 'glassstone1-decimated.blend'
# www.blender.org
mtllib glassstone1-128.mtl
o Sphere
v -0.307010 0.084392 -0.059993
v -0.273850 0.063221 -0.076905
v -0.253111 0.161228 0.013763
v -0.245473 0.123957 -0.166564
v -0.308841 0.078227 0.017362
v -0.264869 0.076084 -0.147528
v -0.245925 0.165471 -0.070883
v -0.111699 0.128848 -0.254542
v -0.169033 0.158099 -0.187390
v -0.278211 0.066863 0.085370
v -0.273491 0.093525 0.136314
v -0.170362 0.068457 -0.217207
v -0.216806 0.160908 0.110557
v -0.161068 0.185087 -0.109801
v -0.225926 0.105800 0.187614
v -0.210307 0.071231 0.182485
v -0.149511 0.083669 -0.249816
v -0.140799 0.082934 0.234348
v -0.138620 0.140462 0.211407
v -0.180470 0.190382 0.027930
v -0.036170 0.211924 -0.079123
v -0.016251 0.094085 -0.289416
v 0.099963 0.116559 -0.264467
v -0.057642 0.060277 -0.231294
v 0.030400 0.135627 -0.270552
v -0.022807 0.198997 -0.159892
v 0.015601 0.072722 -0.278031
v -0.015639 0.110272 0.257824
v -0.010218 0.171891 -0.228931
v 0.036592 0.085339 0.255765
v -0.045869 0.165904 0.199854
v -0.139651 0.181220 0.132347
v -0.070956 0.205825 0.065668
v 0.141724 0.151913 -0.213307
v 0.125532 0.083934 -0.258264
v 0.209034 0.104288 -0.193351
v 0.047250 0.215145 -0.076509
v 0.034506 0.069716 0.235772
v 0.080309 0.192581 -0.171506
v 0.132959 0.104057 0.230044
v 0.070009 0.155032 0.209306
v 0.207238 0.071085 -0.177051
v 0.090777 0.214504 0.022798
v 0.125739 0.071437 0.213329
v 0.017038 0.208165 0.092538
v 0.264513 0.114952 -0.083103
v 0.135076 0.167543 0.165232
v 0.011994 0.190780 0.151655
v 0.266271 0.126440 0.068373
v 0.223176 0.095315 0.160020
v 0.134028 0.207126 -0.030035
v 0.192121 0.077716 0.177200
v 0.232278 0.156443 -0.080013
v 0.173126 0.182659 -0.108008
v 0.259535 0.078062 0.059406
v 0.270279 0.085424 -0.066405
v 0.210393 0.146637 0.140271
v 0.118940 0.197097 0.099709
v 0.202518 0.183783 0.013264
v 0.247021 0.067938 -0.054067
v 0.160339 0.057629 -0.114818
v -0.083373 0.065856 0.222159
v 0.088183 0.060087 0.168771
v 0.123662 0.063124 -0.220842
v -0.206434 0.056689 0.092641
v 0.204826 0.062421 0.067128
vt 0.1919 0.3807
vt 0.2313 0.4151
vt 0.1334 0.5037
vt 0.0860 0.4552
vt 0.0988 0.5356
vt 0.2581 0.5030
vt 0.1989 0.5749
vt 0.3572 0.5854
vt 0.3064 0.4490
vt 0.3605 0.4914
vt 0.3361 0.6660
vt 0.3953 0.7477
vt 0.2974 0.6611
vt 0.3277 0.6276
vt 0.0763 0.3004
vt 0.1359 0.2566
vt 0.1635 0.3314
vt 0.0122 0.2978
vt 0.0679 0.3526
vt 0.3860 0.8197
vt 0.0519 0.2332
vt 0.1607 0.6782
vt 0.0812 0.6581
vt 0.1630 0.6291
vt 0.4615 0.5190
vt 0.4336 0.4399
vt 0.1250 0.1752
vt 0.2784 0.3956
vt 0.3380 0.3700
vt 0.4178 0.8722
vt 0.4905 0.4218
vt 0.1873 0.2363
vt 0.1951 0.2926
vt 0.3056 0.3425
vt 0.4455 0.3551
vt 0.1136 0.1144
vt 0.0244 0.1662
vt 0.5181 0.5502
vt 0.5714 0.4392
vt 0.1948 0.0940
vt 0.3772 0.4072
vt 0.3793 0.3476
vt 0.5480 0.3193
vt 0.2127 0.1849
vt 0.2336 0.2434
vt 0.2607 0.2668
vt 0.2446 0.3000
vt 0.3051 0.2721
vt 0.1659 0.0345
vt 0.0833 0.0865
vt 0.3544 0.9231
vt 0.3832 0.9383
vt 0.3102 0.9679
vt 0.3282 0.3178
vt 0.2591 0.1862
vt 0.0166 0.8491
vt 0.0094 0.7880
vt 0.0640 0.8286
vt 0.2532 0.0198
vt 0.2877 0.0637
vt 0.4225 0.2459
vt 0.4833 0.2033
vt 0.5418 0.1464
vt 0.2853 0.2323
vt 0.3369 0.2765
vt 0.3618 0.1313
vt 0.3922 0.2926
vt 0.3482 0.2287
vt 0.1371 0.9643
vt 0.0493 0.9048
vt 0.1246 0.9164
vt 0.2885 0.1526
vt 0.2095 0.9668
vt 0.2668 0.9251
vt 0.0401 0.4083
vt 0.2239 0.3430
vt 0.0384 0.7188
vt 0.6221 0.3340
vt 0.2147 0.9975
vt 0.4044 0.0349
vn -0.6343 0.7680 0.0887
vn -0.5708 0.8067 -0.1528
vn -0.9746 -0.1409 -0.1737
vn -0.9565 -0.2767 0.0928
vn -0.3418 -0.9330 -0.1120
vn -0.6932 0.4372 -0.5730
vn -0.7105 -0.4986 -0.4965
vn -0.4265 -0.3246 -0.8442
vn -0.3510 0.8047 -0.4787
vn -0.3066 0.5196 -0.7974
vn -0.2898 -0.8695 -0.4000
vn -0.6355 0.2289 0.7373
vn -0.2948 0.6519 0.6986
vn -0.4899 0.8143 0.3113
vn -0.3963 -0.7603 0.5146
vn -0.8650 -0.0005 0.5017
vn -0.0577 -0.9729 -0.2237
vn -0.3158 -0.3352 0.8876
vn -0.0805 -0.9945 0.0660
vn -0.5412 -0.8122 0.2180
vn -0.1005 -0.0799 -0.9917
vn 0.0965 0.5834 -0.8064
vn -0.0519 0.2560 0.9653
vn -0.2463 0.9498 -0.1927
vn -0.0848 0.9550 -0.2842
vn 0.0806 -0.7075 -0.7020
vn 0.3210 0.3550 -0.8780
vn -0.0746 0.8297 0.5531
vn -0.2307 0.9185 0.3210
vn -0.1017 0.9915 -0.0810
vn 0.4214 0.7007 -0.5756
vn 0.1317 -0.3189 0.9386
vn -0.0581 -0.9147 0.3999
vn 0.4314 -0.3694 -0.8230
vn 0.4305 0.1051 0.8965
vn -0.0451 0.8390 -0.5423
vn 0.1688 0.9184 -0.3577
vn 0.7583 0.1574 -0.6326
vn 0.1563 0.7465 0.6468
vn 0.0123 0.9280 0.3723
vn -0.0079 0.9818 0.1894
vn -0.1126 0.9861 0.1223
vn 0.1157 0.9906 0.0729
vn 0.2741 -0.8039 0.5278
vn 0.0439 -0.9052 0.4226
vn 0.1589 -0.9471 -0.2788
vn 0.5624 -0.7241 -0.3992
vn 0.0505 0.9935 -0.1015
vn 0.2942 0.8148 0.4996
vn 0.0553 -0.9932 0.1025
vn 0.4624 -0.7167 0.5220
vn 0.7785 -0.1610 0.6066
vn 0.6424 0.7353 -0.2156
vn 0.9056 0.3156 -0.2831
vn 0.9066 -0.3900 -0.1613
vn 0.2272 0.9401 0.2542
vn 0.2498 0.9667 -0.0558
vn 0.9090 0.3499 0.2264
vn 0.3971 0.8817 -0.2546
vn 0.4777 0.8765 0.0586
vn 0.7496 -0.6372 0.1789
vn 0.1758 -0.9811 0.0800
vn 0.5737 0.6683 0.4735
vn 0.3835 -0.9222 -0.0489
vn 0.0846 -0.9955 -0.0425
vn -0.2724 0.9599 0.0655
usemtl None
s 1
f 3/1/1 7/2/2 1/3/3
f 5/4/4 1/3/3 2/5/5
f 1/3/3 4/6/6 6/7/7
f 6/7/7 4/6/6 17/8/8
f 7/2/2 9/9/9 4/6/6
f 17/8/8 4/6/6 8/10/10
f 4/6/6 9/9/9 8/10/10
f 6/11/7 12/12/11 2/13/5
f 6/7/7 17/8/8 12/14/11
f 15/15/12 19/16/13 13/17/14
f 16/18/15 15/15/12 11/19/16
f 2/13/5 12/12/11 24/20/17
f 18/21/18 15/15/12 16/18/15
f 65/22/19 16/23/15 10/24/20
f 22/25/21 8/10/10 25/26/22
f 28/27/23 19/16/13 18/21/18
f 9/9/9 14/28/24 26/29/25
f 12/12/11 27/30/26 24/20/17
f 22/25/21 25/26/22 23/31/27
f 31/32/28 32/33/29 19/16/13
f 14/28/24 21/34/30 26/29/25
f 25/26/22 34/35/31 23/31/27
f 30/36/32 18/21/18 62/37/33
f 27/38/26 22/25/21 35/39/34
f 30/36/32 40/40/35 28/27/23
f 29/41/36 39/42/37 25/26/22
f 23/31/27 36/43/38 35/39/34
f 28/27/23 41/44/39 31/32/28
f 31/32/28 48/45/40 32/33/29
f 32/33/29 45/46/41 33/47/42
f 40/40/35 41/44/39 28/27/23
f 43/48/43 21/34/30 33/47/42
f 44/49/44 30/36/32 38/50/45
f 40/40/35 30/36/32 44/49/44
f 45/46/41 43/48/43 33/47/42
f 64/51/46 35/52/34 42/53/47
f 21/34/30 37/54/48 26/29/25
f 40/40/35 47/55/49 41/44/39
f 37/54/48 21/34/30 43/48/43
f 44/56/44 38/57/45 63/58/50
f 52/59/51 50/60/52 40/40/35
f 41/44/39 48/45/40 31/32/28
f 34/35/31 53/61/53 36/43/38
f 36/43/38 46/62/54 56/63/55
f 47/55/49 58/64/56 48/45/40
f 51/65/57 37/54/48 43/48/43
f 53/61/53 49/66/58 46/62/54
f 46/62/54 49/66/58 56/63/55
f 39/42/37 51/65/57 54/67/59
f 54/67/59 59/68/60 53/61/53
f 55/69/61 52/70/51 66/71/62
f 53/61/53 59/68/60 49/66/58
f 59/68/60 51/65/57 43/48/43
f 51/65/57 59/68/60 54/67/59
f 57/72/63 59/68/60 58/64/56
f 66/71/62 60/73/64 55/69/61
f 63/58/50 66/71/62 44/56/44
f 61/74/65 24/20/17 64/51/46
f 63/58/50 61/74/65 66/71/62
f 65/22/19 61/74/65 63/58/50
f 65/22/19 24/20/17 61/74/65
f 5/4/4 3/1/1 1/3/3
f 1/3/3 7/2/2 4/6/6
f 5/4/4 11/19/16 3/1/1
f 10/75/20 5/4/4 2/5/5
f 2/5/5 1/3/3 6/7/7
f 5/4/4 10/75/20 11/19/16
f 3/1/1 20/76/66 7/2/2
f 7/2/2 20/76/66 14/28/24
f 11/19/16 15/15/12 13/17/14
f 3/1/1 11/19/16 13/17/14
f 7/2/2 14/28/24 9/9/9
f 3/1/1 13/17/14 20/76/66
f 22/25/21 17/8/8 8/10/10
f 10/75/20 16/18/15 11/19/16
f 13/17/14 32/33/29 20/76/66
f 18/21/18 19/16/13 15/15/12
f 14/28/24 20/76/66 21/34/30
f 12/14/11 17/8/8 27/38/26
f 17/8/8 22/25/21 27/38/26
f 8/10/10 9/9/9 29/41/36
f 25/26/22 8/10/10 29/41/36
f 65/22/19 62/77/33 16/23/15
f 13/17/14 19/16/13 32/33/29
f 29/41/36 9/9/9 26/29/25
f 21/34/30 20/76/66 33/47/42
f 16/18/15 62/37/33 18/21/18
f 22/25/21 23/31/27 35/39/34
f 32/33/29 33/47/42 20/76/66
f 30/36/32 28/27/23 18/21/18
f 28/27/23 31/32/28 19/16/13
f 64/51/46 24/20/17 27/30/26
f 38/50/45 30/36/32 62/37/33
f 64/51/46 27/30/26 35/52/34
f 25/26/22 39/42/37 34/35/31
f 23/31/27 34/35/31 36/43/38
f 63/58/50 38/57/45 62/77/33
f 42/78/47 35/39/34 36/43/38
f 32/33/29 48/45/40 45/46/41
f 29/41/36 26/29/25 39/42/37
f 40/40/35 50/60/52 57/72/63
f 40/40/35 57/72/63 47/55/49
f 44/49/44 52/59/51 40/40/35
f 36/43/38 53/61/53 46/62/54
f 56/63/55 42/78/47 36/43/38
f 50/60/52 49/66/58 57/72/63
f 41/44/39 47/55/49 48/45/40
f 26/29/25 37/54/48 39/42/37
f 34/35/31 39/42/37 54/67/59
f 34/35/31 54/67/59 53/61/53
f 61/74/65 64/51/46 42/53/47
f 60/73/64 42/53/47 56/79/55
f 43/48/43 45/46/41 58/64/56
f 60/73/64 61/74/65 42/53/47
f 48/45/40 58/64/56 45/46/41
f 66/71/62 52/70/51 44/56/44
f 50/60/52 55/80/61 49/66/58
f 39/42/37 37/54/48 51/65/57
f 55/80/61 50/60/52 52/59/51
f 60/73/64 56/79/55 55/69/61
f 56/63/55 49/66/58 55/80/61
f 47/55/49 57/72/63 58/64/56
f 58/64/56 59/68/60 43/48/43
f 49/66/58 59/68/60 57/72/63
f 2/13/5 65/22/19 10/24/20
f 66/71/62 61/74/65 60/73/64
f 65/22/19 63/58/50 62/77/33
f 24/20/17 65/22/19 2/13/5