# 3ds Max Wavefront OBJ Exporter v0.97b - (c)2007 guruware
# File Created: 04.12.2017 15:19:31

mtllib Board Final.mtl

#
# object Mat
#

v  12.0000 10.7376 6.0000
v  12.0000 10.7376 -6.0000
v  -12.0000 10.7376 -6.0000
v  -12.0000 10.7376 6.0000
v  -12.0000 9.7376 -6.0000
v  12.0000 9.7376 -6.0000
v  12.0000 9.7376 6.0000
v  -12.0000 9.7376 6.0000
# 8 vertices

vn 0.0000 1.0000 -0.0000
vn 0.0000 -1.0000 -0.0000
vn 1.0000 0.0000 -0.0000
vn 0.0000 0.0000 -1.0000
vn -1.0000 -0.0000 -0.0000
vn 0.0000 0.0000 1.0000
# 6 vertex normals

vt 1.0000 0.0000 0.0000
vt 1.0000 1.0000 0.0000
vt 0.0000 1.0000 0.0000
vt 0.0000 0.0000 0.0000
# 4 texture coords

g Mat
usemtl 02___Default
s 2
f 1/1/1 2/2/1 3/3/1 4/4/1 
f 5/3/2 6/2/2 7/1/2 8/4/2 
s 1
f 2/2/3 1/1/3 7/1/3 6/2/3 
s 4
f 3/3/4 2/2/4 6/2/4 5/3/4 
s 1
f 4/4/5 3/3/5 5/3/5 8/4/5 
s 4
f 1/1/6 4/4/6 8/4/6 7/1/6 
# 6 polygons

