#Wavefront OBJ file created by Hexagon 2 
mtllib citadel14.mtl
g Form2
usemtl def_surf_mat
# 155 
v -5.54074 0.149365 -3.7508 
v -5.54074 0.566361 -3.7508 
v -5.52686 8.75237 -3.75079 
v -5.52686 8.90842 -3.75079 
v -5.44167 0.149365 -3.98995 
v -5.44167 0.149365 -3.51162 
v -5.44167 0.566361 -3.98995 
v -5.44167 0.566361 -3.51162 
v -5.43186 8.75237 -3.98014 
v -5.43186 8.75237 -3.52143 
v -5.43186 8.90842 -3.98014 
v -5.43186 8.90842 -3.52143 
v -5.40998 0.582635 -3.75079 
v -5.40998 6.50626 -3.75079 
v -5.40998 8.5757 -3.75079 
v -5.40998 8.7016 -3.75079 
v -5.34921 0.582635 -3.89749 
v -5.34921 0.582635 -3.60408 
v -5.34921 6.50626 -3.89749 
v -5.34921 6.50626 -3.60408 
v -5.34921 8.5757 -3.89749 
v -5.34921 8.5757 -3.60408 
v -5.34921 8.7016 -3.89749 
v -5.34921 8.7016 -3.60408 
v -5.20249 0.149365 -4.08902 
v -5.20249 0.149365 -3.41255 
v -5.20249 0.566361 -4.08902 
v -5.20249 0.566361 -3.41255 
v -5.2025 0.582635 -3.95826 
v -5.2025 0.582635 -3.54331 
v -5.2025 6.50626 -3.95826 
v -5.2025 6.50626 -3.54331 
v -5.2025 8.5757 -3.95826 
v -5.2025 8.5757 -3.54331 
v -5.2025 8.7016 -3.95826 
v -5.2025 8.7016 -3.54331 
v -5.2025 8.75237 -4.07514 
v -5.2025 8.75237 -3.42643 
v -5.2025 8.90842 -4.07514 
v -5.2025 8.90842 -3.42643 
v -5.0558 0.582635 -3.89749 
v -5.0558 0.582635 -3.60408 
v -5.0558 6.50626 -3.89749 
v -5.0558 6.50626 -3.60408 
v -5.0558 8.5757 -3.89749 
v -5.0558 8.5757 -3.60408 
v -5.0558 8.7016 -3.89749 
v -5.0558 8.7016 -3.60408 
v -4.99503 0.582635 -3.75079 
v -4.99503 6.50626 -3.75079 
v -4.99503 8.5757 -3.75079 
v -4.99503 8.7016 -3.75079 
v -4.97315 8.75237 -3.98014 
v -4.97315 8.75237 -3.52143 
v -4.97315 8.90842 -3.98014 
v -4.97315 8.90842 -3.52143 
v -4.96334 0.149365 -3.98995 
v -4.96334 0.149365 -3.51162 
v -4.96334 0.566361 -3.98995 
v -4.96334 0.566361 -3.51162 
v -4.87814 8.75237 -3.75079 
v -4.87814 8.90842 -3.75079 
v -4.86427 0.149365 -3.7508 
v -4.86427 0.566361 -3.7508 
v -3.32267 0.227326 -2.13173 
v -3.32267 0.227326 -1.27904 
v -3.32267 0.227326 -0.426345 
v -3.32267 0.227326 0.426348 
v -3.32267 0.227326 1.27904 
v -3.32267 0.227326 2.13173 
v -3.32267 0.502151 -2.13173 
v -3.32267 0.502151 -1.27904 
v -3.32267 0.502151 -0.426346 
v -3.32267 0.502151 0.426347 
v -3.32267 0.502151 1.27904 
v -3.32267 0.502151 2.13173 
v -2.87635 5.99833 -3.89749 
v -2.87635 5.99833 -3.60408 
v -2.87635 6.50626 -3.89749 
v -2.87635 6.50626 -3.60408 
v -2.87635 8.5757 -3.89749 
v -2.87635 8.5757 -3.60408 
v -2.81558 5.99833 -3.75079 
v -2.81558 6.50626 -3.75079 
v -2.81558 8.5757 -3.75079 
v -2.77887 0.227326 -2.61021 
v -2.77887 0.227326 2.61022 
v -2.77887 0.502151 -2.61021 
v -2.77887 0.502151 2.61021 
v -2.20163 5.99833 -3.89749 
v -2.20163 5.99833 -3.60408 
v -2.20163 7.08311 -3.89749 
v -2.20163 7.08311 -3.60408 
v -2.20163 8.11215 -3.89749 
v -2.20163 8.11215 -3.60408 
v -2.20163 8.5757 -3.89749 
v -2.20163 8.5757 -3.60408 
v -2.16465 0.227326 -2.99992 
v -2.16465 0.227326 2.99993 
v -2.16465 0.502151 -2.99992 
v -2.16465 0.502151 2.99992 
v -2.14086 5.99833 -3.75079 
v -2.14086 8.11215 -3.75079 
v -2.14086 8.5757 -3.75079 
v -1.49006 0.227326 -3.29077 
v -1.49006 0.227326 3.29078 
v -1.49006 0.502151 -3.29078 
v -1.49006 0.502151 3.29078 
v -1.23467 7.08305 -3.89749 
v -1.23467 7.08305 -3.60408 
v -1.23467 7.08311 -3.89749 
v -1.23467 7.08311 -3.60408 
v -1.1739 7.08305 -3.75079 
v -0.765162 0.227326 -3.47268 
v -0.765162 0.227326 3.47269 
v -0.765162 0.502151 -3.47268 
v -0.765162 0.502151 3.47269 
v -0.157156 5.99833 -3.89749 
v -0.157156 5.99833 -3.60408 
v -0.157156 8.11215 -3.89749 
v -0.157156 8.11215 -3.60408 
v -0.0963879 5.99833 -3.75079 
v -0.0963879 8.11215 -3.75079 
v -2e-006 0.227326 -3.53556 
v -2e-006 0.227326 3.53556 
v -2e-006 0.502151 -3.53556 
v -2e-006 0.502151 3.53556 
v 0.765158 0.227326 -3.47268 
v 0.765158 0.227326 3.47269 
v 0.765158 0.502151 -3.47268 
v 0.765158 0.502151 3.47268 
v 1.49006 0.227326 -3.29077 
v 1.49006 0.227326 3.29078 
v 1.49006 0.502151 -3.29078 
v 1.49006 0.502151 3.29078 
v 2.16464 0.227326 2.99992 
v 2.16464 0.502151 2.99992 
v 2.16465 0.227326 -2.99992 
v 2.16465 0.502151 -2.99992 
v 2.77887 0.227326 -2.61021 
v 2.77887 0.227326 2.61021 
v 2.77887 0.502151 -2.61021 
v 2.77887 0.502151 2.61021 
v 3.32267 0.227326 -2.13173 
v 3.32267 0.227326 -1.27903 
v 3.32267 0.227326 -0.426344 
v 3.32267 0.227326 0.426346 
v 3.32267 0.227326 1.27904 
v 3.32267 0.227326 2.13173 
v 3.32267 0.502151 -2.13173 
v 3.32267 0.502151 -1.27904 
v 3.32267 0.502151 -0.426345 
v 3.32267 0.502151 0.426345 
v 3.32267 0.502151 1.27903 
v 3.32267 0.502151 2.13173 
# 336 1 
vt 0.003097 0.168275 
vt 0.003097 0.390038 
vt 0.013716 0.77348 
vt 0.013716 0.806229 
vt 0.013716 0.838978 
vt 0.013716 0.871728 
vt 0.013716 0.904477 
vt 0.013716 0.937226 
vt 0.022794 0.475799 
vt 0.022794 0.605158 
vt 0.022794 0.619554 
vt 0.022794 0.630077 
vt 0.022794 0.683649 
vt 0.022794 0.686908 
vt 0.026591 0.475799 
vt 0.026591 0.605158 
vt 0.026591 0.619554 
vt 0.026591 0.630077 
vt 0.026591 0.683649 
vt 0.026591 0.686908 
vt 0.030389 0.475799 
vt 0.030389 0.605158 
vt 0.030389 0.619554 
vt 0.030389 0.630077 
vt 0.030389 0.683649 
vt 0.030389 0.686908 
vt 0.034602 0.755102 
vt 0.034602 0.955603 
vt 0.043832 0.475799 
vt 0.043832 0.605158 
vt 0.043832 0.619554 
vt 0.043832 0.630077 
vt 0.043832 0.683649 
vt 0.043832 0.686908 
vt 0.047629 0.475799 
vt 0.047629 0.605158 
vt 0.047629 0.619554 
vt 0.047629 0.630077 
vt 0.047629 0.683649 
vt 0.047629 0.686908 
vt 0.051427 0.475799 
vt 0.051427 0.605158 
vt 0.051427 0.619554 
vt 0.051427 0.630077 
vt 0.051427 0.683649 
vt 0.051427 0.686908 
vt 0.058192 0.740135 
vt 0.058192 0.97057 
vt 0.06487 0.475799 
vt 0.06487 0.605158 
vt 0.06487 0.619554 
vt 0.06487 0.630077 
vt 0.06487 0.683649 
vt 0.06487 0.686908 
vt 0.068668 0.475799 
vt 0.068668 0.605158 
vt 0.068668 0.619554 
vt 0.068668 0.630077 
vt 0.068668 0.683649 
vt 0.068668 0.686908 
vt 0.072465 0.475799 
vt 0.072465 0.605158 
vt 0.072465 0.619554 
vt 0.072465 0.630077 
vt 0.072465 0.683649 
vt 0.072465 0.686908 
vt 0.0841 0.728964 
vt 0.0841 0.981741 
vt 0.085908 0.532632 
vt 0.085908 0.66199 
vt 0.085908 0.676386 
vt 0.085908 0.686908 
vt 0.089706 0.532632 
vt 0.089706 0.66199 
vt 0.089706 0.676386 
vt 0.089706 0.686908 
vt 0.093504 0.532632 
vt 0.093504 0.66199 
vt 0.093504 0.676386 
vt 0.093504 0.686908 
vt 0.106946 0.658826 
vt 0.106946 0.686907 
vt 0.110744 0.658826 
vt 0.110744 0.686907 
vt 0.111941 0.721978 
vt 0.111941 0.988727 
vt 0.124186 0.686908 
vt 0.125759 0.686907 
vt 0.141329 0.719563 
vt 0.141329 0.991142 
vt 0.15208 0.658826 
vt 0.153654 0.658826 
vt 0.167096 0.678512 
vt 0.169555 0.672574 
vt 0.169555 0.684449 
vt 0.170716 0.721978 
vt 0.170716 0.988727 
vt 0.175493 0.670115 
vt 0.175493 0.686908 
vt 0.18143 0.672574 
vt 0.18143 0.684449 
vt 0.18389 0.678512 
vt 0.197332 0.678512 
vt 0.198557 0.728964 
vt 0.198557 0.981741 
vt 0.199791 0.672574 
vt 0.199791 0.684449 
vt 0.200358 0.678512 
vt 0.201931 0.674714 
vt 0.201931 0.68231 
vt 0.205729 0.670115 
vt 0.205729 0.673141 
vt 0.205729 0.683883 
vt 0.205729 0.686908 
vt 0.209527 0.674714 
vt 0.209527 0.68231 
vt 0.2111 0.678512 
vt 0.211667 0.672574 
vt 0.211667 0.684449 
vt 0.214126 0.678512 
vt 0.224466 0.740135 
vt 0.224466 0.97057 
vt 0.236648 0.113845 
vt 0.236648 0.168275 
vt 0.236648 0.390038 
vt 0.248057 0.755103 
vt 0.248057 0.955603 
vt 0.268942 0.77348 
vt 0.268942 0.806229 
vt 0.268942 0.838978 
vt 0.268942 0.871728 
vt 0.268942 0.904476 
vt 0.268942 0.937226 
vt 0.297669 0.83171 
vt 0.297669 0.884636 
vt 0.297669 0.902103 
vt 0.297669 0.917119 
vt 0.297669 0.973539 
vt 0.301225 0.728866 
vt 0.301225 0.734804 
vt 0.301225 0.740741 
vt 0.301225 0.754184 
vt 0.301225 0.760121 
vt 0.301225 0.766059 
vt 0.301225 0.779501 
vt 0.301225 0.785439 
vt 0.301225 0.791377 
vt 0.301225 0.804819 
vt 0.301225 0.810756 
vt 0.301225 0.816694 
vt 0.301466 0.830137 
vt 0.301466 0.883063 
vt 0.301466 0.90053 
vt 0.301466 0.915545 
vt 0.301466 0.971966 
vt 0.302005 0.707828 
vt 0.302005 0.711626 
vt 0.302005 0.715424 
vt 0.305264 0.707828 
vt 0.305264 0.711626 
vt 0.305264 0.715424 
vt 0.305264 0.728866 
vt 0.305264 0.734804 
vt 0.305264 0.740741 
vt 0.305264 0.754184 
vt 0.305264 0.760121 
vt 0.305264 0.766059 
vt 0.305264 0.779501 
vt 0.305264 0.785439 
vt 0.305264 0.791377 
vt 0.305264 0.804819 
vt 0.305264 0.810756 
vt 0.305264 0.816694 
vt 0.305264 0.83171 
vt 0.305264 0.884636 
vt 0.305264 0.902103 
vt 0.305264 0.917119 
vt 0.305264 0.973539 
vt 0.308951 0.113845 
vt 0.308951 0.230091 
vt 0.308951 0.340363 
vt 0.308951 0.390038 
vt 0.318707 0.718312 
vt 0.318707 0.739198 
vt 0.318707 0.762788 
vt 0.318707 0.788697 
vt 0.318707 0.816539 
vt 0.318707 0.845926 
vt 0.318707 0.875314 
vt 0.318707 0.903155 
vt 0.318707 0.929063 
vt 0.318707 0.952653 
vt 0.318707 0.973539 
vt 0.321666 0.52013 
vt 0.321666 0.573057 
vt 0.321666 0.588072 
vt 0.321666 0.615966 
vt 0.321666 0.630982 
vt 0.321666 0.648449 
vt 0.321666 0.70487 
vt 0.325464 0.518557 
vt 0.325464 0.571484 
vt 0.325464 0.586499 
vt 0.325464 0.614393 
vt 0.325464 0.629409 
vt 0.325464 0.646876 
vt 0.325464 0.703297 
vt 0.329262 0.52013 
vt 0.329262 0.573057 
vt 0.329262 0.588072 
vt 0.329262 0.615966 
vt 0.329262 0.630982 
vt 0.329262 0.648449 
vt 0.329262 0.70487 
vt 0.329262 0.718312 
vt 0.329262 0.739198 
vt 0.329262 0.762788 
vt 0.329262 0.788697 
vt 0.329262 0.816539 
vt 0.329262 0.845926 
vt 0.329262 0.875314 
vt 0.329262 0.903155 
vt 0.329262 0.929063 
vt 0.329262 0.952653 
vt 0.329262 0.973539 
vt 0.342704 0.632604 
vt 0.342704 0.665353 
vt 0.342704 0.698103 
vt 0.342704 0.730852 
vt 0.342704 0.763601 
vt 0.342704 0.796351 
vt 0.342704 0.809793 
vt 0.342704 0.842543 
vt 0.342704 0.875292 
vt 0.342704 0.908041 
vt 0.342704 0.94079 
vt 0.342704 0.973539 
vt 0.353259 0.632604 
vt 0.353259 0.665353 
vt 0.353259 0.698103 
vt 0.353259 0.730852 
vt 0.353259 0.763601 
vt 0.353259 0.796351 
vt 0.353259 0.809793 
vt 0.353259 0.842543 
vt 0.353259 0.875292 
vt 0.353259 0.908041 
vt 0.353259 0.94079 
vt 0.353259 0.973539 
vt 0.366702 0.965943 
vt 0.366702 0.969741 
vt 0.366702 0.973539 
vt 0.367851 0.944905 
vt 0.367851 0.948703 
vt 0.367851 0.952501 
vt 0.369109 0.926092 
vt 0.369296 0.652051 
vt 0.369296 0.672937 
vt 0.369296 0.696528 
vt 0.369296 0.722436 
vt 0.369296 0.750277 
vt 0.369296 0.779665 
vt 0.369296 0.809053 
vt 0.369296 0.836894 
vt 0.369296 0.862803 
vt 0.369296 0.886393 
vt 0.369296 0.907279 
vt 0.370682 0.922294 
vt 0.370682 0.92989 
vt 0.37448 0.920721 
vt 0.37448 0.931463 
vt 0.378278 0.922294 
vt 0.378278 0.92989 
vt 0.379851 0.652051 
vt 0.379851 0.672937 
vt 0.379851 0.696528 
vt 0.379851 0.722436 
vt 0.379851 0.750277 
vt 0.379851 0.779665 
vt 0.379851 0.809053 
vt 0.379851 0.836894 
vt 0.379851 0.862803 
vt 0.379851 0.886393 
vt 0.379851 0.907279 
vt 0.379851 0.926092 
vt 0.379851 0.944905 
vt 0.379851 0.948703 
vt 0.379851 0.952501 
vt 0.379851 0.965943 
vt 0.379851 0.969741 
vt 0.379851 0.973539 
vt 0.406237 0.498077 
vt 0.406237 0.570937 
vt 0.406237 0.643796 
vt 0.406237 0.716655 
vt 0.406237 0.789515 
vt 0.406237 0.862374 
vt 0.412571 0.230091 
vt 0.452702 0.457193 
vt 0.452702 0.903258 
vt 0.471963 0.013068 
vt 0.471963 0.239586 
vt 0.505185 0.423894 
vt 0.505185 0.936557 
vt 0.528038 0.113845 
vt 0.528038 0.340363 
vt 0.562826 0.399041 
vt 0.562826 0.96141 
vt 0.58743 0.129307 
vt 0.624766 0.383497 
vt 0.624766 0.976953 
vt 0.690146 0.378125 
vt 0.690146 0.982325 
vt 0.691049 0.013068 
vt 0.691049 0.129314 
vt 0.691049 0.239586 
vt 0.691049 0.289261 
vt 0.755526 0.383498 
vt 0.755526 0.976953 
vt 0.763352 0.013068 
vt 0.763352 0.067498 
vt 0.763352 0.289261 
vt 0.817466 0.399041 
vt 0.817466 0.96141 
vt 0.875106 0.423894 
vt 0.875107 0.936557 
vt 0.92759 0.457193 
vt 0.92759 0.903258 
vt 0.974056 0.498077 
vt 0.974056 0.570938 
vt 0.974056 0.643796 
vt 0.974056 0.716655 
vt 0.974056 0.789515 
vt 0.974056 0.862374 
vt 0.996904 0.067498 
vt 0.996904 0.289261 
# 68 
vn -1 -8.35637e-008 -1.15159e-005 
vn -1 -1.27123e-007 0 
vn -1 1.09976e-007 1.75322e-005 
vn -0.923884 6.99777e-008 -0.382674 
vn -0.92387 1.3323e-007 0.382706 
vn -0.911202 -1.71276e-007 -0.41196 
vn -0.911203 7.47349e-006 0.411958 
vn -0.72632 0.687357 -1.24497e-005 
vn -0.707099 -6.4368e-008 -0.707115 
vn -0.707106 -5.8258e-008 0.707107 
vn -0.707095 1.94342e-007 -0.707119 
vn -0.599989 -4.81966e-008 -0.800008 
vn -0.599991 2.23408e-005 0.800007 
vn -0.513577 0.687357 -0.513595 
vn -0.513586 0.687358 0.513583 
vn -0.467297 -8.47969e-006 -0.8841 
vn -0.467297 2.38044e-005 0.8841 
vn -0.398401 -0.917211 -4.33447e-006 
vn -0.3207 -1.73656e-005 -0.947181 
vn -0.320703 8.397e-006 0.94718 
vn -0.281705 -0.917214 -0.28171 
vn -0.281708 -0.917214 0.281709 
vn -0.163195 -8.87257e-006 -0.986594 
vn -0.163192 9.15909e-009 0.986594 
vn 0 -1 4.03606e-007 
vn 5.88249e-006 -0.917212 -0.3984 
vn 5.60309e-006 -0.917212 0.3984 
vn -2.77759e-007 0 -1 
vn 1.18265e-007 0 1 
vn 0 1 -1.782e-006 
vn 1.2032e-005 -2.32245e-007 -1 
vn 1.21288e-005 3.94165e-007 1 
vn 1.26861e-005 0.687357 -0.72632 
vn 1.31202e-005 0.687357 0.726319 
vn 0.163194 -8.84947e-006 -0.986594 
vn 0.163191 1.79867e-005 0.986595 
vn 0.281697 -0.917216 -0.281711 
vn 0.281699 -0.917217 0.281705 
vn 0.3207 -1.71948e-005 -0.947181 
vn 0.320705 8.90496e-006 0.947179 
vn 0.370841 6.55586e-009 -0.928696 
vn 0.370847 1.29778e-007 0.928694 
vn 0.398375 -0.917223 -4.31937e-006 
vn 0.46339 -4.56771e-008 -0.886154 
vn 0.463399 1.5034e-008 0.88615 
vn 0.467297 -8.33161e-006 -0.8841 
vn 0.467299 8.37492e-008 0.884099 
vn 0.513587 0.687354 -0.513589 
vn 0.513596 0.687356 0.513577 
vn 0.599989 -4.81966e-008 -0.800008 
vn 0.599986 -8.66633e-009 0.80001 
vn 0.664033 -0.695268 -0.275068 
vn 0.664037 -0.695274 0.275043 
vn 0.680701 0.676176 -0.281838 
vn 0.680706 0.676182 0.281812 
vn 0.690676 -0.723165 -1.30501e-005 
vn 0.707088 -5.90944e-007 -0.707125 
vn 0.707096 4.15079e-007 0.707118 
vn 0.707106 -1.08586e-007 -0.707108 
vn 0.70712 2.9658e-007 0.707094 
vn 0.709461 0.704745 -1.37757e-005 
vn 0.726319 0.687357 -1.23787e-005 
vn 0.911202 -4.21303e-007 -0.41196 
vn 0.911202 -1.71275e-007 0.41196 
vn 0.923871 -1.24854e-007 -0.382704 
vn 0.923885 1.05687e-007 0.382671 
vn 1 -3.76853e-007 -1.15162e-005 
vn 1 -2.76672e-007 0 
usemtl def_surf_mat
f 62/163/67 61/140/67 53/139/57 55/162/57 
f 56/164/58 54/141/58 61/140/67 62/163/67 
f 61/120/43 52/117/43 47/115/37 53/118/37 
f 55/167/57 53/144/57 37/143/31 39/166/31 
f 56/102/30 62/101/30 40/100/30 
f 62/101/30 55/99/30 40/100/30 
f 40/100/30 55/99/30 12/98/30 
f 55/99/30 39/95/30 12/98/30 
f 12/98/30 39/95/30 4/94/30 
f 39/95/30 11/93/30 4/94/30 
f 40/172/32 38/149/32 54/148/58 56/171/58 
f 54/119/38 48/116/38 52/117/43 61/120/43 
f 52/160/67 51/157/67 45/156/44 47/159/59 
f 53/118/37 47/115/37 35/112/26 37/111/26 
f 39/166/31 37/143/31 9/142/9 11/165/9 
f 11/170/9 9/147/9 3/146/1 4/169/1 
f 4/169/1 3/146/1 10/145/10 12/168/10 
f 12/173/10 10/150/10 38/149/32 40/172/32 
f 47/34/59 45/33/44 33/39/31 35/40/31 
f 37/111/26 35/112/26 23/109/21 9/106/21 
f 35/40/31 33/39/31 21/45/11 23/46/11 
f 9/106/21 23/109/21 16/108/18 3/103/18 
f 23/14/11 21/13/11 15/19/1 16/20/1 
f 3/103/18 16/108/18 24/110/22 10/107/22 
f 16/20/1 15/19/1 22/25/10 24/26/10 
f 10/107/22 24/110/22 36/113/27 38/114/27 
f 24/54/10 22/53/10 34/59/32 36/60/32 
f 38/114/27 36/113/27 48/116/38 54/119/38 
f 36/60/32 34/59/32 46/65/42 48/66/60 
f 48/161/60 46/158/42 51/157/67 52/160/67 
f 45/214/30 51/207/30 85/206/30 81/213/30 
f 45/33/44 43/32/41 31/38/31 33/39/31 
f 33/39/31 31/38/31 19/44/11 21/45/11 
f 21/13/11 19/12/11 14/18/1 15/19/1 
f 15/19/1 14/18/1 20/24/10 22/25/10 
f 22/53/10 20/52/10 32/58/32 34/59/32 
f 34/59/32 32/58/32 44/64/45 46/65/42 
f 51/207/30 46/200/30 82/199/30 85/206/30 
f 81/213/30 85/206/30 104/205/30 96/212/30 
f 79/321/28 43/335/41 81/322/28 
f 43/335/41 45/336/44 81/322/28 
f 43/32/41 41/31/48 29/37/33 31/38/31 
f 31/38/31 29/37/33 17/43/14 19/44/11 
f 19/12/11 17/11/14 13/17/8 14/18/1 
f 14/18/1 13/17/8 18/23/15 20/24/10 
f 20/52/10 18/51/15 30/57/34 32/58/32 
f 32/58/32 30/57/34 42/63/49 44/64/45 
f 82/125/29 46/2/42 80/124/29 
f 46/2/42 44/1/45 80/124/29 
f 85/206/30 82/199/30 97/198/30 104/205/30 
f 92/315/28 79/321/28 94/316/28 
f 79/321/28 81/322/28 94/316/28 
f 94/316/28 81/322/28 96/317/28 
f 50/155/25 43/138/25 79/137/25 84/154/25 
f 50/76/67 49/75/62 41/79/48 43/80/41 
f 41/31/48 59/30/48 27/36/33 29/37/33 
f 29/37/33 27/36/33 7/42/14 17/43/14 
f 17/11/14 7/10/14 2/16/8 13/17/8 
f 13/17/8 2/16/8 8/22/15 18/23/15 
f 18/51/15 8/50/15 28/56/34 30/57/34 
f 30/57/34 28/56/34 60/62/49 42/63/49 
f 44/72/45 42/71/49 49/75/62 50/76/67 
f 44/178/25 50/155/25 84/154/25 80/177/25 
f 97/182/29 82/125/29 95/181/29 
f 82/125/29 80/124/29 95/181/29 
f 95/181/29 80/124/29 93/180/29 
f 49/75/62 64/74/62 59/78/48 41/79/48 
f 42/71/49 60/70/49 64/74/62 49/75/62 
f 64/74/62 63/73/67 57/77/59 59/78/48 
f 84/290/3 79/291/5 77/252/5 83/251/3 
f 59/30/48 57/29/59 25/35/31 27/36/33 
f 27/36/33 25/35/31 5/41/11 7/42/14 
f 7/10/14 5/9/11 1/15/1 2/16/8 
f 2/16/8 1/15/1 6/21/10 8/22/15 
f 8/50/15 6/49/10 26/55/32 28/56/34 
f 28/56/34 26/55/32 58/61/60 60/62/49 
f 60/70/49 58/69/60 63/73/67 64/74/62 
f 80/289/4 84/290/3 83/251/3 78/250/4 
f 57/268/25 63/270/25 58/272/25 26/285/25 6/273/25 1/271/25 5/269/25 25/256/25 
f 104/287/67 103/254/67 94/253/65 96/286/65 
f 97/288/66 95/255/66 103/254/67 104/287/67 
f 111/309/29 92/315/29 111/309/29 
f 92/315/28 94/316/28 111/309/28 
f 111/309/28 94/316/28 120/302/28 
f 77/320/28 79/321/28 90/314/28 
f 79/321/28 92/315/28 90/314/28 
f 91/179/29 93/180/29 78/123/29 
f 93/180/29 80/124/29 78/123/29 
f 121/306/29 95/181/29 110/298/29 
f 95/181/29 93/180/29 110/298/29 
f 110/298/32 93/180/32 110/298/32 
f 83/153/25 77/136/25 90/135/25 102/152/25 
f 78/176/25 83/153/25 102/152/25 91/175/25 
f 94/209/30 103/202/30 123/201/30 120/208/30 
f 103/202/30 95/195/30 121/194/30 123/201/30 
f 102/152/25 90/135/25 118/134/25 122/151/25 
f 118/301/28 90/314/28 111/309/28 
f 90/314/28 92/315/28 111/309/28 
f 91/175/25 102/152/25 122/151/25 119/174/25 
f 110/298/29 93/180/29 119/305/29 
f 93/180/29 91/179/29 119/305/29 
f 123/203/56 113/204/56 109/197/52 120/196/52 
f 121/210/53 110/211/53 113/204/56 123/203/56 
f 111/87/54 109/87/54 113/88/61 122/92/61 118/91/54 
f 113/84/61 110/82/55 112/82/55 119/81/55 122/83/61 
f 140/192/50 142/224/50 150/225/63 144/193/63 
f 144/232/63 150/244/63 151/245/68 145/233/68 
f 138/191/46 139/223/46 142/224/50 140/192/50 
f 132/190/39 134/222/39 139/223/46 138/191/46 
f 128/189/35 130/221/35 134/222/39 132/190/39 
f 124/188/28 126/220/28 130/221/35 128/189/35 
f 114/187/23 116/219/23 126/220/28 124/188/28 
f 105/186/19 107/218/19 116/219/23 114/187/23 
f 98/185/16 100/217/16 107/218/19 105/186/19 
f 86/184/12 88/216/12 100/217/16 98/185/16 
f 65/183/6 71/215/6 88/216/12 86/184/12 
f 66/230/2 72/242/2 71/243/6 65/231/6 
f 67/229/2 73/241/2 72/242/2 66/230/2 
f 68/228/2 74/240/2 73/241/2 67/229/2 
f 69/227/2 75/239/2 74/240/2 68/228/2 
f 70/226/7 76/238/7 75/239/2 69/227/2 
f 87/266/13 89/283/13 76/284/7 70/267/7 
f 99/265/17 101/282/17 89/283/13 87/266/13 
f 106/264/20 108/281/20 101/282/17 99/265/17 
f 115/263/24 117/280/24 108/281/20 106/264/20 
f 125/262/29 127/279/29 117/280/24 115/263/24 
f 129/261/36 131/278/36 127/279/29 125/262/29 
f 133/260/40 135/277/40 131/278/36 129/261/36 
f 136/259/47 137/276/47 135/277/40 133/260/40 
f 141/258/51 143/275/51 137/276/47 136/259/47 
f 149/257/64 155/274/64 143/275/51 141/258/51 
f 148/236/68 154/248/68 155/249/64 149/237/64 
f 147/235/68 153/247/68 154/248/68 148/236/68 
f 146/234/68 152/246/68 153/247/68 147/235/68 
f 145/233/68 151/245/68 152/246/68 146/234/68 
f 144/133/30 140/127/30 138/122/30 132/105/30 128/97/30 124/90/30 114/86/30 105/68/30 98/48/30 86/28/30 65/8/30 66/7/30 67/6/30 68/5/30 69/4/30 70/3/30 87/27/30 99/47/30 106/67/30 115/85/30 125/89/30 129/96/30 133/104/30 136/121/30 141/126/30 149/128/30 148/129/30 147/130/30 146/131/30 145/132/30 
f 142/328/30 139/326/30 150/334/30 
f 139/326/30 134/324/30 150/334/30 
f 150/334/30 134/324/30 151/333/30 
f 134/324/30 130/319/30 151/333/30 
f 151/333/30 130/319/30 152/332/30 
f 130/319/30 126/313/30 152/332/30 
f 152/332/30 126/313/30 153/331/30 
f 126/313/30 116/311/30 153/331/30 
f 153/331/30 116/311/30 154/330/30 
f 116/311/30 107/308/30 154/330/30 
f 154/330/30 107/308/30 155/329/30 
f 107/308/30 100/304/30 155/329/30 
f 155/329/30 100/304/30 143/327/30 
f 100/304/30 88/300/30 143/327/30 
f 143/327/30 88/300/30 137/325/30 
f 88/300/30 71/297/30 137/325/30 
f 137/325/30 71/297/30 135/323/30 
f 71/297/30 72/296/30 135/323/30 
f 135/323/30 72/296/30 131/318/30 
f 72/296/30 73/295/30 131/318/30 
f 131/318/30 73/295/30 127/312/30 
f 73/295/30 74/294/30 127/312/30 
f 127/312/30 74/294/30 117/310/30 
f 74/294/30 75/293/30 117/310/30 
f 117/310/30 75/293/30 108/307/30 
f 75/293/30 76/292/30 108/307/30 
f 108/307/30 76/292/30 101/303/30 
f 76/292/30 89/299/30 101/303/30 
