# Blender 4.0.2
# www.blender.org
mtllib Goal C.mtl
o Goal_C
v 4.718004 0.000000 1.393763
v -4.717167 0.000000 1.393762
v -4.803142 0.000000 1.386400
v -4.874824 0.000000 1.366048
v -4.933513 0.000000 1.335302
v -4.980506 0.000000 1.296763
v -5.017105 0.000000 1.253027
v -5.044608 0.000000 1.206692
v -5.064315 0.000000 1.160358
v -5.077525 0.000000 1.116622
v -5.085537 0.000000 1.078082
v -5.089653 0.000000 1.047337
v -5.091169 0.000000 1.026985
v -5.091386 0.000000 1.019623
v -5.091386 0.000000 -1.019625
v -5.084023 0.000000 -1.105581
v -5.063666 0.000000 -1.177248
v -5.032914 0.000000 -1.235923
v -4.994367 0.000000 -1.282907
v -4.950621 0.000000 -1.319498
v -4.904277 0.000000 -1.346995
v -4.857932 0.000000 -1.366698
v -4.814186 0.000000 -1.379905
v -4.775639 0.000000 -1.387917
v -4.744887 0.000000 -1.392030
v -4.724530 0.000000 -1.393546
v -4.717167 0.000000 -1.393762
v 4.718004 0.000000 -1.393761
v 4.803978 0.000000 -1.386399
v 4.875660 0.000000 -1.366047
v 4.934348 0.000000 -1.335302
v 4.981341 0.000000 -1.296762
v 5.017940 0.000000 -1.253026
v 5.045444 0.000000 -1.206692
v 5.065150 0.000000 -1.160358
v 5.078361 0.000000 -1.116622
v 5.086374 0.000000 -1.078082
v 5.090488 0.000000 -1.047337
v 5.092004 0.000000 -1.026985
v 5.092221 0.000000 -1.019623
v 5.092221 0.000000 1.019625
v 5.084857 0.000000 1.105581
v 5.064501 0.000000 1.177248
v 5.033750 0.000000 1.235923
v 4.995202 0.000000 1.282907
v 4.951456 0.000000 1.319498
v 4.905112 0.000000 1.346996
v 4.858768 0.000000 1.366699
v 4.815023 0.000000 1.379906
v 4.776474 0.000000 1.387917
v 4.745723 0.000000 1.392031
v 4.725367 0.000000 1.393547
v 4.718004 -0.087500 1.393763
v -4.717167 -0.087500 1.393762
v -4.803142 -0.087500 1.386400
v -4.874824 -0.087500 1.366048
v -4.933513 -0.087500 1.335302
v -4.980506 -0.087500 1.296763
v -5.017105 -0.087500 1.253027
v -5.044608 -0.087500 1.206692
v -5.064315 -0.087500 1.160358
v -5.077525 -0.087500 1.116622
v -5.085537 -0.087500 1.078082
v -5.089653 -0.087500 1.047337
v -5.091169 -0.087500 1.026985
v -5.091386 -0.087500 1.019623
v -5.091386 -0.087500 -1.019625
v -5.084023 -0.087500 -1.105581
v -5.063666 -0.087500 -1.177248
v -5.032914 -0.087500 -1.235923
v -4.994367 -0.087500 -1.282907
v -4.950621 -0.087500 -1.319498
v -4.904277 -0.087500 -1.346995
v -4.857932 -0.087500 -1.366698
v -4.814186 -0.087500 -1.379905
v -4.775639 -0.087500 -1.387917
v -4.744887 -0.087500 -1.392030
v -4.724530 -0.087500 -1.393546
v -4.717167 -0.087500 -1.393762
v 4.718004 -0.087500 -1.393761
v 4.803978 -0.087500 -1.386399
v 4.875660 -0.087500 -1.366047
v 4.934348 -0.087500 -1.335302
v 4.981341 -0.087500 -1.296762
v 5.017940 -0.087500 -1.253026
v 5.045444 -0.087500 -1.206692
v 5.065150 -0.087500 -1.160358
v 5.078361 -0.087500 -1.116622
v 5.086374 -0.087500 -1.078082
v 5.090488 -0.087500 -1.047337
v 5.092004 -0.087500 -1.026985
v 5.092221 -0.087500 -1.019623
v 5.092221 -0.087500 1.019625
v 5.084857 -0.087500 1.105581
v 5.064501 -0.087500 1.177248
v 5.033750 -0.087500 1.235923
v 4.995202 -0.087500 1.282907
v 4.951456 -0.087500 1.319498
v 4.905112 -0.087500 1.346996
v 4.858768 -0.087500 1.366699
v 4.815023 -0.087500 1.379906
v 4.776474 -0.087500 1.387917
v 4.745723 -0.087500 1.392031
v 4.725367 -0.087500 1.393547
vn -0.0000 1.0000 -0.0000
vn -0.0000 -1.0000 -0.0000
vn -0.8857 -0.0000 -0.4642
vn -0.0000 -0.0000 1.0000
vn -0.0853 -0.0000 0.9964
vn -0.2731 -0.0000 0.9620
vn -0.4640 -0.0000 0.8858
vn -0.6341 -0.0000 0.7732
vn -0.7669 -0.0000 0.6417
vn -0.8599 -0.0000 0.5104
vn -0.9972 -0.0000 0.0743
vn -0.9996 -0.0000 0.0294
vn -0.9619 -0.0000 -0.2732
vn -0.7731 -0.0000 -0.6343
vn -0.6416 -0.0000 -0.7670
vn -0.3912 -0.0000 -0.9203
vn -0.2890 -0.0000 -0.9573
vn -0.1326 -0.0000 -0.9912
vn -0.0742 -0.0000 -0.9972
vn -0.0294 -0.0000 -0.9996
vn 0.9619 -0.0000 0.2732
vn 0.8857 -0.0000 0.4642
vn 0.0294 -0.0000 0.9996
vn 0.7731 -0.0000 0.6343
vn 0.6416 -0.0000 0.7670
vn 0.5103 -0.0000 0.8600
vn 0.9964 -0.0000 0.0854
vn -0.0000 -0.0000 -1.0000
vn 0.3912 -0.0000 0.9203
vn -0.9202 -0.0000 0.3914
vn 1.0000 -0.0000 -0.0000
vn 0.2890 -0.0000 0.9573
vn -0.9573 -0.0000 0.2891
vn 0.2731 -0.0000 -0.9620
vn 0.2035 -0.0000 0.9791
vn -0.9791 -0.0000 0.2035
vn 0.4641 -0.0000 -0.8858
vn 0.1326 -0.0000 0.9912
vn -0.9912 -0.0000 0.1327
vn 0.6341 -0.0000 -0.7732
vn 0.0743 -0.0000 0.9972
vn 0.7669 -0.0000 -0.6418
vn 0.0853 -0.0000 -0.9964
vn 0.8599 -0.0000 -0.5104
vn -1.0000 -0.0000 -0.0000
vn 0.9202 -0.0000 -0.3914
vn -0.2035 -0.0000 -0.9791
vn -0.9964 -0.0000 -0.0854
vn 0.9573 -0.0000 -0.2891
vn 0.9791 -0.0000 -0.2036
vn 0.9912 -0.0000 -0.1326
vn 0.9972 -0.0000 -0.0743
vn 0.9996 -0.0000 -0.0293
vn -0.5103 -0.0000 -0.8600
vn 0.0001 -1.0000 -0.0000
vn -0.0001 -1.0000 -0.0000
vn -0.4641 -0.0000 0.8858
vn -0.7669 -0.0000 0.6418
vn -0.9996 -0.0000 0.0295
vn 0.9620 -0.0000 0.2732
vn 0.9964 -0.0000 0.0853
vn 0.3913 -0.0000 0.9203
vn -0.9791 -0.0000 0.2036
vn -0.9912 -0.0000 0.1326
vn 0.0742 -0.0000 0.9972
vn -0.9964 -0.0000 -0.0853
vn 0.9573 -0.0000 -0.2892
vn 0.9996 -0.0000 -0.0294
vt 0.269134 0.981627
vt 0.005741 0.984497
vt 0.036739 0.000000
vt 0.524534 0.997342
vt 0.273897 0.965975
vt 0.510714 -0.000000
vt 0.564638 0.256806
vt 0.573230 0.261928
vt 0.564638 0.261928
vt 0.547453 0.020744
vt 0.556046 0.944546
vt 0.547453 0.944546
vt 0.547453 0.012381
vt 0.556045 0.020744
vt 0.547453 0.005516
vt 0.556045 0.012381
vt 0.547453 -0.000000
vt 0.556045 0.005516
vt 0.564638 0.502352
vt 0.573230 0.506907
vt 0.564638 0.506907
vt 0.564638 0.497479
vt 0.573230 0.502352
vt 0.573230 0.492516
vt 0.573230 0.497479
vt 0.564638 0.474334
vt 0.573230 0.476326
vt 0.564638 0.476326
vt 0.564638 0.473619
vt 0.573230 0.474334
vt 0.573230 0.268489
vt 0.564638 0.268489
vt 0.556046 0.959896
vt 0.564638 0.964451
vt 0.556046 0.964451
vt 0.556046 0.955022
vt 0.564638 0.959896
vt 0.556046 0.945233
vt 0.564638 0.950059
vt 0.556046 0.950059
vt 0.556046 0.940774
vt 0.564638 0.945233
vt 0.556046 0.933866
vt 0.564638 0.936909
vt 0.556046 0.936909
vt 0.556046 0.931873
vt 0.564638 0.933866
vt 0.556046 0.931158
vt 0.564638 0.931873
vt 0.564638 0.009825
vt 0.573230 0.016690
vt 0.564638 0.016690
vt 0.564638 0.004311
vt 0.573230 0.009825
vt 0.556046 0.945268
vt 0.547453 0.945268
vt 0.564638 0.000000
vt 0.573230 0.004311
vt 0.547453 0.967960
vt 0.556046 0.972517
vt 0.547453 0.972517
vt 0.547453 0.963216
vt 0.556046 0.967960
vt 0.573230 0.025050
vt 0.564638 0.025050
vt 0.556046 0.019860
vt 0.564638 0.931158
vt 0.547453 0.958531
vt 0.556046 0.963216
vt 0.564638 0.487692
vt 0.564638 0.492516
vt 0.573230 0.224713
vt 0.564638 0.224713
vt 0.547453 0.954149
vt 0.556046 0.958531
vt 0.564638 0.483233
vt 0.573230 0.487692
vt 0.556046 0.005124
vt 0.564638 0.011686
vt 0.556046 0.011686
vt 0.547453 0.950314
vt 0.556046 0.954149
vt 0.564638 0.479369
vt 0.573230 0.483233
vt 0.556046 -0.000000
vt 0.564638 0.005124
vt 0.547453 0.947273
vt 0.556046 0.950314
vt 0.573230 0.479369
vt 0.564638 0.252680
vt 0.573230 0.256806
vt 0.564638 0.256806
vt 0.556046 0.947273
vt 0.564638 0.248123
vt 0.573230 0.252680
vt 0.564638 0.019860
vt 0.564638 0.243380
vt 0.573230 0.248123
vt 0.564638 0.276660
vt 0.573230 0.473619
vt 0.564638 0.238696
vt 0.573230 0.243380
vt 0.564638 0.940774
vt 0.573230 0.276660
vt 0.564638 0.234315
vt 0.573230 0.238696
vt 0.564638 0.230481
vt 0.573230 0.234315
vt 0.564638 0.227440
vt 0.573230 0.230481
vt 0.564638 0.225436
vt 0.573230 0.227440
vt 0.573230 0.225436
vt 0.564638 0.955022
vt 0.273004 0.028305
vt 0.273727 0.036747
vt 0.273727 0.963253
vt 0.273705 0.963976
vt 0.273557 0.965975
vt 0.273153 0.968995
vt 0.272366 0.972780
vt 0.271069 0.977076
vt 0.266434 0.986177
vt 0.262841 0.990473
vt 0.258227 0.994258
vt 0.252465 0.997278
vt 0.245428 0.999277
vt 0.236987 1.000000
vt 0.036739 1.000000
vt 0.036016 0.999979
vt 0.034018 0.999830
vt 0.030999 0.999426
vt 0.027214 0.998639
vt 0.022920 0.997342
vt 0.018370 0.995407
vt 0.013820 0.992706
vt 0.009525 0.989112
vt 0.002721 0.978734
vt 0.000723 0.971695
vt 0.000000 0.963253
vt 0.000000 0.036747
vt 0.000021 0.036024
vt 0.000170 0.034025
vt 0.000574 0.031005
vt 0.001361 0.027220
vt 0.002658 0.022925
vt 0.004592 0.018374
vt 0.007293 0.013823
vt 0.010886 0.009527
vt 0.015499 0.005742
vt 0.021261 0.002722
vt 0.028299 0.000723
vt 0.236987 0.000000
vt 0.237710 0.000021
vt 0.239709 0.000170
vt 0.242728 0.000574
vt 0.246512 0.001361
vt 0.250807 0.002658
vt 0.255357 0.004593
vt 0.259907 0.007294
vt 0.264202 0.010888
vt 0.267986 0.015503
vt 0.271005 0.021266
vt 0.547453 0.036747
vt 0.547453 0.963253
vt 0.546730 0.971695
vt 0.544732 0.978734
vt 0.541713 0.984497
vt 0.537928 0.989112
vt 0.533633 0.992706
vt 0.529084 0.995407
vt 0.520239 0.998639
vt 0.516454 0.999426
vt 0.513435 0.999830
vt 0.511437 0.999979
vt 0.510714 1.000000
vt 0.310466 1.000000
vt 0.302025 0.999277
vt 0.294988 0.997278
vt 0.289226 0.994258
vt 0.284612 0.990473
vt 0.281019 0.986177
vt 0.278319 0.981626
vt 0.276384 0.977076
vt 0.275087 0.972780
vt 0.274301 0.968995
vt 0.273748 0.963976
vt 0.273727 0.963253
vt 0.273727 0.036747
vt 0.274449 0.028305
vt 0.276448 0.021266
vt 0.279467 0.015503
vt 0.283252 0.010888
vt 0.287546 0.007294
vt 0.292096 0.004593
vt 0.296646 0.002658
vt 0.300941 0.001361
vt 0.304725 0.000574
vt 0.307744 0.000170
vt 0.309743 0.000021
vt 0.310466 -0.000000
vt 0.519155 0.000723
vt 0.526192 0.002722
vt 0.531954 0.005742
vt 0.536568 0.009527
vt 0.540161 0.013823
vt 0.542861 0.018373
vt 0.544796 0.022924
vt 0.546093 0.027220
vt 0.546879 0.031005
vt 0.547283 0.034025
vt 0.547432 0.036024
vt 0.573230 0.256806
vt 0.556045 -0.000000
vt 0.573230 0.000000
vt 0.564638 -0.000000
s 0
usemtl Tile
f 47/1/1 31/2/1 15/3/1
f 61/4/2 77/5/2 93/6/2
f 18/7/3 69/8/3 17/9/3
f 2/10/4 53/11/4 1/12/4
f 3/13/5 54/14/5 2/10/5
f 4/15/6 55/16/6 3/13/6
f 5/17/7 56/18/7 4/15/7
f 6/19/8 57/20/8 5/21/8
f 7/22/9 58/23/9 6/19/9
f 7/22/10 60/24/10 59/25/10
f 13/26/11 64/27/11 12/28/11
f 14/29/12 65/30/12 13/26/12
f 17/9/13 68/31/13 16/32/13
f 19/33/14 70/34/14 18/35/14
f 20/36/15 71/37/15 19/33/15
f 22/38/16 73/39/16 21/40/16
f 23/41/17 74/42/17 22/38/17
f 25/43/18 76/44/18 24/45/18
f 26/46/19 77/47/19 25/43/19
f 27/48/20 78/49/20 26/46/20
f 43/50/21 94/51/21 42/52/21
f 44/53/22 95/54/22 43/50/22
f 1/12/23 104/55/23 52/56/23
f 45/57/24 96/58/24 44/53/24
f 46/59/25 97/60/25 45/61/25
f 47/62/26 98/63/26 46/59/26
f 42/52/27 93/64/27 41/65/27
f 28/66/28 79/67/28 27/48/28
f 48/68/29 99/69/29 47/62/29
f 9/70/30 60/24/30 8/71/30
f 41/65/31 92/72/31 40/73/31
f 49/74/32 100/75/32 48/68/32
f 10/76/33 61/77/33 9/70/33
f 30/78/34 81/79/34 29/80/34
f 50/81/35 101/82/35 49/74/35
f 11/83/36 62/84/36 10/76/36
f 31/85/37 82/86/37 30/78/37
f 51/87/38 102/88/38 50/81/38
f 12/28/39 63/89/39 11/83/39
f 32/90/40 83/91/40 31/92/40
f 52/56/41 103/93/41 51/87/41
f 33/94/42 84/95/42 32/90/42
f 29/80/43 80/96/43 28/66/43
f 34/97/44 85/98/44 33/94/44
f 15/99/45 66/100/45 14/29/45
f 35/101/46 86/102/46 34/97/46
f 24/45/47 75/103/47 23/41/47
f 16/32/48 67/104/48 15/99/48
f 36/105/49 87/106/49 35/101/49
f 37/107/50 88/108/50 36/105/50
f 38/109/51 89/110/51 37/107/51
f 39/111/52 90/112/52 38/109/52
f 40/73/53 91/113/53 39/111/53
f 21/40/54 72/114/54 20/36/54
f 3/115/1 2/116/1 1/117/1
f 1/117/1 52/118/1 51/119/1
f 51/119/1 50/120/1 49/121/1
f 49/121/1 48/122/1 47/1/1
f 47/1/1 46/123/1 45/124/1
f 45/124/1 44/125/1 43/126/1
f 43/126/1 42/127/1 41/128/1
f 41/128/1 40/129/1 39/130/1
f 39/130/1 38/131/1 37/132/1
f 37/132/1 36/133/1 35/134/1
f 35/134/1 34/135/1 33/136/1
f 33/136/1 32/137/1 31/2/1
f 31/2/1 30/138/1 29/139/1
f 29/139/1 28/140/1 27/141/1
f 27/141/1 26/142/1 25/143/1
f 25/143/1 24/144/1 23/145/1
f 23/145/1 22/146/1 21/147/1
f 21/147/1 20/148/1 19/149/1
f 19/149/1 18/150/1 17/151/1
f 17/151/1 16/152/1 15/3/1
f 15/3/1 14/153/1 13/154/1
f 13/154/1 12/155/1 11/156/1
f 11/156/1 10/157/1 9/158/1
f 9/158/1 8/159/1 7/160/1
f 7/160/1 6/161/1 5/162/1
f 5/162/1 4/163/1 3/115/1
f 3/115/1 1/117/1 51/119/1
f 51/119/1 49/121/1 47/1/1
f 47/1/1 45/124/1 43/126/1
f 43/126/1 41/128/1 39/130/1
f 39/130/1 37/132/1 35/134/1
f 35/134/1 33/136/1 31/2/1
f 31/2/1 29/139/1 27/141/1
f 27/141/1 25/143/1 23/145/1
f 23/145/1 21/147/1 19/149/1
f 19/149/1 17/151/1 15/3/1
f 15/3/1 13/154/1 11/156/1
f 11/156/1 9/158/1 7/160/1
f 7/160/1 5/162/1 3/115/1
f 3/115/1 51/119/1 47/1/1
f 47/1/1 43/126/1 39/130/1
f 39/130/1 35/134/1 31/2/1
f 31/2/1 27/141/1 23/145/1
f 23/145/1 19/149/1 15/3/1
f 15/3/1 11/156/1 7/160/1
f 7/160/1 3/115/1 47/1/1
f 47/1/1 39/130/1 31/2/1
f 31/2/1 23/145/1 15/3/1
f 15/3/1 7/160/1 47/1/1
f 53/164/2 54/165/2 55/166/2
f 55/166/2 56/167/2 57/168/2
f 57/168/2 58/169/2 59/170/2
f 59/170/2 60/171/2 61/4/2
f 61/4/2 62/172/2 63/173/2
f 63/173/2 64/174/2 65/175/2
f 65/175/55 66/176/55 67/177/55
f 67/177/2 68/178/2 69/179/2
f 69/179/2 70/180/2 71/181/2
f 71/181/2 72/182/2 73/183/2
f 73/183/2 74/184/2 75/185/2
f 75/185/2 76/186/2 77/5/2
f 77/5/2 78/187/2 79/188/2
f 79/188/2 80/189/2 81/190/2
f 81/190/2 82/191/2 83/192/2
f 83/192/2 84/193/2 85/194/2
f 85/194/2 86/195/2 87/196/2
f 87/196/2 88/197/2 89/198/2
f 89/198/2 90/199/2 91/200/2
f 91/200/56 92/201/56 93/6/56
f 93/6/2 94/202/2 95/203/2
f 95/203/2 96/204/2 97/205/2
f 97/205/2 98/206/2 99/207/2
f 99/207/2 100/208/2 101/209/2
f 101/209/2 102/210/2 103/211/2
f 103/211/2 104/212/2 53/164/2
f 53/164/2 55/166/2 57/168/2
f 57/168/2 59/170/2 61/4/2
f 61/4/2 63/173/2 65/175/2
f 65/175/2 67/177/2 69/179/2
f 69/179/2 71/181/2 73/183/2
f 73/183/2 75/185/2 77/5/2
f 77/5/2 79/188/2 81/190/2
f 81/190/2 83/192/2 85/194/2
f 85/194/2 87/196/2 89/198/2
f 89/198/2 91/200/2 93/6/2
f 93/6/2 95/203/2 97/205/2
f 97/205/2 99/207/2 101/209/2
f 101/209/2 103/211/2 53/164/2
f 53/164/2 57/168/2 61/4/2
f 61/4/2 65/175/2 69/179/2
f 69/179/2 73/183/2 77/5/2
f 77/5/2 81/190/2 85/194/2
f 85/194/2 89/198/2 93/6/2
f 93/6/2 97/205/2 101/209/2
f 101/209/2 53/164/2 61/4/2
f 61/4/2 69/179/2 77/5/2
f 77/5/2 85/194/2 93/6/2
f 93/6/2 101/209/2 61/4/2
f 18/7/3 70/213/3 69/8/3
f 2/10/4 54/14/4 53/11/4
f 3/13/5 55/16/5 54/14/5
f 4/15/6 56/18/6 55/16/6
f 5/17/57 57/214/57 56/18/57
f 6/19/8 58/23/8 57/20/8
f 7/22/58 59/25/58 58/23/58
f 7/22/10 8/71/10 60/24/10
f 13/26/11 65/30/11 64/27/11
f 14/29/59 66/100/59 65/30/59
f 17/9/13 69/8/13 68/31/13
f 19/33/14 71/37/14 70/34/14
f 20/36/15 72/114/15 71/37/15
f 22/38/16 74/42/16 73/39/16
f 23/41/17 75/103/17 74/42/17
f 25/43/18 77/47/18 76/44/18
f 26/46/19 78/49/19 77/47/19
f 27/48/20 79/67/20 78/49/20
f 43/50/60 95/54/60 94/51/60
f 44/53/22 96/58/22 95/54/22
f 1/12/23 53/11/23 104/55/23
f 45/57/24 97/215/24 96/58/24
f 46/59/25 98/63/25 97/60/25
f 47/62/26 99/69/26 98/63/26
f 42/52/61 94/51/61 93/64/61
f 28/66/28 80/96/28 79/67/28
f 48/68/62 100/75/62 99/69/62
f 9/70/30 61/77/30 60/24/30
f 41/65/31 93/64/31 92/72/31
f 49/74/32 101/82/32 100/75/32
f 10/76/33 62/84/33 61/77/33
f 30/78/34 82/86/34 81/79/34
f 50/81/35 102/88/35 101/82/35
f 11/83/63 63/89/63 62/84/63
f 31/85/37 83/216/37 82/86/37
f 51/87/38 103/93/38 102/88/38
f 12/28/64 64/27/64 63/89/64
f 32/90/40 84/95/40 83/91/40
f 52/56/65 104/55/65 103/93/65
f 33/94/42 85/98/42 84/95/42
f 29/80/43 81/79/43 80/96/43
f 34/97/44 86/102/44 85/98/44
f 15/99/45 67/104/45 66/100/45
f 35/101/46 87/106/46 86/102/46
f 24/45/47 76/44/47 75/103/47
f 16/32/66 68/31/66 67/104/66
f 36/105/67 88/108/67 87/106/67
f 37/107/50 89/110/50 88/108/50
f 38/109/51 90/112/51 89/110/51
f 39/111/52 91/113/52 90/112/52
f 40/73/68 92/72/68 91/113/68
f 21/40/54 73/39/54 72/114/54
