# Blender 4.0.2
# www.blender.org
mtllib Turns.mtl
o Blueprint
v -1.019445 0.043750 -1.190000
v 1.019445 0.043750 -1.190000
v 1.058630 0.043750 -1.185623
v 1.091300 0.043750 -1.173522
v 1.118047 0.043750 -1.155242
v 1.139465 0.043750 -1.132327
v 1.156146 0.043750 -1.106323
v 1.168681 0.043750 -1.078773
v 1.177662 0.043750 -1.051224
v 1.183683 0.043750 -1.025220
v 1.187335 0.043750 -1.002305
v 1.189210 0.043750 -0.984025
v 1.189901 0.043750 -0.971923
v 1.190000 0.043750 -0.967547
v 1.190000 0.043750 0.967546
v 1.186644 0.043750 1.018654
v 1.177366 0.043750 1.061265
v 1.163351 0.043750 1.096152
v 1.145782 0.043750 1.124088
v 1.125845 0.043750 1.145844
v 1.104723 0.043750 1.162193
v 1.083601 0.043750 1.173908
v 1.063664 0.043750 1.181761
v 1.046095 0.043750 1.186524
v 1.032079 0.043750 1.188970
v 1.022802 0.043750 1.189871
v 1.019445 0.043750 1.190000
v -1.019445 0.043750 1.190000
v -1.058630 0.043750 1.185623
v -1.091300 0.043750 1.173522
v -1.118047 0.043750 1.155242
v -1.139465 0.043750 1.132327
v -1.156146 0.043750 1.106322
v -1.168681 0.043750 1.078773
v -1.177662 0.043750 1.051224
v -1.183683 0.043750 1.025220
v -1.187335 0.043750 1.002305
v -1.189210 0.043750 0.984024
v -1.189901 0.043750 0.971923
v -1.190000 0.043750 0.967546
v -1.190000 0.043750 -0.967547
v -1.186644 0.043750 -1.018654
v -1.177366 0.043750 -1.061265
v -1.163351 0.043750 -1.096152
v -1.145782 0.043750 -1.124088
v -1.125845 0.043750 -1.145844
v -1.104723 0.043750 -1.162193
v -1.083601 0.043750 -1.173908
v -1.063663 0.043750 -1.181761
v -1.046095 0.043750 -1.186524
v -1.032079 0.043750 -1.188970
v -1.022801 0.043750 -1.189871
v -1.019445 -0.043750 -1.190000
v 1.019445 -0.043750 -1.190000
v 1.058630 -0.043750 -1.185623
v 1.091300 -0.043750 -1.173522
v 1.118047 -0.043750 -1.155242
v 1.139465 -0.043750 -1.132327
v 1.156146 -0.043750 -1.106323
v 1.168681 -0.043750 -1.078773
v 1.177662 -0.043750 -1.051224
v 1.183683 -0.043750 -1.025220
v 1.187335 -0.043750 -1.002305
v 1.189210 -0.043750 -0.984025
v 1.189901 -0.043750 -0.971923
v 1.190000 -0.043750 -0.967547
v 1.190000 -0.043750 0.967546
v 1.186644 -0.043750 1.018654
v 1.177366 -0.043750 1.061265
v 1.163351 -0.043750 1.096152
v 1.145782 -0.043750 1.124088
v 1.125845 -0.043750 1.145844
v 1.104723 -0.043750 1.162193
v 1.083601 -0.043750 1.173908
v 1.063664 -0.043750 1.181761
v 1.046095 -0.043750 1.186524
v 1.032079 -0.043750 1.188970
v 1.022802 -0.043750 1.189871
v 1.019445 -0.043750 1.190000
v -1.019445 -0.043750 1.190000
v -1.058630 -0.043750 1.185623
v -1.091300 -0.043750 1.173522
v -1.118047 -0.043750 1.155242
v -1.139465 -0.043750 1.132327
v -1.156146 -0.043750 1.106322
v -1.168681 -0.043750 1.078773
v -1.177662 -0.043750 1.051224
v -1.183683 -0.043750 1.025220
v -1.187335 -0.043750 1.002305
v -1.189210 -0.043750 0.984024
v -1.189901 -0.043750 0.971923
v -1.190000 -0.043750 0.967546
v -1.190000 -0.043750 -0.967547
v -1.186644 -0.043750 -1.018654
v -1.177366 -0.043750 -1.061265
v -1.163351 -0.043750 -1.096152
v -1.145782 -0.043750 -1.124088
v -1.125845 -0.043750 -1.145844
v -1.104723 -0.043750 -1.162193
v -1.083601 -0.043750 -1.173908
v -1.063663 -0.043750 -1.181761
v -1.046095 -0.043750 -1.186524
v -1.032079 -0.043750 -1.188970
v -1.022801 -0.043750 -1.189871
vn -0.0000 1.0000 -0.0000
vn -0.0000 -1.0000 -0.0000
vn 0.9279 -0.0000 0.3728
vn -0.0000 -0.0000 -1.0000
vn 0.1110 -0.0000 -0.9938
vn 0.3473 -0.0000 -0.9377
vn 0.5642 -0.0000 -0.8256
vn 0.7306 -0.0000 -0.6828
vn 0.8417 -0.0000 -0.5399
vn 0.9102 -0.0000 -0.4141
vn 0.9984 -0.0000 -0.0570
vn 0.9997 -0.0000 -0.0226
vn 0.9771 -0.0000 0.2127
vn 0.8465 -0.0000 0.5324
vn 0.7373 -0.0000 0.6756
vn 0.4850 -0.0000 0.8745
vn 0.3665 -0.0000 0.9304
vn 0.1719 -0.0000 0.9851
vn 0.0967 -0.0000 0.9953
vn 0.0383 -0.0000 0.9993
vn -0.9771 -0.0000 -0.2127
vn -0.9279 -0.0000 -0.3728
vn -0.0384 -0.0000 -0.9993
vn -0.8465 -0.0000 -0.5324
vn -0.7373 -0.0000 -0.6756
vn -0.6121 -0.0000 -0.7908
vn -0.9979 -0.0000 -0.0655
vn -0.0000 -0.0000 1.0000
vn -0.4850 -0.0000 -0.8745
vn 0.9507 -0.0000 -0.3100
vn -1.0000 -0.0000 -0.0000
vn -0.3665 -0.0000 -0.9304
vn 0.9742 -0.0000 -0.2256
vn -0.3473 -0.0000 0.9377
vn -0.2617 -0.0000 -0.9652
vn 0.9875 -0.0000 -0.1574
vn -0.5642 -0.0000 0.8256
vn -0.1719 -0.0000 -0.9851
vn 0.9948 -0.0000 -0.1020
vn -0.7306 -0.0000 0.6828
vn -0.0967 -0.0000 -0.9953
vn -0.8417 -0.0000 0.5399
vn -0.1110 -0.0000 0.9938
vn -0.9102 -0.0000 0.4141
vn 1.0000 -0.0000 -0.0000
vn -0.9507 -0.0000 0.3100
vn 0.2617 -0.0000 0.9652
vn 0.9979 -0.0000 0.0655
vn -0.9742 -0.0000 0.2256
vn -0.9875 -0.0000 0.1574
vn -0.9948 -0.0000 0.1021
vn -0.9984 -0.0000 0.0570
vn -0.9997 -0.0000 0.0226
vn 0.6121 -0.0000 0.7908
vn 0.0001 1.0000 -0.0000
vn 0.0001 -1.0000 -0.0000
vn 0.7372 -0.0000 0.6756
vn -0.9771 -0.0000 -0.2128
vn -0.7372 -0.0000 -0.6756
vn 0.9948 -0.0000 -0.1021
vn -0.9997 -0.0000 0.0225
vt 0.494158 0.482085
vt 0.007302 0.484884
vt 0.046734 -0.000000
vt 0.470845 0.997408
vt 0.000216 0.966823
vt 0.453266 0.500000
vt 0.505464 0.036765
vt 0.512458 0.018382
vt 0.512458 0.036765
vt 0.519785 0.073530
vt 0.945518 0.055147
vt 0.945518 0.073529
vt 0.511704 0.073530
vt 0.519785 0.055147
vt 0.505162 0.073530
vt 0.511704 0.055147
vt 0.500000 0.055147
vt 0.505162 0.055147
vt 0.971731 0.036765
vt 0.976976 0.018382
vt 0.976976 0.036765
vt 0.965941 0.036765
vt 0.971731 0.018382
vt 0.959916 0.036765
vt 0.965941 0.018382
vt 0.937132 0.036765
vt 0.939676 0.018382
vt 0.939676 0.036765
vt 0.936215 0.036765
vt 0.937132 0.018382
vt 0.521166 0.018382
vt 0.521166 0.036765
vt 0.500000 0.036765
vt 0.505464 0.018382
vt 0.968757 0.055147
vt 0.973423 0.036765
vt 0.973423 0.055147
vt 0.959287 0.055147
vt 0.963968 0.036765
vt 0.963968 0.055147
vt 0.954942 0.036765
vt 0.959287 0.036765
vt 0.948181 0.055147
vt 0.951164 0.036765
vt 0.951164 0.055147
vt 0.946222 0.055147
vt 0.948181 0.036765
vt 0.945519 0.055147
vt 0.946222 0.036765
vt 0.512458 0.018382
vt 0.521166 0.000000
vt 0.521166 0.018382
vt 0.505465 0.018382
vt 0.512458 0.000000
vt 0.946222 0.055147
vt 0.946222 0.073529
vt 0.500000 0.018382
vt 0.505465 0.000000
vt 0.968757 0.073529
vt 0.973423 0.055147
vt 0.973423 0.073529
vt 0.963968 0.073529
vt 0.968757 0.055147
vt 0.531776 0.000000
vt 0.531776 0.018382
vt 0.519785 0.055147
vt 0.945519 0.036765
vt 0.959287 0.073529
vt 0.963968 0.055147
vt 0.953967 0.036765
vt 0.959916 0.018382
vt 0.936216 -0.000000
vt 0.936216 0.018382
vt 0.954942 0.073529
vt 0.959287 0.055147
vt 0.948404 0.036765
vt 0.953967 0.018382
vt 0.511704 0.055147
vt 0.505162 0.036765
vt 0.511704 0.036765
vt 0.951163 0.073529
vt 0.954942 0.055147
vt 0.943537 0.036765
vt 0.948404 0.018382
vt 0.500000 0.055147
vt 0.505162 0.055147
vt 0.948180 0.073529
vt 0.951163 0.055147
vt 0.943537 0.018382
vt 0.971731 0.018382
vt 0.976976 -0.000000
vt 0.976976 0.018382
vt 0.948180 0.055147
vt 0.965941 0.018382
vt 0.971731 -0.000000
vt 0.519785 0.036765
vt 0.959916 0.018382
vt 0.965941 -0.000000
vt 0.531776 0.036765
vt 0.936215 0.018382
vt 0.953967 0.018382
vt 0.959916 -0.000000
vt 0.954942 0.055147
vt 0.531776 0.018382
vt 0.948404 0.018382
vt 0.953967 -0.000000
vt 0.943537 0.018382
vt 0.948404 -0.000000
vt 0.939676 0.018382
vt 0.943537 -0.000000
vt 0.937133 0.018382
vt 0.939676 -0.000000
vt 0.937133 -0.000000
vt 0.968757 0.036765
vt 0.499080 0.027599
vt 0.500000 0.035831
vt 0.500000 0.464169
vt 0.499973 0.464874
vt 0.499784 0.466823
vt 0.499270 0.469768
vt 0.498269 0.473459
vt 0.496619 0.477647
vt 0.490724 0.486522
vt 0.486153 0.490710
vt 0.480284 0.494401
vt 0.472955 0.497346
vt 0.464003 0.499295
vt 0.453266 0.500000
vt 0.046734 0.500000
vt 0.045814 0.499979
vt 0.043272 0.499834
vt 0.039432 0.499440
vt 0.034618 0.498673
vt 0.029155 0.497408
vt 0.023367 0.495521
vt 0.017579 0.492888
vt 0.012116 0.489383
vt 0.003462 0.479265
vt 0.000920 0.472401
vt 0.000000 0.464169
vt 0.000000 0.035831
vt 0.000027 0.035126
vt 0.000216 0.033177
vt 0.000730 0.030232
vt 0.001731 0.026541
vt 0.003381 0.022353
vt 0.005842 0.017915
vt 0.009276 0.013478
vt 0.013847 0.009289
vt 0.019716 0.005599
vt 0.027045 0.002654
vt 0.035997 0.000705
vt 0.453266 -0.000000
vt 0.454186 0.000021
vt 0.456728 0.000166
vt 0.460568 0.000560
vt 0.465382 0.001327
vt 0.470845 0.002592
vt 0.476633 0.004479
vt 0.482421 0.007112
vt 0.487884 0.010617
vt 0.492698 0.015116
vt 0.496538 0.020735
vt 0.500000 0.535831
vt 0.500000 0.964169
vt 0.499080 0.972401
vt 0.496538 0.979265
vt 0.492698 0.984884
vt 0.487884 0.989383
vt 0.482421 0.992888
vt 0.476633 0.995521
vt 0.465382 0.998673
vt 0.460568 0.999440
vt 0.456728 0.999834
vt 0.454186 0.999979
vt 0.453266 1.000000
vt 0.046734 1.000000
vt 0.035997 0.999295
vt 0.027045 0.997346
vt 0.019716 0.994401
vt 0.013847 0.990710
vt 0.009276 0.986522
vt 0.005842 0.982085
vt 0.003381 0.977647
vt 0.001731 0.973459
vt 0.000730 0.969768
vt 0.000027 0.964874
vt 0.000000 0.964169
vt -0.000000 0.535831
vt 0.000920 0.527599
vt 0.003462 0.520735
vt 0.007302 0.515116
vt 0.012116 0.510617
vt 0.017579 0.507112
vt 0.023367 0.504479
vt 0.029155 0.502592
vt 0.034618 0.501327
vt 0.039432 0.500560
vt 0.043272 0.500166
vt 0.045814 0.500021
vt 0.046734 0.500000
vt 0.464003 0.500705
vt 0.472955 0.502654
vt 0.480284 0.505599
vt 0.486153 0.509289
vt 0.490723 0.513478
vt 0.494158 0.517915
vt 0.496619 0.522353
vt 0.498269 0.526541
vt 0.499270 0.530232
vt 0.499784 0.533177
vt 0.499973 0.535126
vt 0.500000 0.073530
vt 0.500000 0.018382
vt 0.500000 0.000000
vt 0.500000 0.036765
s 0
usemtl Tile
f 47/1/1 31/2/1 15/3/1
f 61/4/2 77/5/2 93/6/2
f 18/7/3 69/8/3 17/9/3
f 2/10/4 53/11/4 1/12/4
f 3/13/5 54/14/5 2/10/5
f 4/15/6 55/16/6 3/13/6
f 4/15/7 57/17/7 56/18/7
f 6/19/8 57/20/8 5/21/8
f 7/22/9 58/23/9 6/19/9
f 8/24/10 59/25/10 7/22/10
f 13/26/11 64/27/11 12/28/11
f 14/29/12 65/30/12 13/26/12
f 17/9/13 68/31/13 16/32/13
f 19/33/14 70/34/14 18/7/14
f 20/35/15 71/36/15 19/37/15
f 22/38/16 73/39/16 21/40/16
f 22/38/17 75/41/17 74/42/17
f 25/43/18 76/44/18 24/45/18
f 26/46/19 77/47/19 25/43/19
f 27/48/20 78/49/20 26/46/20
f 43/50/21 94/51/21 42/52/21
f 44/53/22 95/54/22 43/50/22
f 1/12/23 104/55/23 52/56/23
f 45/57/24 96/58/24 44/53/24
f 46/59/25 97/60/25 45/61/25
f 47/62/26 98/63/26 46/59/26
f 42/52/27 93/64/27 41/65/27
f 28/66/28 79/67/28 27/48/28
f 48/68/29 99/69/29 47/62/29
f 9/70/30 60/71/30 8/24/30
f 41/65/31 92/72/31 40/73/31
f 49/74/32 100/75/32 48/68/32
f 10/76/33 61/77/33 9/70/33
f 29/78/34 82/79/34 81/80/34
f 50/81/35 101/82/35 49/74/35
f 11/83/36 62/84/36 10/76/36
f 31/85/37 82/79/37 30/86/37
f 51/87/38 102/88/38 50/81/38
f 12/28/39 63/89/39 11/83/39
f 32/90/40 83/91/40 31/92/40
f 52/56/41 103/93/41 51/87/41
f 33/94/42 84/95/42 32/90/42
f 29/78/43 80/96/43 28/66/43
f 34/97/44 85/98/44 33/94/44
f 15/99/45 66/100/45 14/29/45
f 35/101/46 86/102/46 34/97/46
f 24/45/47 75/41/47 23/103/47
f 16/32/48 67/104/48 15/99/48
f 36/105/49 87/106/49 35/101/49
f 37/107/50 88/108/50 36/105/50
f 38/109/51 89/110/51 37/107/51
f 39/111/52 90/112/52 38/109/52
f 40/73/53 91/113/53 39/111/53
f 21/40/54 72/114/54 20/35/54
f 3/115/1 2/116/1 1/117/1
f 1/117/1 52/118/1 51/119/1
f 51/119/1 50/120/1 49/121/1
f 49/121/1 48/122/1 47/1/1
f 47/1/1 46/123/1 45/124/1
f 45/124/1 44/125/1 43/126/1
f 43/126/1 42/127/1 41/128/1
f 41/128/1 40/129/1 39/130/1
f 39/130/1 38/131/1 37/132/1
f 37/132/1 36/133/1 35/134/1
f 35/134/1 34/135/1 33/136/1
f 33/136/1 32/137/1 31/2/1
f 31/2/1 30/138/1 29/139/1
f 29/139/1 28/140/1 27/141/1
f 27/141/1 26/142/1 25/143/1
f 25/143/1 24/144/1 23/145/1
f 23/145/1 22/146/1 21/147/1
f 21/147/1 20/148/1 19/149/1
f 19/149/1 18/150/1 17/151/1
f 17/151/1 16/152/1 15/3/1
f 15/3/55 14/153/55 13/154/55
f 13/154/1 12/155/1 11/156/1
f 11/156/1 10/157/1 9/158/1
f 9/158/1 8/159/1 7/160/1
f 7/160/1 6/161/1 5/162/1
f 5/162/1 4/163/1 3/115/1
f 3/115/1 1/117/1 51/119/1
f 51/119/1 49/121/1 47/1/1
f 47/1/1 45/124/1 43/126/1
f 43/126/1 41/128/1 39/130/1
f 39/130/1 37/132/1 35/134/1
f 35/134/1 33/136/1 31/2/1
f 31/2/1 29/139/1 27/141/1
f 27/141/1 25/143/1 23/145/1
f 23/145/1 21/147/1 19/149/1
f 19/149/1 17/151/1 15/3/1
f 15/3/1 13/154/1 11/156/1
f 11/156/1 9/158/1 7/160/1
f 7/160/1 5/162/1 3/115/1
f 3/115/1 51/119/1 47/1/1
f 47/1/1 43/126/1 39/130/1
f 39/130/1 35/134/1 31/2/1
f 31/2/1 27/141/1 23/145/1
f 23/145/1 19/149/1 15/3/1
f 15/3/1 11/156/1 7/160/1
f 7/160/1 3/115/1 47/1/1
f 47/1/1 39/130/1 31/2/1
f 31/2/1 23/145/1 15/3/1
f 15/3/1 7/160/1 47/1/1
f 53/164/2 54/165/2 55/166/2
f 55/166/2 56/167/2 57/168/2
f 57/168/2 58/169/2 59/170/2
f 59/170/2 60/171/2 61/4/2
f 61/4/2 62/172/2 63/173/2
f 63/173/2 64/174/2 65/175/2
f 65/175/56 66/176/56 67/177/56
f 67/177/2 68/178/2 69/179/2
f 69/179/2 70/180/2 71/181/2
f 71/181/2 72/182/2 73/183/2
f 73/183/2 74/184/2 75/185/2
f 75/185/2 76/186/2 77/5/2
f 77/5/2 78/187/2 79/188/2
f 79/188/2 80/189/2 81/190/2
f 81/190/2 82/191/2 83/192/2
f 83/192/2 84/193/2 85/194/2
f 85/194/2 86/195/2 87/196/2
f 87/196/2 88/197/2 89/198/2
f 89/198/2 90/199/2 91/200/2
f 91/200/2 92/201/2 93/6/2
f 93/6/2 94/202/2 95/203/2
f 95/203/2 96/204/2 97/205/2
f 97/205/2 98/206/2 99/207/2
f 99/207/2 100/208/2 101/209/2
f 101/209/2 102/210/2 103/211/2
f 103/211/2 104/212/2 53/164/2
f 53/164/2 55/166/2 57/168/2
f 57/168/2 59/170/2 61/4/2
f 61/4/2 63/173/2 65/175/2
f 65/175/2 67/177/2 69/179/2
f 69/179/2 71/181/2 73/183/2
f 73/183/2 75/185/2 77/5/2
f 77/5/2 79/188/2 81/190/2
f 81/190/2 83/192/2 85/194/2
f 85/194/2 87/196/2 89/198/2
f 89/198/2 91/200/2 93/6/2
f 93/6/2 95/203/2 97/205/2
f 97/205/2 99/207/2 101/209/2
f 101/209/2 103/211/2 53/164/2
f 53/164/2 57/168/2 61/4/2
f 61/4/2 65/175/2 69/179/2
f 69/179/2 73/183/2 77/5/2
f 77/5/2 81/190/2 85/194/2
f 85/194/2 89/198/2 93/6/2
f 93/6/2 97/205/2 101/209/2
f 101/209/2 53/164/2 61/4/2
f 61/4/2 69/179/2 77/5/2
f 77/5/2 85/194/2 93/6/2
f 93/6/2 101/209/2 61/4/2
f 18/7/3 70/34/3 69/8/3
f 2/10/4 54/14/4 53/11/4
f 3/13/5 55/16/5 54/14/5
f 4/15/6 56/18/6 55/16/6
f 4/15/7 5/213/7 57/17/7
f 6/19/8 58/23/8 57/20/8
f 7/22/9 59/25/9 58/23/9
f 8/24/10 60/71/10 59/25/10
f 13/26/11 65/30/11 64/27/11
f 14/29/12 66/100/12 65/30/12
f 17/9/13 69/8/13 68/31/13
f 19/33/14 71/214/14 70/34/14
f 20/35/57 72/114/57 71/36/57
f 22/38/16 74/42/16 73/39/16
f 22/38/17 23/103/17 75/41/17
f 25/43/18 77/47/18 76/44/18
f 26/46/19 78/49/19 77/47/19
f 27/48/20 79/67/20 78/49/20
f 43/50/58 95/54/58 94/51/58
f 44/53/22 96/58/22 95/54/22
f 1/12/23 53/11/23 104/55/23
f 45/57/24 97/215/24 96/58/24
f 46/59/59 98/63/59 97/60/59
f 47/62/26 99/69/26 98/63/26
f 42/52/27 94/51/27 93/64/27
f 28/66/28 80/96/28 79/67/28
f 48/68/29 100/75/29 99/69/29
f 9/70/30 61/77/30 60/71/30
f 41/65/31 93/64/31 92/72/31
f 49/74/32 101/82/32 100/75/32
f 10/76/33 62/84/33 61/77/33
f 29/78/34 30/86/34 82/79/34
f 50/81/35 102/88/35 101/82/35
f 11/83/36 63/89/36 62/84/36
f 31/85/37 83/216/37 82/79/37
f 51/87/38 103/93/38 102/88/38
f 12/28/60 64/27/60 63/89/60
f 32/90/40 84/95/40 83/91/40
f 52/56/41 104/55/41 103/93/41
f 33/94/42 85/98/42 84/95/42
f 29/78/43 81/80/43 80/96/43
f 34/97/44 86/102/44 85/98/44
f 15/99/45 67/104/45 66/100/45
f 35/101/46 87/106/46 86/102/46
f 24/45/47 76/44/47 75/41/47
f 16/32/48 68/31/48 67/104/48
f 36/105/49 88/108/49 87/106/49
f 37/107/50 89/110/50 88/108/50
f 38/109/51 90/112/51 89/110/51
f 39/111/52 91/113/52 90/112/52
f 40/73/61 92/72/61 91/113/61
f 21/40/54 73/39/54 72/114/54
