# Blender 4.0.2
# www.blender.org
mtllib Dispenser.mtl
o Dispenser
v -1.676542 0.184625 2.851197
v -1.676543 0.184625 -2.851198
v -1.672155 0.184625 -2.902440
v -1.660025 0.184625 -2.945164
v -1.641700 0.184625 -2.980142
v -1.618731 0.184625 -3.008152
v -1.592663 0.184625 -3.029965
v -1.565048 0.184625 -3.046357
v -1.537432 0.184625 -3.058103
v -1.511365 0.184625 -3.065977
v -1.488395 0.184625 -3.070753
v -1.470070 0.184625 -3.073205
v -1.457940 0.184625 -3.074108
v -1.453552 0.184625 -3.074238
v 1.453552 0.184625 -3.074238
v 1.504783 0.184625 -3.069849
v 1.547497 0.184625 -3.057717
v 1.582468 0.184625 -3.039388
v 1.610472 0.184625 -3.016412
v 1.632280 0.184625 -2.990340
v 1.648669 0.184625 -2.962718
v 1.660412 0.184625 -2.935096
v 1.668283 0.184625 -2.909023
v 1.673058 0.184625 -2.886048
v 1.675511 0.184625 -2.867720
v 1.676414 0.184625 -2.855587
v 1.676542 0.184625 -2.851198
v 1.676543 0.184625 2.851197
v 1.672155 0.184625 2.902440
v 1.660025 0.184625 2.945163
v 1.641700 0.184625 2.980142
v 1.618730 0.184625 3.008152
v 1.592664 0.184625 3.029965
v 1.565047 0.184625 3.046358
v 1.537431 0.184625 3.058103
v 1.511365 0.184625 3.065977
v 1.488395 0.184625 3.070753
v 1.470070 0.184625 3.073205
v 1.457940 0.184625 3.074109
v 1.453552 0.184625 3.074238
v -1.453552 0.184625 3.074238
v -1.504783 0.184625 3.069849
v -1.547496 0.184625 3.057716
v -1.582468 0.184625 3.039387
v -1.610471 0.184625 3.016412
v -1.632280 0.184625 2.990339
v -1.648669 0.184625 2.962718
v -1.660412 0.184625 2.935096
v -1.668284 0.184625 2.909023
v -1.673058 0.184625 2.886047
v -1.675510 0.184625 2.867719
v -1.676414 0.184625 2.855586
v -1.676542 -0.184625 2.851197
v -1.676543 -0.184625 -2.851198
v -1.672155 -0.184625 -2.902440
v -1.660025 -0.184625 -2.945164
v -1.641700 -0.184625 -2.980142
v -1.618731 -0.184625 -3.008152
v -1.592663 -0.184625 -3.029965
v -1.565048 -0.184625 -3.046357
v -1.537432 -0.184625 -3.058103
v -1.511365 -0.184625 -3.065977
v -1.488395 -0.184625 -3.070753
v -1.470070 -0.184625 -3.073205
v -1.457940 -0.184625 -3.074108
v -1.453552 -0.184625 -3.074238
v 1.453552 -0.184625 -3.074238
v 1.504783 -0.184625 -3.069849
v 1.547497 -0.184625 -3.057717
v 1.582468 -0.184625 -3.039388
v 1.610472 -0.184625 -3.016412
v 1.632280 -0.184625 -2.990340
v 1.648669 -0.184625 -2.962718
v 1.660412 -0.184625 -2.935096
v 1.668283 -0.184625 -2.909023
v 1.673058 -0.184625 -2.886048
v 1.675511 -0.184625 -2.867720
v 1.676414 -0.184625 -2.855587
v 1.676542 -0.184625 -2.851198
v 1.676543 -0.184625 2.851197
v 1.672155 -0.184625 2.902440
v 1.660025 -0.184625 2.945163
v 1.641700 -0.184625 2.980142
v 1.618730 -0.184625 3.008152
v 1.592664 -0.184625 3.029965
v 1.565047 -0.184625 3.046358
v 1.537431 -0.184625 3.058103
v 1.511365 -0.184625 3.065977
v 1.488395 -0.184625 3.070753
v 1.470070 -0.184625 3.073205
v 1.457940 -0.184625 3.074109
v 1.453552 -0.184625 3.074238
v -1.453552 -0.184625 3.074238
v -1.504783 -0.184625 3.069849
v -1.547496 -0.184625 3.057716
v -1.582468 -0.184625 3.039387
v -1.610471 -0.184625 3.016412
v -1.632280 -0.184625 2.990339
v -1.648669 -0.184625 2.962718
v -1.660412 -0.184625 2.935096
v -1.668284 -0.184625 2.909023
v -1.673058 -0.184625 2.886047
v -1.675510 -0.184625 2.867719
v -1.676414 -0.184625 2.855586
vn -0.0000 1.0000 -0.0000
vn -0.0000 -1.0000 -0.0000
vn 0.4642 -0.0000 -0.8857
vn -1.0000 -0.0000 -0.0000
vn -0.9964 -0.0000 -0.0853
vn -0.9620 -0.0000 -0.2731
vn -0.8858 -0.0000 -0.4641
vn -0.7732 -0.0000 -0.6341
vn -0.6418 -0.0000 -0.7669
vn -0.5104 -0.0000 -0.8599
vn -0.0743 -0.0000 -0.9972
vn -0.0296 -0.0000 -0.9996
vn 0.2732 -0.0000 -0.9619
vn 0.6343 -0.0000 -0.7731
vn 0.7670 -0.0000 -0.6416
vn 0.9203 -0.0000 -0.3912
vn 0.9573 -0.0000 -0.2890
vn 0.9912 -0.0000 -0.1326
vn 0.9972 -0.0000 -0.0742
vn 0.9996 -0.0000 -0.0292
vn -0.2733 -0.0000 0.9619
vn -0.4642 -0.0000 0.8857
vn -0.9996 -0.0000 0.0293
vn -0.6343 -0.0000 0.7731
vn -0.7670 -0.0000 0.6416
vn -0.8600 -0.0000 0.5103
vn -0.0854 -0.0000 0.9964
vn 1.0000 -0.0000 -0.0000
vn -0.9203 -0.0000 0.3912
vn -0.3914 -0.0000 -0.9202
vn -0.0000 -0.0000 1.0000
vn -0.9573 -0.0000 0.2890
vn -0.2892 -0.0000 -0.9573
vn 0.9620 -0.0000 0.2731
vn -0.9791 -0.0000 0.2034
vn -0.2036 -0.0000 -0.9791
vn 0.8858 -0.0000 0.4641
vn -0.9912 -0.0000 0.1326
vn -0.1326 -0.0000 -0.9912
vn 0.7732 -0.0000 0.6341
vn -0.9972 -0.0000 0.0742
vn 0.6418 -0.0000 0.7669
vn 0.9964 -0.0000 0.0853
vn 0.5104 -0.0000 0.8599
vn -0.0000 -0.0000 -1.0000
vn 0.3914 -0.0000 0.9202
vn 0.9791 -0.0000 -0.2035
vn 0.0854 -0.0000 -0.9964
vn 0.2892 -0.0000 0.9573
vn 0.2036 -0.0000 0.9791
vn 0.1327 -0.0000 0.9912
vn 0.0743 -0.0000 0.9972
vn 0.0295 -0.0000 0.9996
vn 0.8600 -0.0000 -0.5103
vn -0.0000 -1.0000 -0.0002
vn -0.6417 -0.0000 -0.7669
vn 0.7671 -0.0000 -0.6416
vn -0.2732 -0.0000 0.9619
vn -0.7671 -0.0000 0.6416
vn -0.0853 -0.0000 0.9964
vn -0.9791 -0.0000 0.2035
vn -0.1327 -0.0000 -0.9912
vn 0.1326 -0.0000 0.9912
vn 0.0294 -0.0000 0.9996
vt 0.425550 0.772590
vt 0.004459 0.774820
vt 0.028538 -0.000000
vt 0.866798 0.784797
vt 0.455616 0.760432
vt 0.856063 0.000000
vt 0.339247 0.938402
vt 0.337310 0.961406
vt 0.337310 0.938402
vt 0.533594 0.892393
vt 0.179371 0.915398
vt 0.179371 0.892393
vt 0.536756 0.915398
vt 0.533594 0.915398
vt 0.539353 0.892393
vt 0.536756 0.892393
vt 0.541438 0.915398
vt 0.539353 0.915398
vt 0.142737 0.938402
vt 0.141014 0.961406
vt 0.141014 0.938402
vt 0.144579 0.938402
vt 0.142737 0.961406
vt 0.146456 0.938402
vt 0.144579 0.961406
vt 0.153331 0.938402
vt 0.152578 0.961406
vt 0.152578 0.938402
vt 0.153601 0.938402
vt 0.153331 0.961406
vt 0.334829 0.961406
vt 0.334829 0.938402
vt 0.173632 0.915398
vt 0.171909 0.938402
vt 0.171909 0.915398
vt 0.175475 0.915398
vt 0.173632 0.938402
vt 0.179176 0.915398
vt 0.177352 0.938402
vt 0.177352 0.915398
vt 0.180862 0.915398
vt 0.179176 0.938402
vt 0.183475 0.915398
vt 0.182324 0.938402
vt 0.182324 0.915398
vt 0.184228 0.915398
vt 0.183475 0.938402
vt 0.184499 0.915398
vt 0.184228 0.938402
vt 0.537723 0.938402
vt 0.535127 0.961406
vt 0.535127 0.938402
vt 0.539808 0.938402
vt 0.537723 0.961406
vt 0.179098 0.915398
vt 0.179098 0.892393
vt 0.541438 0.938402
vt 0.539808 0.961406
vt 0.168794 0.892393
vt 0.170517 0.915398
vt 0.168794 0.915398
vt 0.172311 0.892393
vt 0.170517 0.892393
vt 0.531966 0.961406
vt 0.531966 0.938402
vt 0.533929 0.915398
vt 0.184499 0.938402
vt 0.174083 0.892393
vt 0.172311 0.915398
vt 0.148280 0.938402
vt 0.146456 0.961406
vt 0.351382 0.961406
vt 0.351382 0.938402
vt 0.175740 0.892393
vt 0.174083 0.915398
vt 0.149966 0.938402
vt 0.148280 0.961406
vt 0.537019 0.915398
vt 0.539501 0.938402
vt 0.537019 0.938402
vt 0.177190 0.892393
vt 0.175740 0.915398
vt 0.151427 0.938402
vt 0.149966 0.961406
vt 0.539501 0.915398
vt 0.178340 0.892393
vt 0.177190 0.915398
vt 0.151427 0.961406
vt 0.340807 0.938402
vt 0.339247 0.961406
vt 0.178340 0.915398
vt 0.342530 0.938402
vt 0.340807 0.961406
vt 0.533929 0.938402
vt 0.344323 0.938402
vt 0.342530 0.961406
vt 0.331739 0.938402
vt 0.153601 0.961406
vt 0.346095 0.938402
vt 0.344323 0.961406
vt 0.180862 0.938402
vt 0.331739 0.961406
vt 0.347751 0.938402
vt 0.346095 0.961406
vt 0.349201 0.938402
vt 0.347751 0.961406
vt 0.350351 0.938402
vt 0.349201 0.961406
vt 0.351109 0.938402
vt 0.350351 0.961406
vt 0.351109 0.961406
vt 0.175475 0.938402
vt 0.428555 0.021986
vt 0.429117 0.028544
vt 0.429117 0.758318
vt 0.429100 0.758879
vt 0.428985 0.760432
vt 0.428671 0.762778
vt 0.428060 0.765718
vt 0.427052 0.769055
vt 0.423452 0.776125
vt 0.420661 0.779462
vt 0.417078 0.782402
vt 0.412602 0.784747
vt 0.407136 0.786300
vt 0.400579 0.786862
vt 0.028538 0.786862
vt 0.027976 0.786845
vt 0.026424 0.786730
vt 0.024079 0.786416
vt 0.021139 0.785805
vt 0.017803 0.784797
vt 0.014269 0.783294
vt 0.010735 0.781196
vt 0.007399 0.778404
vt 0.002114 0.770343
vt 0.000561 0.764876
vt 0.000000 0.758318
vt 0.000000 0.028544
vt 0.000016 0.027982
vt 0.000132 0.026430
vt 0.000446 0.024084
vt 0.001057 0.021144
vt 0.002064 0.017807
vt 0.003567 0.014272
vt 0.005665 0.010737
vt 0.008455 0.007400
vt 0.012039 0.004460
vt 0.016515 0.002114
vt 0.021981 0.000562
vt 0.400579 -0.000000
vt 0.401141 0.000017
vt 0.402693 0.000132
vt 0.405038 0.000446
vt 0.407978 0.001057
vt 0.411314 0.002065
vt 0.414848 0.003568
vt 0.418382 0.005666
vt 0.421718 0.008457
vt 0.424658 0.012042
vt 0.427003 0.016518
vt 0.884601 0.028544
vt 0.884601 0.758318
vt 0.884039 0.764876
vt 0.882487 0.770343
vt 0.880142 0.774820
vt 0.877202 0.778404
vt 0.873866 0.781196
vt 0.870332 0.783294
vt 0.863462 0.785805
vt 0.860522 0.786416
vt 0.858177 0.786730
vt 0.856625 0.786845
vt 0.856063 0.786862
vt 0.484022 0.786862
vt 0.477465 0.786300
vt 0.471999 0.784748
vt 0.467523 0.782402
vt 0.463940 0.779462
vt 0.461149 0.776125
vt 0.459051 0.772590
vt 0.457548 0.769055
vt 0.456541 0.765718
vt 0.455930 0.762778
vt 0.455501 0.758880
vt 0.455484 0.758318
vt 0.455484 0.028544
vt 0.456046 0.021986
vt 0.457598 0.016519
vt 0.459943 0.012042
vt 0.462883 0.008458
vt 0.466219 0.005666
vt 0.469753 0.003568
vt 0.473287 0.002065
vt 0.476623 0.001057
vt 0.479563 0.000446
vt 0.481908 0.000132
vt 0.483460 0.000017
vt 0.484022 0.000000
vt 0.862620 0.000562
vt 0.868086 0.002114
vt 0.872562 0.004460
vt 0.876145 0.007400
vt 0.878936 0.010737
vt 0.881034 0.014272
vt 0.882537 0.017807
vt 0.883544 0.021144
vt 0.884155 0.024084
vt 0.884469 0.026430
vt 0.884584 0.027982
vt 0.541438 0.892393
vt 0.541438 0.961406
s 0
usemtl Tile
f 47/1/1 31/2/1 15/3/1
f 61/4/2 77/5/2 93/6/2
f 18/7/3 69/8/3 17/9/3
f 2/10/4 53/11/4 1/12/4
f 2/10/5 55/13/5 54/14/5
f 4/15/6 55/13/6 3/16/6
f 4/15/7 57/17/7 56/18/7
f 6/19/8 57/20/8 5/21/8
f 7/22/9 58/23/9 6/19/9
f 8/24/10 59/25/10 7/22/10
f 13/26/11 64/27/11 12/28/11
f 14/29/12 65/30/12 13/26/12
f 17/9/13 68/31/13 16/32/13
f 19/33/14 70/34/14 18/35/14
f 20/36/15 71/37/15 19/33/15
f 22/38/16 73/39/16 21/40/16
f 23/41/17 74/42/17 22/38/17
f 25/43/18 76/44/18 24/45/18
f 26/46/19 77/47/19 25/43/19
f 27/48/20 78/49/20 26/46/20
f 43/50/21 94/51/21 42/52/21
f 44/53/22 95/54/22 43/50/22
f 1/12/23 104/55/23 52/56/23
f 45/57/24 96/58/24 44/53/24
f 45/59/25 98/60/25 97/61/25
f 47/62/26 98/60/26 46/63/26
f 42/52/27 93/64/27 41/65/27
f 28/66/28 79/67/28 27/48/28
f 48/68/29 99/69/29 47/62/29
f 9/70/30 60/71/30 8/24/30
f 41/65/31 92/72/31 40/73/31
f 49/74/32 100/75/32 48/68/32
f 10/76/33 61/77/33 9/70/33
f 29/78/34 82/79/34 81/80/34
f 50/81/35 101/82/35 49/74/35
f 11/83/36 62/84/36 10/76/36
f 31/17/37 82/79/37 30/85/37
f 51/86/38 102/87/38 50/81/38
f 12/28/39 63/88/39 11/83/39
f 32/89/40 83/90/40 31/7/40
f 52/56/41 103/91/41 51/86/41
f 33/92/42 84/93/42 32/89/42
f 29/78/43 80/94/43 28/66/43
f 34/95/44 85/96/44 33/92/44
f 15/97/45 66/98/45 14/29/45
f 35/99/46 86/100/46 34/95/46
f 24/45/47 75/101/47 23/41/47
f 16/32/48 67/102/48 15/97/48
f 36/103/49 87/104/49 35/99/49
f 37/105/50 88/106/50 36/103/50
f 38/107/51 89/108/51 37/105/51
f 39/109/52 90/110/52 38/107/52
f 40/73/53 91/111/53 39/109/53
f 21/40/54 72/112/54 20/36/54
f 3/113/1 2/114/1 1/115/1
f 1/115/1 52/116/1 51/117/1
f 51/117/1 50/118/1 49/119/1
f 49/119/1 48/120/1 47/1/1
f 47/1/1 46/121/1 45/122/1
f 45/122/1 44/123/1 43/124/1
f 43/124/1 42/125/1 41/126/1
f 41/126/1 40/127/1 39/128/1
f 39/128/1 38/129/1 37/130/1
f 37/130/1 36/131/1 35/132/1
f 35/132/1 34/133/1 33/134/1
f 33/134/1 32/135/1 31/2/1
f 31/2/1 30/136/1 29/137/1
f 29/137/1 28/138/1 27/139/1
f 27/139/1 26/140/1 25/141/1
f 25/141/1 24/142/1 23/143/1
f 23/143/1 22/144/1 21/145/1
f 21/145/1 20/146/1 19/147/1
f 19/147/1 18/148/1 17/149/1
f 17/149/1 16/150/1 15/3/1
f 15/3/1 14/151/1 13/152/1
f 13/152/1 12/153/1 11/154/1
f 11/154/1 10/155/1 9/156/1
f 9/156/1 8/157/1 7/158/1
f 7/158/1 6/159/1 5/160/1
f 5/160/1 4/161/1 3/113/1
f 3/113/1 1/115/1 51/117/1
f 51/117/1 49/119/1 47/1/1
f 47/1/1 45/122/1 43/124/1
f 43/124/1 41/126/1 39/128/1
f 39/128/1 37/130/1 35/132/1
f 35/132/1 33/134/1 31/2/1
f 31/2/1 29/137/1 27/139/1
f 27/139/1 25/141/1 23/143/1
f 23/143/1 21/145/1 19/147/1
f 19/147/1 17/149/1 15/3/1
f 15/3/1 13/152/1 11/154/1
f 11/154/1 9/156/1 7/158/1
f 7/158/1 5/160/1 3/113/1
f 3/113/1 51/117/1 47/1/1
f 47/1/1 43/124/1 39/128/1
f 39/128/1 35/132/1 31/2/1
f 31/2/1 27/139/1 23/143/1
f 23/143/1 19/147/1 15/3/1
f 15/3/1 11/154/1 7/158/1
f 7/158/1 3/113/1 47/1/1
f 47/1/1 39/128/1 31/2/1
f 31/2/1 23/143/1 15/3/1
f 15/3/1 7/158/1 47/1/1
f 53/162/2 54/163/2 55/164/2
f 55/164/2 56/165/2 57/166/2
f 57/166/2 58/167/2 59/168/2
f 59/168/2 60/169/2 61/4/2
f 61/4/2 62/170/2 63/171/2
f 63/171/2 64/172/2 65/173/2
f 65/173/2 66/174/2 67/175/2
f 67/175/2 68/176/2 69/177/2
f 69/177/2 70/178/2 71/179/2
f 71/179/2 72/180/2 73/181/2
f 73/181/2 74/182/2 75/183/2
f 75/183/2 76/184/2 77/5/2
f 77/5/2 78/185/2 79/186/2
f 79/186/2 80/187/2 81/188/2
f 81/188/2 82/189/2 83/190/2
f 83/190/2 84/191/2 85/192/2
f 85/192/2 86/193/2 87/194/2
f 87/194/2 88/195/2 89/196/2
f 89/196/2 90/197/2 91/198/2
f 91/198/55 92/199/55 93/6/55
f 93/6/2 94/200/2 95/201/2
f 95/201/2 96/202/2 97/203/2
f 97/203/2 98/204/2 99/205/2
f 99/205/2 100/206/2 101/207/2
f 101/207/2 102/208/2 103/209/2
f 103/209/2 104/210/2 53/162/2
f 53/162/2 55/164/2 57/166/2
f 57/166/2 59/168/2 61/4/2
f 61/4/2 63/171/2 65/173/2
f 65/173/2 67/175/2 69/177/2
f 69/177/2 71/179/2 73/181/2
f 73/181/2 75/183/2 77/5/2
f 77/5/2 79/186/2 81/188/2
f 81/188/2 83/190/2 85/192/2
f 85/192/2 87/194/2 89/196/2
f 89/196/2 91/198/2 93/6/2
f 93/6/2 95/201/2 97/203/2
f 97/203/2 99/205/2 101/207/2
f 101/207/2 103/209/2 53/162/2
f 53/162/2 57/166/2 61/4/2
f 61/4/2 65/173/2 69/177/2
f 69/177/2 73/181/2 77/5/2
f 77/5/2 81/188/2 85/192/2
f 85/192/2 89/196/2 93/6/2
f 93/6/2 97/203/2 101/207/2
f 101/207/2 53/162/2 61/4/2
f 61/4/2 69/177/2 77/5/2
f 77/5/2 85/192/2 93/6/2
f 93/6/2 101/207/2 61/4/2
f 18/7/3 70/90/3 69/8/3
f 2/10/4 54/14/4 53/11/4
f 2/10/5 3/16/5 55/13/5
f 4/15/6 56/18/6 55/13/6
f 4/15/7 5/211/7 57/17/7
f 6/19/8 58/23/8 57/20/8
f 7/22/56 59/25/56 58/23/56
f 8/24/10 60/71/10 59/25/10
f 13/26/11 65/30/11 64/27/11
f 14/29/12 66/98/12 65/30/12
f 17/9/13 69/8/13 68/31/13
f 19/33/14 71/37/14 70/34/14
f 20/36/57 72/112/57 71/37/57
f 22/38/16 74/42/16 73/39/16
f 23/41/17 75/101/17 74/42/17
f 25/43/18 77/47/18 76/44/18
f 26/46/19 78/49/19 77/47/19
f 27/48/20 79/67/20 78/49/20
f 43/50/58 95/54/58 94/51/58
f 44/53/22 96/58/22 95/54/22
f 1/12/23 53/11/23 104/55/23
f 45/57/24 97/212/24 96/58/24
f 45/59/59 46/63/59 98/60/59
f 47/62/26 99/69/26 98/60/26
f 42/52/60 94/51/60 93/64/60
f 28/66/28 80/94/28 79/67/28
f 48/68/29 100/75/29 99/69/29
f 9/70/30 61/77/30 60/71/30
f 41/65/31 93/64/31 92/72/31
f 49/74/32 101/82/32 100/75/32
f 10/76/33 62/84/33 61/77/33
f 29/78/34 30/85/34 82/79/34
f 50/81/61 102/87/61 101/82/61
f 11/83/36 63/88/36 62/84/36
f 31/17/37 83/57/37 82/79/37
f 51/86/38 103/91/38 102/87/38
f 12/28/62 64/27/62 63/88/62
f 32/89/40 84/93/40 83/90/40
f 52/56/41 104/55/41 103/91/41
f 33/92/42 85/96/42 84/93/42
f 29/78/43 81/80/43 80/94/43
f 34/95/44 86/100/44 85/96/44
f 15/97/45 67/102/45 66/98/45
f 35/99/46 87/104/46 86/100/46
f 24/45/47 76/44/47 75/101/47
f 16/32/48 68/31/48 67/102/48
f 36/103/49 88/106/49 87/104/49
f 37/105/50 89/108/50 88/106/50
f 38/107/63 90/110/63 89/108/63
f 39/109/52 91/111/52 90/110/52
f 40/73/64 92/72/64 91/111/64
f 21/40/54 73/39/54 72/112/54
