# Blender 4.0.2
# www.blender.org
mtllib Tracks.mtl
o path2702
v -4.494701 0.043750 -4.167208
v -5.058589 0.043750 -4.124977
v -5.599072 0.043750 -4.011086
v -6.111267 0.043750 -3.830395
v -6.590288 0.043750 -3.587769
v -7.031250 0.043750 -3.288067
v -7.429272 0.043750 -2.936151
v -7.779467 0.043750 -2.536881
v -8.076951 0.043750 -2.095119
v -8.316841 0.043750 -1.615727
v -8.494252 0.043750 -1.103566
v -8.604299 0.043750 -0.563497
v -8.642099 0.043750 -0.000380
v -8.604108 0.043750 0.562971
v -8.493343 0.043750 1.103663
v -8.314757 0.043750 1.616705
v -8.073298 0.043750 2.097110
v -7.773915 0.043750 2.539888
v -7.421562 0.043750 2.940050
v -7.021187 0.043750 3.292607
v -6.577743 0.043750 3.592571
v -6.096178 0.043750 3.834953
v -5.581443 0.043750 4.014763
v -5.038489 0.043750 4.127013
v -4.472269 0.043750 4.166715
v 4.528232 0.043750 4.166715
v 5.089502 0.043750 4.121680
v 5.626782 0.043750 4.005451
v 6.135344 0.043750 3.822902
v 6.610456 0.043750 3.578906
v 7.047395 0.043750 3.278336
v 7.441429 0.043750 2.926066
v 7.787829 0.043750 2.526967
v 8.081868 0.043750 2.085914
v 8.318818 0.043750 1.607780
v 8.493950 0.043750 1.097437
v 8.602535 0.043750 0.559759
v 8.639848 0.043750 -0.000380
v 8.602441 0.043750 -0.560515
v 8.493244 0.043750 -1.098177
v 8.317083 0.043750 -1.608498
v 8.078786 0.043750 -2.086604
v 7.783176 0.043750 -2.527625
v 7.435081 0.043750 -2.926690
v 7.039324 0.043750 -3.278927
v 6.600733 0.043750 -3.579465
v 6.124134 0.043750 -3.823434
v 5.614353 0.043750 -4.005961
v 5.076215 0.043750 -4.122176
v 4.514544 0.043750 -4.167208
v -4.494701 -0.043750 -4.167208
v -5.058589 -0.043750 -4.124977
v -5.599072 -0.043750 -4.011086
v -6.111267 -0.043750 -3.830395
v -6.590288 -0.043750 -3.587769
v -7.031250 -0.043750 -3.288067
v -7.429272 -0.043750 -2.936151
v -7.779467 -0.043750 -2.536881
v -8.076951 -0.043750 -2.095119
v -8.316841 -0.043750 -1.615727
v -8.494252 -0.043750 -1.103566
v -8.604299 -0.043750 -0.563497
v -8.642099 -0.043750 -0.000380
v -8.604108 -0.043750 0.562971
v -8.493343 -0.043750 1.103663
v -8.314757 -0.043750 1.616705
v -8.073298 -0.043750 2.097110
v -7.773915 -0.043750 2.539888
v -7.421562 -0.043750 2.940050
v -7.021187 -0.043750 3.292607
v -6.577743 -0.043750 3.592571
v -6.096178 -0.043750 3.834953
v -5.581443 -0.043750 4.014763
v -5.038489 -0.043750 4.127013
v -4.472269 -0.043750 4.166715
v 4.528232 -0.043750 4.166715
v 5.089502 -0.043750 4.121680
v 5.626782 -0.043750 4.005451
v 6.135344 -0.043750 3.822902
v 6.610456 -0.043750 3.578906
v 7.047395 -0.043750 3.278336
v 7.441429 -0.043750 2.926066
v 7.787829 -0.043750 2.526967
v 8.081868 -0.043750 2.085914
v 8.318818 -0.043750 1.607780
v 8.493950 -0.043750 1.097437
v 8.602535 -0.043750 0.559759
v 8.639848 -0.043750 -0.000380
v 8.602441 -0.043750 -0.560515
v 8.493244 -0.043750 -1.098177
v 8.317083 -0.043750 -1.608498
v 8.078786 -0.043750 -2.086604
v 7.783176 -0.043750 -2.527625
v 7.435081 -0.043750 -2.926690
v 7.039324 -0.043750 -3.278927
v 6.600733 -0.043750 -3.579465
v 6.124134 -0.043750 -3.823434
v 5.614353 -0.043750 -4.005961
v 5.076215 -0.043750 -4.122176
v 4.514544 -0.043750 -4.167208
vn -0.0000 1.0000 -0.0000
vn -0.0000 -1.0000 -0.0000
vn -0.0747 -0.0000 -0.9972
vn -0.3327 -0.0000 -0.9430
vn -0.5621 -0.0000 -0.8271
vn 0.0799 -0.0000 -0.9968
vn -0.7518 -0.0000 -0.6594
vn -0.8943 -0.0000 -0.4475
vn -0.9799 -0.0000 -0.1997
vn -0.9977 -0.0000 0.0673
vn -0.9444 -0.0000 0.3287
vn -0.8284 -0.0000 0.5601
vn -0.6609 -0.0000 0.7505
vn -0.4496 -0.0000 0.8932
vn -0.2025 -0.0000 0.9793
vn 0.8320 -0.0000 0.5547
vn 0.7552 -0.0000 0.6555
vn 0.9802 -0.0000 0.1980
vn -0.0000 -0.0000 -1.0000
vn 0.5668 -0.0000 0.8239
vn 0.9978 -0.0000 -0.0666
vn 0.9453 -0.0000 -0.3263
vn 0.8307 -0.0000 -0.5568
vn 0.6648 -0.0000 -0.7470
vn 0.4557 -0.0000 -0.8902
vn 0.2114 -0.0000 0.9774
vn 0.2111 -0.0000 -0.9775
vn -0.2062 -0.0000 -0.9785
vn -0.4519 -0.0000 -0.8921
vn -0.6624 -0.0000 -0.7492
vn -0.8295 -0.0000 -0.5586
vn -0.9449 -0.0000 -0.3273
vn -0.9978 -0.0000 -0.0670
vn -0.9797 -0.0000 0.2007
vn -0.8935 -0.0000 0.4491
vn -0.7505 -0.0000 0.6608
vn -0.5603 -0.0000 0.8283
vn -0.3298 -0.0000 0.9441
vn -0.0699 -0.0000 0.9976
vn 0.6665 -0.0000 0.7455
vn 0.9459 -0.0000 0.3246
vn 0.8960 -0.0000 0.4440
vn 0.4568 -0.0000 0.8896
vn 0.9978 -0.0000 0.0665
vn 0.9800 -0.0000 -0.1990
vn 0.8950 -0.0000 -0.4461
vn 0.7536 -0.0000 -0.6573
vn 0.5653 -0.0000 -0.8249
vn 0.0800 -0.0000 0.9968
vn 0.3371 -0.0000 -0.9415
vn 0.3378 -0.0000 0.9412
vn -0.0000 -0.0000 1.0000
vn -0.4518 -0.0000 -0.8921
vn -0.7505 -0.0000 0.6609
vt 0.019489 0.146444
vt 0.431654 0.093792
vt 0.304633 0.991558
vt 0.499376 0.175067
vt 0.900490 0.069345
vt 0.824725 0.981059
vt 0.984666 0.693417
vt 0.989729 0.725833
vt 0.984666 0.725833
vt 0.984666 0.756641
vt 0.989729 0.785577
vt 0.984666 0.785577
vt 0.984666 0.812376
vt 0.989729 0.836773
vt 0.984666 0.836773
vt 0.984666 0.140501
vt 0.989729 0.173100
vt 0.984666 0.173100
vt 0.989729 0.021825
vt 0.994792 0.046203
vt 0.989729 0.046203
vt 0.989729 0.072836
vt 0.994792 0.101423
vt 0.989729 0.101423
vt 0.989729 0.131666
vt 0.994792 0.163266
vt 0.989729 0.163266
vt 0.989729 0.195923
vt 0.994792 0.228308
vt 0.989729 0.228308
vt 0.989729 0.259108
vt 0.994792 0.288056
vt 0.989729 0.288056
vt 0.989729 0.314882
vt 0.994792 0.339316
vt 0.989729 0.339316
vt 0.979603 -0.000000
vt 0.984666 0.023086
vt 0.979603 0.023086
vt 0.979603 0.048676
vt 0.984666 0.076485
vt 0.979603 0.076485
vt 0.979603 0.106228
vt 0.984666 0.137619
vt 0.979603 0.137619
vt 0.989729 0.385431
vt 0.994792 0.412001
vt 0.989729 0.412001
vt 0.989729 0.361088
vt 0.994792 0.385431
vt 0.989729 0.470622
vt 0.994792 0.502076
vt 0.989729 0.502076
vt 0.989729 0.693417
vt 0.979603 0.811793
vt 0.984666 0.837145
vt 0.979603 0.837145
vt 0.989729 0.534559
vt 0.994792 0.566763
vt 0.989729 0.566763
vt 0.989729 0.597399
vt 0.994792 0.626206
vt 0.989729 0.626206
vt 0.989729 0.652920
vt 0.994792 0.677278
vt 0.989729 0.677278
vt 0.984666 -0.000000
vt 0.989729 0.024114
vt 0.984666 0.024114
vt 0.984666 0.050517
vt 0.989729 0.078913
vt 0.984666 0.078913
vt 0.979603 0.723660
vt 0.984666 0.754776
vt 0.979603 0.754776
vt 0.984666 0.109007
vt 0.989729 0.140501
vt 0.989729 0.756641
vt 0.989729 0.812376
vt 0.989729 -0.000000
vt 0.994792 0.021825
vt 0.994792 0.072836
vt 0.994792 0.131666
vt 0.994792 0.195923
vt 0.994792 0.259108
vt 0.994792 0.314882
vt 0.994792 0.361088
vt 0.989729 0.361088
vt 0.984666 0.048676
vt 0.984666 0.106228
vt 0.984666 0.170373
vt 0.979603 0.170373
vt 0.984666 0.860026
vt 0.979603 0.860026
vt 0.989729 0.440497
vt 0.994792 0.470622
vt 0.994792 0.440497
vt 0.979603 0.784245
vt 0.984666 0.811793
vt 0.994792 0.534559
vt 0.994792 0.597399
vt 0.994792 0.652920
vt 0.994792 0.699017
vt 0.989729 0.699017
vt 0.989729 0.050517
vt 0.979603 0.691173
vt 0.984666 0.723660
vt 0.989729 0.109007
vt 0.984666 0.784245
vt 0.984666 0.691173
vt -0.000000 0.761294
vt 0.000000 0.239984
vt 0.002444 0.207356
vt 0.009034 0.176081
vt 0.033529 0.118726
vt 0.050871 0.093210
vt 0.071234 0.070179
vt 0.094337 0.049915
vt 0.119899 0.032702
vt 0.147639 0.018821
vt 0.177274 0.008555
vt 0.208525 0.002187
vt 0.241109 -0.000000
vt 0.273706 0.002198
vt 0.304993 0.008608
vt 0.334680 0.018941
vt 0.362478 0.032913
vt 0.388098 0.050236
vt 0.411253 0.070625
vt 0.449011 0.119452
vt 0.463036 0.147317
vt 0.473440 0.177101
vt 0.479936 0.208519
vt 0.482233 0.241282
vt 0.482233 0.762086
vt 0.479627 0.794563
vt 0.472902 0.825652
vt 0.462339 0.855080
vt 0.448220 0.882572
vt 0.430828 0.907855
vt 0.410444 0.930655
vt 0.387351 0.950699
vt 0.361830 0.967713
vt 0.334163 0.981424
vt 0.273521 0.997841
vt 0.241109 1.000000
vt 0.208697 0.997836
vt 0.177586 0.991517
vt 0.148057 0.981324
vt 0.120392 0.967535
vt 0.094873 0.950430
vt 0.071781 0.930288
vt 0.051399 0.907388
vt 0.034009 0.882009
vt 0.019892 0.854431
vt 0.009330 0.824933
vt 0.002606 0.793795
vt 0.492489 0.792644
vt 0.490045 0.760016
vt 0.490046 0.238706
vt 0.492651 0.206206
vt 0.509938 0.145569
vt 0.524055 0.117991
vt 0.541445 0.092612
vt 0.561827 0.069712
vt 0.584918 0.049570
vt 0.610437 0.032465
vt 0.638102 0.018676
vt 0.667631 0.008483
vt 0.698743 0.002165
vt 0.731154 0.000000
vt 0.763566 0.002159
vt 0.794678 0.008442
vt 0.824209 0.018576
vt 0.851875 0.032287
vt 0.877396 0.049301
vt 0.920873 0.092145
vt 0.938266 0.117428
vt 0.952384 0.144920
vt 0.962947 0.174348
vt 0.969673 0.205437
vt 0.972278 0.237914
vt 0.972278 0.758718
vt 0.969981 0.791481
vt 0.963486 0.822899
vt 0.953081 0.852683
vt 0.939056 0.880548
vt 0.921699 0.906208
vt 0.901299 0.929375
vt 0.878144 0.949764
vt 0.852523 0.967087
vt 0.795038 0.991392
vt 0.763752 0.997802
vt 0.731154 1.000000
vt 0.698570 0.997813
vt 0.667320 0.991445
vt 0.637684 0.981179
vt 0.609945 0.967298
vt 0.584383 0.950085
vt 0.561279 0.929821
vt 0.540916 0.906790
vt 0.523574 0.881274
vt 0.509535 0.853556
vt 0.499079 0.823919
vt 0.984666 -0.000000
vt 0.994792 0.361088
vt 0.989729 -0.000000
vt 0.994792 -0.000000
s 0
usemtl Tile
f 4/1/1 20/2/1 36/3/1
f 98/4/2 82/5/2 66/6/2
f 1/7/3 52/8/3 2/9/3
f 3/10/4 54/11/4 4/12/4
f 5/13/5 56/14/5 6/15/5
f 49/16/6 100/17/6 50/18/6
f 7/19/7 58/20/7 8/21/7
f 9/22/8 60/23/8 10/24/8
f 11/25/9 62/26/9 12/27/9
f 13/28/10 64/29/10 14/30/10
f 15/31/11 66/32/11 16/33/11
f 17/34/12 68/35/12 18/36/12
f 19/37/13 70/38/13 20/39/13
f 21/40/14 72/41/14 22/42/14
f 23/43/15 74/44/15 24/45/15
f 33/46/16 84/47/16 34/48/16
f 32/49/17 83/50/17 33/46/17
f 36/51/18 87/52/18 37/53/18
f 50/18/19 51/54/19 1/7/19
f 30/55/20 81/56/20 31/57/20
f 38/58/21 89/59/21 39/60/21
f 40/61/22 91/62/22 41/63/22
f 42/64/23 93/65/23 43/66/23
f 44/67/24 95/68/24 45/69/24
f 46/70/25 97/71/25 47/72/25
f 27/73/26 78/74/26 28/75/26
f 48/76/27 99/77/27 49/16/27
f 2/9/28 53/78/28 3/10/28
f 4/12/29 55/79/29 5/13/29
f 6/80/30 57/81/30 7/19/30
f 8/21/31 59/82/31 9/22/31
f 10/24/32 61/83/32 11/25/32
f 12/27/33 63/84/33 13/28/33
f 14/30/34 65/85/34 15/31/34
f 16/33/35 67/86/35 17/34/35
f 18/36/36 69/87/36 19/88/36
f 20/39/37 71/89/37 21/40/37
f 22/42/38 73/90/38 23/43/38
f 24/45/39 75/91/39 25/92/39
f 31/57/40 82/93/40 32/94/40
f 35/95/41 86/96/41 36/51/41
f 34/48/42 85/97/42 35/95/42
f 29/98/43 80/99/43 30/55/43
f 37/53/44 88/100/44 38/58/44
f 39/60/45 90/101/45 40/61/45
f 41/63/46 92/102/46 42/64/46
f 43/66/47 94/103/47 44/104/47
f 45/69/48 96/105/48 46/70/48
f 26/106/49 77/107/49 27/73/49
f 47/72/50 98/108/50 48/76/50
f 28/75/51 79/109/51 29/98/51
f 25/92/52 76/110/52 26/106/52
f 50/111/1 1/112/1 2/113/1
f 2/113/1 3/114/1 4/1/1
f 4/1/1 5/115/1 6/116/1
f 6/116/1 7/117/1 8/118/1
f 8/118/1 9/119/1 10/120/1
f 10/120/1 11/121/1 12/122/1
f 12/122/1 13/123/1 14/124/1
f 14/124/1 15/125/1 16/126/1
f 16/126/1 17/127/1 18/128/1
f 18/128/1 19/129/1 20/2/1
f 20/2/1 21/130/1 22/131/1
f 22/131/1 23/132/1 24/133/1
f 24/133/1 25/134/1 26/135/1
f 26/135/1 27/136/1 28/137/1
f 28/137/1 29/138/1 30/139/1
f 30/139/1 31/140/1 32/141/1
f 32/141/1 33/142/1 34/143/1
f 34/143/1 35/144/1 36/3/1
f 36/3/1 37/145/1 38/146/1
f 38/146/1 39/147/1 40/148/1
f 40/148/1 41/149/1 42/150/1
f 42/150/1 43/151/1 44/152/1
f 44/152/1 45/153/1 46/154/1
f 46/154/1 47/155/1 48/156/1
f 48/156/1 49/157/1 50/111/1
f 50/111/1 2/113/1 4/1/1
f 4/1/1 6/116/1 8/118/1
f 8/118/1 10/120/1 12/122/1
f 12/122/1 14/124/1 16/126/1
f 16/126/1 18/128/1 20/2/1
f 20/2/1 22/131/1 24/133/1
f 24/133/1 26/135/1 28/137/1
f 28/137/1 30/139/1 32/141/1
f 32/141/1 34/143/1 36/3/1
f 36/3/1 38/146/1 40/148/1
f 40/148/1 42/150/1 44/152/1
f 44/152/1 46/154/1 48/156/1
f 48/156/1 50/111/1 4/1/1
f 4/1/1 8/118/1 12/122/1
f 12/122/1 16/126/1 20/2/1
f 20/2/1 24/133/1 28/137/1
f 28/137/1 32/141/1 36/3/1
f 36/3/1 40/148/1 44/152/1
f 44/152/1 48/156/1 4/1/1
f 4/1/1 12/122/1 20/2/1
f 20/2/1 28/137/1 36/3/1
f 36/3/1 44/152/1 4/1/1
f 52/158/2 51/159/2 100/160/2
f 100/160/2 99/161/2 98/4/2
f 98/4/2 97/162/2 96/163/2
f 96/163/2 95/164/2 94/165/2
f 94/165/2 93/166/2 92/167/2
f 92/167/2 91/168/2 90/169/2
f 90/169/2 89/170/2 88/171/2
f 88/171/2 87/172/2 86/173/2
f 86/173/2 85/174/2 84/175/2
f 84/175/2 83/176/2 82/5/2
f 82/5/2 81/177/2 80/178/2
f 80/178/2 79/179/2 78/180/2
f 78/180/2 77/181/2 76/182/2
f 76/182/2 75/183/2 74/184/2
f 74/184/2 73/185/2 72/186/2
f 72/186/2 71/187/2 70/188/2
f 70/188/2 69/189/2 68/190/2
f 68/190/2 67/191/2 66/6/2
f 66/6/2 65/192/2 64/193/2
f 64/193/2 63/194/2 62/195/2
f 62/195/2 61/196/2 60/197/2
f 60/197/2 59/198/2 58/199/2
f 58/199/2 57/200/2 56/201/2
f 56/201/2 55/202/2 54/203/2
f 54/203/2 53/204/2 52/158/2
f 52/158/2 100/160/2 98/4/2
f 98/4/2 96/163/2 94/165/2
f 94/165/2 92/167/2 90/169/2
f 90/169/2 88/171/2 86/173/2
f 86/173/2 84/175/2 82/5/2
f 82/5/2 80/178/2 78/180/2
f 78/180/2 76/182/2 74/184/2
f 74/184/2 72/186/2 70/188/2
f 70/188/2 68/190/2 66/6/2
f 66/6/2 64/193/2 62/195/2
f 62/195/2 60/197/2 58/199/2
f 58/199/2 56/201/2 54/203/2
f 54/203/2 52/158/2 98/4/2
f 98/4/2 94/165/2 90/169/2
f 90/169/2 86/173/2 82/5/2
f 82/5/2 78/180/2 74/184/2
f 74/184/2 70/188/2 66/6/2
f 66/6/2 62/195/2 58/199/2
f 58/199/2 54/203/2 98/4/2
f 98/4/2 90/169/2 82/5/2
f 82/5/2 74/184/2 66/6/2
f 66/6/2 58/199/2 98/4/2
f 1/7/3 51/54/3 52/8/3
f 3/10/4 53/78/4 54/11/4
f 5/13/5 55/79/5 56/14/5
f 49/16/6 99/77/6 100/17/6
f 7/19/7 57/81/7 58/20/7
f 9/22/8 59/82/8 60/23/8
f 11/25/9 61/83/9 62/26/9
f 13/28/10 63/84/10 64/29/10
f 15/31/11 65/85/11 66/32/11
f 17/34/12 67/86/12 68/35/12
f 19/37/13 69/205/13 70/38/13
f 21/40/14 71/89/14 72/41/14
f 23/43/15 73/90/15 74/44/15
f 33/46/16 83/50/16 84/47/16
f 32/49/17 82/206/17 83/50/17
f 36/51/18 86/96/18 87/52/18
f 50/18/19 100/17/19 51/54/19
f 30/55/20 80/99/20 81/56/20
f 38/58/21 88/100/21 89/59/21
f 40/61/22 90/101/22 91/62/22
f 42/64/23 92/102/23 93/65/23
f 44/67/24 94/207/24 95/68/24
f 46/70/25 96/105/25 97/71/25
f 27/73/26 77/107/26 78/74/26
f 48/76/27 98/108/27 99/77/27
f 2/9/28 52/8/28 53/78/28
f 4/12/53 54/11/53 55/79/53
f 6/80/30 56/208/30 57/81/30
f 8/21/31 58/20/31 59/82/31
f 10/24/32 60/23/32 61/83/32
f 12/27/33 62/26/33 63/84/33
f 14/30/34 64/29/34 65/85/34
f 16/33/35 66/32/35 67/86/35
f 18/36/54 68/35/54 69/87/54
f 20/39/37 70/38/37 71/89/37
f 22/42/38 72/41/38 73/90/38
f 24/45/39 74/44/39 75/91/39
f 31/57/40 81/56/40 82/93/40
f 35/95/41 85/97/41 86/96/41
f 34/48/42 84/47/42 85/97/42
f 29/98/43 79/109/43 80/99/43
f 37/53/44 87/52/44 88/100/44
f 39/60/45 89/59/45 90/101/45
f 41/63/46 91/62/46 92/102/46
f 43/66/47 93/65/47 94/103/47
f 45/69/48 95/68/48 96/105/48
f 26/106/49 76/110/49 77/107/49
f 47/72/50 97/71/50 98/108/50
f 28/75/51 78/74/51 79/109/51
f 25/92/52 75/91/52 76/110/52
