# Blender 4.0.2
# www.blender.org
mtllib Speech.mtl
o Speech
v -0.056637 -0.244939 -0.608759
v -0.177964 -0.244939 -0.599084
v -0.288185 -0.244939 -0.579326
v -0.387355 -0.244939 -0.550091
v -0.475528 -0.244939 -0.511985
v -0.552758 -0.244939 -0.465614
v -0.619100 -0.244939 -0.411583
v -0.674608 -0.244939 -0.350501
v -0.719336 -0.244939 -0.282971
v -0.753339 -0.244939 -0.209600
v -0.776671 -0.244939 -0.130995
v -0.789387 -0.244939 -0.047761
v -0.791540 -0.244939 0.039495
v -0.782535 -0.244939 0.116660
v -0.761069 -0.244939 0.190872
v -0.727260 -0.244939 0.261223
v -0.681224 -0.244939 0.326803
v -0.623078 -0.244939 0.386702
v -0.552939 -0.244939 0.440010
v -0.470924 -0.244939 0.485819
v -0.377149 -0.244939 0.523217
v -0.271732 -0.244939 0.551297
v -0.154789 -0.244939 0.569147
v -0.026438 -0.244939 0.575859
v 0.113206 -0.244939 0.570523
v 0.153652 -0.244939 0.569390
v 0.187974 -0.244939 0.572596
v 0.217362 -0.244939 0.579475
v 0.243004 -0.244939 0.589358
v 0.266087 -0.244939 0.601577
v 0.287801 -0.244939 0.615465
v 0.309334 -0.244939 0.630354
v 0.331874 -0.244939 0.645576
v 0.356610 -0.244939 0.660464
v 0.384731 -0.244939 0.674349
v 0.417424 -0.244939 0.686565
v 0.455879 -0.244939 0.696443
v 0.504685 -0.244939 0.703149
v 0.532308 -0.244939 0.699659
v 0.542576 -0.244939 0.687575
v 0.539312 -0.244939 0.668498
v 0.526342 -0.244939 0.644030
v 0.507493 -0.244939 0.615772
v 0.486588 -0.244939 0.585325
v 0.467455 -0.244939 0.554293
v 0.453917 -0.244939 0.524274
v 0.449801 -0.244939 0.496873
v 0.458933 -0.244939 0.473689
v 0.485136 -0.244939 0.456325
v 0.516098 -0.244939 0.442688
v 0.548920 -0.244939 0.424584
v 0.582649 -0.244939 0.401774
v 0.616331 -0.244939 0.374018
v 0.649013 -0.244939 0.341074
v 0.679739 -0.244939 0.302704
v 0.707557 -0.244939 0.258666
v 0.731513 -0.244939 0.208721
v 0.750652 -0.244939 0.152627
v 0.764020 -0.244939 0.090146
v 0.770665 -0.244939 0.021036
v 0.769632 -0.244939 -0.054942
v 0.758401 -0.244939 -0.136725
v 0.735845 -0.244939 -0.213800
v 0.702216 -0.244939 -0.285635
v 0.657771 -0.244939 -0.351701
v 0.602763 -0.244939 -0.411465
v 0.537448 -0.244939 -0.464396
v 0.462080 -0.244939 -0.509964
v 0.376913 -0.244939 -0.547637
v 0.282204 -0.244939 -0.576884
v 0.178206 -0.244939 -0.597174
v 0.065174 -0.244939 -0.607976
v -0.056637 0.244939 -0.608759
v -0.177964 0.244939 -0.599084
v -0.288185 0.244939 -0.579326
v -0.387355 0.244939 -0.550091
v -0.475527 0.244939 -0.511985
v -0.552758 0.244939 -0.465614
v -0.619100 0.244939 -0.411583
v -0.674608 0.244939 -0.350501
v -0.719336 0.244939 -0.282971
v -0.753339 0.244939 -0.209600
v -0.776671 0.244939 -0.130995
v -0.789387 0.244939 -0.047761
v -0.791540 0.244939 0.039495
v -0.782535 0.244939 0.116660
v -0.761069 0.244939 0.190872
v -0.727260 0.244939 0.261223
v -0.681224 0.244939 0.326803
v -0.623078 0.244939 0.386702
v -0.552939 0.244939 0.440010
v -0.470924 0.244939 0.485819
v -0.377149 0.244939 0.523217
v -0.271732 0.244939 0.551297
v -0.154789 0.244939 0.569147
v -0.026438 0.244939 0.575859
v 0.113206 0.244939 0.570523
v 0.153652 0.244939 0.569390
v 0.187975 0.244939 0.572596
v 0.217362 0.244939 0.579475
v 0.243004 0.244939 0.589358
v 0.266087 0.244939 0.601577
v 0.287801 0.244939 0.615465
v 0.309334 0.244939 0.630354
v 0.331874 0.244939 0.645576
v 0.356611 0.244939 0.660464
v 0.384731 0.244939 0.674349
v 0.417424 0.244939 0.686565
v 0.455879 0.244939 0.696443
v 0.504685 0.244939 0.703149
v 0.532308 0.244939 0.699659
v 0.542576 0.244939 0.687575
v 0.539312 0.244939 0.668498
v 0.526342 0.244939 0.644030
v 0.507493 0.244939 0.615772
v 0.486588 0.244939 0.585325
v 0.467455 0.244939 0.554292
v 0.453917 0.244939 0.524274
v 0.449801 0.244939 0.496873
v 0.458933 0.244939 0.473689
v 0.485136 0.244939 0.456325
v 0.516098 0.244939 0.442688
v 0.548920 0.244939 0.424584
v 0.582649 0.244939 0.401774
v 0.616331 0.244939 0.374018
v 0.649013 0.244939 0.341074
v 0.679739 0.244939 0.302704
v 0.707557 0.244939 0.258666
v 0.731513 0.244939 0.208721
v 0.750652 0.244939 0.152627
v 0.764020 0.244939 0.090146
v 0.770665 0.244939 0.021036
v 0.769632 0.244939 -0.054942
v 0.758401 0.244939 -0.136725
v 0.735845 0.244939 -0.213800
v 0.702216 0.244939 -0.285635
v 0.657771 0.244939 -0.351701
v 0.602763 0.244939 -0.411465
v 0.537448 0.244939 -0.464396
v 0.462080 0.244939 -0.509964
v 0.376914 0.244939 -0.547637
v 0.282204 0.244939 -0.576884
v 0.178206 0.244939 -0.597174
v 0.065174 0.244939 -0.607976
vn -0.0000 -1.0000 -0.0000
vn -0.0000 1.0000 -0.0000
vn -0.0795 -0.0000 -0.9968
vn -0.2828 -0.0000 -0.9592
vn -0.5148 -0.0000 -0.8573
vn 0.9999 -0.0000 -0.0136
vn -0.7401 -0.0000 -0.6725
vn -0.9073 -0.0000 -0.4205
vn -0.9885 -0.0000 -0.1510
vn -0.9933 -0.0000 0.1159
vn -0.9013 -0.0000 0.4332
vn -0.7175 -0.0000 0.6965
vn -0.4876 -0.0000 0.8731
vn -0.2574 -0.0000 0.9663
vn -0.0522 -0.0000 0.9986
vn 0.8512 -0.0000 -0.5248
vn -0.2279 -0.0000 0.9737
vn -0.5687 -0.0000 0.8225
vn 0.9597 -0.0000 -0.2809
vn -0.5157 -0.0000 0.8568
vn -0.3500 -0.0000 0.9367
vn -0.1361 -0.0000 0.9907
vn 0.8244 -0.0000 -0.5660
vn 0.9116 -0.0000 -0.4111
vn 0.4031 -0.0000 0.9152
vn 0.7099 -0.0000 0.7043
vn 0.8297 -0.0000 -0.5582
vn 0.0064 -0.0000 -1.0000
vn 0.6296 -0.0000 -0.7769
vn 0.8836 -0.0000 -0.4683
vn 0.9304 -0.0000 0.3665
vn 0.4045 -0.0000 -0.9145
vn 0.1915 -0.0000 -0.9815
vn 0.5602 -0.0000 0.8284
vn 0.8454 -0.0000 0.5341
vn 0.9464 -0.0000 0.3229
vn 0.9954 -0.0000 0.0957
vn -0.1764 -0.0000 -0.9843
vn -0.3967 -0.0000 -0.9179
vn -0.6315 -0.0000 -0.7754
vn -0.8337 -0.0000 -0.5522
vn -0.9587 -0.0000 -0.2846
vn -0.9997 -0.0000 -0.0247
vn -0.9606 -0.0000 0.2779
vn -0.8185 -0.0000 0.5746
vn -0.6051 -0.0000 0.7961
vn 0.9907 -0.0000 -0.1360
vn -0.3704 -0.0000 0.9289
vn -0.1509 -0.0000 0.9885
vn 0.0382 -0.0000 0.9993
vn -0.0930 -0.0000 0.9957
vn -0.3596 -0.0000 0.9331
vn -0.5388 -0.0000 0.8424
vn -0.5597 -0.0000 0.8287
vn -0.4428 -0.0000 0.8966
vn -0.2488 -0.0000 0.9686
vn 0.1253 -0.0000 0.9921
vn 0.9057 -0.0000 -0.4240
vn 0.7358 -0.0000 -0.6772
vn 0.9889 -0.0000 -0.1485
vn 0.5174 -0.0000 -0.8558
vn 0.9857 -0.0000 -0.1686
vn 0.5524 -0.0000 0.8336
vn -0.4678 -0.0000 0.8838
vn 0.2951 -0.0000 -0.9555
vn 0.4830 -0.0000 0.8756
vn 0.0951 -0.0000 -0.9955
vn 0.8319 -0.0000 -0.5549
vn 0.6360 -0.0000 0.7717
vn 0.7806 -0.0000 0.6251
vn 0.9017 -0.0000 0.4325
vn 0.9779 -0.0000 0.2092
vn 0.7621 -0.0000 0.6475
vn 0.0280 -0.0000 0.9996
vn 0.0001 1.0000 -0.0000
vn -0.0001 1.0000 -0.0000
vn 0.5174 -0.0000 -0.8557
vt 0.412512 0.037034
vt 0.413901 0.088361
vt 0.400601 0.124908
vt 0.432514 0.124908
vt 0.417300 0.076547
vt 0.425356 0.034392
vt 0.248570 0.622814
vt 0.416557 0.661894
vt 0.248570 0.661894
vt 0.248570 0.558420
vt 0.416557 0.588348
vt 0.248570 0.588348
vt 0.080583 0.768618
vt 0.248570 0.793088
vt 0.080583 0.793088
vt 0.752532 0.754409
vt 0.584545 0.734788
vt 0.752532 0.734788
vt 0.080583 0.743065
vt 0.248570 0.716616
vt 0.248570 0.743065
vt 0.080583 0.661778
vt 0.248570 0.689458
vt 0.080583 0.689458
vt 0.080583 0.633762
vt 0.248570 0.605598
vt 0.248570 0.633762
vt 0.080583 0.553962
vt 0.248570 0.577471
vt 0.080583 0.577471
vt 0.584545 0.555811
vt 0.416558 0.532956
vt 0.584545 0.532956
vt 0.584545 0.609199
vt 0.416558 0.581293
vt 0.584545 0.581293
vt 0.584545 0.671469
vt 0.416558 0.639325
vt 0.584545 0.639325
vt 0.584545 0.740995
vt 0.416558 0.705427
vt 0.584545 0.705427
vt 0.584545 0.816149
vt 0.416558 0.777970
vt 0.584545 0.777970
vt 0.046104 0.700943
vt 0.055344 0.532956
vt 0.055344 0.700943
vt 0.584545 0.886964
vt 0.416558 0.877225
vt 0.584545 0.877225
vt 0.584545 0.922918
vt 0.416558 0.913945
vt 0.584545 0.913945
vt 0.752532 0.788410
vt 0.584545 0.773283
vt 0.752532 0.773283
vt 0.584545 0.942138
vt 0.416558 0.932243
vt 0.584545 0.932243
vt 0.584545 0.964505
vt 0.416558 0.952819
vt 0.584545 0.952819
vt 0.584545 0.992704
vt 0.416558 0.977411
vt 0.584545 0.977411
vt 0.065112 0.532956
vt 0.065112 0.700943
vt 0.038805 0.700943
vt 0.046104 0.532956
vt 0.752532 0.568083
vt 0.584545 0.557643
vt 0.752532 0.557643
vt 0.752532 0.624152
vt 0.584545 0.608286
vt 0.752532 0.608286
vt 0.248570 0.921683
vt 0.416557 0.942577
vt 0.248570 0.942577
vt 0.416557 0.702122
vt 0.248570 0.702122
vt 0.248570 0.871370
vt 0.416557 0.897903
vt 0.248570 0.897903
vt 0.073996 0.700943
vt 0.080583 0.532956
vt 0.080583 0.700943
vt 0.752532 0.547286
vt 0.584545 0.539201
vt 0.752532 0.539201
vt 0.248570 0.810586
vt 0.416557 0.842220
vt 0.248570 0.842220
vt 0.248570 0.740403
vt 0.416557 0.776602
vt 0.248570 0.776602
vt 0.752532 0.593553
vt 0.584545 0.580103
vt 0.752532 0.580102
vt 0.752532 0.658686
vt 0.584545 0.641002
vt 0.752532 0.641002
vt 0.752532 0.695962
vt 0.584545 0.677056
vt 0.752532 0.677056
vt 0.584545 0.715256
vt 0.752532 0.715256
vt 0.416557 0.622815
vt 0.248570 0.532956
vt 0.416558 0.558420
vt 0.248570 0.768618
vt 0.080583 0.716616
vt 0.248570 0.661778
vt 0.080583 0.605598
vt 0.080583 0.532956
vt 0.248570 0.553962
vt 0.416558 0.555811
vt 0.416558 0.609199
vt 0.584545 0.754409
vt 0.416558 0.671469
vt 0.416558 0.740995
vt 0.584545 0.855328
vt 0.416558 0.816149
vt 0.416558 0.866753
vt 0.584545 0.866753
vt 0.584545 0.896185
vt 0.416558 0.886964
vt 0.416558 0.905106
vt 0.584545 0.905106
vt 0.416558 0.922918
vt 0.416558 0.942138
vt 0.416558 0.964505
vt 0.584545 1.000000
vt 0.416558 0.992704
vt 0.416557 0.960450
vt 0.248570 0.960450
vt 0.416557 0.921683
vt 0.584545 0.532956
vt 0.752532 0.532956
vt 0.416557 0.871370
vt 0.000000 0.700943
vt 0.004259 0.532956
vt 0.004259 0.700943
vt 0.584545 0.547286
vt 0.416558 0.896185
vt 0.416557 0.810586
vt 0.584545 0.568083
vt 0.416557 0.740403
vt 0.073996 0.532956
vt 0.584545 0.593553
vt 0.584545 0.624152
vt 0.584545 0.658686
vt 0.584545 0.695962
vt 0.009697 0.532956
vt 0.009697 0.700943
vt 0.416558 0.855328
vt 0.037443 0.398758
vt 0.023404 0.363017
vt 0.012012 0.322865
vt 0.004103 0.281849
vt 0.000153 0.243113
vt -0.000000 0.206778
vt 0.003482 0.172966
vt 0.010438 0.141798
vt 0.020706 0.113395
vt 0.034125 0.087880
vt 0.050532 0.065372
vt 0.069768 0.045993
vt 0.091670 0.029865
vt 0.116076 0.017109
vt 0.142826 0.007846
vt 0.168307 0.002402
vt 0.191994 -0.000000
vt 0.213903 0.000304
vt 0.234050 0.002978
vt 0.252453 0.007683
vt 0.269129 0.014084
vt 0.284094 0.021843
vt 0.297365 0.030623
vt 0.308959 0.040088
vt 0.318892 0.049901
vt 0.327182 0.059724
vt 0.333845 0.069221
vt 0.053927 0.430147
vt 0.093432 0.480103
vt 0.072657 0.457242
vt 0.140318 0.513358
vt 0.116053 0.498789
vt 0.192983 0.530383
vt 0.166028 0.523870
vt 0.249826 0.531648
vt 0.220982 0.532956
vt 0.304660 0.518314
vt 0.279314 0.526519
vt 0.349567 0.490028
vt 0.328177 0.506117
vt 0.384776 0.446575
vt 0.368533 0.470147
vt 0.407901 0.388757
vt 0.397997 0.419411
vt 0.416558 0.317378
vt 0.414187 0.354713
vt 0.408362 0.233240
vt 0.414715 0.276854
vt 0.397200 0.186637
vt 0.341443 0.076869
vt 0.394105 0.173112
vt 0.349852 0.078384
vt 0.392881 0.161354
vt 0.358790 0.075162
vt 0.393223 0.151010
vt 0.367977 0.068595
vt 0.394826 0.141724
vt 0.377130 0.060079
vt 0.385966 0.051007
vt 0.394205 0.042772
vt 0.397387 0.133141
vt 0.401563 0.036769
vt 0.407759 0.034392
vt 0.415539 0.046089
vt 0.416558 0.062952
vt 0.415815 0.076547
vt 0.411117 0.098749
vt 0.407770 0.108066
vt 0.404163 0.116667
vt 0.821103 0.322866
vt 0.809711 0.363017
vt 0.795672 0.398758
vt 0.779188 0.430147
vt 0.760458 0.457242
vt 0.739683 0.480104
vt 0.717062 0.498789
vt 0.692797 0.513358
vt 0.667087 0.523870
vt 0.640132 0.530383
vt 0.612133 0.532956
vt 0.583289 0.531648
vt 0.553801 0.526519
vt 0.528455 0.518314
vt 0.504938 0.506117
vt 0.483548 0.490028
vt 0.464582 0.470147
vt 0.448339 0.446575
vt 0.435117 0.419411
vt 0.425214 0.388757
vt 0.418928 0.354713
vt 0.416557 0.317378
vt 0.418400 0.276854
vt 0.424753 0.233240
vt 0.435915 0.186637
vt 0.439010 0.173112
vt 0.829012 0.281849
vt 0.833115 0.206778
vt 0.832962 0.243113
vt 0.822677 0.141798
vt 0.829633 0.172966
vt 0.798990 0.087880
vt 0.812409 0.113395
vt 0.763347 0.045993
vt 0.782583 0.065372
vt 0.717039 0.017109
vt 0.741445 0.029865
vt 0.664808 0.002402
vt 0.690289 0.007846
vt 0.619212 0.000304
vt 0.641121 0.000000
vt 0.580662 0.007683
vt 0.599065 0.002978
vt 0.549021 0.021843
vt 0.563986 0.014084
vt 0.524156 0.040088
vt 0.535750 0.030623
vt 0.505933 0.059724
vt 0.514223 0.049901
vt 0.499270 0.069221
vt 0.491672 0.076869
vt 0.440234 0.161354
vt 0.483263 0.078384
vt 0.439892 0.151010
vt 0.438289 0.141724
vt 0.474325 0.075162
vt 0.435728 0.133141
vt 0.465138 0.068595
vt 0.428952 0.116667
vt 0.425345 0.108066
vt 0.438911 0.042772
vt 0.447149 0.051007
vt 0.455985 0.060079
vt 0.421998 0.098749
vt 0.419214 0.088361
vt 0.416557 0.062952
vt 0.417576 0.046089
vt 0.420603 0.037034
vt 0.431552 0.036769
vt 0.584545 0.788410
vt 0.038805 0.532956
vt 0.248570 0.532956
vt 0.416558 1.000000
vt 0.000000 0.532956
s 0
usemtl Tile
f 39/1/1 35/2/1 31/3/1
f 103/4/2 108/5/2 112/6/2
f 2/7/3 73/8/3 1/9/3
f 4/10/4 75/11/4 3/12/4
f 6/13/5 77/14/5 5/15/5
f 61/16/6 132/17/6 60/18/6
f 7/19/7 80/20/7 79/21/7
f 10/22/8 81/23/8 9/24/8
f 11/25/9 84/26/9 83/27/9
f 14/28/10 85/29/10 13/30/10
f 16/31/11 87/32/11 15/33/11
f 18/34/12 89/35/12 17/36/12
f 20/37/13 91/38/13 19/39/13
f 22/40/14 93/41/14 21/42/14
f 24/43/15 95/44/15 23/45/15
f 45/46/16 116/47/16 44/48/16
f 28/49/17 99/50/17 27/51/17
f 32/52/18 103/53/18 31/54/18
f 63/55/19 134/56/19 62/57/19
f 34/58/20 105/59/20 33/60/20
f 36/61/21 107/62/21 35/63/21
f 38/64/22 109/65/22 37/66/22
f 44/48/23 115/67/23 43/68/23
f 46/69/24 117/70/24 45/46/24
f 50/71/25 121/72/25 49/73/25
f 54/74/26 125/75/26 53/76/26
f 65/77/27 136/78/27 64/79/27
f 1/9/28 144/80/28 72/81/28
f 67/82/29 138/83/29 66/84/29
f 42/85/30 113/86/30 41/87/30
f 48/88/31 119/89/31 47/90/31
f 69/91/32 140/92/32 68/93/32
f 71/94/33 142/95/33 70/96/33
f 52/97/34 123/98/34 51/99/34
f 56/100/35 127/101/35 55/102/35
f 58/103/36 129/104/36 57/105/36
f 60/18/37 131/106/37 59/107/37
f 3/12/38 74/108/38 2/7/38
f 5/109/39 76/110/39 4/10/39
f 7/19/40 78/111/40 6/13/40
f 9/24/41 80/20/41 8/112/41
f 11/25/42 82/113/42 10/22/42
f 13/30/43 84/26/43 12/114/43
f 15/115/44 86/116/44 14/28/44
f 17/36/45 88/117/45 16/31/45
f 18/34/46 91/38/46 90/118/46
f 61/16/47 134/56/47 133/119/47
f 21/42/48 92/120/48 20/37/48
f 23/45/49 94/121/49 22/40/49
f 25/122/50 96/123/50 24/43/50
f 27/51/51 98/124/51 26/125/51
f 29/126/52 100/127/52 28/49/52
f 31/54/53 102/128/53 30/129/53
f 33/60/54 104/130/54 32/52/54
f 35/63/55 106/131/55 34/58/55
f 37/66/56 108/132/56 36/61/56
f 39/133/57 110/134/57 38/64/57
f 64/79/58 135/135/58 63/136/58
f 66/84/59 137/137/59 65/77/59
f 47/90/60 118/138/60 46/139/60
f 67/82/61 140/92/61 139/140/61
f 41/141/62 112/142/62 40/143/62
f 49/73/63 120/144/63 48/88/63
f 30/129/64 101/145/64 29/126/64
f 70/96/65 141/146/65 69/91/65
f 51/99/66 122/147/66 50/71/66
f 72/81/67 143/148/67 71/94/67
f 43/68/68 114/149/68 42/85/68
f 53/76/69 124/150/69 52/97/69
f 55/102/70 126/151/70 54/74/70
f 57/105/71 128/152/71 56/100/71
f 59/107/72 130/153/72 58/103/72
f 40/143/73 111/154/73 39/155/73
f 25/122/74 98/124/74 97/156/74
f 3/157/1 2/158/1 1/159/1
f 1/159/1 72/160/1 71/161/1
f 71/161/1 70/162/1 69/163/1
f 69/163/1 68/164/1 67/165/1
f 67/165/1 66/166/1 65/167/1
f 65/167/1 64/168/1 63/169/1
f 63/169/1 62/170/1 61/171/1
f 61/171/1 60/172/1 59/173/1
f 59/173/1 58/174/1 57/175/1
f 57/175/1 56/176/1 55/177/1
f 55/177/1 54/178/1 53/179/1
f 53/179/1 52/180/1 51/181/1
f 51/181/1 50/182/1 49/183/1
f 53/179/1 51/181/1 49/183/1
f 57/175/1 55/177/1 53/179/1
f 61/171/1 59/173/1 57/175/1
f 65/167/1 63/169/1 61/171/1
f 69/163/1 67/165/1 65/167/1
f 1/159/1 71/161/1 69/163/1
f 4/184/1 3/157/1 1/159/1
f 6/185/1 5/186/1 4/184/1
f 8/187/1 7/188/1 6/185/1
f 10/189/1 9/190/1 8/187/1
f 12/191/1 11/192/1 10/189/1
f 14/193/1 13/194/1 12/191/1
f 16/195/1 15/196/1 14/193/1
f 18/197/1 17/198/1 16/195/1
f 20/199/1 19/200/1 18/197/1
f 22/201/1 21/202/1 20/199/1
f 24/203/1 23/204/1 22/201/1
f 25/205/1 24/203/1 22/201/1
f 22/201/1 20/199/1 18/197/1
f 18/197/1 16/195/1 14/193/1
f 14/193/1 12/191/1 10/189/1
f 10/189/1 8/187/1 6/185/1
f 6/185/1 4/184/1 1/159/1
f 1/159/1 69/163/1 65/167/1
f 65/167/1 61/171/1 57/175/1
f 57/175/1 53/179/1 49/183/1
f 57/175/1 49/183/1 48/206/1
f 1/159/1 65/167/1 57/175/1
f 10/189/1 6/185/1 1/159/1
f 18/197/1 14/193/1 10/189/1
f 25/205/1 22/201/1 18/197/1
f 26/207/1 25/205/1 18/197/1
f 18/197/1 10/189/1 1/159/1
f 1/159/1 57/175/1 48/206/1
f 1/159/1 48/206/1 47/208/1
f 26/207/1 18/197/1 1/159/1
f 27/209/1 26/207/1 1/159/1
f 1/159/1 47/208/1 46/210/1
f 27/209/1 1/159/1 46/210/1
f 28/211/1 27/209/1 46/210/1
f 28/211/1 46/210/1 45/212/1
f 29/213/1 28/211/1 45/212/1
f 44/214/1 43/215/1 42/216/1
f 29/213/1 45/212/1 44/214/1
f 30/217/1 29/213/1 44/214/1
f 44/214/1 42/216/1 41/218/1
f 41/218/1 40/219/1 39/1/1
f 39/1/1 38/220/1 37/221/1
f 37/221/1 36/222/1 35/2/1
f 35/2/1 34/223/1 33/224/1
f 33/224/1 32/225/1 31/3/1
f 31/3/1 30/217/1 44/214/1
f 44/214/1 41/218/1 39/1/1
f 39/1/1 37/221/1 35/2/1
f 35/2/1 33/224/1 31/3/1
f 31/3/1 44/214/1 39/1/1
f 73/226/2 74/227/2 75/228/2
f 75/228/2 76/229/2 77/230/2
f 77/230/2 78/231/2 79/232/2
f 79/232/2 80/233/2 81/234/2
f 81/234/2 82/235/2 83/236/2
f 83/236/2 84/237/2 85/238/2
f 85/238/2 86/239/2 87/240/2
f 87/240/2 88/241/2 89/242/2
f 89/242/2 90/243/2 91/244/2
f 91/244/2 92/245/2 93/246/2
f 93/246/2 94/247/2 95/248/2
f 95/248/2 96/249/2 97/250/2
f 95/248/2 97/250/2 98/251/2
f 91/244/2 93/246/2 95/248/2
f 87/240/2 89/242/2 91/244/2
f 83/236/2 85/238/2 87/240/2
f 79/232/2 81/234/2 83/236/2
f 75/228/2 77/230/2 79/232/2
f 144/252/2 73/226/2 75/228/2
f 142/253/2 143/254/2 144/252/2
f 140/255/2 141/256/2 142/253/2
f 138/257/2 139/258/2 140/255/2
f 136/259/2 137/260/2 138/257/2
f 134/261/2 135/262/2 136/259/2
f 132/263/2 133/264/2 134/261/2
f 130/265/2 131/266/2 132/263/2
f 128/267/2 129/268/2 130/265/2
f 126/269/2 127/270/2 128/267/2
f 124/271/2 125/272/2 126/269/2
f 122/273/2 123/274/2 124/271/2
f 121/275/2 122/273/2 124/271/2
f 124/271/2 126/269/2 128/267/2
f 128/267/2 130/265/2 132/263/2
f 132/263/2 134/261/2 136/259/2
f 136/259/2 138/257/2 140/255/2
f 140/255/2 142/253/2 144/252/2
f 144/252/2 75/228/2 79/232/2
f 79/232/2 83/236/2 87/240/2
f 87/240/2 91/244/2 95/248/2
f 87/240/2 95/248/2 98/251/2
f 144/252/2 79/232/2 87/240/2
f 136/259/2 140/255/2 144/252/2
f 128/267/2 132/263/2 136/259/2
f 121/275/2 124/271/2 128/267/2
f 120/276/2 121/275/2 128/267/2
f 128/267/2 136/259/2 144/252/2
f 144/252/2 87/240/2 98/251/2
f 144/252/2 98/251/2 99/277/2
f 120/276/2 128/267/2 144/252/2
f 119/278/2 120/276/2 144/252/2
f 144/252/2 99/277/2 100/279/2
f 144/252/2 100/279/2 101/280/2
f 118/281/2 119/278/2 144/252/2
f 118/281/2 144/252/2 101/280/2
f 118/281/2 101/280/2 102/282/2
f 117/283/2 118/281/2 102/282/2
f 103/4/75 104/284/75 105/285/75
f 117/283/2 102/282/2 103/4/2
f 114/286/76 115/287/76 116/288/76
f 116/288/2 117/283/2 103/4/2
f 103/4/2 105/285/2 106/289/2
f 106/289/2 107/290/2 108/5/2
f 108/5/2 109/291/2 110/292/2
f 110/292/2 111/293/2 112/6/2
f 112/6/2 113/294/2 114/286/2
f 114/286/2 116/288/2 103/4/2
f 103/4/2 106/289/2 108/5/2
f 108/5/2 110/292/2 112/6/2
f 112/6/2 114/286/2 103/4/2
f 2/7/3 74/108/3 73/8/3
f 4/10/4 76/110/4 75/11/4
f 6/13/5 78/111/5 77/14/5
f 61/16/6 133/119/6 132/17/6
f 7/19/7 8/112/7 80/20/7
f 10/22/8 82/113/8 81/23/8
f 11/25/9 12/114/9 84/26/9
f 14/28/10 86/116/10 85/29/10
f 16/31/11 88/117/11 87/32/11
f 18/34/12 90/118/12 89/35/12
f 20/37/13 92/120/13 91/38/13
f 22/40/14 94/121/14 93/41/14
f 24/43/15 96/123/15 95/44/15
f 45/46/16 117/70/16 116/47/16
f 28/49/17 100/127/17 99/50/17
f 32/52/18 104/130/18 103/53/18
f 63/55/19 135/295/19 134/56/19
f 34/58/20 106/131/20 105/59/20
f 36/61/21 108/132/21 107/62/21
f 38/64/22 110/134/22 109/65/22
f 44/48/23 116/47/23 115/67/23
f 46/69/24 118/296/24 117/70/24
f 50/71/25 122/147/25 121/72/25
f 54/74/26 126/151/26 125/75/26
f 65/77/27 137/137/27 136/78/27
f 1/9/28 73/8/28 144/80/28
f 67/82/29 139/140/29 138/83/29
f 42/85/30 114/149/30 113/86/30
f 48/88/31 120/144/31 119/89/31
f 69/91/32 141/146/32 140/92/32
f 71/94/33 143/148/33 142/95/33
f 52/97/34 124/150/34 123/98/34
f 56/100/35 128/152/35 127/101/35
f 58/103/36 130/153/36 129/104/36
f 60/18/37 132/17/37 131/106/37
f 3/12/38 75/11/38 74/108/38
f 5/109/39 77/32/39 76/110/39
f 7/19/40 79/21/40 78/111/40
f 9/24/41 81/23/41 80/20/41
f 11/25/42 83/27/42 82/113/42
f 13/30/43 85/29/43 84/26/43
f 15/115/44 87/297/44 86/116/44
f 17/36/45 89/35/45 88/117/45
f 18/34/46 19/39/46 91/38/46
f 61/16/47 62/57/47 134/56/47
f 21/42/48 93/41/48 92/120/48
f 23/45/49 95/44/49 94/121/49
f 25/122/50 97/156/50 96/123/50
f 27/51/51 99/50/51 98/124/51
f 29/126/52 101/145/52 100/127/52
f 31/54/53 103/53/53 102/128/53
f 33/60/54 105/59/54 104/130/54
f 35/63/55 107/62/55 106/131/55
f 37/66/56 109/65/56 108/132/56
f 39/133/57 111/298/57 110/134/57
f 64/79/58 136/78/58 135/135/58
f 66/84/59 138/83/59 137/137/59
f 47/90/60 119/89/60 118/138/60
f 67/82/77 68/93/77 140/92/77
f 41/141/62 113/299/62 112/142/62
f 49/73/63 121/72/63 120/144/63
f 30/129/64 102/128/64 101/145/64
f 70/96/65 142/95/65 141/146/65
f 51/99/66 123/98/66 122/147/66
f 72/81/67 144/80/67 143/148/67
f 43/68/68 115/67/68 114/149/68
f 53/76/69 125/75/69 124/150/69
f 55/102/70 127/101/70 126/151/70
f 57/105/71 129/104/71 128/152/71
f 59/107/72 131/106/72 130/153/72
f 40/143/73 112/142/73 111/154/73
f 25/122/74 26/125/74 98/124/74
