# Blender 4.0.2
# www.blender.org
mtllib Demand.mtl
o Demand
v -1.248552 0.043750 -0.780144
v 1.249024 0.043750 -0.780144
v 1.295192 0.043750 -0.776185
v 1.333685 0.043750 -0.765240
v 1.365201 0.043750 -0.748706
v 1.390437 0.043750 -0.727980
v 1.410090 0.043750 -0.704460
v 1.424860 0.043750 -0.679542
v 1.435442 0.043750 -0.654625
v 1.442536 0.043750 -0.631105
v 1.446839 0.043750 -0.610379
v 1.449049 0.043750 -0.593845
v 1.449863 0.043750 -0.582900
v 1.449979 0.043750 -0.578941
v 1.449507 0.043750 0.578941
v 1.445554 0.043750 0.625167
v 1.434622 0.043750 0.663707
v 1.418108 0.043750 0.695262
v 1.397408 0.043750 0.720528
v 1.373917 0.043750 0.740206
v 1.349030 0.043750 0.754994
v 1.324143 0.043750 0.765589
v 1.300652 0.043750 0.772692
v 1.279951 0.043750 0.777000
v 1.263437 0.043750 0.779212
v 1.252506 0.043750 0.780028
v 1.248552 0.043750 0.780144
v -1.249024 0.043750 0.780144
v -1.295192 0.043750 0.776185
v -1.333686 0.043750 0.765240
v -1.365201 0.043750 0.748706
v -1.390437 0.043750 0.727980
v -1.410090 0.043750 0.704460
v -1.424860 0.043750 0.679543
v -1.435442 0.043750 0.654625
v -1.442537 0.043750 0.631105
v -1.446839 0.043750 0.610379
v -1.449049 0.043750 0.593845
v -1.449863 0.043750 0.582900
v -1.449979 0.043750 0.578941
v -1.449508 0.043750 -0.578941
v -1.445554 0.043750 -0.625167
v -1.434622 0.043750 -0.663707
v -1.418108 0.043750 -0.695262
v -1.397408 0.043750 -0.720528
v -1.373917 0.043750 -0.740206
v -1.349030 0.043750 -0.754994
v -1.324143 0.043750 -0.765589
v -1.300652 0.043750 -0.772692
v -1.279951 0.043750 -0.777000
v -1.263438 0.043750 -0.779212
v -1.252506 0.043750 -0.780027
v -1.248552 -0.043750 -0.780144
v 1.249024 -0.043750 -0.780144
v 1.295192 -0.043750 -0.776185
v 1.333685 -0.043750 -0.765240
v 1.365201 -0.043750 -0.748706
v 1.390437 -0.043750 -0.727980
v 1.410090 -0.043750 -0.704460
v 1.424860 -0.043750 -0.679542
v 1.435442 -0.043750 -0.654625
v 1.442536 -0.043750 -0.631105
v 1.446839 -0.043750 -0.610379
v 1.449049 -0.043750 -0.593845
v 1.449863 -0.043750 -0.582900
v 1.449979 -0.043750 -0.578941
v 1.449507 -0.043750 0.578941
v 1.445554 -0.043750 0.625167
v 1.434622 -0.043750 0.663707
v 1.418108 -0.043750 0.695262
v 1.397408 -0.043750 0.720528
v 1.373917 -0.043750 0.740206
v 1.349030 -0.043750 0.754994
v 1.324143 -0.043750 0.765589
v 1.300652 -0.043750 0.772692
v 1.279951 -0.043750 0.777000
v 1.263437 -0.043750 0.779212
v 1.252506 -0.043750 0.780028
v 1.248552 -0.043750 0.780144
v -1.249024 -0.043750 0.780144
v -1.295192 -0.043750 0.776185
v -1.333686 -0.043750 0.765240
v -1.365201 -0.043750 0.748706
v -1.390437 -0.043750 0.727980
v -1.410090 -0.043750 0.704460
v -1.424860 -0.043750 0.679543
v -1.435442 -0.043750 0.654625
v -1.442537 -0.043750 0.631105
v -1.446839 -0.043750 0.610379
v -1.449049 -0.043750 0.593845
v -1.449863 -0.043750 0.582900
v -1.449979 -0.043750 0.578941
v -1.449508 -0.043750 -0.578941
v -1.445554 -0.043750 -0.625167
v -1.434622 -0.043750 -0.663707
v -1.418108 -0.043750 -0.695262
v -1.397408 -0.043750 -0.720528
v -1.373917 -0.043750 -0.740206
v -1.349030 -0.043750 -0.754994
v -1.324143 -0.043750 -0.765589
v -1.300652 -0.043750 -0.772692
v -1.279951 -0.043750 -0.777000
v -1.263438 -0.043750 -0.779212
v -1.252506 -0.043750 -0.780027
vn -0.0000 1.0000 -0.0000
vn -0.0000 -1.0000 -0.0000
vn 0.8860 -0.0000 0.4637
vn -0.0000 -0.0000 -1.0000
vn 0.0854 -0.0000 -0.9963
vn 0.2735 -0.0000 -0.9619
vn 0.4646 -0.0000 -0.8855
vn 0.6347 -0.0000 -0.7728
vn 0.7674 -0.0000 -0.6412
vn 0.8602 -0.0000 -0.5099
vn 0.9972 -0.0000 -0.0742
vn 0.9996 -0.0000 -0.0294
vn 0.9621 -0.0000 0.2729
vn 0.7735 -0.0000 0.6337
vn 0.6421 -0.0000 0.7666
vn 0.3917 -0.0000 0.9201
vn 0.2894 -0.0000 0.9572
vn 0.1328 -0.0000 0.9911
vn 0.0744 -0.0000 0.9972
vn 0.0294 -0.0000 0.9996
vn -0.9620 -0.0000 -0.2729
vn -0.8860 -0.0000 -0.4637
vn -0.0294 -0.0000 -0.9996
vn -0.7735 -0.0000 -0.6337
vn -0.6421 -0.0000 -0.7666
vn -0.5108 -0.0000 -0.8597
vn -0.9964 -0.0000 -0.0852
vn -0.0000 -0.0000 1.0000
vn -0.3917 -0.0000 -0.9201
vn 0.9204 -0.0000 -0.3909
vn -1.0000 -0.0000 -0.0004
vn -0.2894 -0.0000 -0.9572
vn 0.9574 -0.0000 -0.2888
vn -0.2735 -0.0000 0.9619
vn -0.2038 -0.0000 -0.9790
vn 0.9791 -0.0000 -0.2033
vn -0.4646 -0.0000 0.8855
vn -0.1328 -0.0000 -0.9911
vn 0.9912 -0.0000 -0.1325
vn -0.6347 -0.0000 0.7728
vn -0.0744 -0.0000 -0.9972
vn -0.7674 -0.0000 0.6412
vn -0.0854 -0.0000 0.9963
vn -0.8602 -0.0000 0.5099
vn 1.0000 -0.0000 0.0004
vn -0.9204 -0.0000 0.3909
vn 0.2038 -0.0000 0.9790
vn 0.9964 -0.0000 0.0852
vn -0.9574 -0.0000 0.2888
vn -0.9791 -0.0000 0.2033
vn -0.9912 -0.0000 0.1324
vn -0.9972 -0.0000 0.0742
vn -0.9996 -0.0000 0.0293
vn 0.5108 -0.0000 0.8597
vn 0.0001 -1.0000 -0.0000
vn 0.9996 -0.0000 -0.0293
vn 0.9620 -0.0000 0.2729
vn -0.0295 -0.0000 -0.9996
vn 0.9912 -0.0000 -0.1324
vn -0.9912 -0.0000 0.1325
vn -0.9996 -0.0000 0.0294
vt 0.450716 0.821789
vt 0.009230 0.826537
vt 0.059073 0.000138
vt 0.887961 0.847160
vt 0.466987 0.796659
vt 0.865741 0.000139
vt 0.965691 0.428315
vt 0.980871 0.432793
vt 0.965691 0.432793
vt 0.935330 0.212273
vt 0.950510 0.609622
vt 0.935330 0.609622
vt 0.935330 0.204977
vt 0.950510 0.212273
vt 0.935330 0.198986
vt 0.950510 0.204977
vt 0.935330 0.194174
vt 0.950510 0.198986
vt 0.965691 0.652485
vt 0.980871 0.656463
vt 0.965691 0.656463
vt 0.965691 0.648228
vt 0.980871 0.652485
vt 0.965691 0.643892
vt 0.980871 0.648228
vt 0.965691 0.628006
vt 0.980871 0.629747
vt 0.965691 0.629747
vt 0.965691 0.627381
vt 0.980871 0.628006
vt 0.980871 0.438527
vt 0.965691 0.438527
vt 0.950510 0.628537
vt 0.965691 0.632514
vt 0.950510 0.632514
vt 0.950510 0.624283
vt 0.965691 0.628537
vt 0.950510 0.619951
vt 0.965691 0.615740
vt 0.965691 0.619951
vt 0.950510 0.611849
vt 0.950510 0.615740
vt 0.950510 0.605821
vt 0.965691 0.608476
vt 0.950510 0.608476
vt 0.950510 0.604082
vt 0.965691 0.605821
vt 0.950510 0.603458
vt 0.965691 0.604082
vt 0.965691 0.202761
vt 0.980871 0.208760
vt 0.965691 0.208760
vt 0.965691 0.197942
vt 0.980871 0.202761
vt 0.950510 0.610252
vt 0.935330 0.610252
vt 0.965691 0.194174
vt 0.980871 0.197942
vt 0.935330 0.630053
vt 0.950510 0.634031
vt 0.935330 0.634031
vt 0.935330 0.625914
vt 0.950510 0.630053
vt 0.980871 0.216066
vt 0.965691 0.216066
vt 0.950510 0.211500
vt 0.965691 0.603458
vt 0.935330 0.621825
vt 0.950510 0.625914
vt 0.965691 0.639677
vt 0.980871 0.643892
vt 0.980871 0.400275
vt 0.965691 0.400275
vt 0.935330 0.618001
vt 0.950510 0.621825
vt 0.965691 0.635782
vt 0.980871 0.639677
vt 0.950510 0.198643
vt 0.965691 0.204369
vt 0.950510 0.204369
vt 0.935330 0.614655
vt 0.950510 0.618001
vt 0.965691 0.632405
vt 0.980871 0.635782
vt 0.950510 0.194174
vt 0.965691 0.198643
vt 0.935330 0.612001
vt 0.950510 0.614655
vt 0.980871 0.632405
vt 0.965691 0.424711
vt 0.980871 0.428315
vt 0.965691 0.428315
vt 0.950510 0.612001
vt 0.980871 0.420730
vt 0.980871 0.424711
vt 0.965691 0.211500
vt 0.965691 0.416586
vt 0.965691 0.420730
vt 0.965691 0.445668
vt 0.980871 0.627381
vt 0.965691 0.412493
vt 0.980871 0.416586
vt 0.965691 0.611849
vt 0.980871 0.445668
vt 0.980871 0.408665
vt 0.980871 0.412493
vt 0.965691 0.405315
vt 0.965691 0.408665
vt 0.980871 0.402658
vt 0.980871 0.405315
vt 0.965691 0.400906
vt 0.965691 0.402658
vt 0.980871 0.400906
vt 0.965691 0.624283
vt 0.456938 0.045445
vt 0.458100 0.059000
vt 0.458100 0.792289
vt 0.458066 0.793449
vt 0.457827 0.796659
vt 0.457177 0.801507
vt 0.455913 0.807585
vt 0.453827 0.814482
vt 0.446375 0.829096
vt 0.440597 0.835993
vt 0.433179 0.842070
vt 0.423915 0.846919
vt 0.412599 0.850128
vt 0.399027 0.851289
vt 0.059073 0.851428
vt 0.057911 0.851393
vt 0.054697 0.851154
vt 0.049843 0.850506
vt 0.043758 0.849242
vt 0.036852 0.847160
vt 0.029537 0.844052
vt 0.022221 0.839716
vt 0.015315 0.833946
vt 0.004376 0.817284
vt 0.001162 0.805982
vt 0.000000 0.792427
vt 0.000000 0.059139
vt 0.000034 0.057978
vt 0.000274 0.054769
vt 0.000923 0.049920
vt 0.002188 0.043843
vt 0.004273 0.036946
vt 0.007384 0.029639
vt 0.011726 0.022332
vt 0.017503 0.015435
vt 0.024921 0.009357
vt 0.034186 0.004509
vt 0.045501 0.001299
vt 0.399027 -0.000000
vt 0.400190 0.000034
vt 0.403403 0.000273
vt 0.408257 0.000922
vt 0.414343 0.002185
vt 0.421248 0.004268
vt 0.428564 0.007375
vt 0.435880 0.011711
vt 0.442785 0.017482
vt 0.448870 0.024891
vt 0.453725 0.034144
vt 0.924814 0.059139
vt 0.924814 0.792427
vt 0.923651 0.805982
vt 0.920438 0.817284
vt 0.915584 0.826537
vt 0.909499 0.833946
vt 0.902593 0.839716
vt 0.895277 0.844053
vt 0.881056 0.849242
vt 0.874971 0.850506
vt 0.870116 0.851154
vt 0.866903 0.851393
vt 0.865741 0.851428
vt 0.525786 0.851289
vt 0.512215 0.850128
vt 0.500899 0.846919
vt 0.491635 0.842070
vt 0.484216 0.835993
vt 0.478439 0.829096
vt 0.474097 0.821789
vt 0.470987 0.814482
vt 0.468901 0.807585
vt 0.467636 0.801507
vt 0.466747 0.793450
vt 0.466713 0.792289
vt 0.466713 0.059001
vt 0.467876 0.045445
vt 0.471089 0.034144
vt 0.475943 0.024891
vt 0.482029 0.017482
vt 0.488934 0.011711
vt 0.496250 0.007375
vt 0.503566 0.004268
vt 0.510471 0.002185
vt 0.516556 0.000922
vt 0.521411 0.000273
vt 0.524624 0.000034
vt 0.525786 0.000000
vt 0.879312 0.001299
vt 0.890628 0.004509
vt 0.899892 0.009357
vt 0.907311 0.015435
vt 0.913088 0.022332
vt 0.917430 0.029639
vt 0.920541 0.036946
vt 0.922626 0.043843
vt 0.923891 0.049920
vt 0.924540 0.054769
vt 0.924780 0.057978
vt 0.980871 0.428315
vt 0.980871 0.194174
vt 0.965691 0.194174
s 0
usemtl Tile
f 47/1/1 31/2/1 15/3/1
f 61/4/2 77/5/2 93/6/2
f 18/7/3 69/8/3 17/9/3
f 2/10/4 53/11/4 1/12/4
f 3/13/5 54/14/5 2/10/5
f 4/15/6 55/16/6 3/13/6
f 5/17/7 56/18/7 4/15/7
f 6/19/8 57/20/8 5/21/8
f 7/22/9 58/23/9 6/19/9
f 8/24/10 59/25/10 7/22/10
f 13/26/11 64/27/11 12/28/11
f 14/29/12 65/30/12 13/26/12
f 17/9/13 68/31/13 16/32/13
f 19/33/14 70/34/14 18/35/14
f 20/36/15 71/37/15 19/33/15
f 21/38/16 74/39/16 73/40/16
f 23/41/17 74/39/17 22/42/17
f 25/43/18 76/44/18 24/45/18
f 26/46/19 77/47/19 25/43/19
f 27/48/20 78/49/20 26/46/20
f 43/50/21 94/51/21 42/52/21
f 44/53/22 95/54/22 43/50/22
f 1/12/23 104/55/23 52/56/23
f 45/57/24 96/58/24 44/53/24
f 46/59/25 97/60/25 45/61/25
f 47/62/26 98/63/26 46/59/26
f 42/52/27 93/64/27 41/65/27
f 28/66/28 79/67/28 27/48/28
f 48/68/29 99/69/29 47/62/29
f 9/70/30 60/71/30 8/24/30
f 41/65/31 92/72/31 40/73/31
f 49/74/32 100/75/32 48/68/32
f 10/76/33 61/77/33 9/70/33
f 30/78/34 81/79/34 29/80/34
f 50/81/35 101/82/35 49/74/35
f 11/83/36 62/84/36 10/76/36
f 31/85/37 82/86/37 30/78/37
f 51/87/38 102/88/38 50/81/38
f 12/28/39 63/89/39 11/83/39
f 32/90/40 83/91/40 31/92/40
f 52/56/41 103/93/41 51/87/41
f 32/90/42 85/94/42 84/95/42
f 29/80/43 80/96/43 28/66/43
f 34/97/44 85/94/44 33/98/44
f 15/99/45 66/100/45 14/29/45
f 35/101/46 86/102/46 34/97/46
f 24/45/47 75/103/47 23/41/47
f 16/32/48 67/104/48 15/99/48
f 35/101/49 88/105/49 87/106/49
f 37/107/50 88/105/50 36/108/50
f 37/107/51 90/109/51 89/110/51
f 39/111/52 90/109/52 38/112/52
f 40/73/53 91/113/53 39/111/53
f 21/38/54 72/114/54 20/36/54
f 3/115/1 2/116/1 1/117/1
f 1/117/1 52/118/1 51/119/1
f 51/119/1 50/120/1 49/121/1
f 49/121/1 48/122/1 47/1/1
f 47/1/1 46/123/1 45/124/1
f 45/124/1 44/125/1 43/126/1
f 43/126/1 42/127/1 41/128/1
f 41/128/1 40/129/1 39/130/1
f 39/130/1 38/131/1 37/132/1
f 37/132/1 36/133/1 35/134/1
f 35/134/1 34/135/1 33/136/1
f 33/136/1 32/137/1 31/2/1
f 31/2/1 30/138/1 29/139/1
f 29/139/1 28/140/1 27/141/1
f 27/141/1 26/142/1 25/143/1
f 25/143/1 24/144/1 23/145/1
f 23/145/1 22/146/1 21/147/1
f 21/147/1 20/148/1 19/149/1
f 19/149/1 18/150/1 17/151/1
f 17/151/1 16/152/1 15/3/1
f 15/3/1 14/153/1 13/154/1
f 13/154/1 12/155/1 11/156/1
f 11/156/1 10/157/1 9/158/1
f 9/158/1 8/159/1 7/160/1
f 7/160/1 6/161/1 5/162/1
f 5/162/1 4/163/1 3/115/1
f 3/115/1 1/117/1 51/119/1
f 51/119/1 49/121/1 47/1/1
f 47/1/1 45/124/1 43/126/1
f 43/126/1 41/128/1 39/130/1
f 39/130/1 37/132/1 35/134/1
f 35/134/1 33/136/1 31/2/1
f 31/2/1 29/139/1 27/141/1
f 27/141/1 25/143/1 23/145/1
f 23/145/1 21/147/1 19/149/1
f 19/149/1 17/151/1 15/3/1
f 15/3/1 13/154/1 11/156/1
f 11/156/1 9/158/1 7/160/1
f 7/160/1 5/162/1 3/115/1
f 3/115/1 51/119/1 47/1/1
f 47/1/1 43/126/1 39/130/1
f 39/130/1 35/134/1 31/2/1
f 31/2/1 27/141/1 23/145/1
f 23/145/1 19/149/1 15/3/1
f 15/3/1 11/156/1 7/160/1
f 7/160/1 3/115/1 47/1/1
f 47/1/1 39/130/1 31/2/1
f 31/2/1 23/145/1 15/3/1
f 15/3/1 7/160/1 47/1/1
f 53/164/2 54/165/2 55/166/2
f 55/166/2 56/167/2 57/168/2
f 57/168/2 58/169/2 59/170/2
f 59/170/2 60/171/2 61/4/2
f 61/4/2 62/172/2 63/173/2
f 63/173/2 64/174/2 65/175/2
f 65/175/2 66/176/2 67/177/2
f 67/177/2 68/178/2 69/179/2
f 69/179/2 70/180/2 71/181/2
f 71/181/2 72/182/2 73/183/2
f 73/183/2 74/184/2 75/185/2
f 75/185/2 76/186/2 77/5/2
f 77/5/2 78/187/2 79/188/2
f 79/188/2 80/189/2 81/190/2
f 81/190/2 82/191/2 83/192/2
f 83/192/2 84/193/2 85/194/2
f 85/194/2 86/195/2 87/196/2
f 87/196/2 88/197/2 89/198/2
f 89/198/2 90/199/2 91/200/2
f 91/200/55 92/201/55 93/6/55
f 93/6/2 94/202/2 95/203/2
f 95/203/2 96/204/2 97/205/2
f 97/205/2 98/206/2 99/207/2
f 99/207/2 100/208/2 101/209/2
f 101/209/2 102/210/2 103/211/2
f 103/211/2 104/212/2 53/164/2
f 53/164/2 55/166/2 57/168/2
f 57/168/2 59/170/2 61/4/2
f 61/4/2 63/173/2 65/175/2
f 65/175/2 67/177/2 69/179/2
f 69/179/2 71/181/2 73/183/2
f 73/183/2 75/185/2 77/5/2
f 77/5/2 79/188/2 81/190/2
f 81/190/2 83/192/2 85/194/2
f 85/194/2 87/196/2 89/198/2
f 89/198/2 91/200/2 93/6/2
f 93/6/2 95/203/2 97/205/2
f 97/205/2 99/207/2 101/209/2
f 101/209/2 103/211/2 53/164/2
f 53/164/2 57/168/2 61/4/2
f 61/4/2 65/175/2 69/179/2
f 69/179/2 73/183/2 77/5/2
f 77/5/2 81/190/2 85/194/2
f 85/194/2 89/198/2 93/6/2
f 93/6/2 97/205/2 101/209/2
f 101/209/2 53/164/2 61/4/2
f 61/4/2 69/179/2 77/5/2
f 77/5/2 85/194/2 93/6/2
f 93/6/2 101/209/2 61/4/2
f 18/7/3 70/213/3 69/8/3
f 2/10/4 54/14/4 53/11/4
f 3/13/5 55/16/5 54/14/5
f 4/15/6 56/18/6 55/16/6
f 5/17/7 57/85/7 56/18/7
f 6/19/8 58/23/8 57/20/8
f 7/22/9 59/25/9 58/23/9
f 8/24/10 60/71/10 59/25/10
f 13/26/11 65/30/11 64/27/11
f 14/29/56 66/100/56 65/30/56
f 17/9/57 69/8/57 68/31/57
f 19/33/14 71/37/14 70/34/14
f 20/36/15 72/114/15 71/37/15
f 21/38/16 22/42/16 74/39/16
f 23/41/17 75/103/17 74/39/17
f 25/43/18 77/47/18 76/44/18
f 26/46/19 78/49/19 77/47/19
f 27/48/20 79/67/20 78/49/20
f 43/50/21 95/54/21 94/51/21
f 44/53/22 96/58/22 95/54/22
f 1/12/58 53/11/58 104/55/58
f 45/57/24 97/214/24 96/58/24
f 46/59/25 98/63/25 97/60/25
f 47/62/26 99/69/26 98/63/26
f 42/52/27 94/51/27 93/64/27
f 28/66/28 80/96/28 79/67/28
f 48/68/29 100/75/29 99/69/29
f 9/70/30 61/77/30 60/71/30
f 41/65/31 93/64/31 92/72/31
f 49/74/32 101/82/32 100/75/32
f 10/76/33 62/84/33 61/77/33
f 30/78/34 82/86/34 81/79/34
f 50/81/35 102/88/35 101/82/35
f 11/83/36 63/89/36 62/84/36
f 31/85/37 83/215/37 82/86/37
f 51/87/38 103/93/38 102/88/38
f 12/28/59 64/27/59 63/89/59
f 32/90/40 84/95/40 83/91/40
f 52/56/41 104/55/41 103/93/41
f 32/90/42 33/98/42 85/94/42
f 29/80/43 81/79/43 80/96/43
f 34/97/44 86/102/44 85/94/44
f 15/99/45 67/104/45 66/100/45
f 35/101/46 87/106/46 86/102/46
f 24/45/47 76/44/47 75/103/47
f 16/32/48 68/31/48 67/104/48
f 35/101/49 36/108/49 88/105/49
f 37/107/50 89/110/50 88/105/50
f 37/107/60 38/112/60 90/109/60
f 39/111/52 91/113/52 90/109/52
f 40/73/61 92/72/61 91/113/61
f 21/38/54 73/40/54 72/114/54
