# Blender 4.0.2
# www.blender.org
mtllib Tile A.mtl
o Tile_A
v -1.975318 0.075000 1.674106
v -1.975318 0.075000 -1.674106
v -1.969385 0.075000 -1.743404
v -1.952981 0.075000 -1.801181
v -1.928201 0.075000 -1.848485
v -1.897138 0.075000 -1.886363
v -1.861887 0.075000 -1.915862
v -1.824542 0.075000 -1.938031
v -1.787197 0.075000 -1.953915
v -1.751946 0.075000 -1.964563
v -1.720884 0.075000 -1.971021
v -1.696103 0.075000 -1.974338
v -1.679700 0.075000 -1.975560
v -1.673766 0.075000 -1.975735
v 1.673766 0.075000 -1.975735
v 1.743046 0.075000 -1.969801
v 1.800808 0.075000 -1.953393
v 1.848101 0.075000 -1.928606
v 1.885969 0.075000 -1.897535
v 1.915461 0.075000 -1.862275
v 1.937624 0.075000 -1.824921
v 1.953504 0.075000 -1.787566
v 1.964149 0.075000 -1.752306
v 1.970606 0.075000 -1.721236
v 1.973922 0.075000 -1.696449
v 1.975143 0.075000 -1.680041
v 1.975318 0.075000 -1.674106
v 1.975318 0.075000 1.674106
v 1.969385 0.075000 1.743404
v 1.952981 0.075000 1.801181
v 1.928201 0.075000 1.848485
v 1.897138 0.075000 1.886363
v 1.861887 0.075000 1.915863
v 1.824542 0.075000 1.938031
v 1.787197 0.075000 1.953916
v 1.751946 0.075000 1.964563
v 1.720884 0.075000 1.971022
v 1.696103 0.075000 1.974339
v 1.679699 0.075000 1.975560
v 1.673766 0.075000 1.975735
v -1.673766 0.075000 1.975735
v -1.743046 0.075000 1.969800
v -1.800808 0.075000 1.953392
v -1.848100 0.075000 1.928606
v -1.885969 0.075000 1.897535
v -1.915461 0.075000 1.862275
v -1.937624 0.075000 1.824921
v -1.953504 0.075000 1.787566
v -1.964149 0.075000 1.752306
v -1.970606 0.075000 1.721236
v -1.973922 0.075000 1.696449
v -1.975143 0.075000 1.680041
v -1.975318 -0.075000 1.674106
v -1.975318 -0.075000 -1.674106
v -1.969385 -0.075000 -1.743404
v -1.952981 -0.075000 -1.801181
v -1.928201 -0.075000 -1.848485
v -1.897138 -0.075000 -1.886363
v -1.861887 -0.075000 -1.915862
v -1.824542 -0.075000 -1.938031
v -1.787197 -0.075000 -1.953915
v -1.751946 -0.075000 -1.964563
v -1.720884 -0.075000 -1.971021
v -1.696103 -0.075000 -1.974338
v -1.679700 -0.075000 -1.975560
v -1.673766 -0.075000 -1.975735
v 1.673766 -0.075000 -1.975735
v 1.743046 -0.075000 -1.969801
v 1.800808 -0.075000 -1.953393
v 1.848101 -0.075000 -1.928606
v 1.885969 -0.075000 -1.897535
v 1.915461 -0.075000 -1.862275
v 1.937624 -0.075000 -1.824921
v 1.953504 -0.075000 -1.787566
v 1.964149 -0.075000 -1.752306
v 1.970606 -0.075000 -1.721236
v 1.973922 -0.075000 -1.696449
v 1.975143 -0.075000 -1.680041
v 1.975318 -0.075000 -1.674106
v 1.975318 -0.075000 1.674106
v 1.969385 -0.075000 1.743404
v 1.952981 -0.075000 1.801181
v 1.928201 -0.075000 1.848485
v 1.897138 -0.075000 1.886363
v 1.861887 -0.075000 1.915863
v 1.824542 -0.075000 1.938031
v 1.787197 -0.075000 1.953916
v 1.751946 -0.075000 1.964563
v 1.720884 -0.075000 1.971022
v 1.696103 -0.075000 1.974339
v 1.679699 -0.075000 1.975560
v 1.673766 -0.075000 1.975735
v -1.673766 -0.075000 1.975735
v -1.743046 -0.075000 1.969800
v -1.800808 -0.075000 1.953392
v -1.848100 -0.075000 1.928606
v -1.885969 -0.075000 1.897535
v -1.915461 -0.075000 1.862275
v -1.937624 -0.075000 1.824921
v -1.953504 -0.075000 1.787566
v -1.964149 -0.075000 1.752306
v -1.970606 -0.075000 1.721236
v -1.973922 -0.075000 1.696449
v -1.975143 -0.075000 1.680041
vn -0.0000 1.0000 -0.0000
vn -0.0000 -1.0000 -0.0000
vn 0.4642 -0.0000 -0.8857
vn -1.0000 -0.0000 -0.0000
vn -0.9964 -0.0000 -0.0853
vn -0.9620 -0.0000 -0.2731
vn -0.8858 -0.0000 -0.4640
vn -0.7732 -0.0000 -0.6341
vn -0.6418 -0.0000 -0.7669
vn -0.5105 -0.0000 -0.8599
vn -0.0743 -0.0000 -0.9972
vn -0.0295 -0.0000 -0.9996
vn 0.2732 -0.0000 -0.9619
vn 0.6343 -0.0000 -0.7731
vn 0.7671 -0.0000 -0.6416
vn 0.9203 -0.0000 -0.3912
vn 0.9573 -0.0000 -0.2890
vn 0.9912 -0.0000 -0.1326
vn 0.9972 -0.0000 -0.0742
vn 0.9996 -0.0000 -0.0294
vn -0.2733 -0.0000 0.9619
vn -0.4642 -0.0000 0.8857
vn -0.9996 -0.0000 0.0294
vn -0.6343 -0.0000 0.7731
vn -0.7671 -0.0000 0.6416
vn -0.8600 -0.0000 0.5103
vn -0.0853 -0.0000 0.9964
vn 1.0000 -0.0000 -0.0000
vn -0.9203 -0.0000 0.3912
vn -0.3914 -0.0000 -0.9202
vn -0.0000 -0.0000 1.0000
vn -0.9573 -0.0000 0.2890
vn -0.2892 -0.0000 -0.9573
vn 0.9620 -0.0000 0.2731
vn -0.9791 -0.0000 0.2035
vn -0.2036 -0.0000 -0.9791
vn 0.8858 -0.0000 0.4640
vn -0.9912 -0.0000 0.1326
vn -0.1327 -0.0000 -0.9912
vn 0.7732 -0.0000 0.6341
vn -0.9972 -0.0000 0.0742
vn 0.6418 -0.0000 0.7669
vn 0.9964 -0.0000 0.0853
vn 0.5104 -0.0000 0.8599
vn -0.0000 -0.0000 -1.0000
vn 0.3914 -0.0000 0.9202
vn 0.9791 -0.0000 -0.2035
vn 0.0853 -0.0000 -0.9964
vn 0.2892 -0.0000 0.9573
vn 0.2036 -0.0000 0.9791
vn 0.1327 -0.0000 0.9912
vn 0.0743 -0.0000 0.9972
vn 0.0294 -0.0000 0.9996
vn 0.8600 -0.0000 -0.5103
vn -0.0000 -1.0000 -0.0001
vn -0.0000 -1.0000 0.0001
vt 0.004771 0.019087
vt 0.494037 0.016105
vt 0.461835 0.500106
vt 0.976191 0.497344
vt 0.500177 0.464759
vt 0.961835 0.000000
vt 0.056953 0.500106
vt 0.075937 0.504967
vt 0.056953 0.504967
vt 0.018984 0.520737
vt 0.037969 0.937538
vt 0.018984 0.937538
vt 0.018984 0.512246
vt 0.037969 0.520737
vt 0.018984 0.505428
vt 0.037969 0.512246
vt 0.018984 0.500106
vt 0.037969 0.505428
vt 0.056953 0.956480
vt 0.075937 0.961601
vt 0.056953 0.961601
vt 0.056953 0.951148
vt 0.075937 0.956480
vt 0.056953 0.945824
vt 0.075937 0.951148
vt 0.056953 0.926896
vt 0.075937 0.928932
vt 0.056953 0.928932
vt 0.075937 0.926169
vt 0.075937 0.926896
vt 0.075937 0.511398
vt 0.056953 0.511398
vt 0.000000 0.967392
vt 0.018984 0.972125
vt 0.000000 0.972125
vt 0.000000 0.962329
vt 0.018984 0.967392
vt 0.000000 0.952160
vt 0.018984 0.957173
vt 0.000000 0.957173
vt 0.000000 0.947528
vt 0.018984 0.952160
vt 0.000000 0.940351
vt 0.018984 0.943513
vt 0.000000 0.943513
vt 0.000000 0.938281
vt 0.018984 0.940351
vt 0.000000 0.937538
vt 0.018984 0.938281
vt 0.037969 0.504967
vt 0.056953 0.511398
vt 0.037969 0.511398
vt 0.037969 0.500106
vt 0.056953 0.504967
vt 0.037969 0.938281
vt 0.018984 0.938281
vt 0.018984 0.967392
vt 0.037969 0.972124
vt 0.018984 0.972124
vt 0.018984 0.962329
vt 0.037969 0.967392
vt 0.018984 0.957173
vt 0.037969 0.962329
vt 0.056953 0.519602
vt 0.037969 0.519602
vt 0.000000 0.520737
vt 0.018984 0.937538
vt 0.018984 0.952160
vt 0.037969 0.957173
vt 0.056953 0.940723
vt 0.075937 0.945824
vt 0.056953 0.926171
vt 0.037969 0.926171
vt 0.018984 0.947528
vt 0.037969 0.952160
vt 0.056953 0.936062
vt 0.075937 0.940723
vt -0.000000 0.505428
vt 0.018984 0.512246
vt -0.000000 0.512246
vt 0.018984 0.943512
vt 0.037969 0.947528
vt 0.056953 0.932060
vt 0.075937 0.936062
vt -0.000000 0.500106
vt 0.018984 0.505428
vt 0.018984 0.940351
vt 0.037969 0.943512
vt 0.075937 0.932060
vt 0.037969 0.956481
vt 0.056953 0.961602
vt 0.037969 0.961602
vt 0.037969 0.940351
vt 0.037969 0.951150
vt 0.056953 0.956481
vt 0.018984 0.520737
vt 0.056953 0.945825
vt 0.056953 0.951150
vt 0.056953 0.519601
vt 0.056953 0.926169
vt 0.037969 0.940724
vt 0.037969 0.945825
vt 0.018984 0.947528
vt 0.075937 0.519601
vt 0.037969 0.936063
vt 0.056953 0.940724
vt 0.037969 0.932061
vt 0.056953 0.936063
vt 0.037969 0.928933
vt 0.056953 0.932061
vt 0.037969 0.926897
vt 0.056953 0.928933
vt 0.056953 0.926897
vt 0.018984 0.962329
vt 0.000751 0.470701
vt 0.000000 0.461931
vt 0.000000 0.038175
vt 0.000022 0.037424
vt 0.000177 0.035347
vt 0.000596 0.032210
vt 0.001414 0.028278
vt 0.002761 0.023815
vt 0.007576 0.014360
vt 0.011308 0.009897
vt 0.016101 0.005965
vt 0.022086 0.002828
vt 0.029397 0.000751
vt 0.038165 0.000000
vt 0.461835 0.000000
vt 0.462586 0.000022
vt 0.464662 0.000177
vt 0.467798 0.000596
vt 0.471730 0.001414
vt 0.476191 0.002761
vt 0.480918 0.004772
vt 0.485644 0.007578
vt 0.490105 0.011311
vt 0.497173 0.022092
vt 0.499249 0.029404
vt 0.500000 0.038175
vt 0.500000 0.461931
vt 0.499978 0.462682
vt 0.499823 0.464759
vt 0.499404 0.467896
vt 0.498586 0.471828
vt 0.497239 0.476291
vt 0.495229 0.481018
vt 0.492424 0.485746
vt 0.488692 0.490208
vt 0.483899 0.494141
vt 0.477914 0.497278
vt 0.470603 0.499354
vt 0.038165 0.500106
vt 0.037414 0.500083
vt 0.035338 0.499929
vt 0.032202 0.499509
vt 0.028270 0.498692
vt 0.023809 0.497344
vt 0.019082 0.495334
vt 0.014356 0.492528
vt 0.009895 0.488794
vt 0.005963 0.484001
vt 0.002827 0.478014
vt 1.000000 0.038175
vt 1.000000 0.461931
vt 0.999249 0.470701
vt 0.997173 0.478014
vt 0.994037 0.484001
vt 0.990105 0.488794
vt 0.985644 0.492528
vt 0.980917 0.495334
vt 0.971730 0.498692
vt 0.967798 0.499509
vt 0.964662 0.499929
vt 0.962586 0.500083
vt 0.961835 0.500106
vt 0.538165 0.500106
vt 0.529397 0.499354
vt 0.522086 0.497278
vt 0.516101 0.494141
vt 0.511308 0.490208
vt 0.507576 0.485746
vt 0.504771 0.481018
vt 0.502761 0.476291
vt 0.501413 0.471828
vt 0.500596 0.467896
vt 0.500022 0.462682
vt 0.500000 0.461931
vt 0.500000 0.038175
vt 0.500751 0.029404
vt 0.502827 0.022092
vt 0.505963 0.016105
vt 0.509895 0.011311
vt 0.514356 0.007578
vt 0.519082 0.004772
vt 0.523809 0.002761
vt 0.528270 0.001414
vt 0.532202 0.000596
vt 0.535338 0.000177
vt 0.537414 0.000022
vt 0.538165 0.000000
vt 0.970603 0.000751
vt 0.977914 0.002828
vt 0.983899 0.005965
vt 0.988692 0.009897
vt 0.992424 0.014360
vt 0.995229 0.019087
vt 0.997239 0.023815
vt 0.998586 0.028278
vt 0.999404 0.032210
vt 0.999823 0.035347
vt 0.999978 0.037424
vt 0.075937 0.500106
vt 0.037969 0.500106
vt 0.056953 0.500106
vt 0.018984 0.500106
s 0
usemtl Tile_A
f 47/1/1 31/2/1 15/3/1
f 61/4/2 77/5/2 93/6/2
f 18/7/3 69/8/3 17/9/3
f 2/10/4 53/11/4 1/12/4
f 3/13/5 54/14/5 2/10/5
f 4/15/6 55/16/6 3/13/6
f 5/17/7 56/18/7 4/15/7
f 6/19/8 57/20/8 5/21/8
f 7/22/9 58/23/9 6/19/9
f 8/24/10 59/25/10 7/22/10
f 13/26/11 64/27/11 12/28/11
f 13/26/12 66/29/12 65/30/12
f 17/9/13 68/31/13 16/32/13
f 19/33/14 70/34/14 18/35/14
f 20/36/15 71/37/15 19/33/15
f 22/38/16 73/39/16 21/40/16
f 23/41/17 74/42/17 22/38/17
f 25/43/18 76/44/18 24/45/18
f 26/46/19 77/47/19 25/43/19
f 27/48/20 78/49/20 26/46/20
f 43/50/21 94/51/21 42/52/21
f 44/53/22 95/54/22 43/50/22
f 1/12/23 104/55/23 52/56/23
f 45/57/24 96/58/24 44/59/24
f 46/60/25 97/61/25 45/57/25
f 47/62/26 98/63/26 46/60/26
f 42/52/27 93/64/27 41/65/27
f 28/66/28 79/67/28 27/48/28
f 48/68/29 99/69/29 47/62/29
f 9/70/30 60/71/30 8/24/30
f 41/65/31 92/72/31 40/73/31
f 49/74/32 100/75/32 48/68/32
f 10/76/33 61/77/33 9/70/33
f 30/78/34 81/79/34 29/80/34
f 50/81/35 101/82/35 49/74/35
f 11/83/36 62/84/36 10/76/36
f 31/85/37 82/86/37 30/78/37
f 51/87/38 102/88/38 50/81/38
f 12/28/39 63/89/39 11/83/39
f 32/90/40 83/91/40 31/92/40
f 52/56/41 103/93/41 51/87/41
f 33/94/42 84/95/42 32/90/42
f 29/80/43 80/96/43 28/66/43
f 33/94/44 86/97/44 85/98/44
f 15/99/45 66/29/45 14/100/45
f 35/101/46 86/97/46 34/102/46
f 24/45/47 75/103/47 23/41/47
f 16/32/48 67/104/48 15/99/48
f 36/105/49 87/106/49 35/101/49
f 37/107/50 88/108/50 36/105/50
f 38/109/51 89/110/51 37/107/51
f 39/111/52 90/112/52 38/109/52
f 39/111/53 92/72/53 91/113/53
f 21/40/54 72/114/54 20/36/54
f 3/115/1 2/116/1 1/117/1
f 1/117/1 52/118/1 51/119/1
f 51/119/1 50/120/1 49/121/1
f 49/121/1 48/122/1 47/1/1
f 47/1/1 46/123/1 45/124/1
f 45/124/1 44/125/1 43/126/1
f 43/126/1 42/127/1 41/128/1
f 41/128/1 40/129/1 39/130/1
f 39/130/1 38/131/1 37/132/1
f 37/132/1 36/133/1 35/134/1
f 35/134/1 34/135/1 33/136/1
f 33/136/1 32/137/1 31/2/1
f 31/2/1 30/138/1 29/139/1
f 29/139/1 28/140/1 27/141/1
f 27/141/1 26/142/1 25/143/1
f 25/143/1 24/144/1 23/145/1
f 23/145/1 22/146/1 21/147/1
f 21/147/1 20/148/1 19/149/1
f 19/149/1 18/150/1 17/151/1
f 17/151/1 16/152/1 15/3/1
f 15/3/1 14/153/1 13/154/1
f 13/154/1 12/155/1 11/156/1
f 11/156/1 10/157/1 9/158/1
f 9/158/1 8/159/1 7/160/1
f 7/160/1 6/161/1 5/162/1
f 5/162/1 4/163/1 3/115/1
f 3/115/1 1/117/1 51/119/1
f 51/119/1 49/121/1 47/1/1
f 47/1/1 45/124/1 43/126/1
f 43/126/1 41/128/1 39/130/1
f 39/130/1 37/132/1 35/134/1
f 35/134/1 33/136/1 31/2/1
f 31/2/1 29/139/1 27/141/1
f 27/141/1 25/143/1 23/145/1
f 23/145/1 21/147/1 19/149/1
f 19/149/1 17/151/1 15/3/1
f 15/3/1 13/154/1 11/156/1
f 11/156/1 9/158/1 7/160/1
f 7/160/1 5/162/1 3/115/1
f 3/115/1 51/119/1 47/1/1
f 47/1/1 43/126/1 39/130/1
f 39/130/1 35/134/1 31/2/1
f 31/2/1 27/141/1 23/145/1
f 23/145/1 19/149/1 15/3/1
f 15/3/1 11/156/1 7/160/1
f 7/160/1 3/115/1 47/1/1
f 47/1/1 39/130/1 31/2/1
f 31/2/1 23/145/1 15/3/1
f 15/3/1 7/160/1 47/1/1
f 53/164/2 54/165/2 55/166/2
f 55/166/2 56/167/2 57/168/2
f 57/168/2 58/169/2 59/170/2
f 59/170/2 60/171/2 61/4/2
f 61/4/2 62/172/2 63/173/2
f 63/173/2 64/174/2 65/175/2
f 65/175/55 66/176/55 67/177/55
f 67/177/2 68/178/2 69/179/2
f 69/179/2 70/180/2 71/181/2
f 71/181/2 72/182/2 73/183/2
f 73/183/2 74/184/2 75/185/2
f 75/185/2 76/186/2 77/5/2
f 77/5/2 78/187/2 79/188/2
f 79/188/2 80/189/2 81/190/2
f 81/190/2 82/191/2 83/192/2
f 83/192/2 84/193/2 85/194/2
f 85/194/2 86/195/2 87/196/2
f 87/196/2 88/197/2 89/198/2
f 89/198/2 90/199/2 91/200/2
f 91/200/56 92/201/56 93/6/56
f 93/6/2 94/202/2 95/203/2
f 95/203/2 96/204/2 97/205/2
f 97/205/2 98/206/2 99/207/2
f 99/207/2 100/208/2 101/209/2
f 101/209/2 102/210/2 103/211/2
f 103/211/2 104/212/2 53/164/2
f 53/164/2 55/166/2 57/168/2
f 57/168/2 59/170/2 61/4/2
f 61/4/2 63/173/2 65/175/2
f 65/175/2 67/177/2 69/179/2
f 69/179/2 71/181/2 73/183/2
f 73/183/2 75/185/2 77/5/2
f 77/5/2 79/188/2 81/190/2
f 81/190/2 83/192/2 85/194/2
f 85/194/2 87/196/2 89/198/2
f 89/198/2 91/200/2 93/6/2
f 93/6/2 95/203/2 97/205/2
f 97/205/2 99/207/2 101/209/2
f 101/209/2 103/211/2 53/164/2
f 53/164/2 57/168/2 61/4/2
f 61/4/2 65/175/2 69/179/2
f 69/179/2 73/183/2 77/5/2
f 77/5/2 81/190/2 85/194/2
f 85/194/2 89/198/2 93/6/2
f 93/6/2 97/205/2 101/209/2
f 101/209/2 53/164/2 61/4/2
f 61/4/2 69/179/2 77/5/2
f 77/5/2 85/194/2 93/6/2
f 93/6/2 101/209/2 61/4/2
f 18/7/3 70/213/3 69/8/3
f 2/10/4 54/14/4 53/11/4
f 3/13/5 55/16/5 54/14/5
f 4/15/6 56/18/6 55/16/6
f 5/17/7 57/214/7 56/18/7
f 6/19/8 58/23/8 57/20/8
f 7/22/9 59/25/9 58/23/9
f 8/24/10 60/71/10 59/25/10
f 13/26/11 65/30/11 64/27/11
f 13/26/12 14/100/12 66/29/12
f 17/9/13 69/8/13 68/31/13
f 19/33/14 71/37/14 70/34/14
f 20/36/15 72/114/15 71/37/15
f 22/38/16 74/42/16 73/39/16
f 23/41/17 75/103/17 74/42/17
f 25/43/18 77/47/18 76/44/18
f 26/46/19 78/49/19 77/47/19
f 27/48/20 79/67/20 78/49/20
f 43/50/21 95/54/21 94/51/21
f 44/53/22 96/215/22 95/54/22
f 1/12/23 53/11/23 104/55/23
f 45/57/24 97/61/24 96/58/24
f 46/60/25 98/63/25 97/61/25
f 47/62/26 99/69/26 98/63/26
f 42/52/27 94/51/27 93/64/27
f 28/66/28 80/96/28 79/67/28
f 48/68/29 100/75/29 99/69/29
f 9/70/30 61/77/30 60/71/30
f 41/65/31 93/64/31 92/72/31
f 49/74/32 101/82/32 100/75/32
f 10/76/33 62/84/33 61/77/33
f 30/78/34 82/86/34 81/79/34
f 50/81/35 102/88/35 101/82/35
f 11/83/36 63/89/36 62/84/36
f 31/85/37 83/216/37 82/86/37
f 51/87/38 103/93/38 102/88/38
f 12/28/39 64/27/39 63/89/39
f 32/90/40 84/95/40 83/91/40
f 52/56/41 104/55/41 103/93/41
f 33/94/42 85/98/42 84/95/42
f 29/80/43 81/79/43 80/96/43
f 33/94/44 34/102/44 86/97/44
f 15/99/45 67/104/45 66/29/45
f 35/101/46 87/106/46 86/97/46
f 24/45/47 76/44/47 75/103/47
f 16/32/48 68/31/48 67/104/48
f 36/105/49 88/108/49 87/106/49
f 37/107/50 89/110/50 88/108/50
f 38/109/51 90/112/51 89/110/51
f 39/111/52 91/113/52 90/112/52
f 39/111/53 40/73/53 92/72/53
f 21/40/54 73/39/54 72/114/54
