# Blender 4.0.2
# www.blender.org
mtllib Reference.mtl
o Reference
v -3.208184 0.043750 -1.210377
v 3.208184 0.043750 -1.210377
v 3.259426 0.043750 -1.205990
v 3.302150 0.043750 -1.193859
v 3.337128 0.043750 -1.175535
v 3.365138 0.043750 -1.152565
v 3.386951 0.043750 -1.126498
v 3.403343 0.043750 -1.098882
v 3.415089 0.043750 -1.071266
v 3.422962 0.043750 -1.045199
v 3.427738 0.043750 -1.022229
v 3.430191 0.043750 -1.003905
v 3.431094 0.043750 -0.991774
v 3.431224 0.043750 -0.987387
v 3.431224 0.043750 0.987387
v 3.426835 0.043750 1.038618
v 3.414702 0.043750 1.081332
v 3.396374 0.043750 1.116303
v 3.373398 0.043750 1.144306
v 3.347326 0.043750 1.166115
v 3.319704 0.043750 1.182503
v 3.292082 0.043750 1.194246
v 3.266009 0.043750 1.202118
v 3.243034 0.043750 1.206893
v 3.224706 0.043750 1.209345
v 3.212573 0.043750 1.210248
v 3.208184 0.043750 1.210377
v -3.208184 0.043750 1.210377
v -3.259426 0.043750 1.205989
v -3.302150 0.043750 1.193859
v -3.337129 0.043750 1.175535
v -3.365138 0.043750 1.152565
v -3.386951 0.043750 1.126498
v -3.403344 0.043750 1.098882
v -3.415089 0.043750 1.071266
v -3.422964 0.043750 1.045199
v -3.427739 0.043750 1.022229
v -3.430191 0.043750 1.003905
v -3.431094 0.043750 0.991774
v -3.431224 0.043750 0.987387
v -3.431224 0.043750 -0.987387
v -3.426836 0.043750 -1.038618
v -3.414702 0.043750 -1.081332
v -3.396374 0.043750 -1.116303
v -3.373398 0.043750 -1.144306
v -3.347326 0.043750 -1.166115
v -3.319704 0.043750 -1.182503
v -3.292082 0.043750 -1.194246
v -3.266009 0.043750 -1.202118
v -3.243034 0.043750 -1.206893
v -3.224705 0.043750 -1.209345
v -3.212572 0.043750 -1.210248
v -3.208184 -0.043750 -1.210377
v 3.208184 -0.043750 -1.210377
v 3.259426 -0.043750 -1.205990
v 3.302150 -0.043750 -1.193859
v 3.337128 -0.043750 -1.175535
v 3.365138 -0.043750 -1.152565
v 3.386951 -0.043750 -1.126498
v 3.403343 -0.043750 -1.098882
v 3.415089 -0.043750 -1.071266
v 3.422962 -0.043750 -1.045199
v 3.427738 -0.043750 -1.022229
v 3.430191 -0.043750 -1.003905
v 3.431094 -0.043750 -0.991774
v 3.431224 -0.043750 -0.987387
v 3.431224 -0.043750 0.987387
v 3.426835 -0.043750 1.038618
v 3.414702 -0.043750 1.081332
v 3.396374 -0.043750 1.116303
v 3.373398 -0.043750 1.144306
v 3.347326 -0.043750 1.166115
v 3.319704 -0.043750 1.182503
v 3.292082 -0.043750 1.194246
v 3.266009 -0.043750 1.202118
v 3.243034 -0.043750 1.206893
v 3.224706 -0.043750 1.209345
v 3.212573 -0.043750 1.210248
v 3.208184 -0.043750 1.210377
v -3.208184 -0.043750 1.210377
v -3.259426 -0.043750 1.205989
v -3.302150 -0.043750 1.193859
v -3.337129 -0.043750 1.175535
v -3.365138 -0.043750 1.152565
v -3.386951 -0.043750 1.126498
v -3.403344 -0.043750 1.098882
v -3.415089 -0.043750 1.071266
v -3.422964 -0.043750 1.045199
v -3.427739 -0.043750 1.022229
v -3.430191 -0.043750 1.003905
v -3.431094 -0.043750 0.991774
v -3.431224 -0.043750 0.987387
v -3.431224 -0.043750 -0.987387
v -3.426836 -0.043750 -1.038618
v -3.414702 -0.043750 -1.081332
v -3.396374 -0.043750 -1.116303
v -3.373398 -0.043750 -1.144306
v -3.347326 -0.043750 -1.166115
v -3.319704 -0.043750 -1.182503
v -3.292082 -0.043750 -1.194246
v -3.266009 -0.043750 -1.202118
v -3.243034 -0.043750 -1.206893
v -3.224705 -0.043750 -1.209345
v -3.212572 -0.043750 -1.210248
vn -0.0000 1.0000 -0.0000
vn -0.0000 -1.0000 -0.0000
vn 0.8857 -0.0000 0.4642
vn -0.0000 -0.0000 -1.0000
vn 0.0853 -0.0000 -0.9964
vn 0.2731 -0.0000 -0.9620
vn 0.4641 -0.0000 -0.8858
vn 0.6341 -0.0000 -0.7732
vn 0.7669 -0.0000 -0.6418
vn 0.8599 -0.0000 -0.5104
vn 0.9972 -0.0000 -0.0743
vn 0.9996 -0.0000 -0.0297
vn 0.9619 -0.0000 0.2732
vn 0.7731 -0.0000 0.6343
vn 0.6416 -0.0000 0.7670
vn 0.3913 -0.0000 0.9203
vn 0.2890 -0.0000 0.9573
vn 0.1326 -0.0000 0.9912
vn 0.0743 -0.0000 0.9972
vn 0.0294 -0.0000 0.9996
vn -0.9619 -0.0000 -0.2732
vn -0.8857 -0.0000 -0.4642
vn -0.0294 -0.0000 -0.9996
vn -0.7731 -0.0000 -0.6343
vn -0.6416 -0.0000 -0.7670
vn -0.5103 -0.0000 -0.8600
vn -0.9964 -0.0000 -0.0853
vn -0.0000 -0.0000 1.0000
vn -0.3912 -0.0000 -0.9203
vn 0.9202 -0.0000 -0.3914
vn -1.0000 -0.0000 -0.0000
vn -0.2890 -0.0000 -0.9573
vn 0.9573 -0.0000 -0.2892
vn -0.2731 -0.0000 0.9620
vn -0.2035 -0.0000 -0.9791
vn 0.9791 -0.0000 -0.2035
vn -0.4640 -0.0000 0.8858
vn -0.1326 -0.0000 -0.9912
vn 0.9912 -0.0000 -0.1326
vn -0.6341 -0.0000 0.7732
vn -0.0742 -0.0000 -0.9972
vn -0.7669 -0.0000 0.6418
vn -0.0853 -0.0000 0.9964
vn -0.8599 -0.0000 0.5104
vn 1.0000 -0.0000 -0.0000
vn -0.9202 -0.0000 0.3914
vn 0.2035 -0.0000 0.9791
vn 0.9964 -0.0000 0.0853
vn -0.9573 -0.0000 0.2892
vn -0.9791 -0.0000 0.2035
vn -0.9912 -0.0000 0.1326
vn -0.9972 -0.0000 0.0742
vn -0.9996 -0.0000 0.0295
vn 0.5103 -0.0000 0.8600
vn 0.0001 -1.0000 -0.0000
vn 0.9972 -0.0000 -0.0742
vn 0.9996 -0.0000 -0.0295
vn 0.9620 -0.0000 0.2732
vn -0.3913 -0.0000 -0.9203
vn 0.9573 -0.0000 -0.2891
vn 0.9791 -0.0000 -0.2036
vn -0.8599 -0.0000 0.5105
vn 0.9964 -0.0000 0.0854
vn -0.9573 -0.0000 0.2891
vn -0.9912 -0.0000 0.1327
vn -0.9972 -0.0000 0.0743
vn -0.9996 -0.0000 0.0294
vt 0.348692 0.983749
vt 0.005077 0.986288
vt 0.032494 -0.000000
vt 0.685236 0.997649
vt 0.352904 0.969906
vt 0.673013 0.000000
vt 0.743759 0.333652
vt 0.731009 0.328775
vt 0.743759 0.328775
vt 0.718258 0.017565
vt 0.731009 0.937215
vt 0.718258 0.937215
vt 0.718258 0.010336
vt 0.731009 0.017565
vt 0.718258 0.004532
vt 0.731009 0.010336
vt 0.731009 -0.000000
vt 0.731009 0.004532
vt 0.743759 0.003649
vt 0.731009 0.000000
vt 0.743759 0.000000
vt 0.743759 0.007680
vt 0.731009 0.003649
vt 0.743759 0.011874
vt 0.731009 0.007680
vt 0.743759 0.027746
vt 0.731009 0.025973
vt 0.743759 0.025973
vt 0.743759 0.028384
vt 0.731009 0.027746
vt 0.731009 0.322703
vt 0.743759 0.322703
vt 0.743759 0.337464
vt 0.731009 0.333652
vt 0.705508 0.971325
vt 0.718258 0.975355
vt 0.705508 0.975355
vt 0.705508 0.962985
vt 0.718258 0.967129
vt 0.705508 0.967129
vt 0.705508 0.959109
vt 0.718258 0.962985
vt 0.705508 0.953027
vt 0.718258 0.955718
vt 0.705508 0.955718
vt 0.705508 0.951254
vt 0.718258 0.953027
vt 0.705508 0.950615
vt 0.718258 0.951254
vt 0.731009 0.341995
vt 0.743759 0.347798
vt 0.731009 0.347798
vt 0.731009 0.337464
vt 0.743759 0.341995
vt 0.731009 0.937848
vt 0.718258 0.937848
vt 0.718258 0.962632
vt 0.731009 0.966662
vt 0.718258 0.966662
vt 0.718258 0.958322
vt 0.731009 0.962632
vt 0.718258 0.953932
vt 0.731009 0.958322
vt 0.743759 0.355025
vt 0.731009 0.355025
vt 0.705508 0.018348
vt 0.718258 0.950615
vt 0.718258 0.949664
vt 0.731009 0.953932
vt 0.743759 0.016018
vt 0.731009 0.011874
vt 0.743759 0.638063
vt 0.731009 0.638063
vt 0.718258 0.945720
vt 0.731009 0.949664
vt 0.743759 0.019893
vt 0.731009 0.016018
vt 0.705508 0.004879
vt 0.718258 0.010951
vt 0.705508 0.010951
vt 0.718258 0.942302
vt 0.731009 0.945720
vt 0.743759 0.023283
vt 0.731009 0.019893
vt 0.705508 0.000000
vt 0.718258 0.004879
vt 0.718258 0.939610
vt 0.731009 0.942302
vt 0.731009 0.023283
vt 0.731009 0.663476
vt 0.743759 0.667505
vt 0.731009 0.667505
vt 0.731009 0.939610
vt 0.731009 0.659166
vt 0.743759 0.663476
vt 0.718258 0.018348
vt 0.743759 0.654777
vt 0.743759 0.659166
vt 0.743759 0.315309
vt 0.731009 0.028384
vt 0.731009 0.650510
vt 0.731009 0.654777
vt 0.718258 0.959109
vt 0.731009 0.315309
vt 0.731009 0.646567
vt 0.743759 0.650510
vt 0.731009 0.643149
vt 0.743759 0.646567
vt 0.731009 0.640458
vt 0.743759 0.643149
vt 0.731009 0.638695
vt 0.743759 0.640458
vt 0.743759 0.638695
vt 0.718258 0.971325
vt 0.352114 0.025034
vt 0.352754 0.032502
vt 0.352754 0.967498
vt 0.352735 0.968138
vt 0.352603 0.969906
vt 0.352246 0.972577
vt 0.351550 0.975925
vt 0.350403 0.979724
vt 0.346304 0.987774
vt 0.343126 0.991574
vt 0.339045 0.994922
vt 0.333949 0.997592
vt 0.327725 0.999361
vt 0.320260 1.000000
vt 0.032494 1.000000
vt 0.031855 0.999981
vt 0.030087 0.999849
vt 0.027417 0.999492
vt 0.024070 0.998796
vt 0.020271 0.997649
vt 0.016247 0.995937
vt 0.012223 0.993549
vt 0.008425 0.990370
vt 0.002407 0.981191
vt 0.000639 0.974966
vt 0.000000 0.967498
vt 0.000000 0.032502
vt 0.000019 0.031862
vt 0.000150 0.030094
vt 0.000508 0.027423
vt 0.001204 0.024075
vt 0.002351 0.020276
vt 0.004062 0.016251
vt 0.006450 0.012226
vt 0.009628 0.008426
vt 0.013709 0.005078
vt 0.018805 0.002408
vt 0.025029 0.000640
vt 0.320260 -0.000000
vt 0.320899 0.000019
vt 0.322666 0.000151
vt 0.325337 0.000508
vt 0.328684 0.001204
vt 0.332482 0.002351
vt 0.336507 0.004063
vt 0.340531 0.006451
vt 0.344329 0.009630
vt 0.347677 0.013712
vt 0.350347 0.018809
vt 0.705508 0.032502
vt 0.705508 0.967498
vt 0.704868 0.974966
vt 0.703101 0.981191
vt 0.700430 0.986288
vt 0.697083 0.990370
vt 0.693285 0.993549
vt 0.689260 0.995937
vt 0.681438 0.998796
vt 0.678091 0.999492
vt 0.675420 0.999849
vt 0.673653 0.999981
vt 0.673013 1.000000
vt 0.385248 1.000000
vt 0.377783 0.999361
vt 0.371558 0.997593
vt 0.366462 0.994922
vt 0.362382 0.991574
vt 0.359204 0.987774
vt 0.356816 0.983749
vt 0.355104 0.979724
vt 0.353957 0.975925
vt 0.353262 0.972577
vt 0.352773 0.968138
vt 0.352754 0.967498
vt 0.352754 0.032502
vt 0.353393 0.025034
vt 0.355161 0.018809
vt 0.357831 0.013711
vt 0.361178 0.009630
vt 0.364977 0.006451
vt 0.369001 0.004063
vt 0.373025 0.002351
vt 0.376824 0.001204
vt 0.380171 0.000508
vt 0.382841 0.000150
vt 0.384609 0.000019
vt 0.385248 0.000000
vt 0.680479 0.000639
vt 0.686703 0.002408
vt 0.691799 0.005078
vt 0.695880 0.008426
vt 0.699058 0.012226
vt 0.701446 0.016251
vt 0.703157 0.020276
vt 0.704304 0.024075
vt 0.705000 0.027423
vt 0.705357 0.030094
vt 0.705489 0.031862
vt 0.718258 -0.000000
vt 0.731009 0.337464
vt 0.743759 0.337464
vt 0.718258 0.000000
s 0
usemtl Tile
f 47/1/1 31/2/1 15/3/1
f 61/4/2 77/5/2 93/6/2
f 18/7/3 69/8/3 17/9/3
f 2/10/4 53/11/4 1/12/4
f 3/13/5 54/14/5 2/10/5
f 4/15/6 55/16/6 3/13/6
f 4/15/7 57/17/7 56/18/7
f 6/19/8 57/20/8 5/21/8
f 7/22/9 58/23/9 6/19/9
f 8/24/10 59/25/10 7/22/10
f 13/26/11 64/27/11 12/28/11
f 14/29/12 65/30/12 13/26/12
f 17/9/13 68/31/13 16/32/13
f 19/33/14 70/34/14 18/7/14
f 20/35/15 71/36/15 19/37/15
f 22/38/16 73/39/16 21/40/16
f 23/41/17 74/42/17 22/38/17
f 25/43/18 76/44/18 24/45/18
f 26/46/19 77/47/19 25/43/19
f 27/48/20 78/49/20 26/46/20
f 43/50/21 94/51/21 42/52/21
f 44/53/22 95/54/22 43/50/22
f 1/12/23 104/55/23 52/56/23
f 45/57/24 96/58/24 44/59/24
f 46/60/25 97/61/25 45/57/25
f 47/62/26 98/63/26 46/60/26
f 42/52/27 93/64/27 41/65/27
f 28/66/28 79/67/28 27/48/28
f 48/68/29 99/69/29 47/62/29
f 9/70/30 60/71/30 8/24/30
f 41/65/31 92/72/31 40/73/31
f 49/74/32 100/75/32 48/68/32
f 10/76/33 61/77/33 9/70/33
f 30/78/34 81/79/34 29/80/34
f 50/81/35 101/82/35 49/74/35
f 11/83/36 62/84/36 10/76/36
f 31/85/37 82/86/37 30/78/37
f 51/87/38 102/88/38 50/81/38
f 12/28/39 63/89/39 11/83/39
f 32/90/40 83/91/40 31/92/40
f 52/56/41 103/93/41 51/87/41
f 33/94/42 84/95/42 32/90/42
f 29/80/43 80/96/43 28/66/43
f 33/94/44 86/97/44 85/98/44
f 15/99/45 66/100/45 14/29/45
f 35/101/46 86/97/46 34/102/46
f 24/45/47 75/103/47 23/41/47
f 16/32/48 67/104/48 15/99/48
f 36/105/49 87/106/49 35/101/49
f 37/107/50 88/108/50 36/105/50
f 38/109/51 89/110/51 37/107/51
f 39/111/52 90/112/52 38/109/52
f 40/73/53 91/113/53 39/111/53
f 21/40/54 72/114/54 20/35/54
f 3/115/1 2/116/1 1/117/1
f 1/117/1 52/118/1 51/119/1
f 51/119/1 50/120/1 49/121/1
f 49/121/1 48/122/1 47/1/1
f 47/1/1 46/123/1 45/124/1
f 45/124/1 44/125/1 43/126/1
f 43/126/1 42/127/1 41/128/1
f 41/128/1 40/129/1 39/130/1
f 39/130/1 38/131/1 37/132/1
f 37/132/1 36/133/1 35/134/1
f 35/134/1 34/135/1 33/136/1
f 33/136/1 32/137/1 31/2/1
f 31/2/1 30/138/1 29/139/1
f 29/139/1 28/140/1 27/141/1
f 27/141/1 26/142/1 25/143/1
f 25/143/1 24/144/1 23/145/1
f 23/145/1 22/146/1 21/147/1
f 21/147/1 20/148/1 19/149/1
f 19/149/1 18/150/1 17/151/1
f 17/151/1 16/152/1 15/3/1
f 15/3/1 14/153/1 13/154/1
f 13/154/1 12/155/1 11/156/1
f 11/156/1 10/157/1 9/158/1
f 9/158/1 8/159/1 7/160/1
f 7/160/1 6/161/1 5/162/1
f 5/162/1 4/163/1 3/115/1
f 3/115/1 1/117/1 51/119/1
f 51/119/1 49/121/1 47/1/1
f 47/1/1 45/124/1 43/126/1
f 43/126/1 41/128/1 39/130/1
f 39/130/1 37/132/1 35/134/1
f 35/134/1 33/136/1 31/2/1
f 31/2/1 29/139/1 27/141/1
f 27/141/1 25/143/1 23/145/1
f 23/145/1 21/147/1 19/149/1
f 19/149/1 17/151/1 15/3/1
f 15/3/1 13/154/1 11/156/1
f 11/156/1 9/158/1 7/160/1
f 7/160/1 5/162/1 3/115/1
f 3/115/1 51/119/1 47/1/1
f 47/1/1 43/126/1 39/130/1
f 39/130/1 35/134/1 31/2/1
f 31/2/1 27/141/1 23/145/1
f 23/145/1 19/149/1 15/3/1
f 15/3/1 11/156/1 7/160/1
f 7/160/1 3/115/1 47/1/1
f 47/1/1 39/130/1 31/2/1
f 31/2/1 23/145/1 15/3/1
f 15/3/1 7/160/1 47/1/1
f 53/164/2 54/165/2 55/166/2
f 55/166/2 56/167/2 57/168/2
f 57/168/2 58/169/2 59/170/2
f 59/170/2 60/171/2 61/4/2
f 61/4/2 62/172/2 63/173/2
f 63/173/2 64/174/2 65/175/2
f 65/175/2 66/176/2 67/177/2
f 67/177/2 68/178/2 69/179/2
f 69/179/2 70/180/2 71/181/2
f 71/181/2 72/182/2 73/183/2
f 73/183/2 74/184/2 75/185/2
f 75/185/2 76/186/2 77/5/2
f 77/5/2 78/187/2 79/188/2
f 79/188/2 80/189/2 81/190/2
f 81/190/2 82/191/2 83/192/2
f 83/192/2 84/193/2 85/194/2
f 85/194/2 86/195/2 87/196/2
f 87/196/2 88/197/2 89/198/2
f 89/198/2 90/199/2 91/200/2
f 91/200/55 92/201/55 93/6/55
f 93/6/2 94/202/2 95/203/2
f 95/203/2 96/204/2 97/205/2
f 97/205/2 98/206/2 99/207/2
f 99/207/2 100/208/2 101/209/2
f 101/209/2 102/210/2 103/211/2
f 103/211/2 104/212/2 53/164/2
f 53/164/2 55/166/2 57/168/2
f 57/168/2 59/170/2 61/4/2
f 61/4/2 63/173/2 65/175/2
f 65/175/2 67/177/2 69/179/2
f 69/179/2 71/181/2 73/183/2
f 73/183/2 75/185/2 77/5/2
f 77/5/2 79/188/2 81/190/2
f 81/190/2 83/192/2 85/194/2
f 85/194/2 87/196/2 89/198/2
f 89/198/2 91/200/2 93/6/2
f 93/6/2 95/203/2 97/205/2
f 97/205/2 99/207/2 101/209/2
f 101/209/2 103/211/2 53/164/2
f 53/164/2 57/168/2 61/4/2
f 61/4/2 65/175/2 69/179/2
f 69/179/2 73/183/2 77/5/2
f 77/5/2 81/190/2 85/194/2
f 85/194/2 89/198/2 93/6/2
f 93/6/2 97/205/2 101/209/2
f 101/209/2 53/164/2 61/4/2
f 61/4/2 69/179/2 77/5/2
f 77/5/2 85/194/2 93/6/2
f 93/6/2 101/209/2 61/4/2
f 18/7/3 70/34/3 69/8/3
f 2/10/4 54/14/4 53/11/4
f 3/13/5 55/16/5 54/14/5
f 4/15/6 56/18/6 55/16/6
f 4/15/7 5/213/7 57/17/7
f 6/19/8 58/23/8 57/20/8
f 7/22/9 59/25/9 58/23/9
f 8/24/10 60/71/10 59/25/10
f 13/26/56 65/30/56 64/27/56
f 14/29/57 66/100/57 65/30/57
f 17/9/58 69/8/58 68/31/58
f 19/33/14 71/214/14 70/34/14
f 20/35/15 72/114/15 71/36/15
f 22/38/16 74/42/16 73/39/16
f 23/41/17 75/103/17 74/42/17
f 25/43/18 77/47/18 76/44/18
f 26/46/19 78/49/19 77/47/19
f 27/48/20 79/67/20 78/49/20
f 43/50/21 95/54/21 94/51/21
f 44/53/22 96/215/22 95/54/22
f 1/12/23 53/11/23 104/55/23
f 45/57/24 97/61/24 96/58/24
f 46/60/25 98/63/25 97/61/25
f 47/62/26 99/69/26 98/63/26
f 42/52/27 94/51/27 93/64/27
f 28/66/28 80/96/28 79/67/28
f 48/68/59 100/75/59 99/69/59
f 9/70/30 61/77/30 60/71/30
f 41/65/31 93/64/31 92/72/31
f 49/74/32 101/82/32 100/75/32
f 10/76/60 62/84/60 61/77/60
f 30/78/34 82/86/34 81/79/34
f 50/81/35 102/88/35 101/82/35
f 11/83/61 63/89/61 62/84/61
f 31/85/37 83/216/37 82/86/37
f 51/87/38 103/93/38 102/88/38
f 12/28/39 64/27/39 63/89/39
f 32/90/40 84/95/40 83/91/40
f 52/56/41 104/55/41 103/93/41
f 33/94/42 85/98/42 84/95/42
f 29/80/43 81/79/43 80/96/43
f 33/94/62 34/102/62 86/97/62
f 15/99/45 67/104/45 66/100/45
f 35/101/46 87/106/46 86/97/46
f 24/45/47 76/44/47 75/103/47
f 16/32/63 68/31/63 67/104/63
f 36/105/64 88/108/64 87/106/64
f 37/107/50 89/110/50 88/108/50
f 38/109/65 90/112/65 89/110/65
f 39/111/66 91/113/66 90/112/66
f 40/73/67 92/72/67 91/113/67
f 21/40/54 73/39/54 72/114/54
