# Blender 4.0.2
# www.blender.org
mtllib Expansion Board.mtl
o Expansion_Board
v -2.108463 0.184625 -4.506099
v 2.108463 0.184625 -4.506099
v 2.159706 0.184625 -4.501711
v 2.202429 0.184625 -4.489581
v 2.237408 0.184625 -4.471256
v 2.265417 0.184625 -4.448287
v 2.287231 0.184625 -4.422219
v 2.303623 0.184625 -4.394604
v 2.315369 0.184625 -4.366988
v 2.323242 0.184625 -4.340921
v 2.328018 0.184625 -4.317951
v 2.330471 0.184625 -4.299626
v 2.331374 0.184625 -4.287496
v 2.331504 0.184625 -4.283108
v 2.331504 0.184625 4.283109
v 2.327115 0.184625 4.334340
v 2.314982 0.184625 4.377054
v 2.296654 0.184625 4.412025
v 2.273678 0.184625 4.440029
v 2.247605 0.184625 4.461837
v 2.219983 0.184625 4.478226
v 2.192362 0.184625 4.489969
v 2.166289 0.184625 4.497840
v 2.143314 0.184625 4.502615
v 2.124985 0.184625 4.505067
v 2.112852 0.184625 4.505971
v 2.108463 0.184625 4.506099
v -2.108463 0.184625 4.506099
v -2.159706 0.184625 4.501712
v -2.202429 0.184625 4.489582
v -2.237408 0.184625 4.471257
v -2.265417 0.184625 4.448287
v -2.287231 0.184625 4.422220
v -2.303624 0.184625 4.394604
v -2.315369 0.184625 4.366988
v -2.323243 0.184625 4.340921
v -2.328019 0.184625 4.317951
v -2.330471 0.184625 4.299627
v -2.331375 0.184625 4.287497
v -2.331504 0.184625 4.283109
v -2.331504 0.184625 -4.283108
v -2.327115 0.184625 -4.334340
v -2.314982 0.184625 -4.377053
v -2.296653 0.184625 -4.412024
v -2.273678 0.184625 -4.440028
v -2.247605 0.184625 -4.461836
v -2.219983 0.184625 -4.478225
v -2.192362 0.184625 -4.489968
v -2.166288 0.184625 -4.497840
v -2.143313 0.184625 -4.502614
v -2.124985 0.184625 -4.505066
v -2.112852 0.184625 -4.505970
v -2.108463 -0.184625 -4.506099
v 2.108463 -0.184625 -4.506099
v 2.159706 -0.184625 -4.501711
v 2.202429 -0.184625 -4.489581
v 2.237408 -0.184625 -4.471256
v 2.265417 -0.184625 -4.448287
v 2.287231 -0.184625 -4.422219
v 2.303623 -0.184625 -4.394604
v 2.315369 -0.184625 -4.366988
v 2.323242 -0.184625 -4.340921
v 2.328018 -0.184625 -4.317951
v 2.330471 -0.184625 -4.299626
v 2.331374 -0.184625 -4.287496
v 2.331504 -0.184625 -4.283108
v 2.331504 -0.184625 4.283109
v 2.327115 -0.184625 4.334340
v 2.314982 -0.184625 4.377054
v 2.296654 -0.184625 4.412025
v 2.273678 -0.184625 4.440029
v 2.247605 -0.184625 4.461837
v 2.219983 -0.184625 4.478226
v 2.192362 -0.184625 4.489969
v 2.166289 -0.184625 4.497840
v 2.143314 -0.184625 4.502615
v 2.124985 -0.184625 4.505067
v 2.112852 -0.184625 4.505971
v 2.108463 -0.184625 4.506099
v -2.108463 -0.184625 4.506099
v -2.159706 -0.184625 4.501712
v -2.202429 -0.184625 4.489582
v -2.237408 -0.184625 4.471257
v -2.265417 -0.184625 4.448287
v -2.287231 -0.184625 4.422220
v -2.303624 -0.184625 4.394604
v -2.315369 -0.184625 4.366988
v -2.323243 -0.184625 4.340921
v -2.328019 -0.184625 4.317951
v -2.330471 -0.184625 4.299627
v -2.331375 -0.184625 4.287497
v -2.331504 -0.184625 4.283109
v -2.331504 -0.184625 -4.283108
v -2.327115 -0.184625 -4.334340
v -2.314982 -0.184625 -4.377053
v -2.296653 -0.184625 -4.412024
v -2.273678 -0.184625 -4.440028
v -2.247605 -0.184625 -4.461836
v -2.219983 -0.184625 -4.478225
v -2.192362 -0.184625 -4.489968
v -2.166288 -0.184625 -4.497840
v -2.143313 -0.184625 -4.502614
v -2.124985 -0.184625 -4.505066
v -2.112852 -0.184625 -4.505970
vn -0.0000 1.0000 -0.0000
vn -0.0000 -1.0000 -0.0000
vn 0.8857 -0.0000 0.4642
vn -0.0000 -0.0000 -1.0000
vn 0.0853 -0.0000 -0.9964
vn 0.2731 -0.0000 -0.9620
vn 0.4641 -0.0000 -0.8858
vn 0.6341 -0.0000 -0.7732
vn 0.7669 -0.0000 -0.6418
vn 0.8599 -0.0000 -0.5104
vn 0.9972 -0.0000 -0.0743
vn 0.9996 -0.0000 -0.0296
vn 0.9619 -0.0000 0.2732
vn 0.7731 -0.0000 0.6343
vn 0.6416 -0.0000 0.7670
vn 0.3912 -0.0000 0.9203
vn 0.2890 -0.0000 0.9573
vn 0.1326 -0.0000 0.9912
vn 0.0742 -0.0000 0.9972
vn 0.0292 -0.0000 0.9996
vn -0.9619 -0.0000 -0.2732
vn -0.8857 -0.0000 -0.4642
vn -0.0293 -0.0000 -0.9996
vn -0.7731 -0.0000 -0.6343
vn -0.6416 -0.0000 -0.7670
vn -0.5103 -0.0000 -0.8600
vn -0.9964 -0.0000 -0.0853
vn -0.0000 -0.0000 1.0000
vn -0.3912 -0.0000 -0.9203
vn 0.9202 -0.0000 -0.3914
vn -1.0000 -0.0000 -0.0000
vn -0.2890 -0.0000 -0.9573
vn 0.9573 -0.0000 -0.2892
vn -0.2731 -0.0000 0.9620
vn -0.2034 -0.0000 -0.9791
vn 0.9791 -0.0000 -0.2036
vn -0.4641 -0.0000 0.8858
vn -0.1326 -0.0000 -0.9912
vn 0.9912 -0.0000 -0.1326
vn -0.6341 -0.0000 0.7732
vn -0.0742 -0.0000 -0.9972
vn -0.7669 -0.0000 0.6418
vn -0.0853 -0.0000 0.9964
vn -0.8599 -0.0000 0.5104
vn 1.0000 -0.0000 -0.0000
vn -0.9202 -0.0000 0.3914
vn 0.2035 -0.0000 0.9791
vn 0.9964 -0.0000 0.0853
vn -0.9573 -0.0000 0.2892
vn -0.9791 -0.0000 0.2036
vn -0.9912 -0.0000 0.1327
vn -0.9972 -0.0000 0.0742
vn -0.9996 -0.0000 0.0293
vn 0.5103 -0.0000 0.8600
vn -0.0001 1.0000 -0.0000
vn 0.0001 1.0000 -0.0000
vn -0.0001 -1.0000 -0.0000
vn 0.0003 -1.0000 -0.0000
vn 0.7669 -0.0000 -0.6417
vn -0.9619 -0.0000 -0.2733
vn -0.9964 -0.0000 -0.0854
vn -0.2035 -0.0000 -0.9791
vn 0.9912 -0.0000 -0.1327
vn 0.9964 -0.0000 0.0854
vn -0.9791 -0.0000 0.2035
vn -0.9972 -0.0000 0.0743
vn -0.9996 -0.0000 0.0295
vt 0.010688 0.861082
vt 0.009018 0.003339
vt 0.446915 0.021372
vt 0.448462 0.850420
vt 0.466708 0.000099
vt 0.893830 0.842381
vt 0.893830 0.002508
vt 0.929220 0.005716
vt 0.893830 0.005716
vt 0.964610 0.442875
vt 1.000000 0.840402
vt 0.964610 0.840402
vt 0.964610 0.438120
vt 1.000000 0.442875
vt 0.964610 0.434302
vt 1.000000 0.438120
vt 1.000000 0.431321
vt 1.000000 0.434302
vt 0.893830 0.849451
vt 0.929220 0.851851
vt 0.893830 0.851851
vt 0.893830 0.846800
vt 0.929220 0.849451
vt 0.893830 0.844041
vt 0.929220 0.846800
vt 0.893830 0.833602
vt 0.929220 0.834768
vt 0.893830 0.834768
vt 0.893830 0.833182
vt 0.929220 0.833602
vt 0.929220 0.009709
vt 0.893830 0.009709
vt 0.893830 0.000000
vt 0.929220 0.002508
vt 0.964610 0.428670
vt 1.000000 0.431322
vt 0.964610 0.431322
vt 0.964610 0.423185
vt 1.000000 0.425911
vt 0.964610 0.425911
vt 0.964610 0.420636
vt 1.000000 0.423185
vt 0.964610 0.416636
vt 1.000000 0.418406
vt 0.964610 0.418406
vt 0.964610 0.415470
vt 1.000000 0.416636
vt 0.964610 0.415050
vt 1.000000 0.415470
vt 0.929220 0.002980
vt 0.964610 0.006796
vt 0.929220 0.006796
vt 0.929220 0.000000
vt 0.964610 0.002980
vt 1.000000 0.840818
vt 0.964610 0.840818
vt 0.964610 0.857120
vt 1.000000 0.859770
vt 0.964610 0.859770
vt 1.000000 0.854285
vt 1.000000 0.857120
vt 0.964610 0.851397
vt 0.964610 0.854285
vt 0.964610 0.011550
vt 0.929220 0.011550
vt 0.964610 0.012067
vt 1.000000 0.415050
vt 0.964610 0.848590
vt 1.000000 0.851397
vt 0.893830 0.841316
vt 0.929220 0.844041
vt 0.964610 0.819073
vt 0.929220 0.819073
vt 0.964610 0.845996
vt 1.000000 0.848590
vt 0.893830 0.838767
vt 0.929220 0.841316
vt 0.964610 0.007203
vt 1.000000 0.003209
vt 1.000000 0.007203
vt 0.964610 0.843748
vt 1.000000 0.845996
vt 0.893830 0.836537
vt 0.929220 0.838767
vt 0.964610 -0.000000
vt 0.964610 0.003209
vt 0.964610 0.841978
vt 1.000000 0.843748
vt 0.929220 0.836537
vt 0.929220 0.835787
vt 0.964610 0.838437
vt 0.929220 0.838437
vt 1.000000 0.841978
vt 0.929220 0.832953
vt 0.964610 0.835787
vt 1.000000 0.012067
vt 0.929220 0.830066
vt 0.964610 0.832953
vt 0.893830 0.014572
vt 0.929220 0.833182
vt 0.929220 0.827259
vt 0.964610 0.830066
vt 1.000000 0.420636
vt 0.929220 0.014572
vt 0.929220 0.824666
vt 0.964610 0.827259
vt 0.929220 0.822418
vt 0.964610 0.824666
vt 0.929220 0.820648
vt 0.964610 0.822418
vt 0.929220 0.819489
vt 0.964610 0.820648
vt 0.964610 0.819489
vt 1.000000 0.428670
vt 0.430450 0.863333
vt 0.425538 0.863753
vt 0.021377 0.863753
vt 0.020956 0.863741
vt 0.019793 0.863654
vt 0.018037 0.863419
vt 0.015835 0.862962
vt 0.013336 0.862207
vt 0.008041 0.859511
vt 0.005542 0.857421
vt 0.003340 0.854737
vt 0.001583 0.851385
vt 0.000421 0.847291
vt 0.000000 0.842381
vt 0.000000 0.021372
vt 0.000012 0.020951
vt 0.000099 0.019789
vt 0.000334 0.018033
vt 0.000792 0.015831
vt 0.001546 0.013333
vt 0.002672 0.010686
vt 0.004243 0.008039
vt 0.006334 0.005541
vt 0.012371 0.001583
vt 0.016466 0.000420
vt 0.021377 -0.000000
vt 0.425538 -0.000000
vt 0.425959 0.000012
vt 0.427122 0.000099
vt 0.428878 0.000334
vt 0.431080 0.000792
vt 0.433579 0.001546
vt 0.436227 0.002671
vt 0.438874 0.004242
vt 0.441373 0.006332
vt 0.443575 0.009016
vt 0.445332 0.012368
vt 0.446494 0.016462
vt 0.446915 0.842381
vt 0.446903 0.842802
vt 0.446816 0.843964
vt 0.446581 0.845720
vt 0.446123 0.847922
vt 0.445369 0.850420
vt 0.444243 0.853067
vt 0.442672 0.855714
vt 0.440581 0.858212
vt 0.437897 0.860414
vt 0.434544 0.862170
vt 0.872453 0.863753
vt 0.468292 0.863753
vt 0.463381 0.863333
vt 0.459286 0.862170
vt 0.455933 0.860414
vt 0.453249 0.858212
vt 0.451158 0.855714
vt 0.449587 0.853067
vt 0.447707 0.847922
vt 0.447249 0.845720
vt 0.447014 0.843964
vt 0.446928 0.842802
vt 0.447336 0.016462
vt 0.448499 0.012368
vt 0.450255 0.009016
vt 0.452457 0.006332
vt 0.454956 0.004242
vt 0.457603 0.002671
vt 0.460251 0.001546
vt 0.462750 0.000792
vt 0.464952 0.000334
vt 0.467871 0.000012
vt 0.468292 -0.000000
vt 0.872453 -0.000000
vt 0.877365 0.000420
vt 0.881459 0.001583
vt 0.884812 0.003339
vt 0.887496 0.005541
vt 0.889587 0.008039
vt 0.891158 0.010686
vt 0.892284 0.013333
vt 0.893038 0.015831
vt 0.893496 0.018033
vt 0.893731 0.019789
vt 0.893818 0.020951
vt 0.893830 0.021372
vt 0.893410 0.847291
vt 0.892247 0.851385
vt 0.890490 0.854737
vt 0.888288 0.857421
vt 0.885789 0.859511
vt 0.883142 0.861082
vt 0.880494 0.862207
vt 0.877995 0.862962
vt 0.875794 0.863419
vt 0.874037 0.863654
vt 0.872874 0.863741
vt 0.964610 0.431321
vt 0.929220 0.000000
vt 0.964610 0.000000
vt 1.000000 -0.000000
s 0
usemtl Tile
f 47/1/1 31/2/1 15/3/1
f 61/4/2 77/5/2 93/6/2
f 18/7/3 69/8/3 17/9/3
f 2/10/4 53/11/4 1/12/4
f 3/13/5 54/14/5 2/10/5
f 4/15/6 55/16/6 3/13/6
f 4/15/7 57/17/7 56/18/7
f 6/19/8 57/20/8 5/21/8
f 7/22/9 58/23/9 6/19/9
f 8/24/10 59/25/10 7/22/10
f 13/26/11 64/27/11 12/28/11
f 14/29/12 65/30/12 13/26/12
f 17/9/13 68/31/13 16/32/13
f 19/33/14 70/34/14 18/7/14
f 20/35/15 71/36/15 19/37/15
f 22/38/16 73/39/16 21/40/16
f 23/41/17 74/42/17 22/38/17
f 25/43/18 76/44/18 24/45/18
f 26/46/19 77/47/19 25/43/19
f 27/48/20 78/49/20 26/46/20
f 43/50/21 94/51/21 42/52/21
f 44/53/22 95/54/22 43/50/22
f 1/12/23 104/55/23 52/56/23
f 45/57/24 96/58/24 44/59/24
f 45/57/25 98/60/25 97/61/25
f 47/62/26 98/60/26 46/63/26
f 42/52/27 93/64/27 41/65/27
f 28/66/28 79/67/28 27/48/28
f 48/68/29 99/69/29 47/62/29
f 9/70/30 60/71/30 8/24/30
f 41/65/31 92/72/31 40/73/31
f 49/74/32 100/75/32 48/68/32
f 10/76/33 61/77/33 9/70/33
f 29/78/34 82/79/34 81/80/34
f 50/81/35 101/82/35 49/74/35
f 11/83/36 62/84/36 10/76/36
f 31/85/37 82/79/37 30/86/37
f 51/87/38 102/88/38 50/81/38
f 12/28/39 63/89/39 11/83/39
f 32/90/40 83/91/40 31/92/40
f 52/56/41 103/93/41 51/87/41
f 33/94/42 84/95/42 32/90/42
f 29/78/43 80/96/43 28/66/43
f 34/97/44 85/98/44 33/94/44
f 15/99/45 66/100/45 14/29/45
f 35/101/46 86/102/46 34/97/46
f 24/45/47 75/103/47 23/41/47
f 16/32/48 67/104/48 15/99/48
f 36/105/49 87/106/49 35/101/49
f 37/107/50 88/108/50 36/105/50
f 38/109/51 89/110/51 37/107/51
f 39/111/52 90/112/52 38/109/52
f 40/73/53 91/113/53 39/111/53
f 21/40/54 72/114/54 20/35/54
f 3/115/1 2/116/1 1/117/1
f 1/117/1 52/118/1 51/119/1
f 51/119/1 50/120/1 49/121/1
f 49/121/1 48/122/1 47/1/1
f 47/1/1 46/123/1 45/124/1
f 45/124/1 44/125/1 43/126/1
f 43/126/1 42/127/1 41/128/1
f 41/128/55 40/129/55 39/130/55
f 39/130/1 38/131/1 37/132/1
f 37/132/1 36/133/1 35/134/1
f 35/134/1 34/135/1 33/136/1
f 33/136/1 32/137/1 31/2/1
f 31/2/1 30/138/1 29/139/1
f 29/139/1 28/140/1 27/141/1
f 27/141/1 26/142/1 25/143/1
f 25/143/1 24/144/1 23/145/1
f 23/145/1 22/146/1 21/147/1
f 21/147/1 20/148/1 19/149/1
f 19/149/1 18/150/1 17/151/1
f 17/151/1 16/152/1 15/3/1
f 15/3/56 14/153/56 13/154/56
f 13/154/1 12/155/1 11/156/1
f 11/156/1 10/157/1 9/158/1
f 9/158/1 8/159/1 7/160/1
f 7/160/1 6/161/1 5/162/1
f 5/162/1 4/163/1 3/115/1
f 3/115/1 1/117/1 51/119/1
f 51/119/1 49/121/1 47/1/1
f 47/1/1 45/124/1 43/126/1
f 43/126/1 41/128/1 39/130/1
f 39/130/1 37/132/1 35/134/1
f 35/134/1 33/136/1 31/2/1
f 31/2/1 29/139/1 27/141/1
f 27/141/1 25/143/1 23/145/1
f 23/145/1 21/147/1 19/149/1
f 19/149/1 17/151/1 15/3/1
f 15/3/1 13/154/1 11/156/1
f 11/156/1 9/158/1 7/160/1
f 7/160/1 5/162/1 3/115/1
f 3/115/1 51/119/1 47/1/1
f 47/1/1 43/126/1 39/130/1
f 39/130/1 35/134/1 31/2/1
f 31/2/1 27/141/1 23/145/1
f 23/145/1 19/149/1 15/3/1
f 15/3/1 11/156/1 7/160/1
f 7/160/1 3/115/1 47/1/1
f 47/1/1 39/130/1 31/2/1
f 31/2/1 23/145/1 15/3/1
f 15/3/1 7/160/1 47/1/1
f 53/164/2 54/165/2 55/166/2
f 55/166/2 56/167/2 57/168/2
f 57/168/2 58/169/2 59/170/2
f 59/170/2 60/171/2 61/4/2
f 61/4/2 62/172/2 63/173/2
f 63/173/2 64/174/2 65/175/2
f 65/175/2 66/153/2 67/3/2
f 67/3/2 68/176/2 69/177/2
f 69/177/2 70/178/2 71/179/2
f 71/179/2 72/180/2 73/181/2
f 73/181/2 74/182/2 75/183/2
f 75/183/2 76/184/2 77/5/2
f 77/5/2 78/185/2 79/186/2
f 79/186/2 80/187/2 81/188/2
f 81/188/2 82/189/2 83/190/2
f 83/190/2 84/191/2 85/192/2
f 85/192/2 86/193/2 87/194/2
f 87/194/2 88/195/2 89/196/2
f 89/196/57 90/197/57 91/198/57
f 91/198/58 92/199/58 93/6/58
f 93/6/2 94/200/2 95/201/2
f 95/201/2 96/202/2 97/203/2
f 97/203/2 98/204/2 99/205/2
f 99/205/2 100/206/2 101/207/2
f 101/207/2 102/208/2 103/209/2
f 103/209/2 104/210/2 53/164/2
f 53/164/2 55/166/2 57/168/2
f 57/168/2 59/170/2 61/4/2
f 61/4/2 63/173/2 65/175/2
f 65/175/2 67/3/2 69/177/2
f 69/177/2 71/179/2 73/181/2
f 73/181/2 75/183/2 77/5/2
f 77/5/2 79/186/2 81/188/2
f 81/188/2 83/190/2 85/192/2
f 85/192/2 87/194/2 89/196/2
f 89/196/2 91/198/2 93/6/2
f 93/6/2 95/201/2 97/203/2
f 97/203/2 99/205/2 101/207/2
f 101/207/2 103/209/2 53/164/2
f 53/164/2 57/168/2 61/4/2
f 61/4/2 65/175/2 69/177/2
f 69/177/2 73/181/2 77/5/2
f 77/5/2 81/188/2 85/192/2
f 85/192/2 89/196/2 93/6/2
f 93/6/2 97/203/2 101/207/2
f 101/207/2 53/164/2 61/4/2
f 61/4/2 69/177/2 77/5/2
f 77/5/2 85/192/2 93/6/2
f 93/6/2 101/207/2 61/4/2
f 18/7/3 70/34/3 69/8/3
f 2/10/4 54/14/4 53/11/4
f 3/13/5 55/16/5 54/14/5
f 4/15/6 56/18/6 55/16/6
f 4/15/7 5/211/7 57/17/7
f 6/19/8 58/23/8 57/20/8
f 7/22/59 59/25/59 58/23/59
f 8/24/10 60/71/10 59/25/10
f 13/26/11 65/30/11 64/27/11
f 14/29/12 66/100/12 65/30/12
f 17/9/13 69/8/13 68/31/13
f 19/33/14 71/212/14 70/34/14
f 20/35/15 72/114/15 71/36/15
f 22/38/16 74/42/16 73/39/16
f 23/41/17 75/103/17 74/42/17
f 25/43/18 77/47/18 76/44/18
f 26/46/19 78/49/19 77/47/19
f 27/48/20 79/67/20 78/49/20
f 43/50/60 95/54/60 94/51/60
f 44/53/22 96/213/22 95/54/22
f 1/12/23 53/11/23 104/55/23
f 45/57/24 97/61/24 96/58/24
f 45/57/25 46/63/25 98/60/25
f 47/62/26 99/69/26 98/60/26
f 42/52/61 94/51/61 93/64/61
f 28/66/28 80/96/28 79/67/28
f 48/68/29 100/75/29 99/69/29
f 9/70/30 61/77/30 60/71/30
f 41/65/31 93/64/31 92/72/31
f 49/74/32 101/82/32 100/75/32
f 10/76/33 62/84/33 61/77/33
f 29/78/34 30/86/34 82/79/34
f 50/81/62 102/88/62 101/82/62
f 11/83/36 63/89/36 62/84/36
f 31/85/37 83/214/37 82/79/37
f 51/87/38 103/93/38 102/88/38
f 12/28/63 64/27/63 63/89/63
f 32/90/40 84/95/40 83/91/40
f 52/56/41 104/55/41 103/93/41
f 33/94/42 85/98/42 84/95/42
f 29/78/43 81/80/43 80/96/43
f 34/97/44 86/102/44 85/98/44
f 15/99/45 67/104/45 66/100/45
f 35/101/46 87/106/46 86/102/46
f 24/45/47 76/44/47 75/103/47
f 16/32/64 68/31/64 67/104/64
f 36/105/49 88/108/49 87/106/49
f 37/107/65 89/110/65 88/108/65
f 38/109/51 90/112/51 89/110/51
f 39/111/66 91/113/66 90/112/66
f 40/73/67 92/72/67 91/113/67
f 21/40/54 73/39/54 72/114/54
