# Blender 4.0.2
# www.blender.org
mtllib Bonus.mtl
o rect9396
v -0.649142 0.043750 -0.801176
v 0.649142 0.043750 -0.801176
v 0.700908 0.043750 -0.796744
v 0.744068 0.043750 -0.784490
v 0.779404 0.043750 -0.765978
v 0.807700 0.043750 -0.742773
v 0.829736 0.043750 -0.716439
v 0.846296 0.043750 -0.688540
v 0.858162 0.043750 -0.660642
v 0.866116 0.043750 -0.634308
v 0.870940 0.043750 -0.611103
v 0.873417 0.043750 -0.592591
v 0.874330 0.043750 -0.580337
v 0.874461 0.043750 -0.575905
v 0.874461 0.043750 0.575905
v 0.870027 0.043750 0.627660
v 0.857771 0.043750 0.670811
v 0.839255 0.043750 0.706140
v 0.816045 0.043750 0.734429
v 0.789706 0.043750 0.756461
v 0.761801 0.043750 0.773017
v 0.733897 0.043750 0.784881
v 0.707558 0.043750 0.792833
v 0.684348 0.043750 0.797657
v 0.665832 0.043750 0.800133
v 0.653576 0.043750 0.801046
v 0.649142 0.043750 0.801176
v -0.649142 0.043750 0.801176
v -0.700908 0.043750 0.796744
v -0.744068 0.043750 0.784490
v -0.779404 0.043750 0.765978
v -0.807700 0.043750 0.742773
v -0.829736 0.043750 0.716439
v -0.846296 0.043750 0.688541
v -0.858162 0.043750 0.660642
v -0.866116 0.043750 0.634309
v -0.870940 0.043750 0.611104
v -0.873418 0.043750 0.592592
v -0.874330 0.043750 0.580337
v -0.874461 0.043750 0.575905
v -0.874461 0.043750 -0.575905
v -0.870027 0.043750 -0.627660
v -0.857770 0.043750 -0.670811
v -0.839255 0.043750 -0.706140
v -0.816045 0.043750 -0.734429
v -0.789706 0.043750 -0.756461
v -0.761801 0.043750 -0.773018
v -0.733897 0.043750 -0.784881
v -0.707558 0.043750 -0.792833
v -0.684348 0.043750 -0.797657
v -0.665833 0.043750 -0.800133
v -0.653576 0.043750 -0.801046
v -0.649142 -0.043750 -0.801176
v 0.649142 -0.043750 -0.801176
v 0.700908 -0.043750 -0.796744
v 0.744068 -0.043750 -0.784490
v 0.779404 -0.043750 -0.765978
v 0.807700 -0.043750 -0.742773
v 0.829736 -0.043750 -0.716439
v 0.846296 -0.043750 -0.688540
v 0.858162 -0.043750 -0.660642
v 0.866116 -0.043750 -0.634308
v 0.870940 -0.043750 -0.611103
v 0.873417 -0.043750 -0.592591
v 0.874330 -0.043750 -0.580337
v 0.874461 -0.043750 -0.575905
v 0.874461 -0.043750 0.575905
v 0.870027 -0.043750 0.627660
v 0.857771 -0.043750 0.670811
v 0.839255 -0.043750 0.706140
v 0.816045 -0.043750 0.734429
v 0.789706 -0.043750 0.756461
v 0.761801 -0.043750 0.773017
v 0.733897 -0.043750 0.784881
v 0.707558 -0.043750 0.792833
v 0.684348 -0.043750 0.797657
v 0.665832 -0.043750 0.800133
v 0.653576 -0.043750 0.801046
v 0.649142 -0.043750 0.801176
v -0.649142 -0.043750 0.801176
v -0.700908 -0.043750 0.796744
v -0.744068 -0.043750 0.784490
v -0.779404 -0.043750 0.765978
v -0.807700 -0.043750 0.742773
v -0.829736 -0.043750 0.716439
v -0.846296 -0.043750 0.688541
v -0.858162 -0.043750 0.660642
v -0.866116 -0.043750 0.634309
v -0.870940 -0.043750 0.611104
v -0.873418 -0.043750 0.592592
v -0.874330 -0.043750 0.580337
v -0.874461 -0.043750 0.575905
v -0.874461 -0.043750 -0.575905
v -0.870027 -0.043750 -0.627660
v -0.857770 -0.043750 -0.670811
v -0.839255 -0.043750 -0.706140
v -0.816045 -0.043750 -0.734429
v -0.789706 -0.043750 -0.756461
v -0.761801 -0.043750 -0.773018
v -0.733897 -0.043750 -0.784881
v -0.707558 -0.043750 -0.792833
v -0.684348 -0.043750 -0.797657
v -0.665833 -0.043750 -0.800133
v -0.653576 -0.043750 -0.801046
vn -0.0000 1.0000 -0.0000
vn -0.0000 -1.0000 -0.0000
vn 0.8857 -0.0000 0.4642
vn -0.0000 -0.0000 -1.0000
vn 0.0853 -0.0000 -0.9964
vn 0.2731 -0.0000 -0.9620
vn 0.4641 -0.0000 -0.8858
vn 0.6341 -0.0000 -0.7732
vn 0.7669 -0.0000 -0.6418
vn 0.8599 -0.0000 -0.5104
vn 0.9972 -0.0000 -0.0743
vn 0.9996 -0.0000 -0.0294
vn 0.9619 -0.0000 0.2732
vn 0.7731 -0.0000 0.6343
vn 0.6416 -0.0000 0.7670
vn 0.3913 -0.0000 0.9203
vn 0.2890 -0.0000 0.9573
vn 0.1326 -0.0000 0.9912
vn 0.0743 -0.0000 0.9972
vn 0.0294 -0.0000 0.9996
vn -0.9619 -0.0000 -0.2732
vn -0.8857 -0.0000 -0.4642
vn -0.0294 -0.0000 -0.9996
vn -0.7731 -0.0000 -0.6343
vn -0.6416 -0.0000 -0.7670
vn -0.5103 -0.0000 -0.8600
vn -0.9964 -0.0000 -0.0854
vn -0.0000 -0.0000 1.0000
vn -0.3913 -0.0000 -0.9203
vn 0.9202 -0.0000 -0.3914
vn -1.0000 -0.0000 -0.0000
vn -0.2890 -0.0000 -0.9573
vn 0.9573 -0.0000 -0.2891
vn -0.2731 -0.0000 0.9620
vn -0.2035 -0.0000 -0.9791
vn 0.9791 -0.0000 -0.2036
vn -0.4641 -0.0000 0.8858
vn -0.1326 -0.0000 -0.9912
vn 0.9912 -0.0000 -0.1326
vn -0.6341 -0.0000 0.7732
vn -0.0742 -0.0000 -0.9972
vn -0.7669 -0.0000 0.6418
vn -0.0853 -0.0000 0.9964
vn -0.8599 -0.0000 0.5104
vn 1.0000 -0.0000 -0.0000
vn -0.9202 -0.0000 0.3914
vn 0.2035 -0.0000 0.9791
vn 0.9964 -0.0000 0.0854
vn -0.9573 -0.0000 0.2891
vn -0.9791 -0.0000 0.2036
vn -0.9912 -0.0000 0.1326
vn -0.9972 -0.0000 0.0743
vn -0.9996 -0.0000 0.0294
vn 0.5103 -0.0000 0.8600
vn -0.0001 1.0000 -0.0000
vn 0.0001 -1.0000 -0.0000
vn -0.0001 -1.0000 -0.0000
vn 0.9996 -0.0000 -0.0295
vn -0.9964 -0.0000 -0.0853
vn -0.3912 -0.0000 -0.9203
vn 0.9912 -0.0000 -0.1327
vn 0.9964 -0.0000 0.0853
vt 0.478158 0.497011
vt 0.010692 0.502358
vt 0.068426 0.000000
vt 0.930735 0.526280
vt 0.487028 0.467861
vt 0.904996 0.000000
vt 0.460133 0.539260
vt 0.486711 0.549530
vt 0.460133 0.549530
vt 0.973422 0.538629
vt 1.000000 0.931829
vt 0.973422 0.931829
vt 0.973422 0.523054
vt 1.000000 0.538629
vt 0.973422 0.510267
vt 1.000000 0.523054
vt 0.973422 0.499994
vt 1.000000 0.510267
vt 0.973422 0.491963
vt 1.000000 0.499994
vt 0.460133 0.970324
vt 0.486711 0.978810
vt 0.460133 0.978810
vt 0.460133 0.961490
vt 0.486711 0.970324
vt 0.460133 0.928069
vt 0.486711 0.931802
vt 0.460133 0.931802
vt 0.460133 0.926724
vt 0.486711 0.928069
vt 0.486711 0.562315
vt 0.460133 0.562315
vt 0.460133 0.531231
vt 0.486711 0.539260
vt 0.973422 0.483475
vt 1.000000 0.491963
vt 0.973422 0.465913
vt 1.000000 0.474640
vt 0.973422 0.474640
vt 0.973422 0.457752
vt 1.000000 0.465913
vt 0.973422 0.444945
vt 1.000000 0.450611
vt 0.973422 0.450611
vt 0.973422 0.441212
vt 1.000000 0.444945
vt 0.973422 0.439866
vt 1.000000 0.441212
vt 0.486711 0.549530
vt 0.513289 0.562315
vt 0.486711 0.562315
vt 0.486711 0.539260
vt 0.513289 0.549530
vt 1.000000 0.933175
vt 0.973422 0.933175
vt 0.486711 0.531231
vt 0.513289 0.539260
vt 0.973422 0.975437
vt 1.000000 0.983925
vt 0.973422 0.983925
vt 0.973422 0.966602
vt 1.000000 0.975437
vt 0.513289 0.577886
vt 0.486711 0.577886
vt 0.973422 0.046666
vt 1.000000 0.439866
vt 0.973422 0.957876
vt 1.000000 0.966602
vt 0.460133 0.952766
vt 0.486711 0.961490
vt 0.513289 0.926724
vt 0.486711 0.926724
vt 0.973422 0.949714
vt 1.000000 0.957876
vt 0.460133 0.944606
vt 0.486711 0.952766
vt 0.973422 0.018304
vt 1.000000 0.031091
vt 0.973422 0.031091
vt 0.973422 0.942573
vt 1.000000 0.949714
vt 0.460133 0.937466
vt 0.486711 0.944606
vt 0.973422 0.008031
vt 1.000000 0.018304
vt 0.973422 0.936908
vt 1.000000 0.942573
vt 0.486711 0.937466
vt 0.973422 -0.000000
vt 1.000000 0.008031
vt 1.000000 0.936908
vt 0.513289 0.978810
vt 1.000000 0.046666
vt 0.486711 0.961490
vt 0.513289 0.970324
vt 0.460133 0.577886
vt 0.486711 0.926724
vt 0.486711 0.952766
vt 0.513289 0.961490
vt 1.000000 0.457752
vt 0.486711 0.577886
vt 0.513289 0.944606
vt 0.513289 0.952766
vt 0.486711 0.937466
vt 0.486711 0.944606
vt 0.486711 0.931802
vt 0.513289 0.937466
vt 0.486711 0.928069
vt 0.513289 0.931802
vt 0.513289 0.928069
vt 1.000000 0.483475
vt 0.485365 0.052716
vt 0.486711 0.068440
vt 0.486711 0.462791
vt 0.486671 0.464138
vt 0.486394 0.467861
vt 0.485642 0.473485
vt 0.484177 0.480535
vt 0.481761 0.488535
vt 0.473129 0.505487
vt 0.466437 0.513487
vt 0.457844 0.520537
vt 0.447113 0.526161
vt 0.434006 0.529884
vt 0.418285 0.531231
vt 0.068426 0.531231
vt 0.067079 0.531191
vt 0.063357 0.530914
vt 0.057734 0.530162
vt 0.050686 0.528696
vt 0.042687 0.526280
vt 0.034213 0.522676
vt 0.025739 0.517646
vt 0.017740 0.510952
vt 0.005069 0.491624
vt 0.001346 0.478515
vt 0.000000 0.462791
vt -0.000000 0.068440
vt 0.000040 0.067093
vt 0.000317 0.063370
vt 0.001069 0.057746
vt 0.002534 0.050696
vt 0.004950 0.042696
vt 0.008553 0.034220
vt 0.013582 0.025744
vt 0.020274 0.017744
vt 0.028867 0.010694
vt 0.039598 0.005070
vt 0.052705 0.001347
vt 0.418285 0.000000
vt 0.419631 0.000040
vt 0.423354 0.000317
vt 0.428977 0.001069
vt 0.436025 0.002535
vt 0.444024 0.004951
vt 0.452498 0.008555
vt 0.460972 0.013585
vt 0.468971 0.020278
vt 0.476019 0.028873
vt 0.481642 0.039606
vt 0.973422 0.068440
vt 0.973422 0.462791
vt 0.972076 0.478515
vt 0.968353 0.491624
vt 0.962731 0.502358
vt 0.955682 0.510952
vt 0.947683 0.517646
vt 0.939209 0.522676
vt 0.922736 0.528696
vt 0.915688 0.530161
vt 0.910065 0.530914
vt 0.906343 0.531191
vt 0.904996 0.531231
vt 0.555137 0.531231
vt 0.539416 0.529884
vt 0.526309 0.526161
vt 0.515578 0.520537
vt 0.506985 0.513487
vt 0.500293 0.505487
vt 0.495264 0.497011
vt 0.491661 0.488535
vt 0.489245 0.480535
vt 0.487780 0.473485
vt 0.486751 0.464138
vt 0.486711 0.462791
vt 0.486711 0.068440
vt 0.488057 0.052716
vt 0.491780 0.039606
vt 0.497403 0.028873
vt 0.504451 0.020279
vt 0.512450 0.013585
vt 0.520924 0.008555
vt 0.529398 0.004951
vt 0.537397 0.002535
vt 0.544445 0.001069
vt 0.550068 0.000317
vt 0.553790 0.000040
vt 0.555137 0.000000
vt 0.920717 0.001347
vt 0.933824 0.005070
vt 0.944555 0.010694
vt 0.953148 0.017744
vt 0.959840 0.025744
vt 0.964869 0.034220
vt 0.968472 0.042696
vt 0.970888 0.050696
vt 0.972353 0.057746
vt 0.973105 0.063370
vt 0.973382 0.067093
vt 0.486711 0.531231
vt 0.513289 0.531231
vt 1.000000 -0.000000
s 0
usemtl Tile
f 47/1/1 31/2/1 15/3/1
f 61/4/2 77/5/2 93/6/2
f 18/7/3 69/8/3 17/9/3
f 2/10/4 53/11/4 1/12/4
f 3/13/5 54/14/5 2/10/5
f 4/15/6 55/16/6 3/13/6
f 5/17/7 56/18/7 4/15/7
f 6/19/8 57/20/8 5/17/8
f 7/21/9 58/22/9 6/23/9
f 8/24/10 59/25/10 7/21/10
f 13/26/11 64/27/11 12/28/11
f 14/29/12 65/30/12 13/26/12
f 17/9/13 68/31/13 16/32/13
f 19/33/14 70/34/14 18/7/14
f 20/35/15 71/36/15 19/19/15
f 22/37/16 73/38/16 21/39/16
f 23/40/17 74/41/17 22/37/17
f 25/42/18 76/43/18 24/44/18
f 26/45/19 77/46/19 25/42/19
f 27/47/20 78/48/20 26/45/20
f 43/49/21 94/50/21 42/51/21
f 44/52/22 95/53/22 43/49/22
f 1/12/23 104/54/23 52/55/23
f 45/56/24 96/57/24 44/52/24
f 46/58/25 97/59/25 45/60/25
f 47/61/26 98/62/26 46/58/26
f 42/51/27 93/63/27 41/64/27
f 28/65/28 79/66/28 27/47/28
f 48/67/29 99/68/29 47/61/29
f 9/69/30 60/70/30 8/24/30
f 41/64/31 92/71/31 40/72/31
f 49/73/32 100/74/32 48/67/32
f 10/75/33 61/76/33 9/69/33
f 30/77/34 81/78/34 29/79/34
f 50/80/35 101/81/35 49/73/35
f 11/82/36 62/83/36 10/75/36
f 31/84/37 82/85/37 30/77/37
f 51/86/38 102/87/38 50/80/38
f 11/82/39 64/27/39 63/88/39
f 32/89/40 83/90/40 31/84/40
f 52/55/41 103/91/41 51/86/41
f 33/25/42 84/92/42 32/22/42
f 29/79/43 80/93/43 28/65/43
f 34/94/44 85/95/44 33/25/44
f 15/96/45 66/97/45 14/29/45
f 35/98/46 86/99/46 34/94/46
f 24/44/47 75/100/47 23/40/47
f 16/32/48 67/101/48 15/96/48
f 35/98/49 88/102/49 87/103/49
f 37/104/50 88/102/50 36/105/50
f 38/106/51 89/107/51 37/104/51
f 39/108/52 90/109/52 38/106/52
f 40/72/53 91/110/53 39/108/53
f 21/39/54 72/111/54 20/35/54
f 3/112/1 2/113/1 1/114/1
f 1/114/1 52/115/1 51/116/1
f 51/116/1 50/117/1 49/118/1
f 49/118/1 48/119/1 47/1/1
f 47/1/1 46/120/1 45/121/1
f 45/121/1 44/122/1 43/123/1
f 43/123/1 42/124/1 41/125/1
f 41/125/55 40/126/55 39/127/55
f 39/127/1 38/128/1 37/129/1
f 37/129/1 36/130/1 35/131/1
f 35/131/1 34/132/1 33/133/1
f 33/133/1 32/134/1 31/2/1
f 31/2/1 30/135/1 29/136/1
f 29/136/1 28/137/1 27/138/1
f 27/138/1 26/139/1 25/140/1
f 25/140/1 24/141/1 23/142/1
f 23/142/1 22/143/1 21/144/1
f 21/144/1 20/145/1 19/146/1
f 19/146/1 18/147/1 17/148/1
f 17/148/1 16/149/1 15/3/1
f 15/3/1 14/150/1 13/151/1
f 13/151/1 12/152/1 11/153/1
f 11/153/1 10/154/1 9/155/1
f 9/155/1 8/156/1 7/157/1
f 7/157/1 6/158/1 5/159/1
f 5/159/1 4/160/1 3/112/1
f 3/112/1 1/114/1 51/116/1
f 51/116/1 49/118/1 47/1/1
f 47/1/1 45/121/1 43/123/1
f 43/123/1 41/125/1 39/127/1
f 39/127/1 37/129/1 35/131/1
f 35/131/1 33/133/1 31/2/1
f 31/2/1 29/136/1 27/138/1
f 27/138/1 25/140/1 23/142/1
f 23/142/1 21/144/1 19/146/1
f 19/146/1 17/148/1 15/3/1
f 15/3/1 13/151/1 11/153/1
f 11/153/1 9/155/1 7/157/1
f 7/157/1 5/159/1 3/112/1
f 3/112/1 51/116/1 47/1/1
f 47/1/1 43/123/1 39/127/1
f 39/127/1 35/131/1 31/2/1
f 31/2/1 27/138/1 23/142/1
f 23/142/1 19/146/1 15/3/1
f 15/3/1 11/153/1 7/157/1
f 7/157/1 3/112/1 47/1/1
f 47/1/1 39/127/1 31/2/1
f 31/2/1 23/142/1 15/3/1
f 15/3/1 7/157/1 47/1/1
f 53/161/2 54/162/2 55/163/2
f 55/163/2 56/164/2 57/165/2
f 57/165/2 58/166/2 59/167/2
f 59/167/2 60/168/2 61/4/2
f 61/4/2 62/169/2 63/170/2
f 63/170/2 64/171/2 65/172/2
f 65/172/56 66/173/56 67/174/56
f 67/174/2 68/175/2 69/176/2
f 69/176/2 70/177/2 71/178/2
f 71/178/2 72/179/2 73/180/2
f 73/180/2 74/181/2 75/182/2
f 75/182/2 76/183/2 77/5/2
f 77/5/2 78/184/2 79/185/2
f 79/185/2 80/186/2 81/187/2
f 81/187/2 82/188/2 83/189/2
f 83/189/2 84/190/2 85/191/2
f 85/191/2 86/192/2 87/193/2
f 87/193/2 88/194/2 89/195/2
f 89/195/2 90/196/2 91/197/2
f 91/197/57 92/198/57 93/6/57
f 93/6/2 94/199/2 95/200/2
f 95/200/2 96/201/2 97/202/2
f 97/202/2 98/203/2 99/204/2
f 99/204/2 100/205/2 101/206/2
f 101/206/2 102/207/2 103/208/2
f 103/208/2 104/209/2 53/161/2
f 53/161/2 55/163/2 57/165/2
f 57/165/2 59/167/2 61/4/2
f 61/4/2 63/170/2 65/172/2
f 65/172/2 67/174/2 69/176/2
f 69/176/2 71/178/2 73/180/2
f 73/180/2 75/182/2 77/5/2
f 77/5/2 79/185/2 81/187/2
f 81/187/2 83/189/2 85/191/2
f 85/191/2 87/193/2 89/195/2
f 89/195/2 91/197/2 93/6/2
f 93/6/2 95/200/2 97/202/2
f 97/202/2 99/204/2 101/206/2
f 101/206/2 103/208/2 53/161/2
f 53/161/2 57/165/2 61/4/2
f 61/4/2 65/172/2 69/176/2
f 69/176/2 73/180/2 77/5/2
f 77/5/2 81/187/2 85/191/2
f 85/191/2 89/195/2 93/6/2
f 93/6/2 97/202/2 101/206/2
f 101/206/2 53/161/2 61/4/2
f 61/4/2 69/176/2 77/5/2
f 77/5/2 85/191/2 93/6/2
f 93/6/2 101/206/2 61/4/2
f 18/7/3 70/34/3 69/8/3
f 2/10/4 54/14/4 53/11/4
f 3/13/5 55/16/5 54/14/5
f 4/15/6 56/18/6 55/16/6
f 5/17/7 57/20/7 56/18/7
f 6/19/8 58/36/8 57/20/8
f 7/21/9 59/25/9 58/22/9
f 8/24/10 60/70/10 59/25/10
f 13/26/11 65/30/11 64/27/11
f 14/29/58 66/97/58 65/30/58
f 17/9/13 69/8/13 68/31/13
f 19/33/14 71/210/14 70/34/14
f 20/35/15 72/111/15 71/36/15
f 22/37/16 74/41/16 73/38/16
f 23/40/17 75/100/17 74/41/17
f 25/42/18 77/46/18 76/43/18
f 26/45/19 78/48/19 77/46/19
f 27/47/20 79/66/20 78/48/20
f 43/49/21 95/53/21 94/50/21
f 44/52/22 96/57/22 95/53/22
f 1/12/23 53/11/23 104/54/23
f 45/56/24 97/211/24 96/57/24
f 46/58/25 98/62/25 97/59/25
f 47/61/26 99/68/26 98/62/26
f 42/51/59 94/50/59 93/63/59
f 28/65/28 80/93/28 79/66/28
f 48/67/60 100/74/60 99/68/60
f 9/69/30 61/76/30 60/70/30
f 41/64/31 93/63/31 92/71/31
f 49/73/32 101/81/32 100/74/32
f 10/75/33 62/83/33 61/76/33
f 30/77/34 82/85/34 81/78/34
f 50/80/35 102/87/35 101/81/35
f 11/82/36 63/88/36 62/83/36
f 31/84/37 83/90/37 82/85/37
f 51/86/38 103/91/38 102/87/38
f 11/82/61 12/28/61 64/27/61
f 32/89/40 84/212/40 83/90/40
f 52/55/41 104/54/41 103/91/41
f 33/25/42 85/95/42 84/92/42
f 29/79/43 81/78/43 80/93/43
f 34/94/44 86/99/44 85/95/44
f 15/96/45 67/101/45 66/97/45
f 35/98/46 87/103/46 86/99/46
f 24/44/47 76/43/47 75/100/47
f 16/32/62 68/31/62 67/101/62
f 35/98/49 36/105/49 88/102/49
f 37/104/50 89/107/50 88/102/50
f 38/106/51 90/109/51 89/107/51
f 39/108/52 91/110/52 90/109/52
f 40/72/53 92/71/53 91/110/53
f 21/39/54 73/38/54 72/111/54
