# Blender 4.0.2
# www.blender.org
mtllib Blueprint.mtl
o Blueprint
v -1.523615 0.050000 -1.363290
v 1.523615 0.050000 -1.363290
v 1.582178 0.050000 -1.358275
v 1.631005 0.050000 -1.344412
v 1.670981 0.050000 -1.323470
v 1.702991 0.050000 -1.297218
v 1.727921 0.050000 -1.267427
v 1.746655 0.050000 -1.235866
v 1.760078 0.050000 -1.204305
v 1.769077 0.050000 -1.174514
v 1.774535 0.050000 -1.148262
v 1.777337 0.050000 -1.127320
v 1.778370 0.050000 -1.113456
v 1.778518 0.050000 -1.108442
v 1.778518 0.050000 1.108442
v 1.773503 0.050000 1.166992
v 1.759636 0.050000 1.215808
v 1.738690 0.050000 1.255776
v 1.712432 0.050000 1.287779
v 1.682635 0.050000 1.312704
v 1.651067 0.050000 1.331434
v 1.619499 0.050000 1.344855
v 1.589701 0.050000 1.353851
v 1.563444 0.050000 1.359308
v 1.542497 0.050000 1.362110
v 1.528631 0.050000 1.363142
v 1.523615 0.050000 1.363290
v -1.523615 0.050000 1.363290
v -1.582178 0.050000 1.358275
v -1.631005 0.050000 1.344412
v -1.670981 0.050000 1.323470
v -1.702991 0.050000 1.297218
v -1.727921 0.050000 1.267427
v -1.746655 0.050000 1.235866
v -1.760079 0.050000 1.204305
v -1.769077 0.050000 1.174514
v -1.774535 0.050000 1.148262
v -1.777338 0.050000 1.127320
v -1.778370 0.050000 1.113456
v -1.778518 0.050000 1.108442
v -1.778518 0.050000 -1.108442
v -1.773503 0.050000 -1.166992
v -1.759636 0.050000 -1.215808
v -1.738689 0.050000 -1.255776
v -1.712432 0.050000 -1.287779
v -1.682634 0.050000 -1.312703
v -1.651067 0.050000 -1.331434
v -1.619499 0.050000 -1.344855
v -1.589701 0.050000 -1.353851
v -1.563444 0.050000 -1.359308
v -1.542497 0.050000 -1.362110
v -1.528630 0.050000 -1.363142
v -1.523615 -0.050000 -1.363290
v 1.523615 -0.050000 -1.363290
v 1.582178 -0.050000 -1.358275
v 1.631005 -0.050000 -1.344412
v 1.670981 -0.050000 -1.323470
v 1.702991 -0.050000 -1.297218
v 1.727921 -0.050000 -1.267427
v 1.746655 -0.050000 -1.235866
v 1.760078 -0.050000 -1.204305
v 1.769077 -0.050000 -1.174514
v 1.774535 -0.050000 -1.148262
v 1.777337 -0.050000 -1.127320
v 1.778370 -0.050000 -1.113456
v 1.778518 -0.050000 -1.108442
v 1.778518 -0.050000 1.108442
v 1.773503 -0.050000 1.166992
v 1.759636 -0.050000 1.215808
v 1.738690 -0.050000 1.255776
v 1.712432 -0.050000 1.287779
v 1.682635 -0.050000 1.312704
v 1.651067 -0.050000 1.331434
v 1.619499 -0.050000 1.344855
v 1.589701 -0.050000 1.353851
v 1.563444 -0.050000 1.359308
v 1.542497 -0.050000 1.362110
v 1.528631 -0.050000 1.363142
v 1.523615 -0.050000 1.363290
v -1.523615 -0.050000 1.363290
v -1.582178 -0.050000 1.358275
v -1.631005 -0.050000 1.344412
v -1.670981 -0.050000 1.323470
v -1.702991 -0.050000 1.297218
v -1.727921 -0.050000 1.267427
v -1.746655 -0.050000 1.235866
v -1.760079 -0.050000 1.204305
v -1.769077 -0.050000 1.174514
v -1.774535 -0.050000 1.148262
v -1.777338 -0.050000 1.127320
v -1.778370 -0.050000 1.113456
v -1.778518 -0.050000 1.108442
v -1.778518 -0.050000 -1.108442
v -1.773503 -0.050000 -1.166992
v -1.759636 -0.050000 -1.215808
v -1.738689 -0.050000 -1.255776
v -1.712432 -0.050000 -1.287779
v -1.682634 -0.050000 -1.312703
v -1.651067 -0.050000 -1.331434
v -1.619499 -0.050000 -1.344855
v -1.589701 -0.050000 -1.353851
v -1.563444 -0.050000 -1.359308
v -1.542497 -0.050000 -1.362110
v -1.528630 -0.050000 -1.363142
vn -0.0000 1.0000 -0.0000
vn -0.0000 -1.0000 -0.0000
vn 0.8857 -0.0000 0.4642
vn -0.0000 -0.0000 -1.0000
vn 0.0853 -0.0000 -0.9964
vn 0.2731 -0.0000 -0.9620
vn 0.4641 -0.0000 -0.8858
vn 0.6341 -0.0000 -0.7732
vn 0.7669 -0.0000 -0.6418
vn 0.8599 -0.0000 -0.5104
vn 0.9972 -0.0000 -0.0743
vn 0.9996 -0.0000 -0.0295
vn 0.9619 -0.0000 0.2732
vn 0.7731 -0.0000 0.6343
vn 0.6416 -0.0000 0.7670
vn 0.3913 -0.0000 0.9203
vn 0.2890 -0.0000 0.9573
vn 0.1326 -0.0000 0.9912
vn 0.0743 -0.0000 0.9972
vn 0.0294 -0.0000 0.9996
vn -0.9619 -0.0000 -0.2732
vn -0.8857 -0.0000 -0.4642
vn -0.0294 -0.0000 -0.9996
vn -0.7731 -0.0000 -0.6343
vn -0.6416 -0.0000 -0.7670
vn -0.5103 -0.0000 -0.8600
vn -0.9964 -0.0000 -0.0853
vn -0.0000 -0.0000 1.0000
vn -0.3913 -0.0000 -0.9203
vn 0.9202 -0.0000 -0.3914
vn -1.0000 -0.0000 -0.0000
vn -0.2890 -0.0000 -0.9573
vn 0.9573 -0.0000 -0.2891
vn -0.2731 -0.0000 0.9620
vn -0.2035 -0.0000 -0.9791
vn 0.9791 -0.0000 -0.2036
vn -0.4640 -0.0000 0.8858
vn -0.1326 -0.0000 -0.9912
vn 0.9912 -0.0000 -0.1326
vn -0.6341 -0.0000 0.7732
vn -0.0742 -0.0000 -0.9972
vn -0.7669 -0.0000 0.6418
vn -0.0853 -0.0000 0.9964
vn -0.8599 -0.0000 0.5104
vn 1.0000 -0.0000 -0.0000
vn -0.9202 -0.0000 0.3914
vn 0.2035 -0.0000 0.9791
vn 0.9964 -0.0000 0.0853
vn -0.9573 -0.0000 0.2891
vn -0.9791 -0.0000 0.2036
vn -0.9912 -0.0000 0.1326
vn -0.9972 -0.0000 0.0743
vn -0.9996 -0.0000 0.0294
vn 0.5103 -0.0000 0.8600
vn 0.0001 -1.0000 -0.0000
vn 0.9996 -0.0000 -0.0296
vn -0.4641 -0.0000 0.8858
vn -0.9912 -0.0000 0.1327
vt 0.468390 0.596122
vt 0.006921 0.599584
vt 0.044297 -0.000000
vt 0.920220 0.615070
vt 0.474133 0.577251
vt 0.903558 -0.000000
vt 0.982618 0.453329
vt 1.000000 0.459977
vt 0.982618 0.459977
vt 0.982618 0.561842
vt 0.965237 0.033726
vt 0.982618 0.033726
vt 0.982618 0.571925
vt 0.965237 0.561842
vt 0.982618 0.580203
vt 0.965237 0.571925
vt 0.965237 0.586854
vt 0.965236 0.580203
vt 0.982618 0.592053
vt 0.982618 0.586854
vt 0.982618 0.890767
vt 1.000000 0.896261
vt 0.982618 0.896261
vt 0.982618 0.885048
vt 1.000000 0.890767
vt 0.982618 0.863412
vt 1.000000 0.865829
vt 0.982618 0.865829
vt 0.982618 0.862542
vt 1.000000 0.863412
vt 1.000000 0.468253
vt 0.982618 0.468253
vt 0.982618 0.448131
vt 1.000000 0.453329
vt 0.947855 0.586558
vt 0.965237 0.592053
vt 0.947855 0.592053
vt 0.947855 0.575189
vt 0.965237 0.580839
vt 0.947855 0.580839
vt 0.947855 0.569906
vt 0.965237 0.575189
vt 0.947855 0.561615
vt 0.965237 0.565283
vt 0.947855 0.565283
vt 0.947855 0.559198
vt 0.965237 0.561615
vt 0.947855 0.558327
vt 0.965237 0.559198
vt 0.982618 0.011847
vt 1.000000 0.020123
vt 0.982618 0.020123
vt 0.982618 0.005198
vt 1.000000 0.011847
vt 0.965237 0.032855
vt 0.982618 0.032855
vt 0.982618 0.000000
vt 1.000000 0.005198
vt 0.982618 -0.000000
vt 0.965237 0.005495
vt 0.965237 -0.000000
vt 0.982618 0.011215
vt 0.982618 0.005495
vt 1.000000 0.030203
vt 0.982618 0.030203
vt 0.947855 0.030211
vt 0.965237 0.558327
vt 0.982618 0.016864
vt 0.965237 0.011215
vt 0.982618 0.879400
vt 1.000000 0.885048
vt 1.000000 0.414411
vt 0.982618 0.414411
vt 0.982618 0.022147
vt 0.965237 0.016864
vt 0.982618 0.874118
vt 1.000000 0.879400
vt 0.947855 0.020128
vt 0.965237 0.011850
vt 0.965237 0.020128
vt 0.982618 0.026770
vt 0.965237 0.022147
vt 0.982618 0.869496
vt 1.000000 0.874118
vt 0.947855 0.005199
vt 0.947855 0.011850
vt 0.982618 0.030438
vt 0.965237 0.026770
vt 1.000000 0.869496
vt 0.947855 -0.000000
vt 0.965237 0.005199
vt 0.965237 0.030438
vt 0.982618 0.442637
vt 1.000000 0.448131
vt 0.982618 0.448131
vt 0.965237 0.030211
vt 1.000000 0.436918
vt 1.000000 0.442637
vt 0.982618 0.478334
vt 1.000000 0.862542
vt 0.982618 0.431270
vt 0.982618 0.436918
vt 0.965237 0.569906
vt 1.000000 0.478334
vt 0.982618 0.425987
vt 1.000000 0.431270
vt 0.982618 0.421365
vt 1.000000 0.425987
vt 0.982618 0.417699
vt 1.000000 0.421365
vt 0.982618 0.415282
vt 1.000000 0.417699
vt 1.000000 0.415282
vt 0.965237 0.586558
vt 0.473056 0.034127
vt 0.473927 0.044307
vt 0.473927 0.573969
vt 0.473902 0.574840
vt 0.473722 0.577251
vt 0.473235 0.580892
vt 0.472287 0.585456
vt 0.470723 0.590635
vt 0.465135 0.601609
vt 0.460802 0.606788
vt 0.455240 0.611352
vt 0.448293 0.614993
vt 0.439807 0.617404
vt 0.429630 0.618275
vt 0.044297 0.618275
vt 0.043425 0.618250
vt 0.041016 0.618070
vt 0.037376 0.617583
vt 0.032813 0.616634
vt 0.027634 0.615070
vt 0.022149 0.612737
vt 0.016663 0.609481
vt 0.011484 0.605147
vt 0.003281 0.592635
vt 0.000872 0.584148
vt -0.000000 0.573969
vt -0.000000 0.044307
vt 0.000026 0.043435
vt 0.000205 0.041025
vt 0.000692 0.037384
vt 0.001641 0.032820
vt 0.003204 0.027640
vt 0.005537 0.022153
vt 0.008793 0.016666
vt 0.013125 0.011487
vt 0.018688 0.006923
vt 0.025635 0.003282
vt 0.034120 0.000872
vt 0.429630 -0.000000
vt 0.430502 0.000026
vt 0.432912 0.000205
vt 0.436552 0.000692
vt 0.441115 0.001641
vt 0.446293 0.003205
vt 0.451779 0.005538
vt 0.457265 0.008795
vt 0.462443 0.013128
vt 0.467006 0.018692
vt 0.470646 0.025640
vt 0.947855 0.044307
vt 0.947855 0.573969
vt 0.946983 0.584148
vt 0.944574 0.592635
vt 0.940933 0.599584
vt 0.936370 0.605147
vt 0.931192 0.609481
vt 0.925706 0.612737
vt 0.915042 0.616634
vt 0.910479 0.617583
vt 0.906839 0.618070
vt 0.904429 0.618250
vt 0.903558 0.618275
vt 0.518224 0.618275
vt 0.508047 0.617404
vt 0.499562 0.614993
vt 0.492615 0.611353
vt 0.487052 0.606789
vt 0.482720 0.601609
vt 0.479465 0.596122
vt 0.477132 0.590635
vt 0.475568 0.585456
vt 0.474620 0.580892
vt 0.473953 0.574841
vt 0.473927 0.573969
vt 0.473927 0.044307
vt 0.474799 0.034127
vt 0.477209 0.025640
vt 0.480849 0.018692
vt 0.485412 0.013128
vt 0.490590 0.008795
vt 0.496076 0.005538
vt 0.501562 0.003205
vt 0.506740 0.001641
vt 0.511303 0.000692
vt 0.514943 0.000205
vt 0.517353 0.000026
vt 0.518224 0.000000
vt 0.913735 0.000872
vt 0.922220 0.003282
vt 0.929167 0.006923
vt 0.934730 0.011487
vt 0.939062 0.016666
vt 0.942318 0.022153
vt 0.944650 0.027640
vt 0.946214 0.032820
vt 0.947163 0.037384
vt 0.947650 0.041025
vt 0.947829 0.043435
vt 0.965237 0.592053
vt 1.000000 0.448131
vt 1.000000 0.000000
vt 0.965237 -0.000000
s 0
usemtl Tile
f 47/1/1 31/2/1 15/3/1
f 61/4/2 77/5/2 93/6/2
f 18/7/3 69/8/3 17/9/3
f 2/10/4 53/11/4 1/12/4
f 3/13/5 54/14/5 2/10/5
f 4/15/6 55/16/6 3/13/6
f 4/15/7 57/17/7 56/18/7
f 6/19/8 57/17/8 5/20/8
f 7/21/9 58/22/9 6/23/9
f 8/24/10 59/25/10 7/21/10
f 13/26/11 64/27/11 12/28/11
f 14/29/12 65/30/12 13/26/12
f 17/9/13 68/31/13 16/32/13
f 19/33/14 70/34/14 18/7/14
f 20/35/15 71/36/15 19/37/15
f 22/38/16 73/39/16 21/40/16
f 23/41/17 74/42/17 22/38/17
f 25/43/18 76/44/18 24/45/18
f 26/46/19 77/47/19 25/43/19
f 27/48/20 78/49/20 26/46/20
f 43/50/21 94/51/21 42/52/21
f 44/53/22 95/54/22 43/50/22
f 1/12/23 104/55/23 52/56/23
f 45/57/24 96/58/24 44/53/24
f 45/59/25 98/60/25 97/61/25
f 47/62/26 98/60/26 46/63/26
f 42/52/27 93/64/27 41/65/27
f 28/66/28 79/67/28 27/48/28
f 48/68/29 99/69/29 47/62/29
f 9/70/30 60/71/30 8/24/30
f 41/65/31 92/72/31 40/73/31
f 49/74/32 100/75/32 48/68/32
f 10/76/33 61/77/33 9/70/33
f 29/78/34 82/79/34 81/80/34
f 50/81/35 101/82/35 49/74/35
f 11/83/36 62/84/36 10/76/36
f 31/85/37 82/79/37 30/86/37
f 51/87/38 102/88/38 50/81/38
f 12/28/39 63/89/39 11/83/39
f 32/90/40 83/91/40 31/85/40
f 52/56/41 103/92/41 51/87/41
f 33/93/42 84/94/42 32/95/42
f 29/78/43 80/96/43 28/66/43
f 33/93/44 86/97/44 85/98/44
f 15/99/45 66/100/45 14/29/45
f 35/101/46 86/97/46 34/102/46
f 24/45/47 75/103/47 23/41/47
f 16/32/48 67/104/48 15/99/48
f 36/105/49 87/106/49 35/101/49
f 37/107/50 88/108/50 36/105/50
f 38/109/51 89/110/51 37/107/51
f 39/111/52 90/112/52 38/109/52
f 40/73/53 91/113/53 39/111/53
f 21/40/54 72/114/54 20/35/54
f 3/115/1 2/116/1 1/117/1
f 1/117/1 52/118/1 51/119/1
f 51/119/1 50/120/1 49/121/1
f 49/121/1 48/122/1 47/1/1
f 47/1/1 46/123/1 45/124/1
f 45/124/1 44/125/1 43/126/1
f 43/126/1 42/127/1 41/128/1
f 41/128/1 40/129/1 39/130/1
f 39/130/1 38/131/1 37/132/1
f 37/132/1 36/133/1 35/134/1
f 35/134/1 34/135/1 33/136/1
f 33/136/1 32/137/1 31/2/1
f 31/2/1 30/138/1 29/139/1
f 29/139/1 28/140/1 27/141/1
f 27/141/1 26/142/1 25/143/1
f 25/143/1 24/144/1 23/145/1
f 23/145/1 22/146/1 21/147/1
f 21/147/1 20/148/1 19/149/1
f 19/149/1 18/150/1 17/151/1
f 17/151/1 16/152/1 15/3/1
f 15/3/1 14/153/1 13/154/1
f 13/154/1 12/155/1 11/156/1
f 11/156/1 10/157/1 9/158/1
f 9/158/1 8/159/1 7/160/1
f 7/160/1 6/161/1 5/162/1
f 5/162/1 4/163/1 3/115/1
f 3/115/1 1/117/1 51/119/1
f 51/119/1 49/121/1 47/1/1
f 47/1/1 45/124/1 43/126/1
f 43/126/1 41/128/1 39/130/1
f 39/130/1 37/132/1 35/134/1
f 35/134/1 33/136/1 31/2/1
f 31/2/1 29/139/1 27/141/1
f 27/141/1 25/143/1 23/145/1
f 23/145/1 21/147/1 19/149/1
f 19/149/1 17/151/1 15/3/1
f 15/3/1 13/154/1 11/156/1
f 11/156/1 9/158/1 7/160/1
f 7/160/1 5/162/1 3/115/1
f 3/115/1 51/119/1 47/1/1
f 47/1/1 43/126/1 39/130/1
f 39/130/1 35/134/1 31/2/1
f 31/2/1 27/141/1 23/145/1
f 23/145/1 19/149/1 15/3/1
f 15/3/1 11/156/1 7/160/1
f 7/160/1 3/115/1 47/1/1
f 47/1/1 39/130/1 31/2/1
f 31/2/1 23/145/1 15/3/1
f 15/3/1 7/160/1 47/1/1
f 53/164/2 54/165/2 55/166/2
f 55/166/2 56/167/2 57/168/2
f 57/168/2 58/169/2 59/170/2
f 59/170/2 60/171/2 61/4/2
f 61/4/2 62/172/2 63/173/2
f 63/173/2 64/174/2 65/175/2
f 65/175/2 66/176/2 67/177/2
f 67/177/2 68/178/2 69/179/2
f 69/179/2 70/180/2 71/181/2
f 71/181/2 72/182/2 73/183/2
f 73/183/2 74/184/2 75/185/2
f 75/185/2 76/186/2 77/5/2
f 77/5/2 78/187/2 79/188/2
f 79/188/2 80/189/2 81/190/2
f 81/190/2 82/191/2 83/192/2
f 83/192/2 84/193/2 85/194/2
f 85/194/2 86/195/2 87/196/2
f 87/196/2 88/197/2 89/198/2
f 89/198/2 90/199/2 91/200/2
f 91/200/55 92/201/55 93/6/55
f 93/6/2 94/202/2 95/203/2
f 95/203/2 96/204/2 97/205/2
f 97/205/2 98/206/2 99/207/2
f 99/207/2 100/208/2 101/209/2
f 101/209/2 102/210/2 103/211/2
f 103/211/2 104/212/2 53/164/2
f 53/164/2 55/166/2 57/168/2
f 57/168/2 59/170/2 61/4/2
f 61/4/2 63/173/2 65/175/2
f 65/175/2 67/177/2 69/179/2
f 69/179/2 71/181/2 73/183/2
f 73/183/2 75/185/2 77/5/2
f 77/5/2 79/188/2 81/190/2
f 81/190/2 83/192/2 85/194/2
f 85/194/2 87/196/2 89/198/2
f 89/198/2 91/200/2 93/6/2
f 93/6/2 95/203/2 97/205/2
f 97/205/2 99/207/2 101/209/2
f 101/209/2 103/211/2 53/164/2
f 53/164/2 57/168/2 61/4/2
f 61/4/2 65/175/2 69/179/2
f 69/179/2 73/183/2 77/5/2
f 77/5/2 81/190/2 85/194/2
f 85/194/2 89/198/2 93/6/2
f 93/6/2 97/205/2 101/209/2
f 101/209/2 53/164/2 61/4/2
f 61/4/2 69/179/2 77/5/2
f 77/5/2 85/194/2 93/6/2
f 93/6/2 101/209/2 61/4/2
f 18/7/3 70/34/3 69/8/3
f 2/10/4 54/14/4 53/11/4
f 3/13/5 55/16/5 54/14/5
f 4/15/6 56/18/6 55/16/6
f 4/15/7 5/20/7 57/17/7
f 6/19/8 58/213/8 57/17/8
f 7/21/9 59/25/9 58/22/9
f 8/24/10 60/71/10 59/25/10
f 13/26/11 65/30/11 64/27/11
f 14/29/56 66/100/56 65/30/56
f 17/9/13 69/8/13 68/31/13
f 19/33/14 71/214/14 70/34/14
f 20/35/15 72/114/15 71/36/15
f 22/38/16 74/42/16 73/39/16
f 23/41/17 75/103/17 74/42/17
f 25/43/18 77/47/18 76/44/18
f 26/46/19 78/49/19 77/47/19
f 27/48/20 79/67/20 78/49/20
f 43/50/21 95/54/21 94/51/21
f 44/53/22 96/58/22 95/54/22
f 1/12/23 53/11/23 104/55/23
f 45/57/24 97/215/24 96/58/24
f 45/59/25 46/63/25 98/60/25
f 47/62/26 99/69/26 98/60/26
f 42/52/27 94/51/27 93/64/27
f 28/66/28 80/96/28 79/67/28
f 48/68/29 100/75/29 99/69/29
f 9/70/30 61/77/30 60/71/30
f 41/65/31 93/64/31 92/72/31
f 49/74/32 101/82/32 100/75/32
f 10/76/33 62/84/33 61/77/33
f 29/78/34 30/86/34 82/79/34
f 50/81/35 102/88/35 101/82/35
f 11/83/36 63/89/36 62/84/36
f 31/85/57 83/91/57 82/79/57
f 51/87/38 103/92/38 102/88/38
f 12/28/39 64/27/39 63/89/39
f 32/90/40 84/216/40 83/91/40
f 52/56/41 104/55/41 103/92/41
f 33/93/42 85/98/42 84/94/42
f 29/78/43 81/80/43 80/96/43
f 33/93/44 34/102/44 86/97/44
f 15/99/45 67/104/45 66/100/45
f 35/101/46 87/106/46 86/97/46
f 24/45/47 76/44/47 75/103/47
f 16/32/48 68/31/48 67/104/48
f 36/105/49 88/108/49 87/106/49
f 37/107/50 89/110/50 88/108/50
f 38/109/58 90/112/58 89/110/58
f 39/111/52 91/113/52 90/112/52
f 40/73/53 92/72/53 91/113/53
f 21/40/54 73/39/54 72/114/54
