# Blender 4.0.2
# www.blender.org
mtllib Counters.mtl
o Counters
v -2.108463 0.184625 -1.677387
v 2.108463 0.184625 -1.677387
v 2.159706 0.184625 -1.673000
v 2.202429 0.184625 -1.660870
v 2.237408 0.184625 -1.642545
v 2.265417 0.184625 -1.619576
v 2.287231 0.184625 -1.593508
v 2.303623 0.184625 -1.565893
v 2.315369 0.184625 -1.538277
v 2.323242 0.184625 -1.512210
v 2.328018 0.184625 -1.489240
v 2.330471 0.184625 -1.470915
v 2.331374 0.184625 -1.458784
v 2.331504 0.184625 -1.454397
v 2.331504 0.184625 1.452707
v 2.327115 0.184625 1.503938
v 2.314982 0.184625 1.546652
v 2.296654 0.184625 1.581623
v 2.273678 0.184625 1.609627
v 2.247605 0.184625 1.631435
v 2.219983 0.184625 1.647824
v 2.192362 0.184625 1.659567
v 2.166289 0.184625 1.667438
v 2.143314 0.184625 1.672213
v 2.124985 0.184625 1.674666
v 2.112852 0.184625 1.675569
v 2.108463 0.184625 1.675697
v -2.108463 0.184625 1.675697
v -2.159706 0.184625 1.671310
v -2.202429 0.184625 1.659180
v -2.237408 0.184625 1.640855
v -2.265417 0.184625 1.617885
v -2.287231 0.184625 1.591818
v -2.303624 0.184625 1.564202
v -2.315369 0.184625 1.536586
v -2.323243 0.184625 1.510519
v -2.328019 0.184625 1.487549
v -2.330471 0.184625 1.469225
v -2.331375 0.184625 1.457095
v -2.331504 0.184625 1.452707
v -2.331504 0.184625 -1.454397
v -2.327115 0.184625 -1.505628
v -2.314982 0.184625 -1.548342
v -2.296653 0.184625 -1.583313
v -2.273678 0.184625 -1.611317
v -2.247605 0.184625 -1.633125
v -2.219983 0.184625 -1.649514
v -2.192362 0.184625 -1.661257
v -2.166288 0.184625 -1.669129
v -2.143313 0.184625 -1.673903
v -2.124985 0.184625 -1.676355
v -2.112852 0.184625 -1.677259
v -2.108463 -0.184625 -1.677387
v 2.108463 -0.184625 -1.677387
v 2.159706 -0.184625 -1.673000
v 2.202429 -0.184625 -1.660870
v 2.237408 -0.184625 -1.642545
v 2.265417 -0.184625 -1.619576
v 2.287231 -0.184625 -1.593508
v 2.303623 -0.184625 -1.565893
v 2.315369 -0.184625 -1.538277
v 2.323242 -0.184625 -1.512210
v 2.328018 -0.184625 -1.489240
v 2.330471 -0.184625 -1.470915
v 2.331374 -0.184625 -1.458784
v 2.331504 -0.184625 -1.454397
v 2.331504 -0.184625 1.452707
v 2.327115 -0.184625 1.503938
v 2.314982 -0.184625 1.546652
v 2.296654 -0.184625 1.581623
v 2.273678 -0.184625 1.609627
v 2.247605 -0.184625 1.631435
v 2.219983 -0.184625 1.647824
v 2.192362 -0.184625 1.659567
v 2.166289 -0.184625 1.667438
v 2.143314 -0.184625 1.672213
v 2.124985 -0.184625 1.674666
v 2.112852 -0.184625 1.675569
v 2.108463 -0.184625 1.675697
v -2.108463 -0.184625 1.675697
v -2.159706 -0.184625 1.671310
v -2.202429 -0.184625 1.659180
v -2.237408 -0.184625 1.640855
v -2.265417 -0.184625 1.617885
v -2.287231 -0.184625 1.591818
v -2.303624 -0.184625 1.564202
v -2.315369 -0.184625 1.536586
v -2.323243 -0.184625 1.510519
v -2.328019 -0.184625 1.487549
v -2.330471 -0.184625 1.469225
v -2.331375 -0.184625 1.457095
v -2.331504 -0.184625 1.452707
v -2.331504 -0.184625 -1.454397
v -2.327115 -0.184625 -1.505628
v -2.314982 -0.184625 -1.548342
v -2.296653 -0.184625 -1.583313
v -2.273678 -0.184625 -1.611317
v -2.247605 -0.184625 -1.633125
v -2.219983 -0.184625 -1.649514
v -2.192362 -0.184625 -1.661257
v -2.166288 -0.184625 -1.669129
v -2.143313 -0.184625 -1.673903
v -2.124985 -0.184625 -1.676355
v -2.112852 -0.184625 -1.677259
vn -0.0000 1.0000 -0.0000
vn -0.0000 -1.0000 -0.0000
vn 0.8857 -0.0000 0.4642
vn -0.0000 -0.0000 -1.0000
vn 0.0853 -0.0000 -0.9964
vn 0.2731 -0.0000 -0.9620
vn 0.4641 -0.0000 -0.8858
vn 0.6341 -0.0000 -0.7732
vn 0.7669 -0.0000 -0.6418
vn 0.8599 -0.0000 -0.5104
vn 0.9972 -0.0000 -0.0743
vn 0.9996 -0.0000 -0.0296
vn 0.9619 -0.0000 0.2732
vn 0.7731 -0.0000 0.6343
vn 0.6416 -0.0000 0.7670
vn 0.3912 -0.0000 0.9203
vn 0.2890 -0.0000 0.9573
vn 0.1326 -0.0000 0.9912
vn 0.0742 -0.0000 0.9972
vn 0.0292 -0.0000 0.9996
vn -0.9619 -0.0000 -0.2732
vn -0.8857 -0.0000 -0.4642
vn -0.0293 -0.0000 -0.9996
vn -0.7731 -0.0000 -0.6343
vn -0.6416 -0.0000 -0.7670
vn -0.5103 -0.0000 -0.8600
vn -0.9964 -0.0000 -0.0853
vn -0.0000 -0.0000 1.0000
vn -0.3912 -0.0000 -0.9203
vn 0.9202 -0.0000 -0.3914
vn -1.0000 -0.0000 -0.0000
vn -0.2890 -0.0000 -0.9573
vn 0.9573 -0.0000 -0.2892
vn -0.2731 -0.0000 0.9620
vn -0.2034 -0.0000 -0.9791
vn 0.9791 -0.0000 -0.2036
vn -0.4641 -0.0000 0.8858
vn -0.1326 -0.0000 -0.9912
vn 0.9912 -0.0000 -0.1326
vn -0.6341 -0.0000 0.7732
vn -0.0742 -0.0000 -0.9972
vn -0.7669 -0.0000 0.6418
vn -0.0853 -0.0000 0.9964
vn -0.8599 -0.0000 0.5104
vn 1.0000 -0.0000 -0.0000
vn -0.9202 -0.0000 0.3914
vn 0.2035 -0.0000 0.9791
vn 0.9964 -0.0000 0.0853
vn -0.9573 -0.0000 0.2892
vn -0.9791 -0.0000 0.2036
vn -0.9912 -0.0000 0.1327
vn -0.9972 -0.0000 0.0742
vn -0.9996 -0.0000 0.0293
vn 0.5103 -0.0000 0.8600
vn -0.0001 -1.0000 -0.0000
vn 0.0002 -1.0000 -0.0000
vn 0.7669 -0.0000 -0.6417
vn -0.9619 -0.0000 -0.2733
vn -0.9964 -0.0000 -0.0854
vn -0.2035 -0.0000 -0.9791
vn 0.9912 -0.0000 -0.1327
vn 0.9964 -0.0000 0.0854
vn -0.9791 -0.0000 0.2035
vn -0.9972 -0.0000 0.0743
vn -0.9996 -0.0000 0.0295
vt 0.430962 0.589893
vt 0.004516 0.592152
vt 0.028900 -0.000000
vt 0.851121 0.602256
vt 0.434709 0.577581
vt 0.840249 -0.000000
vt 0.869150 0.583260
vt 0.917006 0.587289
vt 0.869150 0.587289
vt 0.869150 0.016318
vt 0.917006 0.561256
vt 0.869150 0.561256
vt 0.869150 0.009740
vt 0.917006 0.016318
vt 0.869150 0.004339
vt 0.917006 0.009740
vt 0.917006 -0.000000
vt 0.917006 0.004339
vt 0.869150 0.992065
vt 0.917006 0.995648
vt 0.869150 0.995648
vt 0.869150 0.988231
vt 0.917006 0.992065
vt 0.869150 0.984327
vt 0.917006 0.988231
vt 0.869150 0.970024
vt 0.917006 0.971592
vt 0.869150 0.971592
vt 0.869150 0.969462
vt 0.917006 0.970024
vt 0.917006 0.592450
vt 0.869150 0.592450
vt 0.917006 0.575792
vt 0.964863 0.579376
vt 0.917006 0.579376
vt 0.917006 0.571959
vt 0.964863 0.575792
vt 0.917006 0.564259
vt 0.964863 0.568054
vt 0.917006 0.568054
vt 0.917006 0.560751
vt 0.964863 0.564259
vt 0.917006 0.555317
vt 0.964863 0.557710
vt 0.917006 0.557710
vt 0.917006 0.553749
vt 0.964863 0.555317
vt 0.917006 0.553186
vt 0.964863 0.553749
vt 0.917006 0.587105
vt 0.964863 0.592505
vt 0.917006 0.592505
vt 0.917006 0.582767
vt 0.964863 0.587105
vt 0.917006 0.561824
vt 0.869150 0.561824
vt 0.917006 0.579376
vt 0.964863 0.582767
vt 0.869150 0.583260
vt 0.917006 0.579675
vt 0.917006 0.583260
vt 0.869150 0.575943
vt 0.869150 0.579675
vt 0.964863 0.599082
vt 0.917006 0.599082
vt 0.917006 0.015623
vt 0.964863 0.553186
vt 0.869150 0.572257
vt 0.917006 0.575943
vt 0.869150 0.980532
vt 0.917006 0.984327
vt 0.964863 0.974755
vt 0.917006 0.974755
vt 0.869150 0.568810
vt 0.917006 0.572257
vt 0.869150 0.977025
vt 0.917006 0.980532
vt 0.917006 0.009193
vt 0.964863 0.004031
vt 0.964863 0.009193
vt 0.869150 0.565794
vt 0.917006 0.568810
vt 0.869150 0.973985
vt 0.917006 0.977025
vt 0.917006 -0.000000
vt 0.917006 0.004031
vt 0.869150 0.563401
vt 0.917006 0.565794
vt 0.917006 0.973985
vt 0.917006 0.996754
vt 0.964863 1.000000
vt 0.917006 1.000000
vt 0.917006 0.563401
vt 0.917006 0.993170
vt 0.964863 0.996754
vt 0.964863 0.015623
vt 0.917006 0.989439
vt 0.964863 0.993170
vt 0.869150 0.598878
vt 0.917006 0.969462
vt 0.917006 0.985754
vt 0.964863 0.989439
vt 0.964863 0.560751
vt 0.917006 0.598878
vt 0.917006 0.982308
vt 0.964863 0.985754
vt 0.917006 0.979292
vt 0.964863 0.982308
vt 0.964863 0.976900
vt 0.964863 0.979292
vt 0.917006 0.975323
vt 0.917006 0.976900
vt 0.964863 0.975323
vt 0.964863 0.571959
vt 0.434006 0.022266
vt 0.434575 0.028907
vt 0.434575 0.575440
vt 0.434558 0.576008
vt 0.434441 0.577581
vt 0.434123 0.579956
vt 0.433505 0.582934
vt 0.432484 0.586313
vt 0.428838 0.593473
vt 0.426012 0.596852
vt 0.422382 0.599830
vt 0.417850 0.602206
vt 0.412314 0.603778
vt 0.405674 0.604347
vt 0.028901 0.604347
vt 0.028332 0.604330
vt 0.026760 0.604213
vt 0.024385 0.603895
vt 0.021408 0.603276
vt 0.018029 0.602256
vt 0.014450 0.600733
vt 0.010871 0.598609
vt 0.007493 0.595782
vt 0.002141 0.587618
vt 0.000569 0.582081
vt 0.000000 0.575440
vt -0.000000 0.028907
vt 0.000017 0.028338
vt 0.000134 0.026766
vt 0.000452 0.024390
vt 0.001070 0.021413
vt 0.002091 0.018033
vt 0.003612 0.014454
vt 0.005737 0.010874
vt 0.008563 0.007494
vt 0.012192 0.004517
vt 0.016725 0.002141
vt 0.022261 0.000569
vt 0.405674 -0.000000
vt 0.406243 0.000017
vt 0.407815 0.000134
vt 0.410190 0.000452
vt 0.413167 0.001071
vt 0.416546 0.002091
vt 0.420125 0.003613
vt 0.423704 0.005738
vt 0.427082 0.008565
vt 0.430059 0.012195
vt 0.432434 0.016729
vt 0.869150 0.028907
vt 0.869150 0.575440
vt 0.868581 0.582081
vt 0.867009 0.587618
vt 0.864634 0.592152
vt 0.861657 0.595782
vt 0.858279 0.598609
vt 0.854700 0.600733
vt 0.847742 0.603276
vt 0.844765 0.603895
vt 0.842390 0.604213
vt 0.840818 0.604330
vt 0.840249 0.604347
vt 0.463476 0.604347
vt 0.456836 0.603778
vt 0.451300 0.602206
vt 0.446767 0.599830
vt 0.443138 0.596852
vt 0.440312 0.593473
vt 0.438188 0.589893
vt 0.436666 0.586313
vt 0.435645 0.582934
vt 0.435027 0.579957
vt 0.434592 0.576009
vt 0.434575 0.575440
vt 0.434575 0.028907
vt 0.435144 0.022266
vt 0.436716 0.016729
vt 0.439091 0.012195
vt 0.442068 0.008565
vt 0.445446 0.005738
vt 0.449025 0.003613
vt 0.452604 0.002091
vt 0.455983 0.001071
vt 0.458960 0.000452
vt 0.461335 0.000134
vt 0.462907 0.000017
vt 0.463475 0.000000
vt 0.846889 0.000569
vt 0.852425 0.002141
vt 0.856957 0.004517
vt 0.860587 0.007494
vt 0.863413 0.010874
vt 0.865537 0.014454
vt 0.867059 0.018033
vt 0.868080 0.021413
vt 0.868698 0.024390
vt 0.869016 0.026766
vt 0.869133 0.028338
vt 0.917006 0.583260
vt 0.869150 -0.000000
vt 0.964863 0.579376
vt 0.964863 -0.000000
s 0
usemtl Tile
f 47/1/1 31/2/1 15/3/1
f 61/4/2 77/5/2 93/6/2
f 18/7/3 69/8/3 17/9/3
f 2/10/4 53/11/4 1/12/4
f 3/13/5 54/14/5 2/10/5
f 4/15/6 55/16/6 3/13/6
f 4/15/7 57/17/7 56/18/7
f 6/19/8 57/20/8 5/21/8
f 7/22/9 58/23/9 6/19/9
f 8/24/10 59/25/10 7/22/10
f 13/26/11 64/27/11 12/28/11
f 14/29/12 65/30/12 13/26/12
f 17/9/13 68/31/13 16/32/13
f 19/33/14 70/34/14 18/35/14
f 20/36/15 71/37/15 19/33/15
f 22/38/16 73/39/16 21/40/16
f 23/41/17 74/42/17 22/38/17
f 25/43/18 76/44/18 24/45/18
f 26/46/19 77/47/19 25/43/19
f 27/48/20 78/49/20 26/46/20
f 43/50/21 94/51/21 42/52/21
f 44/53/22 95/54/22 43/50/22
f 1/12/23 104/55/23 52/56/23
f 45/57/24 96/58/24 44/53/24
f 45/59/25 98/60/25 97/61/25
f 47/62/26 98/60/26 46/63/26
f 42/52/27 93/64/27 41/65/27
f 28/66/28 79/67/28 27/48/28
f 48/68/29 99/69/29 47/62/29
f 9/70/30 60/71/30 8/24/30
f 41/65/31 92/72/31 40/73/31
f 49/74/32 100/75/32 48/68/32
f 10/76/33 61/77/33 9/70/33
f 29/78/34 82/79/34 81/80/34
f 50/81/35 101/82/35 49/74/35
f 11/83/36 62/84/36 10/76/36
f 31/85/37 82/79/37 30/86/37
f 51/87/38 102/88/38 50/81/38
f 12/28/39 63/89/39 11/83/39
f 32/90/40 83/91/40 31/92/40
f 52/56/41 103/93/41 51/87/41
f 33/94/42 84/95/42 32/90/42
f 29/78/43 80/96/43 28/66/43
f 34/97/44 85/98/44 33/94/44
f 15/99/45 66/100/45 14/29/45
f 35/101/46 86/102/46 34/97/46
f 24/45/47 75/103/47 23/41/47
f 16/32/48 67/104/48 15/99/48
f 36/105/49 87/106/49 35/101/49
f 37/107/50 88/108/50 36/105/50
f 37/107/51 90/109/51 89/110/51
f 39/111/52 90/109/52 38/112/52
f 40/73/53 91/113/53 39/111/53
f 21/40/54 72/114/54 20/36/54
f 3/115/1 2/116/1 1/117/1
f 1/117/1 52/118/1 51/119/1
f 51/119/1 50/120/1 49/121/1
f 49/121/1 48/122/1 47/1/1
f 47/1/1 46/123/1 45/124/1
f 45/124/1 44/125/1 43/126/1
f 43/126/1 42/127/1 41/128/1
f 41/128/1 40/129/1 39/130/1
f 39/130/1 38/131/1 37/132/1
f 37/132/1 36/133/1 35/134/1
f 35/134/1 34/135/1 33/136/1
f 33/136/1 32/137/1 31/2/1
f 31/2/1 30/138/1 29/139/1
f 29/139/1 28/140/1 27/141/1
f 27/141/1 26/142/1 25/143/1
f 25/143/1 24/144/1 23/145/1
f 23/145/1 22/146/1 21/147/1
f 21/147/1 20/148/1 19/149/1
f 19/149/1 18/150/1 17/151/1
f 17/151/1 16/152/1 15/3/1
f 15/3/1 14/153/1 13/154/1
f 13/154/1 12/155/1 11/156/1
f 11/156/1 10/157/1 9/158/1
f 9/158/1 8/159/1 7/160/1
f 7/160/1 6/161/1 5/162/1
f 5/162/1 4/163/1 3/115/1
f 3/115/1 1/117/1 51/119/1
f 51/119/1 49/121/1 47/1/1
f 47/1/1 45/124/1 43/126/1
f 43/126/1 41/128/1 39/130/1
f 39/130/1 37/132/1 35/134/1
f 35/134/1 33/136/1 31/2/1
f 31/2/1 29/139/1 27/141/1
f 27/141/1 25/143/1 23/145/1
f 23/145/1 21/147/1 19/149/1
f 19/149/1 17/151/1 15/3/1
f 15/3/1 13/154/1 11/156/1
f 11/156/1 9/158/1 7/160/1
f 7/160/1 5/162/1 3/115/1
f 3/115/1 51/119/1 47/1/1
f 47/1/1 43/126/1 39/130/1
f 39/130/1 35/134/1 31/2/1
f 31/2/1 27/141/1 23/145/1
f 23/145/1 19/149/1 15/3/1
f 15/3/1 11/156/1 7/160/1
f 7/160/1 3/115/1 47/1/1
f 47/1/1 39/130/1 31/2/1
f 31/2/1 23/145/1 15/3/1
f 15/3/1 7/160/1 47/1/1
f 53/164/2 54/165/2 55/166/2
f 55/166/2 56/167/2 57/168/2
f 57/168/2 58/169/2 59/170/2
f 59/170/2 60/171/2 61/4/2
f 61/4/2 62/172/2 63/173/2
f 63/173/2 64/174/2 65/175/2
f 65/175/2 66/176/2 67/177/2
f 67/177/2 68/178/2 69/179/2
f 69/179/2 70/180/2 71/181/2
f 71/181/2 72/182/2 73/183/2
f 73/183/2 74/184/2 75/185/2
f 75/185/2 76/186/2 77/5/2
f 77/5/2 78/187/2 79/188/2
f 79/188/2 80/189/2 81/190/2
f 81/190/2 82/191/2 83/192/2
f 83/192/2 84/193/2 85/194/2
f 85/194/2 86/195/2 87/196/2
f 87/196/2 88/197/2 89/198/2
f 89/198/55 90/199/55 91/200/55
f 91/200/56 92/201/56 93/6/56
f 93/6/2 94/202/2 95/203/2
f 95/203/2 96/204/2 97/205/2
f 97/205/2 98/206/2 99/207/2
f 99/207/2 100/208/2 101/209/2
f 101/209/2 102/210/2 103/211/2
f 103/211/2 104/212/2 53/164/2
f 53/164/2 55/166/2 57/168/2
f 57/168/2 59/170/2 61/4/2
f 61/4/2 63/173/2 65/175/2
f 65/175/2 67/177/2 69/179/2
f 69/179/2 71/181/2 73/183/2
f 73/183/2 75/185/2 77/5/2
f 77/5/2 79/188/2 81/190/2
f 81/190/2 83/192/2 85/194/2
f 85/194/2 87/196/2 89/198/2
f 89/198/2 91/200/2 93/6/2
f 93/6/2 95/203/2 97/205/2
f 97/205/2 99/207/2 101/209/2
f 101/209/2 103/211/2 53/164/2
f 53/164/2 57/168/2 61/4/2
f 61/4/2 65/175/2 69/179/2
f 69/179/2 73/183/2 77/5/2
f 77/5/2 81/190/2 85/194/2
f 85/194/2 89/198/2 93/6/2
f 93/6/2 97/205/2 101/209/2
f 101/209/2 53/164/2 61/4/2
f 61/4/2 69/179/2 77/5/2
f 77/5/2 85/194/2 93/6/2
f 93/6/2 101/209/2 61/4/2
f 18/7/3 70/213/3 69/8/3
f 2/10/4 54/14/4 53/11/4
f 3/13/5 55/16/5 54/14/5
f 4/15/6 56/18/6 55/16/6
f 4/15/7 5/214/7 57/17/7
f 6/19/8 58/23/8 57/20/8
f 7/22/57 59/25/57 58/23/57
f 8/24/10 60/71/10 59/25/10
f 13/26/11 65/30/11 64/27/11
f 14/29/12 66/100/12 65/30/12
f 17/9/13 69/8/13 68/31/13
f 19/33/14 71/37/14 70/34/14
f 20/36/15 72/114/15 71/37/15
f 22/38/16 74/42/16 73/39/16
f 23/41/17 75/103/17 74/42/17
f 25/43/18 77/47/18 76/44/18
f 26/46/19 78/49/19 77/47/19
f 27/48/20 79/67/20 78/49/20
f 43/50/58 95/54/58 94/51/58
f 44/53/22 96/58/22 95/54/22
f 1/12/23 53/11/23 104/55/23
f 45/57/24 97/215/24 96/58/24
f 45/59/25 46/63/25 98/60/25
f 47/62/26 99/69/26 98/60/26
f 42/52/59 94/51/59 93/64/59
f 28/66/28 80/96/28 79/67/28
f 48/68/29 100/75/29 99/69/29
f 9/70/30 61/77/30 60/71/30
f 41/65/31 93/64/31 92/72/31
f 49/74/32 101/82/32 100/75/32
f 10/76/33 62/84/33 61/77/33
f 29/78/34 30/86/34 82/79/34
f 50/81/60 102/88/60 101/82/60
f 11/83/36 63/89/36 62/84/36
f 31/85/37 83/216/37 82/79/37
f 51/87/38 103/93/38 102/88/38
f 12/28/61 64/27/61 63/89/61
f 32/90/40 84/95/40 83/91/40
f 52/56/41 104/55/41 103/93/41
f 33/94/42 85/98/42 84/95/42
f 29/78/43 81/80/43 80/96/43
f 34/97/44 86/102/44 85/98/44
f 15/99/45 67/104/45 66/100/45
f 35/101/46 87/106/46 86/102/46
f 24/45/47 76/44/47 75/103/47
f 16/32/62 68/31/62 67/104/62
f 36/105/49 88/108/49 87/106/49
f 37/107/63 89/110/63 88/108/63
f 37/107/51 38/112/51 90/109/51
f 39/111/64 91/113/64 90/109/64
f 40/73/65 92/72/65 91/113/65
f 21/40/54 73/39/54 72/114/54
