# Blender 4.0.2
# www.blender.org
mtllib Certification.mtl
o path24612
v -0.062599 0.043750 -0.748337
v -0.065177 0.043750 -0.748165
v -0.067649 0.043750 -0.747662
v -0.069990 0.043750 -0.746852
v -0.072180 0.043750 -0.745757
v -0.074195 0.043750 -0.744398
v -0.076014 0.043750 -0.742798
v -0.077614 0.043750 -0.740979
v -0.078973 0.043750 -0.738964
v -0.080068 0.043750 -0.736775
v -0.080879 0.043750 -0.734434
v -0.081381 0.043750 -0.731964
v -0.081554 0.043750 -0.729385
v -0.081554 0.043750 -0.576292
v -0.547371 0.043750 -0.576292
v -0.565348 0.043750 -0.575091
v -0.582575 0.043750 -0.571590
v -0.598897 0.043750 -0.565944
v -0.614159 0.043750 -0.558308
v -0.628207 0.043750 -0.548838
v -0.640884 0.043750 -0.537688
v -0.652036 0.043750 -0.525013
v -0.661508 0.043750 -0.510969
v -0.669145 0.043750 -0.495709
v -0.674792 0.043750 -0.479390
v -0.678294 0.043750 -0.462167
v -0.679496 0.043750 -0.444193
v -0.679496 0.043750 -0.426254
v -0.679496 0.043750 0.449590
v -0.679496 0.043750 0.467530
v -0.678294 0.043750 0.485503
v -0.674792 0.043750 0.502726
v -0.669145 0.043750 0.519045
v -0.661508 0.043750 0.534304
v -0.652036 0.043750 0.548349
v -0.640884 0.043750 0.561024
v -0.628207 0.043750 0.572174
v -0.614159 0.043750 0.581644
v -0.598897 0.043750 0.589280
v -0.582575 0.043750 0.594926
v -0.565348 0.043750 0.598427
v -0.547371 0.043750 0.599628
v 0.547351 0.043750 0.599628
v 0.565329 0.043750 0.598427
v 0.582557 0.043750 0.594926
v 0.598881 0.043750 0.589280
v 0.614145 0.043750 0.581644
v 0.628195 0.043750 0.572174
v 0.640875 0.043750 0.561024
v 0.652030 0.043750 0.548349
v 0.661504 0.043750 0.534304
v 0.669143 0.043750 0.519045
v 0.674792 0.043750 0.502726
v 0.678295 0.043750 0.485503
v 0.679497 0.043750 0.467530
v 0.679497 0.043750 0.449591
v 0.679497 0.043750 -0.426254
v 0.679497 0.043750 -0.444193
v 0.678295 0.043750 -0.462167
v 0.674792 0.043750 -0.479391
v 0.669143 0.043750 -0.495710
v 0.661504 0.043750 -0.510969
v 0.652030 0.043750 -0.525013
v 0.640875 0.043750 -0.537688
v 0.628195 0.043750 -0.548838
v 0.614145 0.043750 -0.558308
v 0.598881 0.043750 -0.565944
v 0.582557 0.043750 -0.571590
v 0.565329 0.043750 -0.575091
v 0.547351 0.043750 -0.576292
v 0.081555 0.043750 -0.576292
v 0.081555 0.043750 -0.729385
v 0.081383 0.043750 -0.731964
v 0.080880 0.043750 -0.734434
v 0.080070 0.043750 -0.736775
v 0.078974 0.043750 -0.738964
v 0.077615 0.043750 -0.740979
v 0.076015 0.043750 -0.742798
v 0.074196 0.043750 -0.744398
v 0.072181 0.043750 -0.745757
v 0.069991 0.043750 -0.746852
v 0.067650 0.043750 -0.747662
v 0.065179 0.043750 -0.748165
v 0.062600 0.043750 -0.748337
v -0.062599 -0.043750 -0.748337
v -0.065177 -0.043750 -0.748165
v -0.067649 -0.043750 -0.747662
v -0.069990 -0.043750 -0.746852
v -0.072180 -0.043750 -0.745757
v -0.074195 -0.043750 -0.744398
v -0.076014 -0.043750 -0.742798
v -0.077614 -0.043750 -0.740979
v -0.078973 -0.043750 -0.738964
v -0.080068 -0.043750 -0.736775
v -0.080879 -0.043750 -0.734434
v -0.081381 -0.043750 -0.731964
v -0.081554 -0.043750 -0.729385
v -0.081554 -0.043750 -0.576292
v -0.547371 -0.043750 -0.576292
v -0.565348 -0.043750 -0.575091
v -0.582575 -0.043750 -0.571590
v -0.598897 -0.043750 -0.565944
v -0.614159 -0.043750 -0.558308
v -0.628207 -0.043750 -0.548838
v -0.640884 -0.043750 -0.537688
v -0.652036 -0.043750 -0.525013
v -0.661508 -0.043750 -0.510969
v -0.669145 -0.043750 -0.495709
v -0.674792 -0.043750 -0.479390
v -0.678294 -0.043750 -0.462167
v -0.679496 -0.043750 -0.444193
v -0.679496 -0.043750 -0.426254
v -0.679496 -0.043750 0.449590
v -0.679496 -0.043750 0.467530
v -0.678294 -0.043750 0.485503
v -0.674792 -0.043750 0.502726
v -0.669145 -0.043750 0.519045
v -0.661508 -0.043750 0.534304
v -0.652036 -0.043750 0.548349
v -0.640884 -0.043750 0.561024
v -0.628207 -0.043750 0.572174
v -0.614159 -0.043750 0.581644
v -0.598897 -0.043750 0.589280
v -0.582575 -0.043750 0.594926
v -0.565348 -0.043750 0.598427
v -0.547371 -0.043750 0.599628
v 0.547351 -0.043750 0.599628
v 0.565329 -0.043750 0.598427
v 0.582557 -0.043750 0.594926
v 0.598881 -0.043750 0.589280
v 0.614145 -0.043750 0.581644
v 0.628195 -0.043750 0.572174
v 0.640875 -0.043750 0.561024
v 0.652030 -0.043750 0.548349
v 0.661504 -0.043750 0.534304
v 0.669143 -0.043750 0.519045
v 0.674792 -0.043750 0.502726
v 0.678295 -0.043750 0.485503
v 0.679497 -0.043750 0.467530
v 0.679497 -0.043750 0.449591
v 0.679497 -0.043750 -0.426254
v 0.679497 -0.043750 -0.444193
v 0.678295 -0.043750 -0.462167
v 0.674792 -0.043750 -0.479391
v 0.669143 -0.043750 -0.495710
v 0.661504 -0.043750 -0.510969
v 0.652030 -0.043750 -0.525013
v 0.640875 -0.043750 -0.537688
v 0.628195 -0.043750 -0.548838
v 0.614145 -0.043750 -0.558308
v 0.598881 -0.043750 -0.565944
v 0.582557 -0.043750 -0.571590
v 0.565329 -0.043750 -0.575091
v 0.547351 -0.043750 -0.576292
v 0.081555 -0.043750 -0.576292
v 0.081555 -0.043750 -0.729385
v 0.081383 -0.043750 -0.731964
v 0.080880 -0.043750 -0.734434
v 0.080070 -0.043750 -0.736775
v 0.078974 -0.043750 -0.738964
v 0.077615 -0.043750 -0.740979
v 0.076015 -0.043750 -0.742798
v 0.074196 -0.043750 -0.744398
v 0.072181 -0.043750 -0.745757
v 0.069991 -0.043750 -0.746852
v 0.067650 -0.043750 -0.747662
v 0.065179 -0.043750 -0.748165
v 0.062600 -0.043750 -0.748337
vn -0.0000 1.0000 -0.0000
vn -0.0000 -1.0000 -0.0000
vn -0.0667 -0.0000 -0.9978
vn -0.5591 -0.0000 -0.8291
vn -0.8942 -0.0000 -0.4476
vn -0.0000 -0.0000 -1.0000
vn -0.4474 -0.0000 -0.8943
vn -0.8291 -0.0000 -0.5592
vn -0.9978 -0.0000 -0.0667
vn -1.0000 -0.0000 -0.0000
vn -0.8943 -0.0000 0.4476
vn -0.5590 -0.0000 0.8292
vn -0.0667 -0.0000 0.9978
vn 0.4474 -0.0000 0.8943
vn 0.8290 -0.0000 0.5593
vn 0.9978 -0.0000 0.0667
vn 0.0667 -0.0000 -0.9978
vn 0.9450 -0.0000 -0.3271
vn 0.6605 -0.0000 -0.7509
vn 0.1992 -0.0000 -0.9800
vn 0.0667 -0.0000 0.9978
vn 0.5589 -0.0000 0.8292
vn 1.0000 -0.0000 -0.0000
vn -0.1992 -0.0000 -0.9800
vn -0.6605 -0.0000 -0.7509
vn -0.9450 -0.0000 -0.3271
vn 0.8942 -0.0000 -0.4477
vn -0.5590 -0.0000 -0.8292
vn 0.8942 -0.0000 0.4477
vn 0.3269 -0.0000 -0.9451
vn -0.8291 -0.0000 0.5592
vn -0.4474 -0.0000 0.8943
vn 0.9799 -0.0000 -0.1993
vn 0.5589 -0.0000 -0.8292
vn 0.9978 -0.0000 -0.0667
vn 0.8290 -0.0000 -0.5593
vn 0.4474 -0.0000 -0.8943
vn 0.7508 -0.0000 -0.6606
vn -0.9978 -0.0000 0.0667
vn 0.3270 -0.0000 -0.9450
vn -0.3270 -0.0000 -0.9450
vn -0.7508 -0.0000 -0.6606
vn -0.9799 -0.0000 -0.1993
vn -0.6604 -0.0000 -0.7509
vn -0.9450 -0.0000 -0.3270
vn -0.9799 -0.0000 0.1992
vn -0.7508 -0.0000 0.6606
vn -0.3269 -0.0000 0.9451
vn 0.1992 -0.0000 0.9800
vn 0.6604 -0.0000 0.7510
vn 0.9450 -0.0000 0.3271
vn 0.8290 -0.0000 -0.5592
vn 0.4475 -0.0000 -0.8943
vn 0.3269 -0.0000 0.9451
vn -0.4475 -0.0000 -0.8943
vn -0.8290 -0.0000 -0.5592
vn 0.7507 -0.0000 0.6607
vn -0.3269 -0.0000 -0.9451
vn -0.9800 -0.0000 -0.1992
vn -0.9450 -0.0000 0.3270
vn 0.7507 -0.0000 -0.6607
vn -0.6604 -0.0000 0.7509
vn -0.1992 -0.0000 0.9800
vn 0.9799 -0.0000 0.1993
vn -0.0000 -0.0000 1.0000
vn 0.8942 -0.0000 -0.4476
vn 0.6604 -0.0000 -0.7510
vn 0.5591 -0.0000 -0.8291
vn -0.0001 -1.0000 -0.0000
vn -0.8942 -0.0000 0.4476
vn -0.8943 -0.0000 -0.4476
vn -0.9800 -0.0000 0.1992
vn -0.9799 -0.0000 -0.1992
vt 0.464056 0.001745
vt 0.063816 0.282296
vt 0.000064 0.276222
vt 0.563816 0.221794
vt 0.985680 0.014326
vt 0.970109 0.500251
vt 0.000000 0.555823
vt 0.032456 0.556755
vt 0.000000 0.556755
vt 0.000000 0.559167
vt 0.032456 0.559819
vt 0.000000 0.559819
vt 0.370175 0.506220
vt 0.402631 0.507058
vt 0.370175 0.507058
vt 0.402631 0.504090
vt 0.435087 0.674439
vt 0.402631 0.674439
vt 0.402631 0.692640
vt 0.435087 0.697747
vt 0.402631 0.697747
vt 0.467544 0.513502
vt 0.500000 0.518936
vt 0.467544 0.518936
vt 0.467544 0.537415
vt 0.500000 0.544097
vt 0.467544 0.544097
vt 0.467544 0.874878
vt 0.500000 0.881517
vt 0.467544 0.881517
vt 0.467544 0.900325
vt 0.500000 0.905781
vt 0.467544 0.905781
vt 0.500000 0.509028
vt 0.532456 0.514437
vt 0.500000 0.514437
vt 0.500000 0.532878
vt 0.532456 0.539561
vt 0.500000 0.539561
vt 0.500000 0.963773
vt 0.532456 0.969258
vt 0.500000 0.969258
vt 0.435087 0.508667
vt 0.467544 0.513771
vt 0.435087 0.513771
vt 0.435087 0.531681
vt 0.467544 0.538331
vt 0.435087 0.538331
vt 0.532456 0.545554
vt 0.564913 0.538905
vt 0.564913 0.545554
vt 0.337718 0.562732
vt 0.370175 0.563608
vt 0.337718 0.563608
vt -0.000000 0.504788
vt 0.032456 0.505553
vt -0.000000 0.505553
vt -0.000000 0.508149
vt 0.032456 0.509084
vt -0.000000 0.509084
vt 0.500000 0.944919
vt 0.532456 0.951549
vt 0.500000 0.951549
vt 0.532456 0.974253
vt 0.500000 0.974253
vt 0.435087 0.869717
vt 0.467544 0.876368
vt 0.435087 0.876368
vt 0.000000 0.557628
vt 0.032456 0.557628
vt 0.370175 0.504090
vt 0.402631 0.504728
vt 0.370175 0.504728
vt 0.402631 0.507944
vt 0.370175 0.507944
vt 0.435087 0.680939
vt 0.402631 0.680939
vt 0.435087 0.895582
vt 0.467544 0.901324
vt 0.435087 0.901324
vt 0.435087 0.702296
vt 0.402631 0.702296
vt 0.500000 0.524773
vt 0.467544 0.524773
vt 0.467544 0.519345
vt 0.435087 0.519345
vt 0.500000 0.550736
vt 0.467544 0.550736
vt 0.532456 0.532387
vt 0.564913 0.526067
vt 0.564913 0.532387
vt 0.500000 0.910743
vt 0.467544 0.910743
vt 0.532456 0.520255
vt 0.500000 0.520255
vt 0.337718 0.561810
vt 0.370175 0.562732
vt 0.532456 0.514286
vt 0.564913 0.520011
vt 0.532456 0.520011
vt 0.467544 0.883046
vt 0.435087 0.883046
vt 0.467544 0.906635
vt 0.435087 0.906635
vt 0.532456 0.526067
vt -0.000000 0.504090
vt 0.032456 0.504788
vt 0.500000 0.888139
vt 0.467544 0.888139
vt -0.000000 0.507243
vt 0.032456 0.508149
vt 0.032456 0.558434
vt 0.000000 0.558434
vt 0.402631 0.505441
vt 0.370175 0.505441
vt 0.402631 0.508871
vt 0.370175 0.508871
vt 0.435087 0.687021
vt 0.402631 0.687021
vt 0.467544 0.504090
vt 0.500000 0.508533
vt 0.467544 0.508533
vt 0.500000 0.530953
vt 0.467544 0.530953
vt 0.500000 0.894426
vt 0.467544 0.894426
vt 0.500000 0.915156
vt 0.467544 0.915156
vt 0.532456 0.526423
vt 0.500000 0.526423
vt 0.532456 0.957852
vt 0.500000 0.957852
vt 0.532456 0.978705
vt 0.500000 0.978705
vt 0.467544 0.525333
vt 0.435087 0.525333
vt 0.337718 0.560852
vt 0.370175 0.561810
vt 0.337718 0.564432
vt 0.370175 0.565194
vt 0.337718 0.565194
vt -0.000000 0.506374
vt 0.032456 0.507243
vt 0.467544 0.544983
vt 0.435087 0.544983
vt 0.532456 0.963773
vt 0.467544 0.889470
vt 0.435087 0.889470
vt 0.032456 0.559167
vt 0.402631 0.506220
vt 0.435087 0.504090
vt 0.467544 0.508667
vt 0.402631 0.509830
vt 0.370175 0.509830
vt 0.370175 0.566488
vt 0.402631 0.566488
vt 0.435087 0.692640
vt 0.500000 0.513502
vt 0.500000 0.537415
vt 0.500000 0.874878
vt 0.337718 0.504090
vt 0.370175 0.560852
vt 0.500000 0.900325
vt 0.532456 0.504090
vt 0.564913 0.508956
vt 0.532456 0.508956
vt 0.532456 0.509028
vt 0.532456 0.532878
vt 0.467544 0.531681
vt 0.532456 0.944919
vt 0.370175 0.564432
vt 0.467544 0.895582
vt 0.564913 0.514286
vt 0.532456 0.538905
vt 0.467544 0.869717
vt -0.000000 0.510038
vt 0.032456 0.555823
vt 0.032456 0.506374
vt 0.564913 0.715895
vt 0.532456 0.715895
vt 0.032456 0.510038
vt -0.000000 0.275265
vt -0.000000 0.228825
vt 0.000064 0.227869
vt 0.000250 0.226952
vt 0.000551 0.226084
vt 0.000957 0.225271
vt 0.001461 0.224524
vt 0.002055 0.223849
vt 0.002729 0.223256
vt 0.003477 0.222752
vt 0.004289 0.222345
vt 0.005157 0.222045
vt 0.006073 0.221858
vt 0.007030 0.221794
vt 0.063816 0.221794
vt 0.063816 0.049009
vt 0.064262 0.042341
vt 0.065561 0.035951
vt 0.067655 0.029896
vt 0.070487 0.024235
vt 0.074000 0.019025
vt 0.078136 0.014322
vt 0.082837 0.010186
vt 0.088047 0.006672
vt 0.093707 0.003839
vt 0.099760 0.001745
vt 0.106149 0.000446
vt 0.112816 -0.000000
vt 0.119470 -0.000000
vt 0.444346 -0.000000
vt 0.451001 -0.000000
vt 0.457667 0.000446
vt 0.000551 0.278007
vt 0.000250 0.277138
vt 0.001461 0.279566
vt 0.000957 0.278819
vt 0.002729 0.280835
vt 0.002055 0.280241
vt 0.004289 0.281745
vt 0.003477 0.281339
vt 0.006073 0.282232
vt 0.005157 0.282046
vt 0.007030 0.282296
vt 0.064262 0.461742
vt 0.063816 0.455074
vt 0.067655 0.474187
vt 0.065561 0.468132
vt 0.074000 0.485061
vt 0.070487 0.479849
vt 0.082837 0.493902
vt 0.078136 0.489764
vt 0.093707 0.500250
vt 0.088047 0.497416
vt 0.106149 0.503644
vt 0.099760 0.502345
vt 0.119470 0.504090
vt 0.112816 0.504090
vt 0.457667 0.503644
vt 0.451001 0.504090
vt 0.444346 0.504090
vt 0.470109 0.003839
vt 0.475769 0.006672
vt 0.480979 0.010186
vt 0.485680 0.014322
vt 0.489816 0.019025
vt 0.493329 0.024235
vt 0.496161 0.029896
vt 0.498256 0.035951
vt 0.499554 0.042341
vt 0.500000 0.049009
vt 0.500000 0.455074
vt 0.499554 0.461742
vt 0.498256 0.468132
vt 0.496161 0.474187
vt 0.493329 0.479849
vt 0.489816 0.485061
vt 0.485680 0.489764
vt 0.480979 0.493902
vt 0.475769 0.497416
vt 0.470109 0.500250
vt 0.464056 0.502345
vt 0.500064 0.276222
vt 0.500000 0.275265
vt 0.500000 0.228825
vt 0.500064 0.227869
vt 0.500250 0.226952
vt 0.500551 0.226084
vt 0.500957 0.225271
vt 0.501461 0.224524
vt 0.502055 0.223849
vt 0.502729 0.223256
vt 0.503477 0.222752
vt 0.504289 0.222345
vt 0.505157 0.222045
vt 0.506073 0.221858
vt 0.507030 0.221794
vt 0.563816 0.049017
vt 0.564262 0.042348
vt 0.500551 0.278007
vt 0.500250 0.277138
vt 0.501461 0.279566
vt 0.500957 0.278819
vt 0.502729 0.280835
vt 0.502055 0.280241
vt 0.504289 0.281745
vt 0.503477 0.281339
vt 0.506073 0.282232
vt 0.505157 0.282046
vt 0.563816 0.282296
vt 0.507030 0.282296
vt 0.564262 0.461750
vt 0.563816 0.455081
vt 0.567655 0.474194
vt 0.565561 0.468140
vt 0.574000 0.485066
vt 0.570487 0.479855
vt 0.582837 0.493905
vt 0.578136 0.489768
vt 0.593707 0.500251
vt 0.588047 0.497418
vt 0.606149 0.503645
vt 0.599760 0.502346
vt 0.619470 0.504090
vt 0.612816 0.504090
vt 0.957667 0.503645
vt 0.951001 0.504090
vt 0.944346 0.504090
vt 0.565561 0.035958
vt 0.567655 0.029903
vt 0.570487 0.024241
vt 0.574000 0.019030
vt 0.578136 0.014326
vt 0.582837 0.010189
vt 0.588047 0.006674
vt 0.593707 0.003841
vt 0.599760 0.001745
vt 0.606149 0.000446
vt 0.612816 0.000000
vt 0.619470 0.000000
vt 0.944346 0.000000
vt 0.951001 0.000000
vt 0.957667 0.000446
vt 0.964056 0.001745
vt 0.970109 0.003841
vt 0.975769 0.006674
vt 0.980979 0.010189
vt 0.989816 0.019030
vt 0.993329 0.024241
vt 0.996161 0.029903
vt 0.998256 0.035958
vt 0.999554 0.042348
vt 1.000000 0.049017
vt 1.000000 0.455081
vt 0.999554 0.461750
vt 0.998256 0.468140
vt 0.996161 0.474194
vt 0.993329 0.479855
vt 0.989816 0.485066
vt 0.985680 0.489768
vt 0.980979 0.493905
vt 0.975769 0.497418
vt 0.964056 0.502346
vt 0.435087 0.504090
vt 0.032456 0.504090
vt 0.500000 0.504090
vt 0.467544 0.504090
vt 0.370175 0.504090
vt 0.564913 0.504090
vt 0.500000 0.504090
s 0
usemtl Tile
f 32/1/1 71/2/1 83/3/1
f 155/4/2 133/5/2 117/6/2
f 1/7/3 86/8/3 2/9/3
f 5/10/4 90/11/4 6/12/4
f 9/13/5 94/14/5 10/15/5
f 14/16/6 99/17/6 15/18/6
f 18/19/7 103/20/7 19/21/7
f 22/22/8 107/23/8 23/24/8
f 26/25/9 111/26/9 27/27/9
f 29/28/10 114/29/10 30/30/10
f 33/31/11 118/32/11 34/33/11
f 37/34/12 122/35/12 38/36/12
f 41/37/13 126/38/13 42/39/13
f 46/40/14 131/41/14 47/42/14
f 50/43/15 135/44/15 51/45/15
f 54/46/16 139/47/16 55/48/16
f 70/49/17 153/50/17 154/51/17
f 74/52/18 159/53/18 75/54/18
f 78/55/19 163/56/19 79/57/19
f 82/58/20 167/59/20 83/60/20
f 43/61/21 128/62/21 44/63/21
f 47/42/22 132/64/22 48/65/22
f 57/66/23 142/67/23 58/68/23
f 3/69/24 86/8/24 87/70/24
f 6/71/25 91/72/25 7/73/25
f 10/15/26 95/74/26 11/75/26
f 15/18/3 100/76/3 16/77/3
f 61/78/27 146/79/27 62/80/27
f 19/21/28 104/81/28 20/82/28
f 23/24/5 108/83/5 24/84/5
f 51/45/29 136/85/29 52/86/29
f 27/27/10 112/87/10 28/88/10
f 68/89/30 151/90/30 152/91/30
f 34/33/31 119/92/31 35/93/31
f 38/36/32 123/94/32 39/95/32
f 73/96/33 158/97/33 74/52/33
f 65/98/34 150/99/34 66/100/34
f 58/68/35 143/101/35 59/102/35
f 62/80/36 147/103/36 63/104/36
f 66/100/37 151/90/37 67/105/37
f 77/106/38 162/107/38 78/55/38
f 30/30/39 115/108/39 31/109/39
f 81/110/40 166/111/40 82/58/40
f 3/69/41 88/112/41 4/113/41
f 7/73/42 92/114/42 8/115/42
f 11/75/43 96/116/43 12/117/43
f 16/77/24 101/118/24 17/119/24
f 20/120/44 105/121/44 21/122/44
f 24/84/45 109/123/45 25/124/45
f 31/109/46 116/125/46 32/126/46
f 35/93/47 120/127/47 36/128/47
f 39/95/48 124/129/48 40/130/48
f 44/63/49 129/131/49 45/132/49
f 48/65/50 133/133/50 49/134/50
f 52/86/51 137/135/51 53/136/51
f 72/137/35 157/138/35 73/96/35
f 76/139/52 161/140/52 77/141/52
f 80/142/53 165/143/53 81/110/53
f 55/48/23 140/144/23 56/145/23
f 45/132/54 130/146/54 46/40/54
f 59/102/33 144/147/33 60/148/33
f 4/113/55 89/149/55 5/10/55
f 8/115/56 93/150/56 9/13/56
f 49/151/57 134/152/57 50/43/57
f 12/117/9 97/153/9 13/154/9
f 14/155/10 97/153/10 98/156/10
f 17/119/58 102/157/58 18/19/58
f 21/122/42 106/158/42 22/22/42
f 25/124/59 110/159/59 26/25/59
f 28/88/10 113/160/10 29/28/10
f 71/161/23 156/162/23 72/137/23
f 32/126/60 117/163/60 33/31/60
f 63/164/61 148/165/61 64/166/61
f 37/34/62 120/164/62 121/167/62
f 40/130/63 125/168/63 41/37/63
f 53/136/64 138/169/64 54/46/64
f 42/39/65 127/170/65 43/61/65
f 75/54/66 160/171/66 76/139/66
f 60/148/18 145/172/18 61/78/18
f 64/166/67 149/173/67 65/98/67
f 68/89/20 153/50/20 69/174/20
f 56/145/23 141/175/23 57/66/23
f 84/176/6 85/177/6 1/7/6
f 80/142/68 163/56/68 164/178/68
f 70/49/6 155/179/6 71/180/6
f 83/60/17 168/181/17 84/176/17
f 84/182/1 1/183/1 2/184/1
f 2/184/1 3/185/1 4/186/1
f 4/186/1 5/187/1 6/188/1
f 6/188/1 7/189/1 8/190/1
f 8/190/1 9/191/1 10/192/1
f 10/192/1 11/193/1 12/194/1
f 12/194/1 13/195/1 14/196/1
f 14/196/1 15/197/1 16/198/1
f 16/198/1 17/199/1 18/200/1
f 18/200/1 19/201/1 20/202/1
f 20/202/1 21/203/1 22/204/1
f 22/204/1 23/205/1 24/206/1
f 24/206/1 25/207/1 26/208/1
f 26/208/1 27/209/1 28/210/1
f 29/211/1 30/212/1 31/213/1
f 26/208/1 28/210/1 29/211/1
f 22/204/1 24/206/1 26/208/1
f 18/200/1 20/202/1 22/204/1
f 14/196/1 16/198/1 18/200/1
f 10/192/1 12/194/1 14/196/1
f 6/188/1 8/190/1 10/192/1
f 2/184/1 4/186/1 6/188/1
f 83/3/1 84/182/1 2/184/1
f 81/214/1 82/215/1 83/3/1
f 79/216/1 80/217/1 81/214/1
f 77/218/1 78/219/1 79/216/1
f 75/220/1 76/221/1 77/218/1
f 73/222/1 74/223/1 75/220/1
f 71/2/1 72/224/1 73/222/1
f 69/225/1 70/226/1 71/2/1
f 67/227/1 68/228/1 69/225/1
f 65/229/1 66/230/1 67/227/1
f 63/231/1 64/232/1 65/229/1
f 61/233/1 62/234/1 63/231/1
f 59/235/1 60/236/1 61/233/1
f 57/237/1 58/238/1 59/235/1
f 54/239/1 55/240/1 56/241/1
f 56/241/1 57/237/1 59/235/1
f 59/235/1 61/233/1 63/231/1
f 63/231/1 65/229/1 67/227/1
f 67/227/1 69/225/1 71/2/1
f 71/2/1 73/222/1 75/220/1
f 75/220/1 77/218/1 79/216/1
f 79/216/1 81/214/1 83/3/1
f 83/3/1 2/184/1 6/188/1
f 6/188/1 10/192/1 14/196/1
f 14/196/1 18/200/1 22/204/1
f 22/204/1 26/208/1 29/211/1
f 29/211/1 31/213/1 32/1/1
f 32/1/1 33/242/1 34/243/1
f 34/243/1 35/244/1 36/245/1
f 36/245/1 37/246/1 38/247/1
f 38/247/1 39/248/1 40/249/1
f 40/249/1 41/250/1 42/251/1
f 42/251/1 43/252/1 44/253/1
f 44/253/1 45/254/1 46/255/1
f 46/255/1 47/256/1 48/257/1
f 48/257/1 49/258/1 50/259/1
f 50/259/1 51/260/1 52/261/1
f 52/261/1 53/262/1 54/239/1
f 54/239/1 56/241/1 59/235/1
f 59/235/1 63/231/1 67/227/1
f 71/2/1 75/220/1 79/216/1
f 59/235/1 67/227/1 71/2/1
f 52/261/1 54/239/1 59/235/1
f 48/257/1 50/259/1 52/261/1
f 44/253/1 46/255/1 48/257/1
f 40/249/1 42/251/1 44/253/1
f 36/245/1 38/247/1 40/249/1
f 32/1/1 34/243/1 36/245/1
f 22/204/1 29/211/1 32/1/1
f 83/3/1 6/188/1 14/196/1
f 14/196/1 22/204/1 32/1/1
f 32/1/1 36/245/1 40/249/1
f 40/249/1 44/253/1 48/257/1
f 48/257/1 52/261/1 59/235/1
f 71/2/1 79/216/1 83/3/1
f 48/257/1 59/235/1 71/2/1
f 32/1/1 40/249/1 48/257/1
f 83/3/1 14/196/1 32/1/1
f 32/1/1 48/257/1 71/2/1
f 86/263/2 85/264/2 168/265/2
f 168/265/2 167/266/2 166/267/2
f 166/267/2 165/268/2 164/269/2
f 164/269/2 163/270/2 162/271/2
f 162/271/2 161/272/2 160/273/2
f 160/273/2 159/274/2 158/275/2
f 158/275/2 157/276/2 156/277/2
f 155/4/2 154/278/2 153/279/2
f 158/275/2 156/277/2 155/4/2
f 162/271/2 160/273/2 158/275/2
f 166/267/2 164/269/2 162/271/2
f 86/263/2 168/265/2 166/267/2
f 88/280/2 87/281/2 86/263/2
f 90/282/2 89/283/2 88/280/2
f 92/284/2 91/285/2 90/282/2
f 94/286/2 93/287/2 92/284/2
f 96/288/2 95/289/2 94/286/2
f 98/290/69 97/291/69 96/288/69
f 100/292/2 99/293/2 98/290/2
f 102/294/2 101/295/2 100/292/2
f 104/296/2 103/297/2 102/294/2
f 106/298/2 105/299/2 104/296/2
f 108/300/2 107/301/2 106/298/2
f 110/302/2 109/303/2 108/300/2
f 112/304/2 111/305/2 110/302/2
f 115/306/2 114/307/2 113/308/2
f 113/308/2 112/304/2 110/302/2
f 110/302/2 108/300/2 106/298/2
f 106/298/2 104/296/2 102/294/2
f 102/294/2 100/292/2 98/290/2
f 98/290/2 96/288/2 94/286/2
f 94/286/2 92/284/2 90/282/2
f 90/282/2 88/280/2 86/263/2
f 86/263/2 166/267/2 162/271/2
f 162/271/2 158/275/2 155/4/2
f 155/4/2 153/279/2 152/309/2
f 152/309/2 151/310/2 150/311/2
f 150/311/2 149/312/2 148/313/2
f 148/313/2 147/314/2 146/315/2
f 146/315/2 145/316/2 144/317/2
f 144/317/2 143/318/2 142/319/2
f 144/317/2 142/319/2 141/320/2
f 148/313/2 146/315/2 144/317/2
f 152/309/2 150/311/2 148/313/2
f 86/263/2 162/271/2 155/4/2
f 155/4/2 152/309/2 148/313/2
f 148/313/2 144/317/2 141/320/2
f 140/321/2 139/322/2 138/323/2
f 148/313/2 141/320/2 140/321/2
f 90/282/2 86/263/2 155/4/2
f 155/4/2 148/313/2 140/321/2
f 140/321/2 138/323/2 137/324/2
f 137/324/2 136/325/2 135/326/2
f 135/326/2 134/327/2 133/5/2
f 133/5/2 132/328/2 131/329/2
f 131/329/2 130/330/2 129/331/2
f 129/331/2 128/332/2 127/333/2
f 127/333/2 126/334/2 125/335/2
f 125/335/2 124/336/2 123/337/2
f 123/337/2 122/338/2 121/339/2
f 121/339/2 120/340/2 119/341/2
f 119/341/2 118/342/2 117/6/2
f 117/6/2 116/343/2 115/306/2
f 115/306/2 113/308/2 110/302/2
f 110/302/2 106/298/2 102/294/2
f 98/290/2 94/286/2 90/282/2
f 110/302/2 102/294/2 98/290/2
f 117/6/2 115/306/2 110/302/2
f 121/339/2 119/341/2 117/6/2
f 125/335/2 123/337/2 121/339/2
f 129/331/2 127/333/2 125/335/2
f 133/5/2 131/329/2 129/331/2
f 137/324/2 135/326/2 133/5/2
f 155/4/2 140/321/2 137/324/2
f 98/290/2 90/282/2 155/4/2
f 117/6/2 110/302/2 98/290/2
f 125/335/2 121/339/2 117/6/2
f 133/5/2 129/331/2 125/335/2
f 155/4/2 137/324/2 133/5/2
f 117/6/2 98/290/2 155/4/2
f 133/5/2 125/335/2 117/6/2
f 1/7/3 85/177/3 86/8/3
f 5/10/4 89/149/4 90/11/4
f 9/13/5 93/150/5 94/14/5
f 14/16/6 98/344/6 99/17/6
f 18/19/7 102/157/7 103/20/7
f 22/22/8 106/158/8 107/23/8
f 26/25/9 110/159/9 111/26/9
f 29/28/10 113/160/10 114/29/10
f 33/31/70 117/163/70 118/32/70
f 37/34/12 121/167/12 122/35/12
f 41/37/13 125/168/13 126/38/13
f 46/40/14 130/146/14 131/41/14
f 50/43/15 134/152/15 135/44/15
f 54/46/16 138/169/16 139/47/16
f 70/49/17 69/174/17 153/50/17
f 74/52/18 158/97/18 159/53/18
f 78/55/19 162/107/19 163/56/19
f 82/58/20 166/111/20 167/59/20
f 43/61/21 127/170/21 128/62/21
f 47/42/22 131/41/22 132/64/22
f 57/66/23 141/175/23 142/67/23
f 3/69/24 2/9/24 86/8/24
f 6/71/25 90/16/25 91/72/25
f 10/15/26 94/14/26 95/74/26
f 15/18/3 99/17/3 100/76/3
f 61/78/27 145/172/27 146/79/27
f 19/21/28 103/20/28 104/81/28
f 23/24/71 107/23/71 108/83/71
f 51/45/29 135/44/29 136/85/29
f 27/27/10 111/26/10 112/87/10
f 68/89/30 67/105/30 151/90/30
f 34/33/31 118/32/31 119/92/31
f 38/36/32 122/35/32 123/94/32
f 73/96/33 157/138/33 158/97/33
f 65/98/34 149/173/34 150/99/34
f 58/68/35 142/67/35 143/101/35
f 62/80/36 146/79/36 147/103/36
f 66/100/37 150/99/37 151/90/37
f 77/106/38 161/345/38 162/107/38
f 30/30/39 114/29/39 115/108/39
f 81/110/40 165/143/40 166/111/40
f 3/69/41 87/70/41 88/112/41
f 7/73/42 91/72/42 92/114/42
f 11/75/43 95/74/43 96/116/43
f 16/77/24 100/76/24 101/118/24
f 20/120/44 104/346/44 105/121/44
f 24/84/45 108/83/45 109/123/45
f 31/109/72 115/108/72 116/125/72
f 35/93/47 119/92/47 120/127/47
f 39/95/48 123/94/48 124/129/48
f 44/63/49 128/62/49 129/131/49
f 48/65/50 132/64/50 133/133/50
f 52/86/51 136/85/51 137/135/51
f 72/137/35 156/162/35 157/138/35
f 76/139/52 160/171/52 161/140/52
f 80/142/53 164/178/53 165/143/53
f 55/48/23 139/47/23 140/144/23
f 45/132/54 129/131/54 130/146/54
f 59/102/33 143/101/33 144/147/33
f 4/113/55 88/112/55 89/149/55
f 8/115/56 92/114/56 93/150/56
f 49/151/57 133/347/57 134/152/57
f 12/117/9 96/116/9 97/153/9
f 14/155/10 13/154/10 97/153/10
f 17/119/58 101/118/58 102/157/58
f 21/122/42 105/121/42 106/158/42
f 25/124/73 109/123/73 110/159/73
f 28/88/10 112/87/10 113/160/10
f 71/161/23 155/348/23 156/162/23
f 32/126/60 116/125/60 117/163/60
f 63/164/61 147/349/61 148/165/61
f 37/34/62 36/350/62 120/164/62
f 40/130/63 124/129/63 125/168/63
f 53/136/64 137/135/64 138/169/64
f 42/39/65 126/38/65 127/170/65
f 75/54/66 159/53/66 160/171/66
f 60/148/18 144/147/18 145/172/18
f 64/166/67 148/165/67 149/173/67
f 68/89/20 152/91/20 153/50/20
f 56/145/23 140/144/23 141/175/23
f 84/176/6 168/181/6 85/177/6
f 80/142/68 79/57/68 163/56/68
f 70/49/6 154/51/6 155/179/6
f 83/60/17 167/59/17 168/181/17
