# 3ds Max Wavefront OBJ Exporter v0.97b - (c)2007 guruware
# File Created: 13.06.2015 17:24:02

mtllib token.mtl

#
# object Cylinder001
#

v  0.0000 0.0000 -0.0000
v  0.4685 0.0000 -0.1203
v  0.4837 0.0000 -0.0000
v  0.4238 0.0000 -0.2330
v  0.3526 0.0000 -0.3311
v  0.2592 0.0000 -0.4084
v  0.1495 0.0000 -0.4600
v  0.0304 0.0000 -0.4827
v  -0.0906 0.0000 -0.4751
v  -0.2059 0.0000 -0.4376
v  -0.3083 0.0000 -0.3727
v  -0.3913 0.0000 -0.2843
v  -0.4497 0.0000 -0.1781
v  -0.4799 0.0000 -0.0606
v  -0.4799 0.0000 0.0606
v  -0.4497 0.0000 0.1781
v  -0.3913 0.0000 0.2843
v  -0.3083 0.0000 0.3727
v  -0.2059 0.0000 0.4376
v  -0.0906 0.0000 0.4751
v  0.0304 0.0000 0.4827
v  0.1495 0.0000 0.4600
v  0.2592 0.0000 0.4084
v  0.3526 0.0000 0.3311
v  0.4238 0.0000 0.2330
v  0.4685 0.0000 0.1203
v  0.4685 0.0562 -0.1203
v  0.4837 0.0562 -0.0000
v  0.4238 0.0562 -0.2330
v  0.3526 0.0562 -0.3311
v  0.2592 0.0562 -0.4084
v  0.1495 0.0562 -0.4600
v  0.0304 0.0562 -0.4827
v  -0.0906 0.0562 -0.4751
v  -0.2059 0.0562 -0.4376
v  -0.3083 0.0562 -0.3727
v  -0.3913 0.0562 -0.2843
v  -0.4497 0.0562 -0.1781
v  -0.4799 0.0562 -0.0606
v  -0.4799 0.0562 0.0606
v  -0.4497 0.0562 0.1781
v  -0.3913 0.0562 0.2843
v  -0.3083 0.0562 0.3727
v  -0.2059 0.0562 0.4376
v  -0.0906 0.0562 0.4751
v  0.0304 0.0562 0.4827
v  0.1495 0.0562 0.4600
v  0.2592 0.0562 0.4084
v  0.3526 0.0562 0.3311
v  0.4238 0.0562 0.2330
v  0.4685 0.0562 0.1203
v  0.0000 0.0562 -0.0000
# 52 vertices

vn 0.0000 -1.0000 -0.0000
vn 1.0000 0.0000 -0.0000
vn 0.9686 0.0000 -0.2487
vn 0.8763 0.0000 -0.4818
vn 0.7290 0.0000 -0.6845
vn 0.5358 0.0000 -0.8443
vn 0.3090 0.0000 -0.9511
vn 0.0628 0.0000 -0.9980
vn -0.1874 0.0000 -0.9823
vn -0.4258 0.0000 -0.9048
vn -0.6374 0.0000 -0.7705
vn -0.8090 0.0000 -0.5878
vn -0.9298 0.0000 -0.3681
vn -0.9921 0.0000 -0.1253
vn -0.9921 0.0000 0.1253
vn -0.9298 0.0000 0.3681
vn -0.8090 0.0000 0.5878
vn -0.6374 0.0000 0.7705
vn -0.4258 0.0000 0.9048
vn -0.1874 0.0000 0.9823
vn 0.0628 0.0000 0.9980
vn 0.3090 0.0000 0.9511
vn 0.5358 0.0000 0.8443
vn 0.7290 0.0000 0.6845
vn 0.8763 0.0000 0.4818
vn 0.9686 0.0000 0.2487
vn 0.0000 1.0000 -0.0000
# 27 vertex normals

vt 0.4920 0.2264 0.5000
vt 0.6960 0.2786 0.5000
vt 0.7026 0.2264 0.5000
vt 0.6765 0.3276 0.5000
vt 0.6455 0.3702 0.5000
vt 0.6049 0.4038 0.5000
vt 0.5571 0.4262 0.5000
vt 0.5053 0.4361 0.5000
vt 0.4526 0.4328 0.5000
vt 0.4024 0.4165 0.5000
vt 0.3578 0.3883 0.5000
vt 0.3217 0.3499 0.5000
vt 0.2963 0.3037 0.5000
vt 0.2832 0.2527 0.5000
vt 0.2832 0.2001 0.5000
vt 0.2963 0.1490 0.5000
vt 0.3217 0.1029 0.5000
vt 0.3578 0.0645 0.5000
vt 0.4024 0.0363 0.5000
vt 0.4526 0.0200 0.5000
vt 0.5053 0.0167 0.5000
vt 0.5571 0.0266 0.5000
vt 0.6049 0.0490 0.5000
vt 0.6455 0.0826 0.5000
vt 0.6765 0.1252 0.5000
vt 0.6960 0.1741 0.5000
vt 0.8014 0.5384 0.0000
vt 0.7463 0.5159 0.0000
vt 0.8002 0.5135 0.0000
vt 0.7475 0.5409 0.0000
vt 0.6924 0.5184 0.0000
vt 0.6936 0.5434 0.4768
vt 0.6386 0.5209 0.0000
vt 0.6397 0.5459 0.0000
vt 0.5847 0.5234 0.0000
vt 0.5858 0.5483 0.0000
vt 0.5308 0.5259 0.0000
vt 0.5319 0.5508 0.0000
vt 0.4769 0.5284 0.0000
vt 0.4781 0.5533 0.0000
vt 0.4230 0.5308 0.0000
vt 0.4242 0.5558 0.0000
vt 0.3691 0.5333 0.0000
vt 0.3703 0.5583 0.0000
vt 0.3152 0.5358 0.0000
vt 0.3164 0.5608 0.0000
vt 0.2614 0.5383 1.4303
vt 0.2625 0.5633 0.0000
vt 0.2075 0.5408 0.0000
vt 0.2086 0.5658 0.0000
vt 0.1536 0.5433 0.0000
vt 0.1547 0.5683 0.0000
vt 0.1238 0.4347 0.0000
vt 0.1760 0.4629 0.0000
vt 0.1222 0.4596 0.0000
vt 0.1776 0.4380 0.0000
vt 0.2299 0.4663 1.5769
vt 0.2314 0.4413 0.0000
vt 0.2837 0.4696 0.0000
vt 0.2853 0.4446 0.0000
vt 0.3376 0.4729 0.0000
vt 0.3391 0.4480 0.0000
vt 0.3914 0.4762 0.0000
vt 0.3929 0.4513 0.0000
vt 0.4452 0.4796 0.0000
vt 0.4468 0.4546 0.0000
vt 0.4991 0.4829 0.0000
vt 0.5006 0.4580 0.0000
vt 0.5529 0.4862 0.0000
vt 0.5545 0.4613 0.0000
vt 0.6068 0.4895 0.0000
vt 0.6083 0.4646 0.0000
vt 0.6606 0.4929 0.0000
vt 0.6621 0.4679 0.0000
vt 0.7144 0.4962 0.0000
vt 0.7160 0.4713 0.5256
vt 0.7683 0.4995 0.0000
vt 0.7698 0.4746 0.0000
vt 0.8221 0.5028 0.0000
vt 0.8237 0.4779 0.0000
vt 0.4915 0.7800 1.5000
vt 0.7005 0.7800 1.5000
vt 0.6939 0.8322 1.5000
vt 0.6745 0.8812 1.5000
vt 0.6435 0.9238 1.5000
vt 0.6028 0.9574 1.5000
vt 0.5551 0.9798 1.5000
vt 0.5032 0.9897 1.5000
vt 0.4505 0.9864 1.5000
vt 0.4004 0.9701 1.5000
vt 0.3558 0.9419 1.5000
vt 0.3197 0.9035 1.5000
vt 0.2942 0.8573 1.5000
vt 0.2811 0.8063 1.5000
vt 0.2811 0.7536 1.5000
vt 0.2942 0.7026 1.5000
vt 0.3197 0.6565 1.5000
vt 0.3558 0.6181 1.5000
vt 0.4004 0.5898 1.5000
vt 0.4505 0.5736 1.5000
vt 0.5032 0.5703 1.5000
vt 0.5551 0.5801 1.5000
vt 0.6043 0.6026 1.5000
vt 0.6449 0.6361 1.5000
vt 0.6745 0.6787 1.5000
vt 0.6939 0.7277 1.5000
# 106 texture coords

g Cylinder001
usemtl Material__26
s 1
f 1/1/1 2/2/1 3/3/1 
f 1/1/1 4/4/1 2/2/1 
f 1/1/1 5/5/1 4/4/1 
f 1/1/1 6/6/1 5/5/1 
f 1/1/1 7/7/1 6/6/1 
f 1/1/1 8/8/1 7/7/1 
f 1/1/1 9/9/1 8/8/1 
f 1/1/1 10/10/1 9/9/1 
f 1/1/1 11/11/1 10/10/1 
f 1/1/1 12/12/1 11/11/1 
f 1/1/1 13/13/1 12/12/1 
f 1/1/1 14/14/1 13/13/1 
f 1/1/1 15/15/1 14/14/1 
f 1/1/1 16/16/1 15/15/1 
f 1/1/1 17/17/1 16/16/1 
f 1/1/1 18/18/1 17/17/1 
f 1/1/1 19/19/1 18/18/1 
f 1/1/1 20/20/1 19/19/1 
f 1/1/1 21/21/1 20/20/1 
f 1/1/1 22/22/1 21/21/1 
f 1/1/1 23/23/1 22/22/1 
f 1/1/1 24/24/1 23/23/1 
f 1/1/1 25/25/1 24/24/1 
f 1/1/1 26/26/1 25/25/1 
f 1/1/1 3/3/1 26/26/1 
s 8
f 3/27/2 27/28/3 28/29/2 
f 3/27/2 2/30/3 27/28/3 
f 2/30/3 29/31/4 27/28/3 
f 2/30/3 4/32/4 29/31/4 
f 4/32/4 30/33/5 29/31/4 
f 4/32/4 5/34/5 30/33/5 
f 5/34/5 31/35/6 30/33/5 
f 5/34/5 6/36/6 31/35/6 
f 6/36/6 32/37/7 31/35/6 
f 6/36/6 7/38/7 32/37/7 
f 7/38/7 33/39/8 32/37/7 
f 7/38/7 8/40/8 33/39/8 
f 8/40/8 34/41/9 33/39/8 
f 8/40/8 9/42/9 34/41/9 
f 9/42/9 35/43/10 34/41/9 
f 9/42/9 10/44/10 35/43/10 
f 10/44/10 36/45/11 35/43/10 
f 10/44/10 11/46/11 36/45/11 
f 11/46/11 37/47/12 36/45/11 
f 11/46/11 12/48/12 37/47/12 
f 12/48/12 38/49/13 37/47/12 
f 12/48/12 13/50/13 38/49/13 
f 13/50/13 39/51/14 38/49/13 
f 13/50/13 14/52/14 39/51/14 
f 14/53/14 40/54/15 39/55/14 
f 14/53/14 15/56/15 40/54/15 
f 15/56/15 41/57/16 40/54/15 
f 15/56/15 16/58/16 41/57/16 
f 16/58/16 42/59/17 41/57/16 
f 16/58/16 17/60/17 42/59/17 
f 17/60/17 43/61/18 42/59/17 
f 17/60/17 18/62/18 43/61/18 
f 18/62/18 44/63/19 43/61/18 
f 18/62/18 19/64/19 44/63/19 
f 19/64/19 45/65/20 44/63/19 
f 19/64/19 20/66/20 45/65/20 
f 20/66/20 46/67/21 45/65/20 
f 20/66/20 21/68/21 46/67/21 
f 21/68/21 47/69/22 46/67/21 
f 21/68/21 22/70/22 47/69/22 
f 22/70/22 48/71/23 47/69/22 
f 22/70/22 23/72/23 48/71/23 
f 23/72/23 49/73/24 48/71/23 
f 23/72/23 24/74/24 49/73/24 
f 24/74/24 50/75/25 49/73/24 
f 24/74/24 25/76/25 50/75/25 
f 25/76/25 51/77/26 50/75/25 
f 25/76/25 26/78/26 51/77/26 
f 26/78/26 28/79/2 51/77/26 
f 26/78/26 3/80/2 28/79/2 
s 1
f 52/81/27 28/82/27 27/83/27 
f 52/81/27 27/83/27 29/84/27 
f 52/81/27 29/84/27 30/85/27 
f 52/81/27 30/85/27 31/86/27 
f 52/81/27 31/86/27 32/87/27 
f 52/81/27 32/87/27 33/88/27 
f 52/81/27 33/88/27 34/89/27 
f 52/81/27 34/89/27 35/90/27 
f 52/81/27 35/90/27 36/91/27 
f 52/81/27 36/91/27 37/92/27 
f 52/81/27 37/92/27 38/93/27 
f 52/81/27 38/93/27 39/94/27 
f 52/81/27 39/94/27 40/95/27 
f 52/81/27 40/95/27 41/96/27 
f 52/81/27 41/96/27 42/97/27 
f 52/81/27 42/97/27 43/98/27 
f 52/81/27 43/98/27 44/99/27 
f 52/81/27 44/99/27 45/100/27 
f 52/81/27 45/100/27 46/101/27 
f 52/81/27 46/101/27 47/102/27 
f 52/81/27 47/102/27 48/103/27 
f 52/81/27 48/103/27 49/104/27 
f 52/81/27 49/104/27 50/105/27 
f 52/81/27 50/105/27 51/106/27 
f 52/81/27 51/106/27 28/82/27 
# 0 polygons - 100 triangles

